<svg xmlns="http://www.w3.org/2000/svg" width="542.24" height="102.646" viewBox="0 0 542.24 102.646">
  <g id="Group_5" data-name="Group 5" transform="translate(-561 -130)">
    <g id="Group_3" data-name="Group 3" transform="translate(435.748 -1258.313)">
      <path id="Path_206" data-name="Path 206" d="M1.713-.821v-2.8a5.445,5.445,0,0,0,1.154.765,9.35,9.35,0,0,0,1.416.573,11.272,11.272,0,0,0,1.494.361A8.329,8.329,0,0,0,7.165-1.8a5.436,5.436,0,0,0,3.278-.814,2.754,2.754,0,0,0,1.083-2.344,2.752,2.752,0,0,0-.361-1.43,4.068,4.068,0,0,0-1-1.112,9.906,9.906,0,0,0-1.508-.963q-.871-.46-1.876-.97Q5.721-9.969,4.8-10.521a8.59,8.59,0,0,1-1.6-1.218,5.08,5.08,0,0,1-1.069-1.508,4.668,4.668,0,0,1-.389-1.975,4.645,4.645,0,0,1,.609-2.414,5.222,5.222,0,0,1,1.6-1.692,7.254,7.254,0,0,1,2.259-.991,10.342,10.342,0,0,1,2.584-.326,9.9,9.9,0,0,1,4.375.722v2.676a7.931,7.931,0,0,0-4.616-1.246A7.592,7.592,0,0,0,7-18.33a4.4,4.4,0,0,0-1.388.531,3.074,3.074,0,0,0-.991.949,2.518,2.518,0,0,0-.382,1.416,2.915,2.915,0,0,0,.29,1.345,3.3,3.3,0,0,0,.857,1.034,8.533,8.533,0,0,0,1.381.906q.814.439,1.876.963,1.09.538,2.067,1.133a9.45,9.45,0,0,1,1.713,1.317,5.852,5.852,0,0,1,1.168,1.6,4.5,4.5,0,0,1,.432,2.011,5.1,5.1,0,0,1-.588,2.542,4.823,4.823,0,0,1-1.59,1.691,6.926,6.926,0,0,1-2.3.942A12.6,12.6,0,0,1,6.8.34,11.194,11.194,0,0,1,5.607.262Q4.9.184,4.163.035A11.785,11.785,0,0,1,2.768-.333,4.34,4.34,0,0,1,1.713-.821ZM23.817.34a6.726,6.726,0,0,1-5.133-2.032A7.527,7.527,0,0,1,16.766-7.08a7.841,7.841,0,0,1,2-5.707,7.178,7.178,0,0,1,5.4-2.053,6.5,6.5,0,0,1,5.062,2A7.916,7.916,0,0,1,31.048-7.3a7.79,7.79,0,0,1-1.961,5.558A6.872,6.872,0,0,1,23.817.34Zm.17-13.226a4.417,4.417,0,0,0-3.54,1.522,6.252,6.252,0,0,0-1.3,4.2A5.912,5.912,0,0,0,20.461-3.1a4.476,4.476,0,0,0,3.526,1.487,4.245,4.245,0,0,0,3.462-1.458A6.329,6.329,0,0,0,28.66-7.222a6.438,6.438,0,0,0-1.211-4.191,4.227,4.227,0,0,0-3.462-1.473ZM37.071,0H34.749V-21.467h2.322ZM53.5,0H51.175V-2.294h-.057A4.769,4.769,0,0,1,46.644.34q-5.183,0-5.183-6.174V-14.5h2.308v8.3q0,4.588,3.512,4.588a3.553,3.553,0,0,0,2.8-1.253,4.8,4.8,0,0,0,1.1-3.278V-14.5H53.5ZM64.91-.142a4.477,4.477,0,0,1-2.167.453q-3.809,0-3.809-4.248v-8.581H56.442V-14.5h2.492v-3.54l2.322-.75v4.29H64.91v1.982H61.257v8.17a3.387,3.387,0,0,0,.5,2.082,1.978,1.978,0,0,0,1.643.623,2.441,2.441,0,0,0,1.515-.481Zm4.29-18.04a1.471,1.471,0,0,1-1.062-.425,1.434,1.434,0,0,1-.439-1.076,1.457,1.457,0,0,1,.439-1.083A1.459,1.459,0,0,1,69.2-21.2a1.5,1.5,0,0,1,1.083.432,1.445,1.445,0,0,1,.446,1.083,1.435,1.435,0,0,1-.446,1.062,1.487,1.487,0,0,1-1.083.441ZM70.333,0H68.011V-14.5h2.322ZM81.1.34a6.726,6.726,0,0,1-5.133-2.032A7.527,7.527,0,0,1,74.043-7.08a7.841,7.841,0,0,1,2-5.707,7.178,7.178,0,0,1,5.4-2.053,6.5,6.5,0,0,1,5.062,2A7.917,7.917,0,0,1,88.325-7.3a7.79,7.79,0,0,1-1.961,5.558A6.872,6.872,0,0,1,81.1.34Zm.17-13.226a4.417,4.417,0,0,0-3.54,1.522,6.252,6.252,0,0,0-1.3,4.2A5.912,5.912,0,0,0,77.739-3.1a4.476,4.476,0,0,0,3.526,1.487,4.245,4.245,0,0,0,3.462-1.458A6.329,6.329,0,0,0,85.938-7.22a6.438,6.438,0,0,0-1.211-4.191,4.227,4.227,0,0,0-3.462-1.475ZM104.063,0h-2.322V-8.27q0-4.616-3.37-4.616a3.656,3.656,0,0,0-2.882,1.31,4.855,4.855,0,0,0-1.14,3.306V0H92.027V-14.5h2.322v2.407h.057a5.233,5.233,0,0,1,4.758-2.747A4.436,4.436,0,0,1,102.8-13.3a6.844,6.844,0,0,1,1.26,4.439Zm3.5-.524V-3.016a6.872,6.872,0,0,0,4.177,1.4q3.059,0,3.059-2.039a1.769,1.769,0,0,0-.262-.984,2.611,2.611,0,0,0-.708-.715,5.45,5.45,0,0,0-1.048-.559q-.6-.248-1.3-.517a16.689,16.689,0,0,1-1.692-.772,5.112,5.112,0,0,1-1.218-.878,3.267,3.267,0,0,1-.736-1.112,3.933,3.933,0,0,1-.248-1.458,3.465,3.465,0,0,1,.467-1.805,4.144,4.144,0,0,1,1.246-1.317,5.811,5.811,0,0,1,1.777-.8,7.883,7.883,0,0,1,2.06-.269,8.319,8.319,0,0,1,3.37.651v2.351a6.568,6.568,0,0,0-3.682-1.048,4.3,4.3,0,0,0-1.175.149,2.877,2.877,0,0,0-.9.418,1.93,1.93,0,0,0-.581.644,1.7,1.7,0,0,0-.2.828,1.987,1.987,0,0,0,.2.949,2.089,2.089,0,0,0,.6.68,4.6,4.6,0,0,0,.963.538q.566.241,1.289.524a17.934,17.934,0,0,1,1.728.758,5.925,5.925,0,0,1,1.3.878,3.43,3.43,0,0,1,.828,1.126,3.631,3.631,0,0,1,.29,1.515,3.572,3.572,0,0,1-.474,1.869,4.065,4.065,0,0,1-1.267,1.317A5.8,5.8,0,0,1,113.6.085,9.019,9.019,0,0,1,111.44.34a8.227,8.227,0,0,1-3.879-.864ZM129,0V-20.306h5.607q10.733,0,10.733,9.9a9.975,9.975,0,0,1-2.981,7.554A11.057,11.057,0,0,1,134.38,0Zm2.379-18.153v16h3.03a8.6,8.6,0,0,0,6.216-2.138,8.015,8.015,0,0,0,2.223-6.061q0-7.8-8.3-7.8Zm29.3,11.484H150.438a5.423,5.423,0,0,0,1.3,3.738,4.491,4.491,0,0,0,3.427,1.317,7.124,7.124,0,0,0,4.5-1.614v2.181A8.416,8.416,0,0,1,154.615.34a6.129,6.129,0,0,1-4.829-1.975,8.085,8.085,0,0,1-1.756-5.558,7.929,7.929,0,0,1,1.919-5.515,6.152,6.152,0,0,1,4.765-2.131,5.451,5.451,0,0,1,4.4,1.841,7.675,7.675,0,0,1,1.558,5.112ZM158.3-8.638a4.725,4.725,0,0,0-.97-3.129,3.3,3.3,0,0,0-2.655-1.119,3.751,3.751,0,0,0-2.79,1.175,5.334,5.334,0,0,0-1.416,3.073ZM166.509,0h-2.322V-21.467h2.322ZM172.4-18.182a1.471,1.471,0,0,1-1.062-.425,1.434,1.434,0,0,1-.439-1.076,1.457,1.457,0,0,1,.439-1.083A1.459,1.459,0,0,1,172.4-21.2a1.5,1.5,0,0,1,1.083.432,1.445,1.445,0,0,1,.446,1.083,1.435,1.435,0,0,1-.446,1.062,1.487,1.487,0,0,1-1.083.441ZM173.533,0H171.21V-14.5h2.322Zm16.1-14.5L183.855,0h-2.28l-5.494-14.5h2.549l3.682,10.535a9.457,9.457,0,0,1,.51,2.025h.057a9.576,9.576,0,0,1,.453-1.968L187.183-14.5Zm14.146,7.831H193.541a5.423,5.423,0,0,0,1.3,3.738,4.491,4.491,0,0,0,3.427,1.317,7.124,7.124,0,0,0,4.5-1.614v2.181A8.416,8.416,0,0,1,197.718.34a6.129,6.129,0,0,1-4.829-1.975,8.085,8.085,0,0,1-1.756-5.558,7.929,7.929,0,0,1,1.919-5.515,6.152,6.152,0,0,1,4.765-2.131,5.451,5.451,0,0,1,4.4,1.841,7.675,7.675,0,0,1,1.558,5.112ZM201.4-8.638a4.725,4.725,0,0,0-.97-3.129,3.3,3.3,0,0,0-2.655-1.119,3.751,3.751,0,0,0-2.79,1.175,5.334,5.334,0,0,0-1.416,3.073Zm13.452-3.512a2.84,2.84,0,0,0-1.756-.467,2.964,2.964,0,0,0-2.485,1.4,6.481,6.481,0,0,0-1,3.823V0h-2.322V-14.5h2.322v2.988h.057a5.063,5.063,0,0,1,1.515-2.386,3.455,3.455,0,0,1,2.28-.857,3.791,3.791,0,0,1,1.388.2Zm14.174,5.48H218.789a5.423,5.423,0,0,0,1.3,3.738,4.491,4.491,0,0,0,3.427,1.317,7.124,7.124,0,0,0,4.5-1.614v2.181A8.416,8.416,0,0,1,222.966.34a6.129,6.129,0,0,1-4.829-1.975,8.085,8.085,0,0,1-1.756-5.558,7.929,7.929,0,0,1,1.919-5.515,6.152,6.152,0,0,1,4.765-2.131,5.451,5.451,0,0,1,4.4,1.841,7.675,7.675,0,0,1,1.558,5.112Zm-2.379-1.968a4.725,4.725,0,0,0-.97-3.129,3.3,3.3,0,0,0-2.655-1.119,3.751,3.751,0,0,0-2.79,1.175,5.334,5.334,0,0,0-1.416,3.073ZM244.914,0h-2.322V-2.464h-.057a5.361,5.361,0,0,1-4.984,2.8,5.416,5.416,0,0,1-4.368-1.947,7.987,7.987,0,0,1-1.635-5.3,8.69,8.69,0,0,1,1.813-5.763,5.978,5.978,0,0,1,4.829-2.167,4.648,4.648,0,0,1,4.347,2.351h.057v-8.978h2.322Zm-2.322-6.556V-8.694a4.148,4.148,0,0,0-1.161-2.974,3.9,3.9,0,0,0-2.945-1.218,4.01,4.01,0,0,0-3.342,1.558,6.826,6.826,0,0,0-1.218,4.3,6.139,6.139,0,0,0,1.168,3.958,3.818,3.818,0,0,0,3.136,1.451,3.966,3.966,0,0,0,3.151-1.4A5.223,5.223,0,0,0,242.592-6.556Z" transform="translate(422.576 1489)"/>
      <path id="Path_209" data-name="Path 209" d="M0,0H18.676V1.921H0Z" transform="translate(401.375 1476.825)"/>
      <path id="Path_208" data-name="Path 208" d="M0,0H30.348V1.924H0Z" transform="translate(388.664 1482.822)"/>
      <path id="Path_207" data-name="Path 207" d="M0,0H20.563V1.923H0Z" transform="translate(395.036 1489.036)"/>
      <path id="Path_210" data-name="Path 210" d="M0,0H22.518V1.926H0Z" transform="translate(388.664 1469.357)"/>
      <path id="Path_197" data-name="Path 197" d="M933.983,74.484c-.339-.09-1.751-1.438-2.667-2.121-6-4.423-13.592-4.785-20.405-1.774a22.5,22.5,0,0,0-5.887,4.3c-6.621,6.875-7.971,17.23-5.027,26.086a23.506,23.506,0,0,0,11.2,12.615,19.589,19.589,0,0,0,5.051,1.691,24.749,24.749,0,0,0,6.327.22c4.282-.438,7.276-2.353,10.451-4.839.429-.325.565-.565.96-.836v4.644h11.389V52.915c0-.348-.1-.452-.44-.452H933.983Zm.474,17.863c0,7.358-5.57,13.324-12.451,13.324s-12.451-5.965-12.451-13.324,5.57-13.321,12.451-13.321S934.457,84.992,934.457,92.347Z" transform="translate(-542.414 1340.346)" fill-rule="evenodd"/>
      <path id="Path_202" data-name="Path 202" d="M1342.97,135.332c0,5.348.678,9.867,3.65,14.321a22.166,22.166,0,0,0,1.638,2.26,21.177,21.177,0,0,0,12.349,7.575,19.089,19.089,0,0,0,15.457-3.5c.8-.6,1.446-1.226,2.26-1.777V158.7h11.4V114.36c0-.345-.113-.447-.452-.447H1378.79c-.723,0-.463,1.41-.463,2.1.011.9,0,1.8,0,2.695-1.785-1.2-1.582-1.921-5.739-4a20.262,20.262,0,0,0-20.88,2.393,22.65,22.65,0,0,0-6.937,9.242,25.942,25.942,0,0,0-1.8,8.988Zm35.851,1.238c0,7.358-5.57,13.324-12.451,13.324s-12.451-5.965-12.451-13.324,5.57-13.321,12.451-13.321,12.45,5.966,12.45,13.321Z" transform="translate(-867.943 1296.123)" fill-rule="evenodd"/>
      <path id="Path_200" data-name="Path 200" d="M1088.73,135.6a23.681,23.681,0,0,0,1.333,8.861l2.61,5.022a6.4,6.4,0,0,0,.486.712c.3.4.61.81.926,1.169.2.215.328.314.531.528a22.319,22.319,0,0,0,8.293,6.076,24.767,24.767,0,0,0,21.344-1.243,23.421,23.421,0,0,0,5.05-3.788c4.791-4.788,7.706-12.4,6.723-19.225a23.461,23.461,0,0,0-5.231-12.3,24.642,24.642,0,0,0-7.355-5.833,13.786,13.786,0,0,0-1.5-.738c-6.4-2.528-13.321-2.983-19.614.187-4.158,2.084-3.808,2.336-6.678,4.714a22.164,22.164,0,0,0-4.769,6.618,22.519,22.519,0,0,0-2.146,9.24Zm36.031.938c0,7.358-5.57,13.324-12.451,13.324s-12.451-5.965-12.451-13.324,5.57-13.321,12.451-13.321,12.45,5.963,12.45,13.319Z" transform="translate(-681.731 1296.157)" fill-rule="evenodd"/>
      <path id="Path_204" data-name="Path 204" d="M1696.91,135.05c0,4.4.271,7.788,2.294,11.787,3.446,6.841,10.813,12.352,18.53,12.923l5.525-.012,4.688-1.011a24.4,24.4,0,0,0,7.446-3.934l1.627-1.362a25.416,25.416,0,0,0,5.728-8.655c1.322-2.977,1.5-6.435,1.5-9.737a23.3,23.3,0,0,0-2.294-8.937,24.376,24.376,0,0,0-3.435-5.1c-.283-.291-.373-.373-.655-.7l-2.271-2.068a27.415,27.415,0,0,0-4.282-2.762c-.384-.2-.644-.252-1.051-.449a23.733,23.733,0,0,0-20.518.361,30.479,30.479,0,0,0-5.751,4.126l-2.6,2.952a22.126,22.126,0,0,0-4.485,12.581Zm35.794,1.539c0,7.358-5.581,13.324-12.462,13.324s-12.462-5.965-12.462-13.324,5.582-13.321,12.462-13.321,12.458,5.966,12.458,13.322Z" transform="translate(-1127.176 1296.103)" fill-rule="evenodd"/>
      <path id="Path_205" data-name="Path 205" d="M1890.05,66.822c-2.192,0-3.887-.342-3.887.447v9.137h3.887v35.2h11.55v-35.2c2.022,0,5.208-.3,6.688.2a48.082,48.082,0,0,0,5.74.1v34.6c0,.347.114.449.452.449h10.5c.339,0,.452-.1.452-.449v-34.6h6.282c.35,0,.452-.1.452-.452V66.971h-6.293c-.339,0-.441-.108-.441-.449V56.336h-11.4V66.523c0,.728-1.536.449-2.237.449l-10.191-.15c0-2.167-.429-6.924.78-7.909,1.774-1.446,5.016-.463,6.858-.031V50.193a22.284,22.284,0,0,0-8.835-1.647c-4.4,0-7.8,2.065-9.141,5.093-1.266,2.847-1.062,6.527-1.051,9.737C1890.21,64.743,1890.05,65.576,1890.05,66.822Z" transform="translate(-1265.791 1343.215)" fill-rule="evenodd"/>
      <path id="Path_195" data-name="Path 195" d="M497.951,102.323h11.688c.52,0,.641-.76.833-1.26.235-.6.455-1.091.642-1.607.234-.636.429-1.023.644-1.608l3.127-7.954h24.874c.2.418.4,1.088.576,1.517.223.548.4,1.113.622,1.621l2.415,6.277c.2.624.418.957.642,1.61.18.534.273,1.4.839,1.4h11.688a5.877,5.877,0,0,0-.706-2.138L544.572,73.243c-1.325-3.514-3.7-8.9-5.2-12.474l-3.011-7.321c-.178-.415-.333-.644-.477-1.026-.3-.81-.519-1.223-.833-2.008s-.531-1.384-.887-2.113a10.942,10.942,0,0,1-.418-1.082l-.881-2.11c-.144-.342-.3-.69-.443-1.054-.548-1.379-1.141-2.689-1.734-4.11l-1.715-4.28c-.509.139-.492.317-.706.8L522.98,47.95c-.339.678-.588,1.33-.946,2.048-.381.751-.644,1.446-1,2.15-2.108,4.132-4.579,10.177-6.743,14.527L511.4,72.923c-.621,1.463-1.268,2.76-1.952,4.186l-4.344,9.44c-.184.4-.3.591-.488,1.009l-3.85,8.287c-.452,1.053-2.788,5.661-2.8,6.48Zm29.645-42.5,7.776,19.143H518.8Z" transform="translate(-249.027 1352.648)" fill-rule="evenodd"/>
      <path id="Path_203" data-name="Path 203" d="M1539.6,68.216c0,4.762,2.927,9.307,5.344,11.72l4.35,4.2c.746.624,1.435,1.381,2.18,2.008,1.763,1.483,6.892,5.556,8.158,6.819.4.381.666.669,1.051,1.05a11.48,11.48,0,0,1,1.989,2.364c4.045,7.031-5.977,12.417-12.18,6.175-.4-.4-.734-.706-1.118-1.121a14.722,14.722,0,0,1-.984-1.269c-.915-1.22-1.118-1.8-1.751-2.74-.735.169-6.531,3.757-7.412,4.279a18.294,18.294,0,0,1-2.474,1.413c.4,1.5,3.446,5.669,4.825,7.155,4.96,5.364,12.27,6.757,19.354,5.647a9.7,9.7,0,0,0,1.717-.387c4.666-1.517,8.112-3.723,10.553-8.166,2-3.624,1.9-5.658,1.9-9.641a14.6,14.6,0,0,0-2.44-7.443,28.626,28.626,0,0,0-4.237-5.053l-4.067-3.571c-1.187-1.065-2.35-1.969-3.593-3-.35-.3-.519-.45-.893-.749l-5.4-4.641c-6.361-5.324-2.248-9.1,1.751-9.1,3.695,0,7.785,3.72,9.141,6.291l8.7-7.489c-.215-.791-.96-1.3-1.525-1.921l-.079-.082-.136-.152a.359.359,0,0,1-.068-.079,29.189,29.189,0,0,0-5.118-4.474c-8.722-5.785-20.609-4.2-26,5.556a6.133,6.133,0,0,0-.316.582l-.768,2.226a17.559,17.559,0,0,0-.454,3.593Z" transform="translate(-1009.868 1340.021)" fill-rule="evenodd"/>
      <path id="Path_198" data-name="Path 198" d="M745.1,118.465v-2.4c0-.689.271-2.1-.449-2.1H734.157c-.345,0-.449.1-.449.447V158.75H745.1V136.884c0-5.525,1.593-11.276,6.83-13.089,3.714-1.288,7.9-.1,9.42,3.739.912,2.305,1.13,7.615,1.13,10.4v20.82h11.237V127.6a15.888,15.888,0,0,0-2.545-8.389c-2.4-3.627-7.607-6.293-12.288-6.293a18.1,18.1,0,0,0-11.12,3.565C746.795,117.134,746.029,117.838,745.1,118.465Z" transform="translate(-421.702 1296.066)" fill-rule="evenodd"/>
      <path id="Path_201" data-name="Path 201" d="M1284.74,114.475h11.389V52.915c0-.348-.1-.452-.452-.452H1284.74Z" transform="translate(-825.295 1340.346)" fill-rule="evenodd"/>
      <path id="Path_196" data-name="Path 196" d="M311.463,102.13h21.97a4.956,4.956,0,0,1,4.943,4.943v51.742a4.956,4.956,0,0,1-4.943,4.94h-21.97a4.955,4.955,0,0,1-4.943-4.94V107.073A4.956,4.956,0,0,1,311.463,102.13Zm8.4,4.706a.538.538,0,0,0-.534.54h0a.533.533,0,0,0,.534.531h4.9a.534.534,0,0,0,.537-.531h0a.539.539,0,0,0-.537-.54Zm2.6,48.768a2.983,2.983,0,1,0,2.983,2.985,2.983,2.983,0,0,0-2.983-2.985Zm-13.428-42.8v40.353h26.549V112.8Z" transform="translate(-108.819 1303.969)" fill-rule="evenodd"/>
      <path id="Path_194" data-name="Path 194" d="M39.026,35.667H127.55a3.282,3.282,0,0,1,3.271,3.268V50.126h-7.937v-7.7H42.955V96.078h61.092v7H39.026a3.28,3.28,0,0,1-3.268-3.271V38.935A3.279,3.279,0,0,1,39.026,35.667Z" transform="translate(89.494 1352.648)" fill-rule="evenodd"/>
      <path id="Path_199" data-name="Path 199" d="M143.323,300.477H175.49l3.639,3.912H139.685Z" transform="translate(13.375 1158.694)" fill-rule="evenodd"/>
    </g>
  </g>
</svg>
