<svg xmlns="http://www.w3.org/2000/svg" width="399.932" height="75.707" viewBox="0 0 399.932 75.707">
  <g id="Group_35" data-name="Group 35" transform="translate(-679 -730)">
    <g id="Group_32" data-name="Group 32" transform="translate(679 730)">
      <g id="Group_24" data-name="Group 24">
        <g id="Group_7" data-name="Group 7" transform="translate(0 0)">
          <g id="Group_6" data-name="Group 6">
            <g id="Group_5" data-name="Group 5">
              <g id="Group_3" data-name="Group 3" transform="translate(0)">
                <path id="Path_206" data-name="Path 206" d="M1.713-6.24V-8.3a4.016,4.016,0,0,0,.851.564,6.9,6.9,0,0,0,1.044.423,8.314,8.314,0,0,0,1.1.266,6.143,6.143,0,0,0,1.024.09,4.009,4.009,0,0,0,2.418-.6,2.031,2.031,0,0,0,.8-1.729,2.03,2.03,0,0,0-.266-1.055,3,3,0,0,0-.738-.82,7.306,7.306,0,0,0-1.112-.71q-.642-.339-1.384-.715-.782-.4-1.461-.8a6.336,6.336,0,0,1-1.18-.9A3.747,3.747,0,0,1,2.021-15.4a3.443,3.443,0,0,1-.287-1.457,3.426,3.426,0,0,1,.449-1.78,3.852,3.852,0,0,1,1.18-1.248,5.35,5.35,0,0,1,1.666-.731,7.628,7.628,0,0,1,1.906-.24,7.3,7.3,0,0,1,3.227.533v1.974a5.85,5.85,0,0,0-3.4-.919,5.6,5.6,0,0,0-1.145.12,3.245,3.245,0,0,0-1.024.392,2.267,2.267,0,0,0-.731.7,1.857,1.857,0,0,0-.282,1.044,2.15,2.15,0,0,0,.214.992,2.434,2.434,0,0,0,.632.763,6.294,6.294,0,0,0,1.019.668q.6.324,1.384.71.8.4,1.525.836a6.97,6.97,0,0,1,1.263.971,4.316,4.316,0,0,1,.861,1.18,3.319,3.319,0,0,1,.319,1.483,3.762,3.762,0,0,1-.434,1.875A3.557,3.557,0,0,1,9.186-6.292a5.108,5.108,0,0,1-1.7.695,9.293,9.293,0,0,1-2.025.214,8.256,8.256,0,0,1-.88-.058Q4.064-5.5,3.52-5.608A8.692,8.692,0,0,1,2.491-5.88a3.2,3.2,0,0,1-.778-.36Zm16.3.856a4.961,4.961,0,0,1-3.786-1.5,5.552,5.552,0,0,1-1.415-3.974,5.783,5.783,0,0,1,1.475-4.209,5.294,5.294,0,0,1,3.983-1.514A4.794,4.794,0,0,1,22.007-15.1a5.838,5.838,0,0,1,1.342,4.084,5.746,5.746,0,0,1-1.446,4.1A5.068,5.068,0,0,1,18.016-5.383Zm.125-9.755a3.258,3.258,0,0,0-2.611,1.123,4.611,4.611,0,0,0-.959,3.1,4.36,4.36,0,0,0,.969,3,3.3,3.3,0,0,0,2.6,1.1A3.131,3.131,0,0,0,20.695-7.9a4.668,4.668,0,0,0,.893-3.062,4.748,4.748,0,0,0-.893-3.091A3.118,3.118,0,0,0,18.141-15.138Zm9.65,9.5H26.079V-21.467h1.713Zm12.117,0H38.194V-7.326h-.042a3.517,3.517,0,0,1-3.3,1.943q-3.823,0-3.823-4.554v-6.392h1.7v6.122q0,3.384,2.59,3.384a2.621,2.621,0,0,0,2.065-.924,3.54,3.54,0,0,0,.811-2.418v-6.164h1.71Zm8.416-.1a3.3,3.3,0,0,1-1.6.334q-2.809,0-2.809-3.133v-6.329H42.079v-1.462h1.838V-18.94l1.713-.553v3.164h2.7v1.462H45.63v6.026A2.5,2.5,0,0,0,46-7.305a1.459,1.459,0,0,0,1.212.459A1.8,1.8,0,0,0,48.328-7.2Zm3.164-13.306a1.085,1.085,0,0,1-.783-.313,1.058,1.058,0,0,1-.324-.794,1.075,1.075,0,0,1,.324-.8,1.076,1.076,0,0,1,.783-.32,1.106,1.106,0,0,1,.8.319,1.066,1.066,0,0,1,.329.8,1.058,1.058,0,0,1-.329.783A1.1,1.1,0,0,1,51.488-19.044Zm.836,13.41H50.612V-16.329h1.713Zm7.941.251a4.961,4.961,0,0,1-3.786-1.5,5.552,5.552,0,0,1-1.419-3.974,5.783,5.783,0,0,1,1.475-4.209,5.294,5.294,0,0,1,3.983-1.514A4.794,4.794,0,0,1,64.252-15.1a5.839,5.839,0,0,1,1.342,4.084,5.746,5.746,0,0,1-1.446,4.1A5.069,5.069,0,0,1,60.265-5.383Zm.125-9.755a3.258,3.258,0,0,0-2.611,1.123,4.611,4.611,0,0,0-.959,3.1,4.36,4.36,0,0,0,.965,3,3.3,3.3,0,0,0,2.6,1.1A3.131,3.131,0,0,0,62.94-7.9a4.668,4.668,0,0,0,.893-3.06,4.748,4.748,0,0,0-.893-3.091,3.118,3.118,0,0,0-2.553-1.088ZM77.2-5.634H75.489v-6.1q0-3.4-2.486-3.4a2.7,2.7,0,0,0-2.126.966,3.581,3.581,0,0,0-.841,2.438v6.1H68.325V-16.329h1.713v1.775h.042a3.86,3.86,0,0,1,3.509-2.026,3.272,3.272,0,0,1,2.682,1.136A5.048,5.048,0,0,1,77.2-12.17Zm2.581-.386V-7.859a5.068,5.068,0,0,0,3.081,1.033q2.256,0,2.256-1.5a1.3,1.3,0,0,0-.193-.726,1.926,1.926,0,0,0-.522-.527A4.02,4.02,0,0,0,83.632-10q-.443-.183-.959-.381a12.308,12.308,0,0,1-1.248-.569,3.77,3.77,0,0,1-.9-.648,2.41,2.41,0,0,1-.543-.82,2.9,2.9,0,0,1-.183-1.075,2.556,2.556,0,0,1,.344-1.331,3.057,3.057,0,0,1,.919-.971,4.286,4.286,0,0,1,1.311-.59,5.814,5.814,0,0,1,1.519-.2,6.136,6.136,0,0,1,2.486.48v1.734a4.844,4.844,0,0,0-2.716-.773,3.171,3.171,0,0,0-.867.11,2.122,2.122,0,0,0-.664.308,1.424,1.424,0,0,0-.429.475,1.254,1.254,0,0,0-.151.611,1.466,1.466,0,0,0,.151.7,1.541,1.541,0,0,0,.443.5,3.393,3.393,0,0,0,.71.4q.417.178.951.386a13.228,13.228,0,0,1,1.274.559,4.37,4.37,0,0,1,.959.648,2.53,2.53,0,0,1,.611.83A2.678,2.678,0,0,1,86.867-8.5a2.635,2.635,0,0,1-.35,1.378,3,3,0,0,1-.934.971,4.278,4.278,0,0,1-1.348.575,6.652,6.652,0,0,1-1.592.188,6.068,6.068,0,0,1-2.861-.637Zm15.811.386V-20.611H99.73q7.916,0,7.916,7.3a7.357,7.357,0,0,1-2.2,5.571,8.155,8.155,0,0,1-5.885,2.1Zm1.755-13.389v11.8h2.235A6.343,6.343,0,0,0,104.168-8.8a5.912,5.912,0,0,0,1.64-4.47q0-5.753-6.122-5.753Zm21.61,8.47h-7.553a4,4,0,0,0,.959,2.757,3.312,3.312,0,0,0,2.528.971,5.254,5.254,0,0,0,3.319-1.19v1.609a6.207,6.207,0,0,1-3.725,1.023,4.52,4.52,0,0,1-3.562-1.457,5.963,5.963,0,0,1-1.3-4.1,5.848,5.848,0,0,1,1.415-4.068,4.537,4.537,0,0,1,3.514-1.572,4.02,4.02,0,0,1,3.245,1.358,5.661,5.661,0,0,1,1.149,3.77ZM117.2-12.005a3.485,3.485,0,0,0-.715-2.308,2.434,2.434,0,0,0-1.958-.825,2.767,2.767,0,0,0-2.058.867,3.934,3.934,0,0,0-1.044,2.267Zm6.055,6.371h-1.713V-21.467h1.713Zm4.345-13.41a1.085,1.085,0,0,1-.783-.313,1.058,1.058,0,0,1-.324-.794,1.075,1.075,0,0,1,.324-.8,1.076,1.076,0,0,1,.783-.32,1.106,1.106,0,0,1,.8.319,1.066,1.066,0,0,1,.329.8,1.058,1.058,0,0,1-.329.783A1.1,1.1,0,0,1,127.6-19.044Zm.836,13.41h-1.713V-16.329h1.713Zm11.875-10.695L136.053-5.634h-1.682l-4.052-10.695h1.88l2.716,7.77a6.976,6.976,0,0,1,.376,1.494h.042a7.063,7.063,0,0,1,.334-1.452l2.84-7.812Zm10.433,5.776H143.2a4,4,0,0,0,.959,2.757,3.312,3.312,0,0,0,2.528.971A5.254,5.254,0,0,0,150-8.015v1.609a6.207,6.207,0,0,1-3.725,1.023,4.52,4.52,0,0,1-3.562-1.457,5.963,5.963,0,0,1-1.3-4.1,5.848,5.848,0,0,1,1.415-4.068,4.537,4.537,0,0,1,3.514-1.572,4.02,4.02,0,0,1,3.245,1.358,5.661,5.661,0,0,1,1.149,3.77Zm-1.755-1.452a3.485,3.485,0,0,0-.715-2.308,2.434,2.434,0,0,0-1.958-.825,2.767,2.767,0,0,0-2.058.867,3.934,3.934,0,0,0-1.044,2.267Zm9.922-2.59a2.1,2.1,0,0,0-1.3-.344,2.186,2.186,0,0,0-1.833,1.033,4.78,4.78,0,0,0-.738,2.82v5.453h-1.713V-16.329h1.713v2.2h.042a3.734,3.734,0,0,1,1.117-1.76,2.548,2.548,0,0,1,1.682-.632,2.8,2.8,0,0,1,1.024.148Zm10.454,4.042h-7.55a4,4,0,0,0,.959,2.757,3.312,3.312,0,0,0,2.528.971,5.254,5.254,0,0,0,3.319-1.19v1.609A6.207,6.207,0,0,1,164.9-5.383a4.521,4.521,0,0,1-3.562-1.457,5.963,5.963,0,0,1-1.3-4.1,5.848,5.848,0,0,1,1.415-4.068,4.537,4.537,0,0,1,3.514-1.572,4.02,4.02,0,0,1,3.245,1.358,5.661,5.661,0,0,1,1.149,3.77Zm-1.755-1.452a3.485,3.485,0,0,0-.715-2.308,2.434,2.434,0,0,0-1.958-.825,2.767,2.767,0,0,0-2.058.867,3.934,3.934,0,0,0-1.044,2.267Zm13.473,6.371h-1.713V-7.451h-.042a3.954,3.954,0,0,1-3.676,2.065,4,4,0,0,1-3.222-1.436,5.891,5.891,0,0,1-1.206-3.909,6.409,6.409,0,0,1,1.337-4.251,4.409,4.409,0,0,1,3.562-1.6,3.428,3.428,0,0,1,3.206,1.734h.042v-6.622h1.713Zm-1.713-4.835v-1.577a3.059,3.059,0,0,0-.856-2.193,2.877,2.877,0,0,0-2.172-.9,2.958,2.958,0,0,0-2.465,1.149,5.035,5.035,0,0,0-.9,3.171,4.528,4.528,0,0,0,.861,2.919,2.816,2.816,0,0,0,2.313,1.07,2.925,2.925,0,0,0,2.324-1.033A3.852,3.852,0,0,0,179.375-10.47Z" transform="translate(218.844 79.896)" fill="#fff"/>
                <path id="Path_209" data-name="Path 209" d="M0,0H13.775V1.417H0Z" transform="translate(203.656 65.283)" fill="#fff"/>
                <path id="Path_208" data-name="Path 208" d="M0,0H22.383V1.419H0Z" transform="translate(194.281 69.706)" fill="#fff"/>
                <path id="Path_207" data-name="Path 207" d="M0,0H15.166V1.418H0Z" transform="translate(198.981 74.289)" fill="#fff"/>
                <path id="Path_210" data-name="Path 210" d="M0,0H16.608V1.421H0Z" transform="translate(194.281 59.775)" fill="#fff"/>
                <path id="Path_197" data-name="Path 197" d="M924.676,68.7c-.25-.066-1.291-1.061-1.967-1.564a14.829,14.829,0,0,0-15.05-1.308A16.592,16.592,0,0,0,903.317,69c-4.883,5.071-5.879,12.708-3.708,19.24a17.337,17.337,0,0,0,8.261,9.3,14.448,14.448,0,0,0,3.725,1.247,18.254,18.254,0,0,0,4.666.162c3.158-.323,5.367-1.735,7.708-3.569.316-.24.417-.417.708-.617V98.2h8.4V52.8c0-.257-.074-.333-.325-.333h-8.078Zm.35,13.175c0,5.427-4.108,9.827-9.183,9.827s-9.183-4.4-9.183-9.827,4.108-9.825,9.183-9.825S925.026,76.455,925.026,81.88Z" transform="translate(-728.252 -49.147)" fill="#fff" fill-rule="evenodd"/>
                <path id="Path_202" data-name="Path 202" d="M1342.97,129.433c0,3.944.5,7.277,2.692,10.563a16.345,16.345,0,0,0,1.208,1.667,15.619,15.619,0,0,0,9.108,5.587,14.079,14.079,0,0,0,11.4-2.585c.59-.443,1.067-.9,1.667-1.311v3.315h8.408v-32.7c0-.254-.083-.33-.333-.33h-7.731c-.533,0-.341,1.04-.341,1.549.008.664,0,1.328,0,1.988-1.317-.885-1.167-1.417-4.233-2.95a14.944,14.944,0,0,0-15.4,1.765,16.706,16.706,0,0,0-5.116,6.817,19.133,19.133,0,0,0-1.328,6.629Zm26.442.913c0,5.427-4.108,9.827-9.183,9.827s-9.183-4.4-9.183-9.827,4.108-9.825,9.183-9.825,9.183,4.4,9.183,9.825Z" transform="translate(-1084.991 -97.613)" fill="#fff" fill-rule="evenodd"/>
                <path id="Path_200" data-name="Path 200" d="M1088.725,129.615a17.465,17.465,0,0,0,.983,6.535l1.925,3.7a4.727,4.727,0,0,0,.358.525c.221.3.45.6.683.862.147.159.242.232.392.389a16.462,16.462,0,0,0,6.116,4.481,18.267,18.267,0,0,0,15.742-.917,17.274,17.274,0,0,0,3.725-2.794,17.5,17.5,0,0,0,4.959-14.18,17.3,17.3,0,0,0-3.858-9.072,18.175,18.175,0,0,0-5.425-4.3,10.176,10.176,0,0,0-1.106-.544c-4.72-1.865-9.825-2.2-14.466.138-3.067,1.537-2.809,1.723-4.925,3.477a16.346,16.346,0,0,0-3.517,4.881,16.609,16.609,0,0,0-1.583,6.815Zm26.575.692c0,5.427-4.108,9.827-9.183,9.827s-9.183-4.4-9.183-9.827,4.108-9.825,9.183-9.825,9.183,4.4,9.183,9.824Z" transform="translate(-880.921 -97.573)" fill="#fff" fill-rule="evenodd"/>
                <path id="Path_204" data-name="Path 204" d="M1696.909,129.231c0,3.245.2,5.744,1.692,8.694,2.542,5.046,7.975,9.11,13.667,9.531l4.075-.009,3.458-.746a18,18,0,0,0,5.492-2.9l1.2-1a18.746,18.746,0,0,0,4.225-6.384,17.782,17.782,0,0,0,1.106-7.182,17.187,17.187,0,0,0-1.692-6.592,17.98,17.98,0,0,0-2.533-3.762c-.209-.215-.275-.275-.483-.516l-1.675-1.525a20.222,20.222,0,0,0-3.158-2.037c-.283-.147-.475-.186-.775-.331a17.5,17.5,0,0,0-15.133.266,22.477,22.477,0,0,0-4.242,3.043l-1.918,2.177a16.319,16.319,0,0,0-3.308,9.279Zm26.4,1.135c0,5.427-4.116,9.827-9.191,9.827s-9.192-4.4-9.192-9.827,4.117-9.825,9.192-9.825,9.188,4.4,9.188,9.826Z" transform="translate(-1369.078 -97.634)" fill="#fff" fill-rule="evenodd"/>
                <path id="Path_205" data-name="Path 205" d="M1889.03,62.025c-1.617,0-2.867-.252-2.867.33v6.739h2.867V95.055h8.519V69.093c1.491,0,3.841-.221,4.933.148a35.464,35.464,0,0,0,4.234.074V94.834c0,.256.084.331.333.331h7.744c.25,0,.333-.074.333-.331V69.315h4.633c.258,0,.333-.074.333-.333V62.134h-4.641c-.25,0-.325-.08-.325-.331V54.291h-8.408V61.8c0,.537-1.133.331-1.65.331l-7.517-.111c0-1.6-.316-5.107.575-5.833,1.308-1.067,3.7-.341,5.058-.023V49.76a16.436,16.436,0,0,0-6.516-1.215c-3.245,0-5.753,1.523-6.742,3.756-.934,2.1-.783,4.814-.775,7.182C1889.148,60.491,1889.03,61.106,1889.03,62.025Z" transform="translate(-1520.984 -46.002)" fill="#fff" fill-rule="evenodd"/>
                <path id="Path_195" data-name="Path 195" d="M497.951,84.829h8.621c.384,0,.473-.561.614-.929.173-.443.336-.8.474-1.185.173-.469.316-.755.475-1.186l2.306-5.867h18.346c.148.308.3.8.425,1.119.164.4.3.821.459,1.2l1.781,4.63c.148.46.308.706.474,1.187.133.394.2,1.033.619,1.033h8.621a4.335,4.335,0,0,0-.521-1.577l-8.307-19.868c-.977-2.592-2.729-6.564-3.835-9.2l-2.221-5.4c-.131-.306-.246-.475-.352-.757-.221-.6-.383-.9-.614-1.481s-.392-1.021-.654-1.558a8.078,8.078,0,0,1-.308-.8l-.65-1.556c-.106-.252-.221-.509-.327-.777-.4-1.017-.842-1.983-1.279-3.031l-1.265-3.157c-.375.1-.363.234-.521.59l-3.9,8.471c-.25.5-.434.981-.7,1.511-.281.554-.475,1.067-.738,1.586C513.421,50.87,511.6,55.328,510,58.537l-2.134,4.608c-.458,1.079-.935,2.036-1.44,3.087l-3.2,6.963c-.136.3-.221.436-.36.744l-2.84,6.112a39.356,39.356,0,0,0-2.065,4.779Zm21.865-31.346L525.551,67.6H513.328Z" transform="translate(-406.736 -35.665)" fill="#fff" fill-rule="evenodd"/>
                <path id="Path_203" data-name="Path 203" d="M1538.853,64.2c0,3.512,2.159,6.864,3.942,8.644l3.208,3.1c.55.46,1.058,1.019,1.608,1.481,1.3,1.094,5.083,4.1,6.017,5.029.3.281.491.493.775.774a8.468,8.468,0,0,1,1.467,1.744c2.983,5.186-4.408,9.158-8.984,4.554-.3-.3-.541-.521-.825-.827a10.849,10.849,0,0,1-.726-.936c-.675-.9-.824-1.328-1.291-2.021-.542.125-4.817,2.771-5.467,3.156a13.488,13.488,0,0,1-1.825,1.042c.3,1.106,2.542,4.181,3.559,5.277,3.658,3.956,9.05,4.984,14.275,4.165a7.154,7.154,0,0,0,1.266-.285c3.442-1.119,5.983-2.746,7.784-6.023,1.475-2.673,1.4-4.173,1.4-7.111a10.769,10.769,0,0,0-1.8-5.49,21.114,21.114,0,0,0-3.125-3.727l-3-2.634c-.875-.785-1.733-1.452-2.65-2.213-.258-.221-.383-.332-.659-.552l-3.983-3.423c-4.692-3.927-1.658-6.712,1.292-6.712,2.725,0,5.742,2.744,6.742,4.64l6.417-5.524c-.159-.583-.708-.959-1.125-1.417l-.058-.06-.1-.112a.26.26,0,0,1-.05-.058,21.532,21.532,0,0,0-3.775-3.3c-6.433-4.267-15.2-3.1-19.176,4.1a4.547,4.547,0,0,0-.233.429l-.566,1.642a12.955,12.955,0,0,0-.335,2.65Z" transform="translate(-1240.526 -49.501)" fill="#fff" fill-rule="evenodd"/>
                <path id="Path_198" data-name="Path 198" d="M742.11,117.008v-1.77c0-.508.2-1.549-.331-1.549h-7.74c-.254,0-.331.074-.331.33v32.7h8.4V130.593c0-4.075,1.175-8.317,5.038-9.654,2.739-.95,5.823-.074,6.948,2.758.673,1.7.833,5.616.833,7.671v15.356h8.288V123.746a11.718,11.718,0,0,0-1.877-6.187,11.565,11.565,0,0,0-9.063-4.641,13.35,13.35,0,0,0-8.2,2.629C743.36,116.027,742.8,116.546,742.11,117.008Z" transform="translate(-595.966 -97.671)" fill="#fff" fill-rule="evenodd"/>
                <path id="Path_201" data-name="Path 201" d="M1284.74,98.2h8.4V52.8c0-.257-.074-.333-.333-.333h-8.067Z" transform="translate(-1038.254 -49.147)" fill="#fff" fill-rule="evenodd"/>
                <path id="Path_196" data-name="Path 196" d="M310.166,102.13h16.2a3.655,3.655,0,0,1,3.646,3.646v38.163a3.655,3.655,0,0,1-3.646,3.644h-16.2a3.655,3.655,0,0,1-3.646-3.644V105.776A3.655,3.655,0,0,1,310.166,102.13Zm6.2,3.471a.4.4,0,0,0-.394.4h0a.393.393,0,0,0,.394.392h3.614a.394.394,0,0,0,.4-.392h0a.4.4,0,0,0-.4-.4Zm1.918,35.969a2.2,2.2,0,1,0,2.2,2.2,2.2,2.2,0,0,0-2.2-2.2ZM308.375,110v29.763h19.581V110Z" transform="translate(-253.085 -89.012)" fill="#fff" fill-rule="evenodd"/>
                <path id="Path_194" data-name="Path 194" d="M38.168,35.667H103.46a2.421,2.421,0,0,1,2.413,2.41v8.254h-5.854V40.652H41.066V80.224H86.125v5.163H38.168a2.419,2.419,0,0,1-2.41-2.413v-44.9A2.418,2.418,0,0,1,38.168,35.667Z" transform="translate(-35.758 -35.666)" fill="#fff" fill-rule="evenodd"/>
                <path id="Path_199" data-name="Path 199" d="M142.368,300.477h23.725l2.684,2.885H139.685Z" transform="translate(-119.175 -248.215)" fill="#fff" fill-rule="evenodd"/>
              </g>
            </g>
          </g>
        </g>
      </g>
    </g>
  </g>
</svg>
