<svg xmlns="http://www.w3.org/2000/svg" width="193.158" height="36.565" viewBox="0 0 193.158 36.565">
  <g id="Group_6119" data-name="Group 6119" transform="translate(-1460.365 491)">
    <g id="Group_6118" data-name="Group 6118" transform="translate(899.365 -621)">
      <g id="Group_7" data-name="Group 7" transform="translate(561 130)">
        <g id="Group_6" data-name="Group 6" transform="translate(0 0)">
          <g id="Group_5" data-name="Group 5">
            <g id="Group_3" data-name="Group 3">
              <path id="Path_206" data-name="Path 206" d="M1.713-14.113v-1a1.94,1.94,0,0,0,.411.273,3.331,3.331,0,0,0,.5.2,4.015,4.015,0,0,0,.532.129,2.967,2.967,0,0,0,.494.043,1.936,1.936,0,0,0,1.168-.29.981.981,0,0,0,.386-.835A.98.98,0,0,0,5.08-16.1a1.449,1.449,0,0,0-.356-.4,3.529,3.529,0,0,0-.537-.343q-.31-.164-.668-.346-.378-.191-.706-.388A3.06,3.06,0,0,1,2.243-18a1.81,1.81,0,0,1-.381-.537,1.663,1.663,0,0,1-.139-.7,1.655,1.655,0,0,1,.217-.86,1.86,1.86,0,0,1,.57-.6,2.584,2.584,0,0,1,.8-.353,3.684,3.684,0,0,1,.92-.116,3.527,3.527,0,0,1,1.558.257v.953a2.825,2.825,0,0,0-1.644-.444,2.7,2.7,0,0,0-.553.058,1.567,1.567,0,0,0-.494.189,1.1,1.1,0,0,0-.353.338.9.9,0,0,0-.136.5,1.038,1.038,0,0,0,.1.479,1.176,1.176,0,0,0,.305.368,3.04,3.04,0,0,0,.492.323q.29.156.668.343t.736.4a3.366,3.366,0,0,1,.61.469,2.085,2.085,0,0,1,.416.57,1.6,1.6,0,0,1,.154.716,1.817,1.817,0,0,1-.209.906,1.718,1.718,0,0,1-.566.6A2.467,2.467,0,0,1,4.5-13.8a4.488,4.488,0,0,1-.978.1,3.988,3.988,0,0,1-.425-.028q-.252-.028-.514-.081a4.2,4.2,0,0,1-.5-.131,1.546,1.546,0,0,1-.376-.174Zm7.874.414a2.4,2.4,0,0,1-1.828-.724,2.681,2.681,0,0,1-.683-1.919,2.793,2.793,0,0,1,.712-2.033,2.557,2.557,0,0,1,1.924-.731,2.315,2.315,0,0,1,1.8.712,2.82,2.82,0,0,1,.648,1.972,2.775,2.775,0,0,1-.7,1.98A2.448,2.448,0,0,1,9.587-13.7Zm.061-4.711a1.573,1.573,0,0,0-1.261.542,2.227,2.227,0,0,0-.463,1.5,2.106,2.106,0,0,0,.468,1.448,1.594,1.594,0,0,0,1.256.53,1.512,1.512,0,0,0,1.233-.519,2.255,2.255,0,0,0,.431-1.479,2.293,2.293,0,0,0-.431-1.493A1.506,1.506,0,0,0,9.648-18.411Zm4.661,4.59h-.827v-7.647h.827Zm5.852,0h-.828v-.817h-.02a1.7,1.7,0,0,1-1.594.938q-1.846,0-1.846-2.2v-3.087h.822v2.957q0,1.634,1.251,1.634a1.266,1.266,0,0,0,1-.446,1.71,1.71,0,0,0,.392-1.168v-2.977h.826Zm4.065-.051a1.6,1.6,0,0,1-.772.161q-1.357,0-1.357-1.513V-18.28h-.888v-.706H22.1v-1.261l.827-.267v1.528h1.3v.706h-1.3v2.91a1.206,1.206,0,0,0,.178.742.7.7,0,0,0,.585.222.87.87,0,0,0,.54-.171ZM25.753-20.3a.524.524,0,0,1-.378-.151.511.511,0,0,1-.156-.383.519.519,0,0,1,.156-.386.52.52,0,0,1,.378-.155.534.534,0,0,1,.386.154.515.515,0,0,1,.159.386.511.511,0,0,1-.159.378A.53.53,0,0,1,25.753-20.3Zm.4,6.477H25.33v-5.165h.827Zm3.835.121a2.4,2.4,0,0,1-1.828-.724,2.681,2.681,0,0,1-.685-1.919,2.793,2.793,0,0,1,.712-2.033,2.557,2.557,0,0,1,1.924-.731,2.315,2.315,0,0,1,1.8.712,2.82,2.82,0,0,1,.648,1.972,2.775,2.775,0,0,1-.7,1.98A2.448,2.448,0,0,1,29.992-13.7Zm.061-4.711a1.573,1.573,0,0,0-1.261.542,2.227,2.227,0,0,0-.463,1.5,2.106,2.106,0,0,0,.466,1.448,1.594,1.594,0,0,0,1.256.53,1.512,1.512,0,0,0,1.233-.519,2.255,2.255,0,0,0,.431-1.478,2.293,2.293,0,0,0-.431-1.493,1.506,1.506,0,0,0-1.233-.525Zm8.119,4.59h-.827v-2.946q0-1.644-1.2-1.644a1.3,1.3,0,0,0-1.027.467,1.729,1.729,0,0,0-.406,1.178v2.946h-.827v-5.165h.827v.857h.02a1.864,1.864,0,0,1,1.695-.979,1.58,1.58,0,0,1,1.3.549,2.438,2.438,0,0,1,.449,1.581Zm1.247-.187v-.888a2.448,2.448,0,0,0,1.488.5q1.09,0,1.09-.726a.63.63,0,0,0-.093-.351.93.93,0,0,0-.252-.255,1.942,1.942,0,0,0-.373-.2q-.214-.088-.463-.184a5.945,5.945,0,0,1-.6-.275,1.821,1.821,0,0,1-.434-.313,1.164,1.164,0,0,1-.262-.4,1.4,1.4,0,0,1-.088-.519,1.234,1.234,0,0,1,.166-.643,1.476,1.476,0,0,1,.444-.469,2.07,2.07,0,0,1,.633-.285,2.808,2.808,0,0,1,.734-.1,2.963,2.963,0,0,1,1.2.232v.837a2.34,2.34,0,0,0-1.312-.373,1.532,1.532,0,0,0-.419.053,1.025,1.025,0,0,0-.321.149.688.688,0,0,0-.207.229.606.606,0,0,0-.073.295.708.708,0,0,0,.073.338.744.744,0,0,0,.214.242,1.639,1.639,0,0,0,.343.192q.2.086.459.187a6.388,6.388,0,0,1,.616.27,2.11,2.11,0,0,1,.463.313,1.222,1.222,0,0,1,.295.4,1.294,1.294,0,0,1,.1.54,1.272,1.272,0,0,1-.169.666,1.448,1.448,0,0,1-.451.469,2.066,2.066,0,0,1-.651.277,3.213,3.213,0,0,1-.769.091,2.931,2.931,0,0,1-1.382-.308Zm7.636.187v-7.233h2q3.823,0,3.823,3.527a3.553,3.553,0,0,1-1.062,2.691,3.939,3.939,0,0,1-2.842,1.016Zm.847-6.467v5.7h1.079a3.064,3.064,0,0,0,2.214-.762,2.855,2.855,0,0,0,.792-2.159q0-2.779-2.957-2.779ZM58.34-16.2H54.692a1.932,1.932,0,0,0,.463,1.332,1.6,1.6,0,0,0,1.221.469,2.538,2.538,0,0,0,1.6-.575v.777a3,3,0,0,1-1.8.494,2.183,2.183,0,0,1-1.72-.7,2.88,2.88,0,0,1-.626-1.98,2.824,2.824,0,0,1,.684-1.965,2.191,2.191,0,0,1,1.7-.759,1.942,1.942,0,0,1,1.567.656,2.734,2.734,0,0,1,.555,1.821Zm-.847-.7a1.683,1.683,0,0,0-.346-1.115,1.176,1.176,0,0,0-.946-.4,1.336,1.336,0,0,0-.994.419,1.9,1.9,0,0,0-.5,1.095Zm2.924,3.077H59.59v-7.647h.827Zm2.1-6.477a.524.524,0,0,1-.378-.151.511.511,0,0,1-.156-.383.519.519,0,0,1,.156-.386.52.52,0,0,1,.378-.155.534.534,0,0,1,.386.154.515.515,0,0,1,.159.386.511.511,0,0,1-.159.378A.53.53,0,0,1,62.516-20.3Zm.4,6.477h-.828v-5.165h.827Zm5.735-5.165L66.6-13.821h-.812l-1.957-5.165h.908l1.312,3.753a3.369,3.369,0,0,1,.182.721h.02a3.411,3.411,0,0,1,.161-.7l1.372-3.773Zm5.039,2.79H70.047a1.932,1.932,0,0,0,.463,1.332,1.6,1.6,0,0,0,1.221.469,2.538,2.538,0,0,0,1.6-.575v.777a3,3,0,0,1-1.8.494,2.183,2.183,0,0,1-1.72-.7,2.88,2.88,0,0,1-.626-1.98,2.824,2.824,0,0,1,.684-1.965,2.191,2.191,0,0,1,1.7-.759,1.942,1.942,0,0,1,1.567.656,2.734,2.734,0,0,1,.555,1.821Zm-.847-.7a1.683,1.683,0,0,0-.346-1.115,1.176,1.176,0,0,0-.946-.4,1.336,1.336,0,0,0-.994.419,1.9,1.9,0,0,0-.5,1.095Zm4.792-1.251a1.012,1.012,0,0,0-.626-.166,1.056,1.056,0,0,0-.885.5,2.309,2.309,0,0,0-.356,1.362v2.634h-.827v-5.165h.827v1.064h.02a1.8,1.8,0,0,1,.54-.85,1.231,1.231,0,0,1,.812-.305,1.35,1.35,0,0,1,.494.071ZM82.687-16.2H79.04a1.932,1.932,0,0,0,.463,1.332,1.6,1.6,0,0,0,1.221.469,2.538,2.538,0,0,0,1.6-.575v.777a3,3,0,0,1-1.8.494,2.183,2.183,0,0,1-1.72-.7,2.88,2.88,0,0,1-.626-1.98,2.824,2.824,0,0,1,.684-1.965,2.191,2.191,0,0,1,1.7-.759,1.942,1.942,0,0,1,1.567.656,2.734,2.734,0,0,1,.555,1.821Zm-.847-.7a1.683,1.683,0,0,0-.346-1.115,1.176,1.176,0,0,0-.946-.4,1.336,1.336,0,0,0-.994.419,1.9,1.9,0,0,0-.5,1.095Zm6.507,3.077H87.52V-14.7H87.5a1.91,1.91,0,0,1-1.775,1,1.929,1.929,0,0,1-1.556-.694,2.845,2.845,0,0,1-.582-1.888,3.1,3.1,0,0,1,.646-2.053,2.129,2.129,0,0,1,1.72-.772,1.656,1.656,0,0,1,1.548.837h.02v-3.2h.827Zm-.827-2.335v-.762a1.478,1.478,0,0,0-.414-1.059,1.389,1.389,0,0,0-1.049-.434,1.428,1.428,0,0,0-1.19.555,2.432,2.432,0,0,0-.434,1.532,2.187,2.187,0,0,0,.416,1.41,1.36,1.36,0,0,0,1.117.517,1.413,1.413,0,0,0,1.122-.5A1.861,1.861,0,0,0,87.52-16.156Z" transform="translate(104.811 49.688)"/>
              <path id="Path_209" data-name="Path 209" d="M0,0H6.653V.684H0Z" transform="translate(98.361 31.53)"/>
              <path id="Path_208" data-name="Path 208" d="M0,0H10.811V.685H0Z" transform="translate(93.833 33.666)"/>
              <path id="Path_207" data-name="Path 207" d="M0,0H7.325V.685H0Z" transform="translate(96.103 35.88)"/>
              <path id="Path_210" data-name="Path 210" d="M0,0H8.021V.686H0Z" transform="translate(93.833 28.87)"/>
              <path id="Path_197" data-name="Path 197" d="M911.153,60.307c-.121-.032-.624-.512-.95-.756a7.162,7.162,0,0,0-7.269-.632,8.014,8.014,0,0,0-2.1,1.532,9.232,9.232,0,0,0-1.791,9.292,8.373,8.373,0,0,0,3.99,4.494,6.978,6.978,0,0,0,1.8.6,8.816,8.816,0,0,0,2.254.078,6.933,6.933,0,0,0,3.723-1.724c.153-.116.2-.2.342-.3v1.654h4.057V52.624c0-.124-.036-.161-.157-.161h-3.9Zm.169,6.363a4.445,4.445,0,1,1-4.435-4.745A4.6,4.6,0,0,1,911.322,66.671Z" transform="translate(-816.285 -50.861)" fill-rule="evenodd"/>
              <path id="Path_202" data-name="Path 202" d="M1342.97,120.861a8.572,8.572,0,0,0,1.3,5.1,7.916,7.916,0,0,0,.583.805,7.543,7.543,0,0,0,4.4,2.7,6.8,6.8,0,0,0,5.506-1.249c.285-.214.515-.437.8-.633v1.6h4.061V113.39c0-.123-.04-.159-.161-.159h-3.734c-.258,0-.165.5-.165.748,0,.321,0,.641,0,.96a8.567,8.567,0,0,0-2.044-1.425,7.218,7.218,0,0,0-7.438.852,8.069,8.069,0,0,0-2.471,3.292,9.24,9.24,0,0,0-.641,3.2Zm12.771.441a4.445,4.445,0,1,1-4.435-4.745,4.6,4.6,0,0,1,4.435,4.745Z" transform="translate(-1218.372 -105.493)" fill-rule="evenodd"/>
              <path id="Path_200" data-name="Path 200" d="M1088.717,120.92a8.436,8.436,0,0,0,.475,3.156l.93,1.789a2.253,2.253,0,0,0,.173.254c.107.142.217.289.33.416.071.077.117.112.189.188a7.948,7.948,0,0,0,2.954,2.164,8.822,8.822,0,0,0,7.6-.443,8.342,8.342,0,0,0,1.8-1.349,8.454,8.454,0,0,0,2.4-6.848,8.357,8.357,0,0,0-1.864-4.382,8.777,8.777,0,0,0-2.62-2.078,4.913,4.913,0,0,0-.534-.263,8.4,8.4,0,0,0-6.987.067,8.084,8.084,0,0,0-2.379,1.679,7.9,7.9,0,0,0-1.7,2.357,8.022,8.022,0,0,0-.764,3.292Zm12.835.334a4.445,4.445,0,1,1-4.435-4.745,4.6,4.6,0,0,1,4.435,4.745Z" transform="translate(-988.352 -105.444)" fill-rule="evenodd"/>
              <path id="Path_204" data-name="Path 204" d="M1696.907,120.776a8.271,8.271,0,0,0,7.418,8.8l1.968,0,1.67-.36a8.692,8.692,0,0,0,2.652-1.4l.58-.485a9.053,9.053,0,0,0,2.04-3.083,8.588,8.588,0,0,0,.534-3.469,8.3,8.3,0,0,0-.817-3.184,8.685,8.685,0,0,0-1.224-1.817c-.1-.1-.133-.133-.233-.249l-.809-.737a9.769,9.769,0,0,0-1.525-.984c-.137-.071-.23-.09-.375-.16a8.454,8.454,0,0,0-7.309.129,10.854,10.854,0,0,0-2.049,1.47l-.926,1.052a7.882,7.882,0,0,0-1.6,4.482Zm12.751.548a4.449,4.449,0,1,1-4.439-4.745,4.6,4.6,0,0,1,4.439,4.745Z" transform="translate(-1538.573 -105.515)" fill-rule="evenodd"/>
              <path id="Path_205" data-name="Path 205" d="M1887.548,55.054c-.781,0-1.385-.122-1.385.159v3.255h1.385V71.007h4.114V58.468a10.3,10.3,0,0,1,2.382.071,17.13,17.13,0,0,0,2.045.036V70.9c0,.124.041.16.161.16h3.74c.121,0,.161-.036.161-.16V58.575h2.238c.125,0,.161-.036.161-.161V55.107h-2.242c-.121,0-.157-.038-.157-.16V51.318h-4.061v3.629c0,.259-.547.16-.8.16l-3.63-.053c0-.772-.153-2.466.278-2.817.632-.515,1.787-.165,2.443-.011v-3.1a7.937,7.937,0,0,0-3.147-.587,3.4,3.4,0,0,0-3.256,1.814,8.787,8.787,0,0,0-.374,3.469C1887.6,54.313,1887.548,54.61,1887.548,55.054Z" transform="translate(-1709.79 -47.315)" fill-rule="evenodd"/>
              <path id="Path_195" data-name="Path 195" d="M497.951,59.41h4.164c.185,0,.228-.271.3-.449.084-.214.162-.389.229-.572.083-.227.153-.364.229-.573l1.114-2.833h8.861c.071.149.142.388.205.54.079.2.143.4.222.577l.86,2.236c.071.222.149.341.229.574.064.19.1.5.3.5h4.163a2.092,2.092,0,0,0-.251-.762l-4.012-9.6c-.472-1.252-1.318-3.17-1.852-4.444L511.634,42c-.063-.148-.119-.229-.17-.365-.107-.289-.185-.436-.3-.715s-.189-.493-.316-.753a3.887,3.887,0,0,1-.149-.385l-.314-.752c-.051-.122-.107-.246-.158-.375-.2-.491-.406-.958-.618-1.464L509,35.665c-.181.05-.175.113-.251.285l-1.883,4.091c-.121.242-.209.474-.337.73s-.229.515-.356.766c-.751,1.472-1.631,3.625-2.4,5.175l-1.031,2.226c-.221.521-.452.983-.7,1.491L500.5,53.791c-.066.142-.107.211-.174.359L498.953,57.1a19,19,0,0,0-1,2.308Zm10.56-15.139,2.77,6.819h-5.9Z" transform="translate(-453.896 -35.665)" fill-rule="evenodd"/>
              <path id="Path_203" data-name="Path 203" d="M1537.767,58.356a6.4,6.4,0,0,0,1.9,4.175l1.55,1.5c.266.222.511.492.777.715.628.528,2.455,1.979,2.906,2.429.142.136.237.238.374.374a4.08,4.08,0,0,1,.708.842c1.441,2.5-2.129,4.423-4.339,2.2-.143-.142-.261-.251-.4-.4a5.27,5.27,0,0,1-.351-.452c-.326-.435-.4-.641-.624-.976-.262.06-2.327,1.338-2.64,1.524a6.518,6.518,0,0,1-.881.5,10.826,10.826,0,0,0,1.719,2.549,7.542,7.542,0,0,0,6.895,2.012,3.453,3.453,0,0,0,.611-.138,6,6,0,0,0,3.759-2.909,5.779,5.779,0,0,0,.677-3.434,5.2,5.2,0,0,0-.869-2.651,10.2,10.2,0,0,0-1.51-1.8l-1.449-1.272c-.423-.379-.837-.7-1.28-1.069-.125-.107-.185-.16-.318-.267l-1.924-1.653c-2.266-1.9-.8-3.242.624-3.242a4.471,4.471,0,0,1,3.256,2.241l3.1-2.668c-.077-.282-.342-.463-.543-.684l-.028-.029-.049-.054a.129.129,0,0,1-.024-.028,10.4,10.4,0,0,0-1.823-1.594c-3.107-2.061-7.341-1.5-9.262,1.979a2.221,2.221,0,0,0-.113.207l-.273.793a6.245,6.245,0,0,0-.162,1.28Z" transform="translate(-1393.682 -51.259)" fill-rule="evenodd"/>
              <path id="Path_198" data-name="Path 198" d="M737.766,114.892v-.855c0-.245.1-.748-.16-.748h-3.738c-.123,0-.16.036-.16.159v15.794h4.058v-7.789c0-1.968.568-4.017,2.433-4.663a2.561,2.561,0,0,1,3.356,1.332,13.611,13.611,0,0,1,.4,3.7v7.417h4v-11.1a5.66,5.66,0,0,0-.907-2.988,5.586,5.586,0,0,0-4.377-2.242,6.448,6.448,0,0,0-3.961,1.27C738.37,114.418,738.1,114.669,737.766,114.892Z" transform="translate(-667.182 -105.553)" fill-rule="evenodd"/>
              <path id="Path_201" data-name="Path 201" d="M1284.74,74.553h4.057V52.624c0-.124-.036-.161-.161-.161h-3.9Z" transform="translate(-1165.693 -50.861)" fill-rule="evenodd"/>
              <path id="Path_196" data-name="Path 196" d="M308.281,102.13h7.826a1.765,1.765,0,0,1,1.761,1.761v18.432a1.765,1.765,0,0,1-1.761,1.76h-7.826a1.765,1.765,0,0,1-1.761-1.76V103.891A1.765,1.765,0,0,1,308.281,102.13Zm2.992,1.676a.192.192,0,0,0-.19.192h0a.19.19,0,0,0,.19.189h1.746a.19.19,0,0,0,.191-.189h0a.192.192,0,0,0-.191-.192Zm.926,17.372a1.063,1.063,0,1,0,1.063,1.063A1.063,1.063,0,0,0,312.2,121.179Zm-4.783-15.246v14.375h9.457V105.931Z" transform="translate(-280.712 -95.794)" fill-rule="evenodd"/>
              <path id="Path_194" data-name="Path 194" d="M36.922,35.667H68.456a1.169,1.169,0,0,1,1.165,1.164v3.986H66.794V38.075H38.322V57.187H60.084V59.68H36.922a1.168,1.168,0,0,1-1.164-1.165V36.831A1.168,1.168,0,0,1,36.922,35.667Z" transform="translate(-35.758 -35.666)" fill-rule="evenodd"/>
              <path id="Path_199" data-name="Path 199" d="M140.981,300.477H152.44l1.3,1.394H139.685Z" transform="translate(-129.779 -275.236)" fill-rule="evenodd"/>
            </g>
          </g>
        </g>
      </g>
    </g>
  </g>
</svg>
