<?xml version="1.0" encoding="UTF-8"?>
<!DOCTYPE svg PUBLIC "-//W3C//DTD SVG 1.1//EN" "http://www.w3.org/Graphics/SVG/1.1/DTD/svg11.dtd">
<!-- Creator: CorelDRAW X6 -->
<svg xmlns="http://www.w3.org/2000/svg" xml:space="preserve" width="4.16666in" height="0.937496in" version="1.1" style="shape-rendering:geometricPrecision; text-rendering:geometricPrecision; image-rendering:optimizeQuality; fill-rule:evenodd; clip-rule:evenodd"
viewBox="0 0 4167 937"
 xmlns:xlink="http://www.w3.org/1999/xlink">
 <defs>
  <style type="text/css">
   <![CDATA[
    .fil1 {fill:#595A5C}
    .fil2 {fill:#70328F}
    .fil3 {fill:#F06727}
    .fil0 {fill:#595A5C;fill-rule:nonzero}
   ]]>
  </style>
 </defs>
 <g id="Layer_x0020_1">
  <metadata id="CorelCorpID_0Corel-Layer"/>
  <path class="fil0" d="M2308 845c8,6 25,10 40,10 36,0 54,-21 54,-45 0,-23 -13,-35 -39,-46 -21,-8 -31,-15 -31,-30 0,-11 8,-23 29,-23 14,0 24,5 29,7l6 -16c-7,-4 -19,-7 -34,-7 -30,0 -50,18 -50,42 0,22 16,35 41,44 21,8 29,16 29,31 0,16 -12,26 -32,26 -14,0 -27,-5 -36,-10l-5 17zm169 -106c-30,0 -55,21 -55,58 0,36 24,58 53,58 26,0 56,-17 56,-58 0,-36 -22,-58 -53,-58zm-1 15c25,0 34,24 34,43 0,23 -12,43 -34,43 -22,0 -34,-20 -34,-43 0,-20 9,-43 34,-43zm80 99l20 0 0 -163 -20 0 0 163zm147 0c0,-9 -1,-19 -1,-30l0 -81 -20 0 0 68c0,3 -1,7 -2,11 -3,8 -12,18 -27,18 -17,0 -24,-14 -24,-36l0 -61 -20 0 0 65c0,36 17,49 38,49 21,0 32,-12 37,-21l0 0 1 18 18 0zm37 -138l0 27 -17 0 0 15 17 0 0 61c0,13 2,23 8,29 5,5 13,9 22,9 8,0 14,-1 18,-3l-1 -15c-3,1 -6,1 -12,1 -11,0 -15,-8 -15,-22l0 -60 29 0 0 -15 -29 0 0 -32 -20 5zm91 138l0 -111 -20 0 0 111 20 0zm-10 -155c-7,0 -13,6 -12,13 0,7 5,12 12,12 8,0 13,-6 13,-12 0,-7 -5,-13 -13,-13zm91 42c-30,0 -55,21 -55,58 0,36 24,58 53,58 26,0 56,-17 56,-58 0,-36 -22,-58 -53,-58zm-1 15c25,0 34,24 34,43 0,23 -12,43 -34,43 -22,0 -34,-20 -34,-43 0,-20 9,-43 34,-43zm80 99l20 0 0 -67c0,-3 1,-7 2,-9 4,-11 14,-21 27,-21 19,0 26,15 26,33l0 64 20 0 0 -66c0,-38 -24,-47 -39,-47 -18,0 -31,10 -37,21l-1 0 -1 -18 -18 0c0,9 1,18 1,30l0 81zm119 -5c8,5 19,8 31,8 26,0 42,-14 42,-34 0,-17 -10,-26 -29,-33 -15,-6 -21,-10 -21,-19 0,-8 7,-15 18,-15 11,0 19,4 23,7l5 -15c-6,-4 -16,-7 -27,-7 -24,0 -38,15 -38,32 0,13 9,24 29,32 15,6 21,11 21,20 0,9 -7,17 -22,17 -10,0 -21,-4 -27,-8l-5 15zm148 5c10,1 22,2 36,2 30,0 54,-8 68,-22 14,-14 22,-35 22,-60 0,-25 -8,-43 -22,-56 -14,-13 -34,-19 -63,-19 -16,0 -30,1 -43,3l0 152zm20 -138c5,-1 13,-2 23,-2 42,0 63,23 63,60 0,42 -23,66 -66,66 -8,0 -15,0 -20,-1l0 -122zm222 86c0,-2 1,-5 1,-9 0,-20 -10,-52 -46,-52 -33,0 -52,26 -52,60 0,33 20,56 55,56 18,0 30,-4 37,-7l-3 -14c-7,3 -16,6 -31,6 -20,0 -38,-11 -38,-39l78 0zm-78 -14c2,-14 11,-33 31,-33 23,0 28,20 28,33l-59 0zm103 66l20 0 0 -163 -20 0 0 163zm74 0l0 -111 -20 0 0 111 20 0zm-10 -155c-7,0 -13,6 -12,13 0,7 5,12 12,12 8,0 13,-6 13,-12 0,-7 -5,-13 -13,-13zm30 44l42 111 19 0 44 -111 -21 0 -22 62c-3,10 -7,20 -9,29l-1 0c-2,-9 -5,-19 -9,-29l-22 -62 -22 0zm211 59c0,-2 1,-5 1,-9 0,-20 -10,-52 -46,-52 -33,0 -52,26 -52,60 0,33 20,56 55,56 18,0 30,-4 37,-7l-3 -14c-7,3 -16,6 -31,6 -20,0 -38,-11 -38,-39l78 0zm-78 -14c2,-14 11,-33 31,-33 23,0 28,20 28,33l-59 0zm103 66l20 0 0 -60c0,-3 0,-6 1,-9 3,-15 13,-26 27,-26 3,0 5,0 7,1l0 -19c-2,0 -3,0 -6,0 -13,0 -26,9 -31,24l-1 0 -1 -22 -18 0c0,10 1,21 1,34l0 77zm162 -52c0,-2 1,-5 1,-9 0,-20 -10,-52 -46,-52 -33,0 -52,26 -52,60 0,33 20,56 55,56 18,0 30,-4 37,-7l-3 -14c-7,3 -16,6 -31,6 -20,0 -38,-11 -38,-39l78 0zm-78 -14c2,-14 11,-33 31,-33 23,0 28,20 28,33l-59 0zm179 -97l0 66 0 0c-5,-9 -17,-17 -33,-17 -27,0 -50,23 -50,60 0,34 21,56 48,56 18,0 31,-9 37,-22l1 0 1 19 18 0c0,-8 -1,-19 -1,-29l0 -135 -20 0zm0 117c0,3 0,6 -1,9 -4,15 -16,24 -30,24 -22,0 -33,-19 -33,-41 0,-25 13,-43 33,-43 15,0 26,10 29,23 0,3 1,6 1,9l0 19z"/>
  <rect class="fil1" x="2141" y="752" width="142" height="15"/>
  <rect class="fil1" x="2044" y="797" width="231" height="15"/>
  <rect class="fil1" x="2093" y="844" width="156" height="15"/>
  <rect class="fil1" x="2044" y="695" width="171" height="15"/>
  <path class="fil2" d="M2051 280c-3,-1 -13,-11 -20,-16 -46,-34 -103,-36 -155,-13 -14,6 -34,21 -45,33 -50,52 -61,131 -38,198 13,38 49,79 85,96 15,7 22,9 38,13 12,3 34,3 48,2 33,-3 55,-18 79,-37 3,-2 4,-4 7,-6l0 35 87 0 0 -468c0,-3 -1,-3 -3,-3l-83 0 0 167zm4 136c0,-56 -42,-101 -95,-101 -52,0 -95,45 -95,101 0,56 42,101 95,101 52,0 95,-45 95,-101z"/>
  <path class="fil2" d="M2686 407c0,41 5,75 28,109 4,6 8,11 12,17 25,29 55,50 94,58 43,8 83,-1 118,-27 6,-5 11,-9 17,-14l0 34 87 0 0 -337c0,-3 -1,-3 -3,-3l-80 0c-5,0 -3,11 -3,16 0,7 0,14 0,21 -14,-9 -12,-15 -44,-30 -49,-24 -116,-17 -159,18 -23,19 -42,42 -53,70 -7,18 -14,44 -14,68zm273 9c0,-56 -42,-101 -95,-101 -52,0 -95,45 -95,101 0,56 42,101 95,101 52,0 95,-45 95,-101z"/>
  <path class="fil2" d="M2168 409c0,26 2,45 10,67l20 38c2,3 2,3 4,5 2,3 5,6 7,9 1,2 2,2 4,4 20,22 35,33 63,46 48,21 114,18 162,-9 14,-8 27,-17 38,-29 36,-36 59,-94 51,-146 -5,-36 -17,-66 -40,-94 -16,-19 -34,-33 -56,-44 -4,-2 -7,-4 -11,-6 -49,-19 -101,-23 -149,1 -32,16 -29,18 -51,36 -14,12 -28,33 -36,50 -9,17 -16,45 -16,70zm274 7c0,-56 -42,-101 -95,-101 -52,0 -95,45 -95,101 0,56 42,101 95,101 52,0 95,-45 95,-101z"/>
  <path class="fil3" d="M3406 404c0,33 2,59 17,90 26,52 82,94 141,98l42 0 36 -8c23,-8 38,-16 57,-30l12 -10c20,-18 33,-42 44,-66 10,-23 11,-49 11,-74 0,-23 -10,-52 -17,-68 -5,-11 -18,-30 -26,-39 -2,-2 -3,-3 -5,-5l-17 -16c-8,-7 -23,-16 -33,-21 -3,-1 -5,-2 -8,-3 -50,-24 -107,-21 -156,3 -16,7 -31,21 -44,31l-20 22c-20,26 -34,63 -34,96zm272 12c0,-56 -42,-101 -95,-101 -52,0 -95,45 -95,101 0,56 42,101 95,101 52,0 95,-45 95,-101z"/>
  <path class="fil3" d="M3820 244c-17,0 -30,-3 -30,3l0 69 30 0 0 268 88 0 0 -268c15,0 40,-2 51,1 5,2 37,1 44,1l0 263c0,3 1,3 3,3l80 0c3,0 3,-1 3,-3l0 -263 48 0c3,0 3,-1 3,-3l0 -71 -48 0c-3,0 -3,-1 -3,-3l0 -77 -87 0 0 77c0,6 -12,3 -17,3l-77 -1c0,-16 -3,-53 6,-60 13,-11 38,-4 52,0l0 -66c-18,-8 -44,-13 -67,-13 -33,0 -59,16 -69,39 -10,22 -8,50 -8,74 0,10 -1,17 -1,26z"/>
  <path class="fil2" d="M966 585l89 0c4,0 5,-6 6,-10 2,-5 3,-8 5,-12 2,-5 3,-8 5,-12l24 -61 189 0c2,3 3,8 4,12 2,4 3,8 5,12l18 48c2,5 3,7 5,12 1,4 2,11 6,11l89 0c0,-6 -3,-11 -5,-16l-86 -205c-10,-27 -28,-68 -40,-95l-23 -56c-1,-3 -3,-5 -4,-8 -2,-6 -4,-9 -6,-15 -2,-6 -4,-11 -7,-16 -2,-3 -2,-5 -3,-8l-7 -16c-1,-3 -2,-5 -3,-8 -4,-10 -9,-20 -13,-31l-13 -33c-4,1 -4,2 -5,6l-40 87c-3,5 -4,10 -7,16 -3,6 -5,11 -8,16 -16,31 -35,77 -51,110l-22 48c-5,11 -10,21 -15,32l-33 72c-1,3 -2,5 -4,8l-29 63c-3,8 -21,43 -21,49zm225 -323l-67 146 126 0 -59 -146z"/>
  <path class="fil3" d="M3102 230c0,36 22,71 41,89l33 32c6,5 11,11 17,15 13,11 52,42 62,52 3,3 5,5 8,8 6,6 11,11 15,18 31,53 -45,94 -93,47 -3,-3 -6,-5 -9,-9 -3,-3 -5,-6 -7,-10 -7,-9 -9,-14 -13,-21 -6,1 -50,29 -56,33 -4,3 -15,10 -19,11 3,11 26,43 37,54 38,41 93,51 147,43 6,-1 8,-1 13,-3 35,-12 62,-28 80,-62 15,-28 14,-43 14,-73 0,-21 -9,-40 -19,-57 -6,-11 -23,-30 -32,-38l-31 -27c-9,-8 -18,-15 -27,-23 -3,-2 -4,-3 -7,-6l-41 -35c-48,-40 -17,-69 13,-69 28,0 59,28 70,48l66 -57c-2,-6 -7,-10 -12,-15 0,0 0,0 -1,-1l-1 -1c0,0 0,0 -1,-1 -11,-12 -25,-25 -39,-34 -66,-44 -157,-32 -198,42 -1,3 -1,2 -2,4l-6 17c-2,8 -3,18 -3,27z"/>
  <path class="fil2" d="M1533 278c0,-6 0,-12 0,-18 0,-5 2,-16 -3,-16l-80 0c-3,0 -3,1 -3,3l0 337 87 0 0 -166c0,-42 12,-86 52,-100 28,-10 60,-1 72,28 7,18 9,58 9,79l0 158 85 0 0 -237c0,-23 -8,-47 -19,-64 -18,-28 -58,-48 -93,-48 -34,0 -57,8 -85,27 -7,5 -13,10 -20,15z"/>
  <path class="fil2" d="M2567 584l87 0 0 -468c0,-3 -1,-3 -3,-3l-83 0 0 472z"/>
  <path class="fil3" d="M615 214l167 0c21,0 38,17 38,38l0 393c0,21 -17,38 -38,38l-167 0c-21,0 -38,-17 -38,-38l0 -393c0,-21 17,-38 38,-38zm64 36l37 0c2,0 4,2 4,4l0 0c0,2 -2,4 -4,4l-37 0c-2,0 -4,-2 -4,-4l0 0c0,-2 2,-4 4,-4zm20 371c13,0 23,10 23,23 0,13 -10,23 -23,23 -13,0 -23,-10 -23,-23 0,-13 10,-23 23,-23zm-102 -325l202 0 0 307 -202 0 0 -307z"/>
  <path class="fil2" d="M51 79l673 0c14,0 25,11 25,25l0 85 -60 0 0 -59 -608 0 0 408 465 0 0 53 -494 0c-14,0 -25,-11 -25,-25l0 -463c0,-14 11,-25 25,-25z"/>
  <polygon class="fil2" points="265,617 510,617 537,647 237,647 "/>
 </g>
</svg>
