<svg xmlns="http://www.w3.org/2000/svg" xmlns:xlink="http://www.w3.org/1999/xlink" width="239" height="239" viewBox="0 0 239 239">
  <defs>
    <filter id="Ellipse_101" x="0" y="0" width="239" height="239" filterUnits="userSpaceOnUse">
      <feOffset dy="7" input="SourceAlpha"/>
      <feGaussianBlur stdDeviation="13" result="blur"/>
      <feFlood flood-color="#c8dcfe"/>
      <feComposite operator="in" in2="blur"/>
      <feComposite in="SourceGraphic"/>
    </filter>
  </defs>
  <g id="Group_708" data-name="Group 708" transform="translate(-281 -4016)">
    <g id="Group_728" data-name="Group 728">
      <g id="Group_517" data-name="Group 517" transform="translate(75 25)">
        <g transform="matrix(1, 0, 0, 1, 206, 3991)" filter="url(#Ellipse_101)">
          <circle id="Ellipse_101-2" data-name="Ellipse 101" cx="80.5" cy="80.5" r="80.5" transform="translate(39 32)" fill="#fff"/>
        </g>
      </g>
      <path id="Path_439" data-name="Path 439" d="M67.5,0A67.5,67.5,0,1,1,0,67.5,67.5,67.5,0,0,1,67.5,0Z" transform="translate(333 4061)" fill="#2f63f9"/>
    </g>
    <g id="Group_513" data-name="Group 513" transform="translate(376.603 4104.603)">
      <path id="Path_429" data-name="Path 429" d="M35.572,35.161a5.161,5.161,0,0,1-2.723-.728l-19-11.113a1.9,1.9,0,1,1,1.9-3.166L34.527,31.109a1.931,1.931,0,0,0,2.153,0L55.2,20.186a2.47,2.47,0,0,1,1.393-.443,1.9,1.9,0,0,1,1.71,1.33,1.836,1.836,0,0,1-.728,2.09c-.6.38-1.235.728-1.836,1.076L38.358,34.4A5.224,5.224,0,0,1,35.572,35.161Z" transform="translate(-12.519 2.969)" fill="#fff"/>
      <path id="Path_430" data-name="Path 430" d="M35.113,38.089a4.939,4.939,0,0,1-2.406-.7l-19-11.144a1.867,1.867,0,1,1,1.9-3.166l10.226,5.952,8.612,5.034a1.931,1.931,0,0,0,2.153,0L55.059,23.082a2.723,2.723,0,0,1,.918-.412,1.9,1.9,0,0,1,2.248,1.171,1.836,1.836,0,0,1-.76,2.28l-2.976,1.741-16.273,9.5a5.572,5.572,0,0,1-3.1.728Z" transform="translate(-12.376 9.476)" fill="#fff"/>
      <path id="Path_431" data-name="Path 431" d="M57.728,22.619l-19-9.5a6.332,6.332,0,0,0-3.166-.633,5.73,5.73,0,0,0-2.5.665l-8.548,4.464-10.036,5a3.166,3.166,0,0,0-1.868,2.121,2.881,2.881,0,0,0,1.71,3.166l19,11.081a5.224,5.224,0,0,0,5.541,0l7.5-4.369,11.493-6.68a3.166,3.166,0,0,0,1.71-2.09,2.849,2.849,0,0,0-1.836-3.229Zm-3.514,3.166-17.1,9.973a1.868,1.868,0,0,1-2.058,0l-17.1-9.973-.538-.317L23.756,22.3l11.208-5.6a2.406,2.406,0,0,1,2.311,0l16.97,8.485.475.253Z" transform="translate(-12.417 -12.477)" fill="#fff"/>
    </g>
  </g>
</svg>
