<svg xmlns="http://www.w3.org/2000/svg" xmlns:xlink="http://www.w3.org/1999/xlink" width="676.297" height="242.725" viewBox="0 0 676.297 242.725">
  <defs>
    <clipPath id="clip-path">
      <path id="Path_4176" data-name="Path 4176" d="M336.962,159.193,362.976,305.07a17.076,17.076,0,0,1-16.986,20.072l-205.2-2.117A17.075,17.075,0,0,1,123.9,306.43l-3.129-111.247a17.075,17.075,0,0,1,14.071-17.29l182.313-32.512a17.058,17.058,0,0,1,19.808,13.812" transform="translate(-120.764 -145.113)" fill="#ffe8d9"/>
    </clipPath>
    <clipPath id="clip-path-2">
      <rect id="Rectangle_1812" data-name="Rectangle 1812" width="306.262" height="239.757" fill="none"/>
    </clipPath>
  </defs>
  <g id="Group_7412" data-name="Group 7412" transform="translate(-647.812 -601.366)">
    <g id="Group_7404" data-name="Group 7404" transform="translate(647.812 601.366)">
      <path id="Path_4126" data-name="Path 4126" d="M152.574,90.672h24.352V73.661A11.762,11.762,0,0,0,165.164,61.9h-12.59a11.762,11.762,0,0,0-11.762,11.762V78.91a11.762,11.762,0,0,0,11.762,11.762" transform="translate(-88.6 -30.782)" fill="#fff"/>
      <path id="Path_4127" data-name="Path 4127" d="M164.179,76.265a.818.818,0,1,1,.817.819.817.817,0,0,1-.817-.819" transform="translate(-87.414 -30.095)" fill="#00000c"/>
      <path id="Path_4128" data-name="Path 4128" d="M157.507,76.265a.818.818,0,1,1,.819.819.818.818,0,0,1-.819-.819" transform="translate(-87.753 -30.095)" fill="#00000c"/>
      <path id="Path_4129" data-name="Path 4129" d="M150.834,76.265a.818.818,0,1,1,.818.819.817.817,0,0,1-.818-.819" transform="translate(-88.092 -30.095)" fill="#00000c"/>
      <path id="Path_4130" data-name="Path 4130" d="M279.856,19.4l-21.168-.706v2.563a27.491,27.491,0,0,1-7.909,19.294l-.276.279L273.042,43.1c4.923-5.265,6.814-13.369,6.814-19.179Z" transform="translate(-84.541 -18.691)" fill="#d1c0fc"/>
      <line id="Line_184" data-name="Line 184" x2="12.172" y2="0.784" transform="translate(178.005 8.606)" fill="none" stroke="#00000c" stroke-linecap="round" stroke-linejoin="round" stroke-width="1"/>
      <line id="Line_185" data-name="Line 185" x2="12.171" y2="0.784" transform="translate(176.33 13.131)" fill="none" stroke="#00000c" stroke-linecap="round" stroke-linejoin="round" stroke-width="1"/>
      <path id="Path_4131" data-name="Path 4131" d="M336.381,156.9l-7.92,86.965a12.723,12.723,0,0,1-12.67,11.568H133.037a12.722,12.722,0,0,1-12.666-13.92l11.509-121.567a12.722,12.722,0,0,1,15.077-11.292l179.167,34.6A12.722,12.722,0,0,1,336.381,156.9" transform="translate(-89.64 -28.422)" fill="#f5d9c7"/>
      <path id="Path_4132" data-name="Path 4132" d="M261.767,147.51c-9.311-8.326-14.041-21.715-8.059-33.347,4-7.786,13.05-13.712,21.892-10.12,1.937.786,4.225,2.591,4.13,4.913a3.714,3.714,0,0,1-2.375,3.143c-2.043.822-4.284.014-5.971-1.214-3.732-2.715-5.183-7.329-5.014-11.782.215-5.668,4.686-10.918,9.125-14.056A29.339,29.339,0,0,1,287.607,80.2c4.555-.758,9.238-.008,13.758.654" transform="translate(-83.007 -29.87)" fill="none" stroke="#00000c" stroke-linecap="round" stroke-linejoin="round" stroke-width="1"/>
      <path id="Path_4133" data-name="Path 4133" d="M289.98,90.277l9.526-8.948-9.314-8.848" transform="translate(-81.032 -30.245)" fill="none" stroke="#00000c" stroke-linecap="round" stroke-linejoin="round" stroke-width="1"/>
      <path id="Path_4134" data-name="Path 4134" d="M99.293,151.406a19.413,19.413,0,0,0,1.854,4.47l-5.779,5.779,7.326,7.326,5.779-5.779a19.415,19.415,0,0,0,4.47,1.854v8.172H123.3v-8.172a19.414,19.414,0,0,0,4.47-1.854l5.78,5.779,7.325-7.326-5.779-5.779a19.412,19.412,0,0,0,1.854-4.47h8.172v-10.36h-8.172a19.413,19.413,0,0,0-1.854-4.47l5.779-5.78-7.325-7.325-5.78,5.779a19.412,19.412,0,0,0-4.47-1.853v-8.172h-10.36V127.4a19.412,19.412,0,0,0-4.47,1.853l-5.779-5.779L95.367,130.8l5.779,5.78a19.415,19.415,0,0,0-1.854,4.47H91.121v10.36Zm10.223-5.18a8.607,8.607,0,1,1,8.607,8.607,8.606,8.606,0,0,1-8.607-8.607" transform="translate(-91.121 -27.873)" fill="#e6b08d"/>
      <path id="Path_4135" data-name="Path 4135" d="M101.794,145.684a15.787,15.787,0,1,1,15.787,15.787A15.787,15.787,0,0,1,101.794,145.684Z" transform="translate(-90.58 -27.332)" fill="none" stroke="#00000c" stroke-linecap="round" stroke-linejoin="round" stroke-width="1"/>
      <path id="Path_4170" data-name="Path 4170" d="M0,0H55.33V32.029H0Z" transform="translate(263.183 133.961)" fill="#f5d9c7"/>
      <line id="Line_186" data-name="Line 186" x1="34.316" transform="translate(273.69 142.69)" fill="none" stroke="#00000c" stroke-linecap="round" stroke-linejoin="round" stroke-width="1"/>
      <line id="Line_187" data-name="Line 187" x1="34.316" transform="translate(273.69 146.332)" fill="none" stroke="#00000c" stroke-linecap="round" stroke-linejoin="round" stroke-width="1"/>
      <line id="Line_188" data-name="Line 188" x1="34.316" transform="translate(273.69 149.975)" fill="none" stroke="#00000c" stroke-linecap="round" stroke-linejoin="round" stroke-width="1"/>
      <line id="Line_189" data-name="Line 189" x1="34.316" transform="translate(273.69 153.617)" fill="none" stroke="#00000c" stroke-linecap="round" stroke-linejoin="round" stroke-width="1"/>
      <line id="Line_190" data-name="Line 190" x1="14.187" transform="translate(293.818 157.26)" fill="none" stroke="#00000c" stroke-linecap="round" stroke-linejoin="round" stroke-width="1"/>
      <rect id="Rectangle_1809" data-name="Rectangle 1809" width="88.808" height="66.725" rx="8.523" transform="translate(231.716 28.496)" fill="none" stroke="#00000c" stroke-linecap="round" stroke-linejoin="round" stroke-width="1"/>
      <circle id="Ellipse_809" data-name="Ellipse 809" cx="3.867" cy="3.867" r="3.867" transform="translate(303.09 40.373) rotate(-22.5)" fill="none" stroke="#00000c" stroke-linecap="round" stroke-linejoin="round" stroke-width="1"/>
      <line id="Line_191" data-name="Line 191" x1="18.717" transform="translate(282.247 40.114)" fill="none" stroke="#00000c" stroke-linecap="round" stroke-linejoin="round" stroke-width="1"/>
      <line id="Line_192" data-name="Line 192" x1="18.717" transform="translate(282.247 42.466)" fill="none" stroke="#00000c" stroke-linecap="round" stroke-linejoin="round" stroke-width="1"/>
      <line id="Line_193" data-name="Line 193" x1="7.762" transform="translate(293.202 44.817)" fill="none" stroke="#00000c" stroke-linecap="round" stroke-linejoin="round" stroke-width="1"/>
      <line id="Line_194" data-name="Line 194" x1="72.154" transform="translate(240.951 52.191)" fill="none" stroke="#00000c" stroke-linecap="round" stroke-linejoin="round" stroke-width="1"/>
      <line id="Line_195" data-name="Line 195" y2="35.388" transform="translate(267.01 53.749)" fill="none" stroke="#00000c" stroke-linecap="round" stroke-linejoin="round" stroke-width="1"/>
      <line id="Line_196" data-name="Line 196" x1="13.137" transform="translate(247.904 59.612)" fill="none" stroke="#00000c" stroke-linecap="round" stroke-linejoin="round" stroke-width="1"/>
      <line id="Line_197" data-name="Line 197" x1="13.137" transform="translate(247.904 62.916)" fill="none" stroke="#00000c" stroke-linecap="round" stroke-linejoin="round" stroke-width="1"/>
      <line id="Line_198" data-name="Line 198" x1="13.137" transform="translate(247.904 66.22)" fill="none" stroke="#00000c" stroke-linecap="round" stroke-linejoin="round" stroke-width="1"/>
      <line id="Line_199" data-name="Line 199" x1="19.707" transform="translate(274.902 61.09)" fill="none" stroke="#00000c" stroke-linecap="round" stroke-linejoin="round" stroke-width="1"/>
      <line id="Line_200" data-name="Line 200" x1="19.707" transform="translate(274.902 64.394)" fill="none" stroke="#00000c" stroke-linecap="round" stroke-linejoin="round" stroke-width="1"/>
      <line id="Line_201" data-name="Line 201" x1="19.707" transform="translate(274.902 67.698)" fill="none" stroke="#00000c" stroke-linecap="round" stroke-linejoin="round" stroke-width="1"/>
      <line id="Line_202" data-name="Line 202" x1="19.707" transform="translate(274.902 73.175)" fill="none" stroke="#00000c" stroke-linecap="round" stroke-linejoin="round" stroke-width="1"/>
      <line id="Line_203" data-name="Line 203" x1="19.707" transform="translate(274.902 76.479)" fill="none" stroke="#00000c" stroke-linecap="round" stroke-linejoin="round" stroke-width="1"/>
      <line id="Line_204" data-name="Line 204" x1="19.707" transform="translate(274.902 79.783)" fill="none" stroke="#00000c" stroke-linecap="round" stroke-linejoin="round" stroke-width="1"/>
      <line id="Line_205" data-name="Line 205" x1="13.137" transform="translate(247.904 69.525)" fill="none" stroke="#00000c" stroke-linecap="round" stroke-linejoin="round" stroke-width="1"/>
      <line id="Line_206" data-name="Line 206" x1="13.137" transform="translate(247.904 72.829)" fill="none" stroke="#00000c" stroke-linecap="round" stroke-linejoin="round" stroke-width="1"/>
      <line id="Line_207" data-name="Line 207" x1="13.137" transform="translate(247.904 76.133)" fill="none" stroke="#00000c" stroke-linecap="round" stroke-linejoin="round" stroke-width="1"/>
      <rect id="Rectangle_1810" data-name="Rectangle 1810" width="12.577" height="25.27" transform="translate(299.08 59.611)" fill="none" stroke="#00000c" stroke-linecap="round" stroke-linejoin="round" stroke-width="1"/>
      <path id="Path_4136" data-name="Path 4136" d="M198.488,119.228a5.725,5.725,0,0,1-10.975-.751c-2.7-1.034-5.3-2.728-6.531-5.341a9.044,9.044,0,0,1,.252-8.32,7.5,7.5,0,0,1,7.312-3.632,8.686,8.686,0,0,1,8.691.95,10.884,10.884,0,0,1,4.227,8.069c.184,3.13-1.9,6.08-2.976,9.026" transform="translate(-86.607 -28.827)" fill="#1f1d21"/>
      <path id="Path_4137" data-name="Path 4137" d="M221.433,97.233a10.1,10.1,0,0,1,1.012,11.741,4.952,4.952,0,0,1-2.9,2.372c-.91-2.568-1.917-4.891-2-7.615s1.761-4.8,3.892-6.5" transform="translate(-84.707 -28.989)" fill="#1f1d21"/>
      <path id="Path_4138" data-name="Path 4138" d="M291.487,145.1l1.049-10.582,5.142-9.362,14.174-19.346a7.218,7.218,0,0,1,1.538,8.366l-4.1,7.622,8.449,9.6-6.333,11.69-1.4-1.03s-2.228,6.8-8.033,7.094Z" transform="translate(-80.955 -28.554)" fill="#fcc38a"/>
      <path id="Path_4139" data-name="Path 4139" d="M306.537,124.5l-4.375,8.441A2.65,2.65,0,0,0,303,136.18l1.4,1.03" transform="translate(-80.426 -27.606)" fill="none" stroke="#1f1d21" stroke-width="1"/>
      <path id="Path_4140" data-name="Path 4140" d="M310.065,126.717l-4.837,8.473a2.65,2.65,0,0,0,.835,3.245l1.4,1.03" transform="translate(-80.271 -27.493)" fill="none" stroke="#1f1d21" stroke-width="1"/>
      <path id="Path_4141" data-name="Path 4141" d="M313.329,129.092l-5,8.546a2.649,2.649,0,0,0,.835,3.245l1.4,1.031" transform="translate(-80.113 -27.373)" fill="none" stroke="#1f1d21" stroke-width="1"/>
      <path id="Path_4142" data-name="Path 4142" d="M308.459,123.262l-14.806,1.38-1.168,8.991,3.67,5.328,3.383-9.577,4.7-.462a4.775,4.775,0,0,0,4.221-5.659" transform="translate(-80.905 -27.669)" fill="#fcc38a"/>
      <path id="Path_4143" data-name="Path 4143" d="M300.228,138.983c2.033-3.428-.937-9.6-.937-9.6l4.307-.423a5.1,5.1,0,0,0,4.614-5.7l-10.832,1.01" transform="translate(-80.656 -27.669)" fill="none" stroke="#1f1d21" stroke-width="1"/>
      <path id="Path_4144" data-name="Path 4144" d="M292.956,134.945,279.5,152.787l14.576,10.753,10.256-16.689Z" transform="translate(-81.563 -27.076)" fill="#fbb773"/>
      <path id="Path_4145" data-name="Path 4145" d="M220.921,118.032c-1.155,3.65-3.623,7.97-8.841,8.086l.518,9.418s-3.921,5.3-15.9.354l.92-11.121s-1.927-7.262-2.329-9.731c-.936-5.73-2.576-18.772,3.7-22.926,4.22-2.791,17.516-5.262,21.727,6.254a16.916,16.916,0,0,1,.985,5.44l.163,7.312a21.328,21.328,0,0,1-.948,6.914" transform="translate(-85.882 -29.368)" fill="#fcc38a"/>
      <path id="Path_4146" data-name="Path 4146" d="M217.559,108.7a.8.8,0,1,1-.782.817.8.8,0,0,1,.782-.817" transform="translate(-84.746 -28.408)" fill="#1f1d21"/>
      <path id="Path_4147" data-name="Path 4147" d="M208.431,108.9a.8.8,0,1,1-.783.817.8.8,0,0,1,.783-.817" transform="translate(-85.209 -28.397)" fill="#1f1d21"/>
      <path id="Path_4148" data-name="Path 4148" d="M214.4,108.471l.4,5.13-2.747.061" transform="translate(-84.985 -28.419)" fill="none" stroke="#1f1d21" stroke-width="1"/>
      <path id="Path_4149" data-name="Path 4149" d="M199.672,123.031s4.43,2.261,12.447,1.639" transform="translate(-85.613 -27.68)" fill="none" stroke="#1f1d21" stroke-width="1"/>
      <path id="Path_4151" data-name="Path 4151" d="M214.444,115.319a4.682,4.682,0,0,1-2.947,1.1,6.264,6.264,0,0,1-2.316-.282,3.875,3.875,0,0,1-2.026-1.857" transform="translate(-85.234 -28.124)" fill="none" stroke="#1f1d21" stroke-width="1"/>
      <path id="Path_4152" data-name="Path 4152" d="M189.967,110.245a5.794,5.794,0,1,1,5.921,5.662,5.793,5.793,0,0,1-5.921-5.662" transform="translate(-86.106 -28.63)" fill="#fbb773"/>
      <path id="Path_4153" data-name="Path 4153" d="M194.405,107.931l2.12,1.636a.56.56,0,0,1-.23.992l-2.557.523" transform="translate(-85.915 -28.446)" fill="none" stroke="#1f1d21" stroke-width="1"/>
      <path id="Path_4154" data-name="Path 4154" d="M152.339,217.528a15.913,15.913,0,0,1-11.7-22l19.888-45.679a18.951,18.951,0,0,1,13.485-11.6l11.541-2.727a29.33,29.33,0,0,0,20.972,8.526c11.233,0,17.3-4.929,19.825-7.7l11.415,3.888a18.941,18.941,0,0,1,8.146,5.719l23.436,26.779,23.477-31.823,19.24,16-27.419,45.136a16.05,16.05,0,0,1-19.546,6.352l-27.071-11.741,4.684,57.392H158.942l5.243-34.345Z" transform="translate(-88.677 -27.046)" fill="#fff"/>
      <path id="Path_4155" data-name="Path 4155" d="M183.773,231.7l39.016.345,3.232-53.19-41.827-.542Z" transform="translate(-86.42 -24.875)" fill="#d1c0fc"/>
      <path id="Path_4156" data-name="Path 4156" d="M186.606,228.435l36.039,3.736,3.232-53.19-35.27-3.112Z" transform="translate(-86.276 -25)" fill="#d1c0fc"/>
      <path id="Path_4157" data-name="Path 4157" d="M222.645,178.7l-32.038-2.826-4,52.565,31.007,3.215" transform="translate(-86.276 -24.999)" fill="none" stroke="#1f1d21" stroke-width="1"/>
      <path id="Path_4158" data-name="Path 4158" d="M204.288,144.213a29.33,29.33,0,0,1-20.972-8.526l14.291-3.377,15.26.375,11.246,3.83c-2.523,2.769-8.592,7.7-19.825,7.7" transform="translate(-86.443 -27.21)" fill="#fbb773"/>
      <path id="Path_4159" data-name="Path 4159" d="M226.932,152.893l7.2,20.873a19.594,19.594,0,0,1,.95,8.558l-1.5,13.46" transform="translate(-84.231 -26.165)" fill="none" stroke="#1f1d21" stroke-width="1"/>
      <line id="Line_208" data-name="Line 208" x1="7.888" y2="21.036" transform="translate(78.062 146.719)" fill="none" stroke="#1f1d21" stroke-width="1"/>
      <path id="Path_4160" data-name="Path 4160" d="M227.544,201.781l1.73,2.736a3.871,3.871,0,0,1,.186,3.813l-5,9.918a4.75,4.75,0,0,1-5.219,2.511L203.3,217.41l2.3-14.94,9.41-5.723,11.277,1.739s.237,1.974-.938,2.568Z" transform="translate(-85.43 -23.94)" fill="#fcc38a"/>
      <line id="Line_209" data-name="Line 209" x2="8.588" y2="1.076" transform="translate(131.337 176.036)" fill="none" stroke="#1f1d21" stroke-width="1"/>
      <path id="Path_4161" data-name="Path 4161" d="M159.674,189.569l49.676,10.072-1.3,21.171-43.879-4.1" transform="translate(-87.643 -24.304)" fill="#fff"/>
      <path id="Path_4162" data-name="Path 4162" d="M159.674,189.569l49.676,10.072-1.3,21.171-43.879-4.1" transform="translate(-87.643 -24.304)" fill="none" stroke="#1f1d21" stroke-width="1"/>
      <path id="Path_4163" data-name="Path 4163" d="M210.557,143.487s-15.287,3.769-27.241-7.964" transform="translate(-86.443 -27.047)" fill="none" stroke="#1f1d21" stroke-width="1"/>
      <line id="Line_210" data-name="Line 210" x1="8.825" y2="12.268" transform="translate(177.732 137.706)" fill="none" stroke="#1f1d21" stroke-width="1"/>
      <path id="Path_4164" data-name="Path 4164" d="M191.9,107.474a6.438,6.438,0,0,0,5.127,1.952,6.6,6.6,0,0,0,4.729-2.925,10.369,10.369,0,0,0,7.387-.02,11.438,11.438,0,0,0,5.765-5.206,8.118,8.118,0,0,0,7.673,1.709,6.006,6.006,0,0,0,4.236-6.168,6.937,6.937,0,0,0-.625-12.887c-3.438-4.725-7.209-7.086-12.77-5.287-3.461,1.12-6.339,3.534-9,6.014a9.215,9.215,0,0,0-9.634-.266,11.6,11.6,0,0,0-5.392,8.028,8.31,8.31,0,0,0-5.248,8.863,7.776,7.776,0,0,0,7.753,6.194" transform="translate(-86.407 -29.963)" fill="#1f1d21"/>
      <path id="Path_4165" data-name="Path 4165" d="M185.315,102.9a6.035,6.035,0,0,0,6.522,3.311" transform="translate(-86.342 -28.702)" fill="none" stroke="#3e3c3f" stroke-width="1"/>
      <path id="Path_4166" data-name="Path 4166" d="M252.163,67.333A1.836,1.836,0,1,1,254,69.168,1.835,1.835,0,0,1,252.163,67.333Z" transform="translate(-82.95 -30.599)" fill="none" stroke="#00000c" stroke-linecap="round" stroke-width="1"/>
      <path id="Path_4167" data-name="Path 4167" d="M245.574,83.792a1.836,1.836,0,1,1,1.836,1.836,1.835,1.835,0,0,1-1.836-1.836" transform="translate(-83.285 -29.764)" fill="#4f41c9"/>
      <path id="Path_4168" data-name="Path 4168" d="M353.239,219.393a1.836,1.836,0,1,1,1.836,1.836,1.835,1.835,0,0,1-1.836-1.836" transform="translate(-77.822 -22.884)" fill="#e8a9ca"/>
      <path id="Path_4169" data-name="Path 4169" d="M334.268,193.619l-.595-1.135a1.657,1.657,0,0,0-2.867-.116l-.685,1.082a1.657,1.657,0,0,0,1.333,2.541l1.28.052A1.657,1.657,0,0,0,334.268,193.619Z" transform="translate(-79.008 -24.202)" fill="none" stroke="#00000c" stroke-linecap="round" stroke-width="1"/>
    </g>
    <g id="Group_7409" data-name="Group 7409" transform="translate(1017.847 604.334)">
      <g id="Group_7406" data-name="Group 7406" transform="translate(25.128 46.444)">
        <g id="Group_7405" data-name="Group 7405" clip-path="url(#clip-path)">
          <path id="Path_4171" data-name="Path 4171" d="M317.155,145.38,134.843,177.892a17.075,17.075,0,0,0-14.071,17.29L123.9,306.43a17.075,17.075,0,0,0,16.892,16.594l205.2,2.117a17.075,17.075,0,0,0,16.986-20.072L336.963,159.193a17.075,17.075,0,0,0-19.808-13.812" transform="translate(-120.765 -145.113)" fill="#ffe8d9"/>
          <path id="Path_4172" data-name="Path 4172" d="M.5,419.867a109.21,109.21,0,0,1,71.957-9.883c7.175,1.5,14.491,3.9,19.7,9.06s7.635,13.717,3.928,20.04c-4.926,8.4-18.74,8.038-24.888.484s-5.108-19.219.432-27.23,14.63-12.879,23.882-15.922a90.321,90.321,0,0,1,72.573,7.589c5.992,3.48,11.722,7.82,15.261,13.778s4.515,13.8,1.052,19.8c-5.269,9.13-18.429,10.505-28.219,6.6a38.367,38.367,0,0,1-11.653-63.951c10.594-9.682,25.717-12.667,40.065-12.988,48.9-1.095,97.416,26.21,121.856,68.574" transform="translate(-25.468 -296.123)" fill="#ffe8d9" stroke="#fff" stroke-linecap="round" stroke-linejoin="round" stroke-width="1"/>
          <path id="Path_4173" data-name="Path 4173" d="M90.881,590.781a41.169,41.169,0,0,0,18.547-66.449c-2.853-3.245-6.344-6.1-10.5-7.3s-9.038-.456-12.057,2.635c-4.38,4.485-3.268,12.41.989,17.013s10.7,6.5,16.911,7.312a67.348,67.348,0,0,0,35.254-4.913c9.373-4.046,17.677-10.166,25.889-16.232" transform="translate(88.304 -397.629)" fill="#ffe8d9" stroke="#fff" stroke-linecap="round" stroke-linejoin="round" stroke-width="1"/>
          <path id="Path_4174" data-name="Path 4174" d="M472.531,676.637c1.734-10.185,9.526-18.705,18.925-23s20.184-4.758,30.39-3.15,19.983,5.181,29.685,8.734" transform="translate(-421.635 -488.162)" fill="#ffe8d9" stroke="#fff" stroke-linecap="round" stroke-linejoin="round" stroke-width="1"/>
          <path id="Path_4175" data-name="Path 4175" d="M430.229,174.432c27.565,23.26,67.173,31.365,101.659,20.8,4.97-1.522,9.99-3.5,13.649-7.2s5.637-9.474,3.572-14.243-8.963-7.148-12.853-3.7c-3.636,3.222-2.749,9.618.841,12.891s8.886,3.955,13.713,3.407c15.467-1.756,27.954-14.407,34.028-28.739s6.911-30.257,7.666-45.8" transform="translate(-449.068 -122.495)" fill="#ffe8d9" stroke="#fff" stroke-linecap="round" stroke-linejoin="round" stroke-width="1"/>
        </g>
      </g>
      <g id="Group_7408" data-name="Group 7408">
        <g id="Group_7407" data-name="Group 7407" clip-path="url(#clip-path-2)">
          <path id="Path_4177" data-name="Path 4177" d="M276.565,202.388a5.234,5.234,0,0,0,5.393,2.14,5.582,5.582,0,0,0,3.9-4.571,10.707,10.707,0,0,0,9.212-17.271c3.089-3.973,5.283-8.85,5.124-13.88s-3.037-10.13-7.706-12.008a15.916,15.916,0,0,0-8.183-.653,21.784,21.784,0,0,0-8.419,2.9A13.883,13.883,0,0,0,270.4,165.7,12.677,12.677,0,0,0,259.544,182.6c3.022,8.43,8.515,16.984,17.021,19.784" transform="translate(-76.776 -106.007)" fill="#1f1d21"/>
          <path id="Path_4178" data-name="Path 4178" d="M331.432,258.678c1.215,3.84,3.81,8.384,9.3,8.506l-.545,9.906s4.125,5.577,16.725.372L356.22,261.6a26.627,26.627,0,0,0,2.174-6.074c.984-6.028,2.71-19.747-3.9-24.116-4.439-2.936-18.425-5.534-22.855,6.578a17.8,17.8,0,0,0-1.035,5.722l-.172,7.691a22.458,22.458,0,0,0,1,7.273" transform="translate(-158.848 -155.677)" fill="#fcc38a"/>
          <path id="Path_4179" data-name="Path 4179" d="M407.986,293.787a.841.841,0,1,0,.843.839.842.842,0,0,0-.843-.839" transform="translate(-232.878 -199.758)" fill="#1f1d21"/>
          <path id="Path_4180" data-name="Path 4180" d="M376.455,293.71a.841.841,0,1,0,.843.839.842.842,0,0,0-.843-.839" transform="translate(-191.255 -199.706)" fill="#1f1d21"/>
          <path id="Path_4181" data-name="Path 4181" d="M391.92,293.514l-.424,5.4,2.889.064" transform="translate(-213.425 -199.573)" fill="none" stroke="#1f1d21" stroke-width="1"/>
          <path id="Path_4182" data-name="Path 4182" d="M361.811,343.792s-4.659,2.379-13.093,1.724" transform="translate(-167.159 -233.759)" fill="none" stroke="#1f1d21" stroke-width="1"/>
          <path id="Path_4184" data-name="Path 4184" d="M374.559,314.672a4.926,4.926,0,0,0,3.1,1.159,6.579,6.579,0,0,0,2.437-.3,4.071,4.071,0,0,0,2.131-1.953" transform="translate(-195.845 -213.218)" fill="none" stroke="#1f1d21" stroke-width="1"/>
          <path id="Path_4185" data-name="Path 4185" d="M327.386,285.416a6.094,6.094,0,1,0-6.228,5.957,6.094,6.094,0,0,0,6.228-5.957" transform="translate(-122.007 -189.831)" fill="#c49366"/>
          <path id="Path_4186" data-name="Path 4186" d="M330.688,291.648l-2.23,1.72a.589.589,0,0,0,.242,1.044l2.689.55" transform="translate(-130.179 -198.304)" fill="none" stroke="#1f1d21" stroke-width="1"/>
          <path id="Path_4187" data-name="Path 4187" d="M345.718,236.911a9.181,9.181,0,0,1-6.453,3.575,20.879,20.879,0,0,1-7.521-.724,20.506,20.506,0,0,1-6.755-2.688,8.8,8.8,0,0,1-4.125-5.692,16.234,16.234,0,0,1-7.525,6.708c-.876.381-2.008.64-2.694-.024a16.69,16.69,0,0,1,3.66-14.462,16.328,16.328,0,0,1,13.76-5.3,11.8,11.8,0,0,1,10.275.493,14.93,14.93,0,0,1,6.652,7.812c1.263,3.256,2.713,7.428.725,10.3" transform="translate(-139.734 -147.787)" fill="#1f1d21"/>
          <path id="Path_4188" data-name="Path 4188" d="M331.823,315.328a6.712,6.712,0,0,0,3.45.57" transform="translate(-135.213 -214.405)" fill="none" stroke="#1f1d21" stroke-width="1"/>
          <path id="Path_4189" data-name="Path 4189" d="M307.7,219.242s5.262.607,8.385,4.1c3.394,3.8,4.46,10.737-1.289,16.985" transform="translate(-111.092 -149.072)" fill="none" stroke="#3e3c3f" stroke-width="1"/>
          <path id="Path_4190" data-name="Path 4190" d="M289.91,264.45s7.066.956,8.408-10.792" transform="translate(-84.844 -172.473)" fill="none" stroke="#3e3c3f" stroke-width="1"/>
          <path id="Path_4191" data-name="Path 4191" d="M715.849,583.392h-75.21L626,529.459a3.582,3.582,0,0,1,3.457-4.521h67.787a3.582,3.582,0,0,1,3.457,2.644Z" transform="translate(-609.903 -356.928)" fill="#d8c8f8"/>
          <rect id="Rectangle_1811" data-name="Rectangle 1811" width="69.498" height="7.34" transform="translate(92.44 219.124)" fill="#d8c8f8"/>
          <line id="Line_211" data-name="Line 211" x1="12.262" y1="45.717" transform="translate(92.87 178.277)" fill="none" stroke="#1f1d21" stroke-width="1"/>
          <path id="Path_4192" data-name="Path 4192" d="M773.9,607.079c.813,3.741-.853,7.279-3.722,7.9s-5.854-1.9-6.667-5.644.853-7.279,3.722-7.9S773.085,603.338,773.9,607.079Z" transform="translate(-712.143 -408.877)" fill="none" stroke="#1f1d21" stroke-width="1"/>
          <path id="Path_4193" data-name="Path 4193" d="M302,469.6l-18.26-86.484a16.533,16.533,0,0,0-11.6-12.511l-20.673-5.97-.4-7.054-17.089.438v6.64L214.6,370.284a26.826,26.826,0,0,0-9.565,5.049l-26.06,21.453,6.82,30.329,21.73-8.822,2.56,10.666-9.2,40.638Z" transform="translate(-53.023 -243.132)" fill="#738afb"/>
          <line id="Line_212" data-name="Line 212" x2="6.062" y2="26.996" transform="translate(206.917 157.355)" fill="none" stroke="#1f1d21" stroke-width="1"/>
          <line id="Line_213" data-name="Line 213" x1="5.987" y2="21.507" transform="translate(154.507 153.654)" fill="none" stroke="#1f1d21" stroke-width="1"/>
          <path id="Path_4194" data-name="Path 4194" d="M594.575,374.8l-36.267-49.555-16.264,5.935,33.67,69.852a14.1,14.1,0,0,0,18.113,7.17l7.568-3.073Z" transform="translate(-468.618 -221.151)" fill="#fbb773"/>
          <path id="Path_4195" data-name="Path 4195" d="M689.034,264l-11.43-9.137a2.46,2.46,0,0,0-3.083.009l-2.777,3.729-.908,6.562a6.262,6.262,0,0,0,2.1,4.277l10.172,8.978,18.623,7.353L714.14,282.5s3.092-9.486.769-14.233L695.066,250.9c-.067.08-.134.167-.2.26a6.591,6.591,0,0,0,.555,8.343l4.751,6.017Z" transform="translate(-624.218 -170.596)" fill="#fcc38a"/>
          <path id="Path_4196" data-name="Path 4196" d="M761.6,287.371l5.118,4.96,9.558,6.51" transform="translate(-713.765 -195.396)" fill="none" stroke="#1f1d21" stroke-width="1"/>
          <path id="Path_4197" data-name="Path 4197" d="M757.492,274.958l5.118,4.96,9.557,6.51" transform="translate(-708.346 -186.956)" fill="none" stroke="#1f1d21" stroke-width="1"/>
          <path id="Path_4198" data-name="Path 4198" d="M752.57,265.586l5.118,4.96,9.558,6.51" transform="translate(-701.849 -180.583)" fill="none" stroke="#1f1d21" stroke-width="1"/>
          <path id="Path_4199" data-name="Path 4199" d="M684.734,315.787h2.227a8.257,8.257,0,0,1,7.513,4.831l1.494,3.274" transform="translate(-608.859 -214.717)" fill="none" stroke="#1f1d21" stroke-width="1"/>
          <path id="Path_4200" data-name="Path 4200" d="M289.566,575.009l-27.04.316,4.454,22.51-40.821,2.732-10.9-1.767a6.71,6.71,0,0,0-4.369.779L188.2,612.372l.743,1.085a2.2,2.2,0,0,0,2.467.857l-3.039,1.733.594,1.061a3.09,3.09,0,0,0,3.809,1.373l.356-.137.6.815a4.22,4.22,0,0,0,3.927,1.685l24.31-3.073,60.63.082a12.954,12.954,0,0,0,12.639-15.867Z" transform="translate(-49.547 -390.973)" fill="#fbb773"/>
          <line id="Line_214" data-name="Line 214" x1="16.277" y2="5.011" transform="translate(143.583 222.359)" fill="none" stroke="#1f1d21" stroke-width="1"/>
          <line id="Line_215" data-name="Line 215" x1="14.947" y2="6.215" transform="translate(140.704 217.608)" fill="none" stroke="#1f1d21" stroke-width="1"/>
          <path id="Path_4201" data-name="Path 4201" d="M385.807,653.917l-1.5,17.207,6.935.009,1.217-17.661Z" transform="translate(-209.194 -444.324)" fill="#4f41c9"/>
          <path id="Path_4202" data-name="Path 4202" d="M392.4,663.546a4.153,4.153,0,1,0-4.124,3.661,3.913,3.913,0,0,0,4.124-3.661" transform="translate(-209.093 -448.684)" fill="#fff"/>
          <path id="Path_4203" data-name="Path 4203" d="M396.016,666.174h2.636l-.616-2.19" transform="translate(-219.138 -451.471)" fill="none" stroke="#1f1d21" stroke-width="1"/>
          <path id="Path_4204" data-name="Path 4204" d="M656.859,344.641l16.251-7.872,3.642,4.976-16.874,9.16Z" transform="translate(-580.723 -228.983)" fill="#4f41c9"/>
          <path id="Path_4205" data-name="Path 4205" d="M346.231,12.968a2.256,2.256,0,1,1,2.256,2.256,2.256,2.256,0,0,1-2.256-2.256" transform="translate(-155.295 -7.284)" fill="#527ffa"/>
          <path id="Path_4206" data-name="Path 4206" d="M926.963,397.924a2.256,2.256,0,1,1,2.256,2.256,2.256,2.256,0,0,1-2.256-2.256" transform="translate(-921.894 -269.032)" fill="#f9c2e2"/>
          <path id="Path_4207" data-name="Path 4207" d="M393.074,58.576,389.135,56.3a1.071,1.071,0,0,0-1.606.928v4.549a1.071,1.071,0,0,0,1.606.927l3.939-2.274A1.071,1.071,0,0,0,393.074,58.576Z" transform="translate(-211.379 -38.183)" fill="none" stroke="#00000c" stroke-linecap="round" stroke-width="1.5"/>
          <path id="Path_4208" data-name="Path 4208" d="M907.659,462.077,903.72,459.8a1.071,1.071,0,0,0-1.606.928v4.548a1.071,1.071,0,0,0,1.606.928l3.939-2.274A1.071,1.071,0,0,0,907.659,462.077Z" transform="translate(-890.661 -312.541)" fill="none" stroke="#00000c" stroke-linecap="round" stroke-width="1.5"/>
          <path id="Path_4209" data-name="Path 4209" d="M525.563,44.454H559.13V22.227A22.226,22.226,0,0,0,536.9,0h-11.34a22.226,22.226,0,1,0,0,44.453" transform="translate(-484.616 -0.001)" fill="#ffe8d9"/>
          <path id="Path_4210" data-name="Path 4210" d="M551.246,69.983a1.264,1.264,0,1,1,1.264,1.264,1.264,1.264,0,0,1-1.264-1.264" transform="translate(-494.594 -46.725)" fill="#00000c"/>
          <path id="Path_4211" data-name="Path 4211" d="M585.089,69.983a1.264,1.264,0,1,1,1.263,1.264,1.264,1.264,0,0,1-1.263-1.264" transform="translate(-539.268 -46.725)" fill="#00000c"/>
          <path id="Path_4212" data-name="Path 4212" d="M618.932,69.983a1.264,1.264,0,1,1,1.264,1.264,1.264,1.264,0,0,1-1.264-1.264" transform="translate(-583.943 -46.725)" fill="#00000c"/>
          <g id="Group_7410" data-name="Group 7410" transform="translate(35.044 24.251)">
            <path id="Path_4213" data-name="Path 4213" d="M550.834,139.581,597.409,98.6l8.833,8.454,39.348-30.515" transform="translate(-550.834 -76.297)" fill="none" stroke="#00000c" stroke-linecap="round" stroke-linejoin="round" stroke-width="1"/>
            <path id="Path_4214" data-name="Path 4214" d="M803.4,94.115l1.99-18.343-19.778.972" transform="translate(-710.467 -75.772)" fill="none" stroke="#00000c" stroke-linecap="round" stroke-linejoin="round" stroke-width="1"/>
          </g>
        </g>
      </g>
    </g>
  </g>
</svg>
