<svg xmlns="http://www.w3.org/2000/svg" width="254.854" height="70.831" viewBox="0 0 254.854 70.831">
  <g id="Group_712" data-name="Group 712" transform="translate(-1032.333 -823.631)">
    <path id="Path_4" data-name="Path 4" d="M-224.815-31.187q.478,0,.988.939a10.571,10.571,0,0,1,.856,2.15,7.329,7.329,0,0,1,.346,1.8,3.359,3.359,0,0,1-.387,1.622,2.793,2.793,0,0,1-1.1,1.12,3.2,3.2,0,0,1-1.615.4,3.545,3.545,0,0,1-2.166-.675,5.578,5.578,0,0,1-1.458-1.557,20.915,20.915,0,0,1-1.12-2.117l-.231-.494.033,3.986a2.022,2.022,0,0,1-.124.7.436.436,0,0,1-.42.338.449.449,0,0,1-.426-.338,1.824,1.824,0,0,1-.132-.667q0-1.054.165-3.031t.165-2.947a3.611,3.611,0,0,0-.033-.478q-.033-.247-.049-.346a4.4,4.4,0,0,1-.083-.791v-.066a1.857,1.857,0,0,0,.3-.074,1.856,1.856,0,0,1,.3-.074h.165a21.432,21.432,0,0,0,1.853,5.2,3.734,3.734,0,0,0,3.368,2.381,1.9,1.9,0,0,0,1.524-.6,2.4,2.4,0,0,0,.519-1.622,4.464,4.464,0,0,0-.28-1.606,17.6,17.6,0,0,0-.84-1.8l-.445-.873a.318.318,0,0,1-.049-.165.29.29,0,0,1,.1-.222A.375.375,0,0,1-224.815-31.187Zm-5.848,7.182Zm13.1,1.038a3.538,3.538,0,0,1-1.754-.436,3.1,3.1,0,0,1-1.219-1.219,3.605,3.605,0,0,1-.438-1.788,2.748,2.748,0,0,1,1.211-2.454,5.241,5.241,0,0,1,2.973-.807,3.015,3.015,0,0,1,1.507.4,2.991,2.991,0,0,1,1.128,1.136,3.362,3.362,0,0,1,.428,1.713,3.138,3.138,0,0,1-.544,1.837,3.575,3.575,0,0,1-1.425,1.2,4.291,4.291,0,0,1-1.868.42Zm-.181-.939a3.437,3.437,0,0,0,2.324-.692,2.541,2.541,0,0,0,.791-2.026,2.211,2.211,0,0,0-.618-1.565,2.244,2.244,0,0,0-1.721-.659,4.3,4.3,0,0,0-1.5.28,3.042,3.042,0,0,0-1.253.84,1.971,1.971,0,0,0-.494,1.351,2.406,2.406,0,0,0,.329,1.227,2.491,2.491,0,0,0,.9.907A2.39,2.39,0,0,0-217.748-23.906Zm13.211,1.1a3.077,3.077,0,0,1-1.944-.626,3.875,3.875,0,0,1-1.227-1.713,6.817,6.817,0,0,1-.42-2.471,6.279,6.279,0,0,1,.726-2.94,6.28,6.28,0,0,1,1.9-2.239,4.131,4.131,0,0,1,2.446-.848,2.518,2.518,0,0,1,1.647.478,1.42,1.42,0,0,1,.576,1.12,1.167,1.167,0,0,1-.222.692,1.383,1.383,0,0,1-.634.478.739.739,0,0,1-.049-.312,1.624,1.624,0,0,1,.049-.4,3.485,3.485,0,0,0,.033-.379.709.709,0,0,0-.049-.28q-.231-.576-1.252-.576a5.185,5.185,0,0,0-.659.049,3.311,3.311,0,0,0-1.729.865,5.828,5.828,0,0,0-1.4,1.87,5.191,5.191,0,0,0-.546,2.286,5.541,5.541,0,0,0,.338,1.935,3.535,3.535,0,0,0,.98,1.474,2.254,2.254,0,0,0,1.532.56,5.645,5.645,0,0,0,1.919-.28,5.592,5.592,0,0,0,1.508-.856.283.283,0,0,1,.181-.066q.181,0,.247.214.082.4-.527.856a5.443,5.443,0,0,1-1.581.782,5.882,5.882,0,0,1-1.845.321Zm6.737-.181a12.709,12.709,0,0,1-1.062-3.1,14.784,14.784,0,0,1-.387-3.08q0-.51.231-.659a.438.438,0,0,1,.2-.082q.115,0,.173.181a4.6,4.6,0,0,1,.124.659l.082.593a2.7,2.7,0,0,1,.7-1.408,1.735,1.735,0,0,1,1.275-.519,2.02,2.02,0,0,1,1.252.321,1.266,1.266,0,0,1,.412,1.062,3.51,3.51,0,0,0-1.5-.4,1.787,1.787,0,0,0-1.1.346,1.812,1.812,0,0,0-.642,1.02,2.855,2.855,0,0,0-.148.873,2.719,2.719,0,0,0,.124.832,8.081,8.081,0,0,0,.387.947q.247.576.387.988a3.078,3.078,0,0,1,.156.89.439.439,0,0,1-.2.4.852.852,0,0,1-.46.125Zm7.544,0A4.57,4.57,0,0,1-192.2-23.4a3.453,3.453,0,0,1-1.417-1.17,2.982,2.982,0,0,1-.527-1.746,5.2,5.2,0,0,1,.412-2.067,3.656,3.656,0,0,1,1.211-1.548,3.08,3.08,0,0,1,1.87-.585,2.048,2.048,0,0,1,1.7.716,2.651,2.651,0,0,1,.544,1.8,1.672,1.672,0,0,1-.765,1.482,3.451,3.451,0,0,1-1.952.51q-.181,0-.544-.033a2.952,2.952,0,0,1-.84-.181.457.457,0,0,1-.247-.461.218.218,0,0,1,.066-.173.422.422,0,0,1,.264-.057,5.018,5.018,0,0,1,.756.1,5.158,5.158,0,0,0,.939.1q1.515,0,1.515-1.318a2.347,2.347,0,0,0-.288-1.252,1.1,1.1,0,0,0-1.013-.461,2.484,2.484,0,0,0-1.417.42,2.812,2.812,0,0,0-.964,1.1,3.161,3.161,0,0,0-.338,1.433,3.129,3.129,0,0,0,.726,2.131,2.814,2.814,0,0,0,2.239.832q.181,0,.61-.033a2.215,2.215,0,0,0,.445-.1q.264-.082.379-.115a3.6,3.6,0,0,1,1.038-.247.513.513,0,0,1,.379.132,2.348,2.348,0,0,1-1.227.914,4.8,4.8,0,0,1-1.605.289Zm6.309-.016a1.909,1.909,0,0,1-1.342-.527,3.272,3.272,0,0,1-.858-1.367,5.341,5.341,0,0,1-.288-1.746,5.012,5.012,0,0,1,.668-2.668,2.224,2.224,0,0,1,2.034-1.087,3.376,3.376,0,0,1,1.44.288,12.929,12.929,0,0,1,1.622.964l.428.3q-.082-.544-.247-1.252t-.214-.972q-.28-1.285-.4-1.919a5.974,5.974,0,0,1-.124-1.128q0-.873.494-.873a9.068,9.068,0,0,1,.428,1.688q.247,1.293.626,3.533.4,2.372.692,3.871a9.164,9.164,0,0,0,.5,1.878q0,.379-.56.379a.6.6,0,0,1-.585-.494,7.143,7.143,0,0,1-.189-1.729h-.132a6.266,6.266,0,0,1-1.8,2.059,3.706,3.706,0,0,1-2.191.806Zm.214-.807a2.534,2.534,0,0,0,1.458-.568,5.391,5.391,0,0,0,1.326-1.384,2.735,2.735,0,0,0,.544-1.474v-.5a4.652,4.652,0,0,0-3.13-1.779,1.814,1.814,0,0,0-1.548.733,3.143,3.143,0,0,0-.544,1.919l.016.346a4.308,4.308,0,0,0,.56,1.977,1.474,1.474,0,0,0,1.318.725Zm7.33.84q-.379,0-.61-1.112a16.122,16.122,0,0,1-.3-1.919q-.066-.807-.181-2.553-.016-.28-.016-.725a2.245,2.245,0,0,1,.091-.774.312.312,0,0,1,.3-.214.5.5,0,0,1,.288.074.619.619,0,0,1,.189.239l-.016.659a17.621,17.621,0,0,0,.107,1.993q.107.939.338,2.52.132.692.181,1.136a.737.737,0,0,1-.083.453.34.34,0,0,1-.3.222Zm-.412-9.06a.585.585,0,0,1-.535-.28,1.294,1.294,0,0,1-.173-.692,1.5,1.5,0,0,1,.016-.264q-.016-.264.3-.264a1.142,1.142,0,0,1,.47.107q.239.107.14.156a2.029,2.029,0,0,1,.165.675.526.526,0,0,1-.1.338A.911.911,0,0,1-176.816-32.027Zm4.925,9.043a1.446,1.446,0,0,1-.214.033q-.51,0-.7-.758a9.225,9.225,0,0,1-.189-2.125q0-.56.033-1.746.033-.725.033-1.087-2.026,0-2.026-.461a.525.525,0,0,1,.041-.231q.041-.082.189-.082l1.8-.115q-.016-.807-.082-1.762-.066-.856-.082-1.581a.262.262,0,0,1,.148-.255.691.691,0,0,1,.312-.074.385.385,0,0,1,.329.206.77.77,0,0,1,.132.42l.115,3.014,1.367.066a.787.787,0,0,1,.535.115.586.586,0,0,1,.239.494,2.4,2.4,0,0,1-.758.181q-.412.033-1.384.033,0,1.532.148,5.041,0,.362.008.5Zm10.756.181a3.077,3.077,0,0,1-1.945-.626,3.875,3.875,0,0,1-1.226-1.713,6.816,6.816,0,0,1-.42-2.471,6.28,6.28,0,0,1,.725-2.94,6.28,6.28,0,0,1,1.9-2.239,4.131,4.131,0,0,1,2.446-.848,2.517,2.517,0,0,1,1.647.478,1.42,1.42,0,0,1,.576,1.12,1.168,1.168,0,0,1-.222.692,1.383,1.383,0,0,1-.634.478.739.739,0,0,1-.049-.312,1.622,1.622,0,0,1,.049-.4,3.485,3.485,0,0,0,.033-.379.708.708,0,0,0-.049-.28q-.231-.576-1.252-.576a5.185,5.185,0,0,0-.659.049,3.311,3.311,0,0,0-1.729.865,5.827,5.827,0,0,0-1.4,1.87,5.191,5.191,0,0,0-.544,2.286,5.54,5.54,0,0,0,.338,1.935,3.535,3.535,0,0,0,.98,1.474,2.254,2.254,0,0,0,1.532.561,5.646,5.646,0,0,0,1.919-.281,5.592,5.592,0,0,0,1.507-.856.283.283,0,0,1,.181-.066q.181,0,.247.214.082.4-.527.856a5.445,5.445,0,0,1-1.581.782A5.883,5.883,0,0,1-161.134-22.8Zm9.522-.181a6.84,6.84,0,0,1-2.975-.6,2.149,2.149,0,0,1-1.26-2.117,1.92,1.92,0,0,1,.329-1.054,2.394,2.394,0,0,1,.972-.832,3.471,3.471,0,0,1,1.565-.321,9.3,9.3,0,0,1,1.2.066,4.064,4.064,0,0,1,1.136.362,5.234,5.234,0,0,1,1.334.939,6.636,6.636,0,0,0-.791-1.993,4.53,4.53,0,0,0-1.178-1.326,2.186,2.186,0,0,0-1.275-.47,1.412,1.412,0,0,0-.552.107q-.255.107-.618.3a1.354,1.354,0,0,1-.61.264.191.191,0,0,1-.14-.057.191.191,0,0,1-.057-.14,1.139,1.139,0,0,1,.585-1.02,2.466,2.466,0,0,1,1.425-.329,3.273,3.273,0,0,1,2.108.98,6.473,6.473,0,0,1,1.507,2.265,6.981,6.981,0,0,1,.55,2.65q0,.214-.033.61l-.527-.033a3.957,3.957,0,0,0-1.606-1.8,4.071,4.071,0,0,0-1.968-.535,3.273,3.273,0,0,0-1.812.379,1.261,1.261,0,0,0-.543,1.1,1.384,1.384,0,0,0,.758,1.219,3.691,3.691,0,0,0,1.944.461,5.963,5.963,0,0,0,1.054-.074,7.517,7.517,0,0,0,.824-.206,4.711,4.711,0,0,1,.61-.165,3.779,3.779,0,0,1,.675-.049,1.561,1.561,0,0,1,.585.066q.124.066.124.3,0,.165-.675.412a13.277,13.277,0,0,1-1.515.445,6.124,6.124,0,0,1-1.154.2Zm6.111,0a12.708,12.708,0,0,1-1.064-3.1,14.785,14.785,0,0,1-.387-3.08q0-.51.231-.659a.438.438,0,0,1,.2-.082q.115,0,.173.181a4.6,4.6,0,0,1,.124.659l.082.593a2.7,2.7,0,0,1,.7-1.408,1.735,1.735,0,0,1,1.275-.519,2.02,2.02,0,0,1,1.252.321,1.266,1.266,0,0,1,.413,1.063,3.51,3.51,0,0,0-1.5-.4,1.787,1.787,0,0,0-1.1.346,1.811,1.811,0,0,0-.642,1.02,2.857,2.857,0,0,0-.148.873,2.722,2.722,0,0,0,.124.832,8.076,8.076,0,0,0,.387.947q.247.577.387.989a3.081,3.081,0,0,1,.156.89.439.439,0,0,1-.2.4.852.852,0,0,1-.461.124Zm6.473-.016a1.909,1.909,0,0,1-1.342-.527,3.272,3.272,0,0,1-.859-1.367,5.342,5.342,0,0,1-.288-1.746,5.012,5.012,0,0,1,.667-2.668,2.224,2.224,0,0,1,2.034-1.087,3.377,3.377,0,0,1,1.441.288,12.931,12.931,0,0,1,1.622.964l.428.3q-.082-.544-.247-1.252t-.214-.972q-.28-1.285-.4-1.919a5.974,5.974,0,0,1-.124-1.128q0-.873.494-.873a9.069,9.069,0,0,1,.428,1.688q.247,1.293.626,3.533.4,2.372.692,3.871a9.167,9.167,0,0,0,.495,1.878q0,.379-.56.379a.6.6,0,0,1-.585-.494,7.145,7.145,0,0,1-.189-1.729h-.132a6.266,6.266,0,0,1-1.8,2.059,3.706,3.706,0,0,1-2.19.806Zm.214-.807a2.533,2.533,0,0,0,1.458-.568,5.391,5.391,0,0,0,1.326-1.384,2.735,2.735,0,0,0,.544-1.474v-.5a4.652,4.652,0,0,0-3.13-1.779,1.814,1.814,0,0,0-1.549.733,3.143,3.143,0,0,0-.544,1.919l.016.346a4.308,4.308,0,0,0,.56,1.977,1.474,1.474,0,0,0,1.316.725Zm-63.748,18.3a.414.414,0,0,1-.329.132A4.964,4.964,0,0,1-205.353-6.8a32.618,32.618,0,0,1-2.99-2.841q.082.445.312,1.5.1.412.173.791a3.3,3.3,0,0,1,.074.593q0,.478-.346.576-.083.214-.436-1.071t-.659-2.973a16.411,16.411,0,0,1-.3-2.825,3.663,3.663,0,0,1,.1-.939.645.645,0,0,1,.363-.165q.3,0,.412.5a13.143,13.143,0,0,1,.214,1.573l.033.379a11.272,11.272,0,0,0,1.754-.28,8.758,8.758,0,0,0,1.993-.684q.881-.436.881-1.046a1.078,1.078,0,0,0-.469-.733,3.87,3.87,0,0,0-1.433-.684,8.58,8.58,0,0,0-2.364-.28h-.527a2.944,2.944,0,0,0-1.466.3,1.372,1.372,0,0,0-.527,1.293.548.548,0,0,1-.445-.312,1.1,1.1,0,0,1-.2-.576,1.284,1.284,0,0,1,.98-1.334,9.785,9.785,0,0,1,2.825-.312,7.113,7.113,0,0,1,2.026.312,4.452,4.452,0,0,1,1.779.98,2.159,2.159,0,0,1,.725,1.655,1.344,1.344,0,0,1-.6,1.12,4.619,4.619,0,0,1-1.408.692q-.807.247-1.977.51-.972.214-1.268.312A14.664,14.664,0,0,0-205.684-8.1a21.609,21.609,0,0,0,2.462,1.729q.445.264.626.4t.181.247a.271.271,0,0,1-.146.215Zm4.694-.56a4.57,4.57,0,0,1-1.943-.412,3.453,3.453,0,0,1-1.417-1.17,2.981,2.981,0,0,1-.527-1.746,5.2,5.2,0,0,1,.412-2.067,3.656,3.656,0,0,1,1.211-1.548,3.08,3.08,0,0,1,1.87-.585,2.048,2.048,0,0,1,1.7.716,2.651,2.651,0,0,1,.544,1.8,1.672,1.672,0,0,1-.765,1.482,3.45,3.45,0,0,1-1.952.51q-.181,0-.544-.033a2.952,2.952,0,0,1-.84-.181.457.457,0,0,1-.247-.461.218.218,0,0,1,.066-.173.422.422,0,0,1,.264-.057,5.018,5.018,0,0,1,.758.1,5.158,5.158,0,0,0,.939.1q1.515,0,1.515-1.318a2.347,2.347,0,0,0-.288-1.252,1.1,1.1,0,0,0-1.013-.461,2.484,2.484,0,0,0-1.417.42,2.811,2.811,0,0,0-.964,1.1,3.162,3.162,0,0,0-.338,1.433,3.129,3.129,0,0,0,.725,2.133,2.814,2.814,0,0,0,2.239.832q.181,0,.61-.033a2.216,2.216,0,0,0,.445-.1q.264-.082.379-.115a3.6,3.6,0,0,1,1.038-.247.513.513,0,0,1,.379.132,2.348,2.348,0,0,1-1.227.914,4.8,4.8,0,0,1-1.605.287Zm8.006-.774a2.785,2.785,0,0,1-1.581.461,2.522,2.522,0,0,1-2.2-1.03,4.247,4.247,0,0,1-.734-2.529,5.015,5.015,0,0,1,.453-2.1,4.063,4.063,0,0,1,1.283-1.612,3.158,3.158,0,0,1,1.935-.618,2.757,2.757,0,0,1,.98.2,2.14,2.14,0,0,1,.865.593,1.357,1.357,0,0,1,.346.922l-.478,5.551a27.88,27.88,0,0,0,.181,2.834q.165,1.845.165,2.784,0,.214-.247.272a3.012,3.012,0,0,1-.659.057Zm-1.631-.593a3.027,3.027,0,0,0,1.631-.346,44.778,44.778,0,0,0,.478-4.629.857.857,0,0,0-.5-.774,2.213,2.213,0,0,0-1.1-.28,2.045,2.045,0,0,0-1.8.955,4.219,4.219,0,0,0-.642,2.4,3.493,3.493,0,0,0,.469,1.993,1.652,1.652,0,0,0,1.457.675Zm11.547,1.285a.538.538,0,0,1-.469-.255,2.543,2.543,0,0,1-.3-.791q-.132-.535-.412-1.87a3.267,3.267,0,0,1-1.054,1.754,2.845,2.845,0,0,1-1.894.652,2.313,2.313,0,0,1-1.721-.716,4.447,4.447,0,0,1-1.046-1.894,8.995,8.995,0,0,1-.346-2.545,4.137,4.137,0,0,1,.124-1.079,1.849,1.849,0,0,1,.312-.684.453.453,0,0,1,.371-.216q.2,0,.2.264a3.144,3.144,0,0,1-.115.675,5.338,5.338,0,0,0-.115,1.17,6.529,6.529,0,0,0,.288,1.927,3.842,3.842,0,0,0,.856,1.54,1.788,1.788,0,0,0,1.342.6A1.958,1.958,0,0,0-182.762-8a2.734,2.734,0,0,0,.832-.955,2.419,2.419,0,0,0,.3-1.136v-2.62a.549.549,0,0,1,.494-.346q.28,0,.379.478a7.063,7.063,0,0,1,.1,1.351q0,.741-.016,1.136a6.639,6.639,0,0,0,.3,1.1q.206.56.519,1.268a4.359,4.359,0,0,1,.379,1.071.43.43,0,0,1-.115.366.43.43,0,0,1-.362.128Zm2.9.1q-.379,0-.61-1.112a16.125,16.125,0,0,1-.3-1.919q-.066-.807-.181-2.553-.016-.28-.016-.725a2.243,2.243,0,0,1,.091-.774.312.312,0,0,1,.3-.214.5.5,0,0,1,.288.074.619.619,0,0,1,.189.239l-.016.659a17.607,17.607,0,0,0,.107,1.993q.107.939.338,2.52.132.692.181,1.136a.737.737,0,0,1-.082.453.34.34,0,0,1-.3.221Zm-.412-9.06a.585.585,0,0,1-.535-.28,1.293,1.293,0,0,1-.173-.692,1.5,1.5,0,0,1,.016-.264q-.016-.264.3-.264a1.142,1.142,0,0,1,.469.107q.239.107.14.156a2.03,2.03,0,0,1,.165.675.526.526,0,0,1-.1.338.911.911,0,0,1-.281.222Zm3.722,9.043a12.71,12.71,0,0,1-1.063-3.1,14.789,14.789,0,0,1-.387-3.08q0-.51.231-.659a.438.438,0,0,1,.2-.082q.115,0,.173.181a4.61,4.61,0,0,1,.124.659l.082.593a2.7,2.7,0,0,1,.7-1.408,1.735,1.735,0,0,1,1.275-.519,2.02,2.02,0,0,1,1.252.321,1.266,1.266,0,0,1,.412,1.062,3.51,3.51,0,0,0-1.5-.4,1.787,1.787,0,0,0-1.1.346,1.811,1.811,0,0,0-.642,1.02,2.856,2.856,0,0,0-.149.875,2.721,2.721,0,0,0,.124.832,8.084,8.084,0,0,0,.387.947q.247.576.387.988a3.078,3.078,0,0,1,.156.89.439.439,0,0,1-.2.4A.852.852,0,0,1-173.735-6.07Zm7.544,0a4.569,4.569,0,0,1-1.944-.412,3.453,3.453,0,0,1-1.417-1.17,2.982,2.982,0,0,1-.527-1.746,5.2,5.2,0,0,1,.412-2.067,3.656,3.656,0,0,1,1.211-1.548,3.08,3.08,0,0,1,1.87-.585,2.048,2.048,0,0,1,1.7.716,2.651,2.651,0,0,1,.544,1.8,1.672,1.672,0,0,1-.765,1.482,3.45,3.45,0,0,1-1.952.51q-.181,0-.544-.033a2.951,2.951,0,0,1-.84-.181.457.457,0,0,1-.247-.461.218.218,0,0,1,.066-.173.422.422,0,0,1,.264-.057,5.018,5.018,0,0,1,.758.1,5.158,5.158,0,0,0,.939.1q1.515,0,1.515-1.318a2.347,2.347,0,0,0-.288-1.252,1.1,1.1,0,0,0-1.013-.461,2.484,2.484,0,0,0-1.417.42,2.811,2.811,0,0,0-.964,1.1,3.162,3.162,0,0,0-.339,1.432,3.129,3.129,0,0,0,.725,2.133,2.814,2.814,0,0,0,2.24.833q.181,0,.61-.033a2.215,2.215,0,0,0,.445-.1q.264-.082.379-.115a3.6,3.6,0,0,1,1.038-.247.513.513,0,0,1,.379.132,2.348,2.348,0,0,1-1.227.914,4.8,4.8,0,0,1-1.606.287Zm6.308-.017a1.909,1.909,0,0,1-1.342-.527,3.272,3.272,0,0,1-.856-1.367,5.342,5.342,0,0,1-.289-1.745A5.012,5.012,0,0,1-161.7-12.4a2.224,2.224,0,0,1,2.034-1.087,3.376,3.376,0,0,1,1.441.288,12.934,12.934,0,0,1,1.622.964l.428.3q-.082-.544-.247-1.252t-.214-.972q-.28-1.285-.4-1.919a5.976,5.976,0,0,1-.124-1.128q0-.873.494-.873a9.067,9.067,0,0,1,.428,1.688q.247,1.293.626,3.533.4,2.372.692,3.871a9.168,9.168,0,0,0,.5,1.878q0,.379-.56.379a.6.6,0,0,1-.585-.494,7.144,7.144,0,0,1-.189-1.729h-.132a6.266,6.266,0,0,1-1.8,2.059A3.706,3.706,0,0,1-159.883-6.088Zm.214-.807a2.534,2.534,0,0,0,1.458-.567,5.39,5.39,0,0,0,1.326-1.384,2.736,2.736,0,0,0,.544-1.474v-.495a4.652,4.652,0,0,0-3.13-1.779,1.814,1.814,0,0,0-1.548.733,3.143,3.143,0,0,0-.544,1.918l.016.346a4.308,4.308,0,0,0,.56,1.978,1.474,1.474,0,0,0,1.318.724Z" transform="translate(1420.265 895.022)" stroke="#000" stroke-width="1"/>
    <g id="Group_656" data-name="Group 656" transform="matrix(1, -0.017, 0.017, 1, -14.996, 20.696)">
      <path id="Path_1416" data-name="Path 1416" d="M12522.51,6229.579c28.414-22.731,117.675-40.137,173.766,9.934" transform="translate(-11488 -5382)" fill="none" stroke="#000" stroke-linecap="round" stroke-width="2"/>
      <path id="Path_1417" data-name="Path 1417" d="M12523.984,6220.611l-1.87,9.353,10.033.284" transform="translate(-11488 -5382)" fill="none" stroke="#000" stroke-linecap="round" stroke-width="2"/>
    </g>
  </g>
</svg>
