<svg xmlns="http://www.w3.org/2000/svg" xmlns:xlink="http://www.w3.org/1999/xlink" width="107" height="107" viewBox="0 0 107 107">
  <defs>
    <filter id="Ellipse_20" x="0" y="0" width="107" height="107" filterUnits="userSpaceOnUse">
      <feOffset dx="6" dy="6" input="SourceAlpha"/>
      <feGaussianBlur stdDeviation="7.5" result="blur"/>
      <feFlood flood-opacity="0.059"/>
      <feComposite operator="in" in2="blur"/>
      <feComposite in="SourceGraphic"/>
    </filter>
    <filter id="Ellipse_17" x="5" y="5" width="97" height="97" filterUnits="userSpaceOnUse">
      <feOffset dx="6" dy="6" input="SourceAlpha"/>
      <feGaussianBlur stdDeviation="7.5" result="blur-2"/>
      <feFlood flood-opacity="0.059"/>
      <feComposite operator="in" in2="blur-2"/>
      <feComposite in="SourceGraphic"/>
    </filter>
  </defs>
  <g id="Group_150" data-name="Group 150" transform="translate(-602.5 -840.5)">
    <g transform="matrix(1, 0, 0, 1, 602.5, 840.5)" filter="url(#Ellipse_20)">
      <circle id="Ellipse_20-2" data-name="Ellipse 20" cx="31" cy="31" r="31" transform="translate(16.5 16.5)" fill="#f1f1f1"/>
    </g>
    <g transform="matrix(1, 0, 0, 1, 602.5, 840.5)" filter="url(#Ellipse_17)">
      <circle id="Ellipse_17-2" data-name="Ellipse 17" cx="26" cy="26" r="26" transform="translate(21.5 21.5)" fill="#fff"/>
    </g>
    <path id="Union_3" data-name="Union 3" d="M-12348.062,25.559c-.006-.1-.019-.2-.019-.3q0-5.362,0-10.722a.4.4,0,0,1,.319-.451c2.225-.794,4.443-1.6,6.666-2.4a1.547,1.547,0,0,1,.572-.146.777.777,0,0,1,.77.76c.009.482-.006.964,0,1.446.006.195-.067.247-.267.261a2.306,2.306,0,0,0-2.239,1.678,2.009,2.009,0,0,0-.077.515,21.06,21.06,0,0,0,.034,2.342,2.238,2.238,0,0,0,1.942,1.867c.6.064.6.064.6.665,0,.291,0,.581,0,.872a.784.784,0,0,1-.622.865q-2.035.736-4.068,1.471-1.758.634-3.512,1.276Zm-1.657,0-4.746-1.725q-1.43-.517-2.859-1.034a.765.765,0,0,1-.6-.828c0-.423,0-.847,0-1.27,0-.178.053-.247.247-.254a2.33,2.33,0,0,0,2.046-1.154,2.03,2.03,0,0,0,.289-1.048,18.562,18.562,0,0,0-.034-2.342,2.244,2.244,0,0,0-1.923-1.859l-.229-.028c-.393-.05-.393-.05-.393-.446s0-.8,0-1.2a.784.784,0,0,1,1.121-.76c1.368.482,2.732.98,4.1,1.472.953.343,1.9.693,2.859,1.03a.318.318,0,0,1,.248.348q-.009,5.435,0,10.871c0,.073-.012.148-.018.223Zm-8.827-6.6a1.778,1.778,0,0,1-1.439-1.984,1.81,1.81,0,0,1,1.832-1.512c.181,0,.361,0,.542,0a.758.758,0,0,1,.76.733c.008.348,0,.7,0,1.046,0,.315,0,.63,0,.945a.763.763,0,0,1-.82.8c-.149,0-.3.009-.45.009A1.986,1.986,0,0,1-12358.546,18.96Zm18.5.03a.755.755,0,0,1-.776-.741c-.008-.68-.008-1.359,0-2.04a.756.756,0,0,1,.775-.743c.121,0,.24,0,.35,0a1.842,1.842,0,0,1,1.977,1.354,1.783,1.783,0,0,1-1.73,2.17c-.109,0-.218,0-.326,0C-12339.871,18.993-12339.961,18.992-12340.05,18.99Zm-9.034-6.134-5.548-2c-.3-.108-.3-.132-.063-.322a9.237,9.237,0,0,1,2.4-1.4.46.46,0,0,1,.435.033,6,6,0,0,0,6.032,0,.466.466,0,0,1,.436-.04,9.605,9.605,0,0,1,2.445,1.432c.166.134.164.2-.048.278q-2.834,1.021-5.671,2.047a1.841,1.841,0,0,1-.182.049C-12348.92,12.907-12349,12.885-12349.084,12.855Zm.229-4.34a4.314,4.314,0,0,1-4.4-4.248A4.311,4.311,0,0,1-12348.85,0a4.316,4.316,0,0,1,4.432,4.248,4.316,4.316,0,0,1-4.434,4.267Z" transform="translate(12998.838 875.22)" fill="#0565ff" stroke="rgba(0,0,0,0)" stroke-width="1"/>
  </g>
</svg>
