<svg xmlns="http://www.w3.org/2000/svg" xmlns:xlink="http://www.w3.org/1999/xlink" width="852" height="852" viewBox="0 0 852 852">
  <defs>
    <clipPath id="clip-path">
      <rect id="Rectangle_1791" data-name="Rectangle 1791" width="720.886" height="746.883" fill="none"/>
    </clipPath>
  </defs>
  <g id="Group_7382" data-name="Group 7382" transform="translate(-938 -5681)">
    <circle id="Ellipse_801" data-name="Ellipse 801" cx="426" cy="426" r="426" transform="translate(938 5681)" fill="#f2f8fb"/>
    <g id="Group_7373" data-name="Group 7373" transform="translate(1004.114 5734.94)">
      <g id="Group_7372" data-name="Group 7372" clip-path="url(#clip-path)">
        <path id="Path_3865" data-name="Path 3865" d="M343.72,436.716c0,8.944-73.236,16.194-163.575,16.194S16.569,445.66,16.569,436.716,89.8,420.522,180.144,420.522s163.575,7.25,163.575,16.194" transform="translate(11.504 291.965)" fill="#263238"/>
        <ellipse id="Ellipse_800" data-name="Ellipse 800" cx="163.575" cy="16.194" rx="163.575" ry="16.194" transform="translate(28.073 712.487)" fill="none" stroke="#263238" stroke-linecap="round" stroke-linejoin="round" stroke-width="2.371"/>
        <path id="Path_3866" data-name="Path 3866" d="M456.333,430.366c0,3.783-25.169,6.852-56.218,6.852s-56.217-3.068-56.217-6.852,25.17-6.852,56.217-6.852,56.218,3.068,56.218,6.852" transform="translate(238.766 294.042)" fill="#263238"/>
        <line id="Line_30" data-name="Line 30" x2="716.65" transform="translate(2.118 696.568)" fill="none" stroke="#263238" stroke-linecap="round" stroke-linejoin="round" stroke-width="2.5"/>
        <path id="Path_3867" data-name="Path 3867" d="M407.159,460.037H381.994a32.4,32.4,0,0,1-32.4-32.4V382.542h89.969v45.094a32.4,32.4,0,0,1-32.4,32.4" transform="translate(242.719 265.596)" fill="#fff"/>
        <path id="Path_3868" data-name="Path 3868" d="M407.159,460.037H381.994a32.4,32.4,0,0,1-32.4-32.4V382.542h89.969v45.094A32.4,32.4,0,0,1,407.159,460.037Z" transform="translate(242.719 265.596)" fill="none" stroke="#263238" stroke-linecap="round" stroke-linejoin="round" stroke-width="2.5"/>
        <line id="Line_31" data-name="Line 31" x2="89.875" transform="translate(592.358 673.844)" fill="none" stroke="#263238" stroke-linecap="round" stroke-linejoin="round" stroke-width="2.5"/>
        <path id="Path_3869" data-name="Path 3869" d="M370.523,352.934c4.246,4.414,11.26,4.647,14.069-1.074,1.071-2.179,1.408-6.628,0-10.52-4.5-12.453-17.575-14.852-20.26-11.164-2.814,3.865-.42,15.886,6.191,22.758" transform="translate(252.147 228.142)" fill="#9ed192"/>
        <path id="Path_3870" data-name="Path 3870" d="M370.523,352.934c4.246,4.414,11.26,4.647,14.069-1.074,1.071-2.179,1.408-6.628,0-10.52-4.5-12.453-17.575-14.852-20.26-11.164C361.517,334.041,363.912,346.062,370.523,352.934Z" transform="translate(252.147 228.142)" fill="none" stroke="#263238" stroke-linecap="round" stroke-linejoin="round" stroke-width="2.5"/>
        <path id="Path_3871" data-name="Path 3871" d="M397.71,365.575c-5.757,5.013-14.635,4.473-17.67-3.016-1.156-2.853-1.181-8.458.947-13.156,6.8-15.039,23.527-16.485,26.587-11.553,3.206,5.168-.9,19.918-9.864,27.725" transform="translate(263.316 232.803)" fill="#9ed192"/>
        <path id="Path_3872" data-name="Path 3872" d="M397.71,365.575c-5.757,5.013-14.635,4.473-17.67-3.016-1.156-2.853-1.181-8.458.947-13.156,6.8-15.039,23.527-16.485,26.587-11.553C410.78,343.017,406.677,357.768,397.71,365.575Z" transform="translate(263.316 232.803)" fill="none" stroke="#263238" stroke-linecap="round" stroke-linejoin="round" stroke-width="2.5"/>
        <path id="Path_3873" data-name="Path 3873" d="M390.175,374.251c0-.644-1.5-8.8-15.2-11.807s-25.325,7.3-20.26,13.31,22.138-.429,26.827-.429a36.648,36.648,0,0,0,8.629-1.074" transform="translate(245.439 251.268)" fill="#9ed192"/>
        <path id="Path_3874" data-name="Path 3874" d="M390.175,374.251c0-.644-1.5-8.8-15.2-11.807s-25.325,7.3-20.26,13.31,22.138-.429,26.827-.429A36.648,36.648,0,0,0,390.175,374.251Z" transform="translate(245.439 251.268)" fill="none" stroke="#263238" stroke-linecap="round" stroke-linejoin="round" stroke-width="2.5"/>
        <path id="Path_3875" data-name="Path 3875" d="M376.37,368.777c0-.644,2.814-5.8,16.509-8.8s24.012,4.295,18.947,10.306-21.949-3.221-26.639-3.221a25.785,25.785,0,0,0-8.817,1.718" transform="translate(261.311 249.442)" fill="#9ed192"/>
        <path id="Path_3876" data-name="Path 3876" d="M376.37,368.777c0-.644,2.814-5.8,16.509-8.8s24.012,4.295,18.947,10.306-21.949-3.221-26.639-3.221A25.785,25.785,0,0,0,376.37,368.777Z" transform="translate(261.311 249.442)" fill="none" stroke="#263238" stroke-linecap="round" stroke-linejoin="round" stroke-width="2.5"/>
        <path id="Path_3877" data-name="Path 3877" d="M382.791,350.715A11.416,11.416,0,0,1,373.6,352c-5.252-1.5-11.818-5.8-15.757.215s-6,16.746,5.064,15.459,21.011-17.39,21.011-17.39" transform="translate(246.257 242.384)" fill="#9ed192"/>
        <path id="Path_3878" data-name="Path 3878" d="M382.791,350.715A11.416,11.416,0,0,1,373.6,352c-5.252-1.5-11.818-5.8-15.757.215s-6,16.746,5.064,15.459,21.011-17.39,21.011-17.39" transform="translate(246.257 242.384)" fill="none" stroke="#263238" stroke-linecap="round" stroke-linejoin="round" stroke-width="2.5"/>
        <path id="Path_3879" data-name="Path 3879" d="M375.638,408.482c1.466-22.1,4.842-47.869,20.374-62.86" transform="translate(260.803 239.963)" fill="none" stroke="#263238" stroke-linecap="round" stroke-linejoin="round" stroke-width="2.5"/>
        <path id="Path_3880" data-name="Path 3880" d="M381.279,382.815c0-14.715-3.753-25.979-11.443-29.843" transform="translate(256.774 245.066)" fill="none" stroke="#263238" stroke-linecap="round" stroke-linejoin="round" stroke-width="2.5"/>
        <path id="Path_3881" data-name="Path 3881" d="M381.007,387.975c0-21-1.315-41.866-10.508-51.1" transform="translate(257.235 233.892)" fill="none" stroke="#263238" stroke-linecap="round" stroke-linejoin="round" stroke-width="2.5"/>
        <path id="Path_3882" data-name="Path 3882" d="M377.918,363.94c0-.949,8.726-1.718,19.51-1.718" transform="translate(262.385 251.488)" fill="none" stroke="#263238" stroke-linecap="round" stroke-linejoin="round" stroke-width="2.5"/>
        <path id="Path_3883" data-name="Path 3883" d="M386.968,373.544c0-.474-8.443-10.95-25.326-5.8" transform="translate(251.085 254.337)" fill="none" stroke="#263238" stroke-linecap="round" stroke-linejoin="round" stroke-width="2.5"/>
        <path id="Path_3884" data-name="Path 3884" d="M360.535,357.991c4.5-6.227,8.443-7.086,8.255-7.3" transform="translate(250.317 243.481)" fill="none" stroke="#263238" stroke-linecap="round" stroke-linejoin="round" stroke-width="2.5"/>
        <path id="Path_3885" data-name="Path 3885" d="M193.079,93.253C175,117,170.653,138.371,170.653,139.945L248,182.163c8-31.283,34.22-66.086,85.846-74.933,71.545-12.263,106.82,36.853,113.336,71.16,6.108,32.148-5.745,61.945-33.6,85.919M561.33,179.537C548.945,88.479,457.57,26.886,356.141,26.886c-66.382,0-109.5,18.319-137.27,40.216m319.22,200.77c12.709-15.947,19.894-34.88,23.646-61.13M421.209,345.33c33-14.093,66.41-31.224,92.48-52.9M420.729,439.99V421.428c0-26.977.817-49.865,28.61-62.126,78.478-33.516,138.153-82.565,138.153-162.677C587.492,81.361,477.95,1.25,355.331,1.25c-182.3,0-217.447,150.414-217.447,154.5l120.169,58.04c8.992-35.15,37.6-84.2,96.461-84.2,36.785,0,66.215,27.793,66.215,67.031,0,58.041-46.595,60.493-96.461,92.375-15.144,9.759-24.33,20.487-29.9,32.242C293.01,324.113,285,339.8,286.7,365.228m50.817,76.748-27,.285V388.07H285.846v79.135H420.729v-7.448m-24.982-18.4-26.6.281m108.37-160.882c-17.646,13.922-39.343,26.231-63.705,37.583-6.642,3.094-24.606,7.211-36.466,24.791H341.013c-1.228-18.519,38.576-36.836,80.1-53.54H373.591q-5.276,2.486-10.9,4.8c-18.449,7.59-58.484,18.822-53.967,70.832l28.535.557V418.2l36.441-1.044V381.187c0-4.647.032-9.139.31-13.424l25.3,0c-3.377,9.522-3.561,20.726-3.561,32.859v14.522M524.294,209.377c-3.353,20.425-13.078,38.152-27.671,53.9m14.954-134.251a144.839,144.839,0,0,1,13.773,55.141M309.068,51.426a239.931,239.931,0,0,1,47.942-5.667c50.341-1.128,94.106,14.451,124.42,42.508M235.6,87.886a152.577,152.577,0,0,1,47.791-28.72M362.7,78.206a196.23,196.23,0,0,0-33.642,2.884c-45.585,7.814-88.056,37.6-95.121,65.223L205.469,130c0-1.113,3.655-11.255,13.48-24.142M452.075,267.872c31.812-33.22,45.554-83.969,24.383-127.489-16.982-34.908-50.732-55.059-90.819-60.6M279.495,647.512a92.812,92.812,0,0,1-19.806-57.472c0-52.318,41.69-94.01,93.191-94.01m19.059,1.893a93.431,93.431,0,0,1,74.949,92.117c0,51.5-41.691,93.191-94.008,93.191a92.807,92.807,0,0,1-53.733-17.023m3.4-26.275a70.781,70.781,0,0,1-20.564-49.992c0-39.858,31.761-71.621,71-71.621m67.236,96.241a71.74,71.74,0,0,1-99.784,38.506m49.807-132.7A71.18,71.18,0,0,1,424.6,589.942q0,2.78-.21,5.51m-116.464,0a46.325,46.325,0,0,1,14.468-39.589m30.7,79.474a45.476,45.476,0,0,1-39.706-23.244m24.032-65.4a45.767,45.767,0,0,1,41.427,80.877m-7.8-37.862a17.75,17.75,0,1,1-17.827-17.827A17.7,17.7,0,0,1,371.037,589.708Z" transform="translate(95.732 0.868)" fill="none" stroke="#263238" stroke-linecap="round" stroke-linejoin="round" stroke-width="2.5"/>
        <line id="Line_32" data-name="Line 32" x2="27.349" transform="translate(509.539 229.843)" fill="none" stroke="#263238" stroke-linecap="round" stroke-linejoin="round" stroke-width="2.5"/>
        <line id="Line_33" data-name="Line 33" y1="0.439" x2="67.106" transform="translate(610.292 238.722)" fill="none" stroke="#263238" stroke-linecap="round" stroke-linejoin="round" stroke-width="2.5"/>
        <line id="Line_34" data-name="Line 34" x2="35.971" transform="translate(584.05 174.29)" fill="none" stroke="#263238" stroke-linecap="round" stroke-linejoin="round" stroke-width="2.5"/>
        <line id="Line_35" data-name="Line 35" x2="59.827" transform="translate(521.335 313.53)" fill="none" stroke="#263238" stroke-linecap="round" stroke-linejoin="round" stroke-width="2.5"/>
        <line id="Line_36" data-name="Line 36" x2="0.839" y2="22.644" transform="translate(434.945 83.655)" fill="none" stroke="#263238" stroke-linecap="round" stroke-linejoin="round" stroke-width="2.5"/>
        <line id="Line_37" data-name="Line 37" x2="13.9" y2="18.568" transform="translate(333.266 57.904)" fill="none" stroke="#263238" stroke-linecap="round" stroke-linejoin="round" stroke-width="2.5"/>
        <line id="Line_38" data-name="Line 38" x2="4.288" y2="32.619" transform="translate(410.325 51.036)" fill="none" stroke="#263238" stroke-linecap="round" stroke-linejoin="round" stroke-width="2.5"/>
        <line id="Line_39" data-name="Line 39" y2="27.958" transform="translate(448.82 544.791)" fill="none" stroke="#263238" stroke-linecap="round" stroke-linejoin="round" stroke-width="2.5"/>
        <line id="Line_40" data-name="Line 40" x2="20.135" y2="13.119" transform="translate(389.829 550.633)" fill="none" stroke="#263238" stroke-linecap="round" stroke-linejoin="round" stroke-width="2.5"/>
        <line id="Line_41" data-name="Line 41" x1="18.542" y2="18.749" transform="translate(489.349 550.21)" fill="none" stroke="#263238" stroke-linecap="round" stroke-linejoin="round" stroke-width="2.5"/>
        <line id="Line_42" data-name="Line 42" x2="5.015" y2="21.767" transform="translate(424.49 500.049)" fill="none" stroke="#263238" stroke-linecap="round" stroke-linejoin="round" stroke-width="2.5"/>
        <line id="Line_43" data-name="Line 43" x1="11.613" y2="22.912" transform="translate(419.289 632.544)" fill="none" stroke="#263238" stroke-linecap="round" stroke-linejoin="round" stroke-width="2.5"/>
        <line id="Line_44" data-name="Line 44" y1="3.336" x2="20.575" transform="translate(360.443 612.31)" fill="none" stroke="#263238" stroke-linecap="round" stroke-linejoin="round" stroke-width="2.5"/>
        <line id="Line_45" data-name="Line 45" x2="7.191" y2="21.123" transform="translate(468.749 659.017)" fill="none" stroke="#263238" stroke-linecap="round" stroke-linejoin="round" stroke-width="2.5"/>
        <path id="Path_3886" data-name="Path 3886" d="M246.774,354.466l12.653,18.449h12.707s0-28.608,6.777-47.994,22.648-29.049,55.064-46.01c21.179-11.081,25.414-9.83,25.414-9.83h43.364s55.785-43.615,39.374-109.255C426.315,96.571,347.29,88.136,347.29,88.136l-1.515-30.082s47.215,2.672,70.654,17.914S460.7,114.724,460.7,114.724l24.913-17.587s-27.764-41.022-84.74-56.5c-69.463-18.873-129.588-3.046-129.588-3.046l11.86,28.1-5.679,1.852a148.62,148.62,0,0,0-58.319,35.526L173.5,69.337s36.792-40.819,85.079-51.832S363.626,1.127,430.788,29.55c39.181,16.582,74.855,45.415,93.8,75.211C551.694,147.4,548.3,188.629,548.3,188.629l-66.73-.786s5.649,12.384-12.338,48.941c-9.253,18.808-20.9,28.088-20.9,28.088l71.16,10.749s-51.676,44.975-72.007,53.54-54.139,23.889-58.414,39.1-5.969,55.874-5.969,55.874H325.076v22.969H427.162" transform="translate(120.46 5.992)" fill="none" stroke="#59bfe3" stroke-linecap="round" stroke-linejoin="round" stroke-width="2.5"/>
        <path id="Path_3887" data-name="Path 3887" d="M327.24,286.479,348.1,302.112v10.527a9.741,9.741,0,0,0,9.742,9.742h97.264a9.741,9.741,0,0,0,9.742-9.742v-61.21a9.741,9.741,0,0,0-9.742-9.742H357.841a9.741,9.741,0,0,0-9.742,9.742v15.93L324.978,282.7a2.415,2.415,0,0,0,2.262,3.777" transform="translate(225.326 167.801)" fill="#fff"/>
        <path id="Path_3888" data-name="Path 3888" d="M327.24,286.479,348.1,302.112v10.527a9.741,9.741,0,0,0,9.742,9.742h97.264a9.741,9.741,0,0,0,9.742-9.742v-61.21a9.741,9.741,0,0,0-9.742-9.742H357.841a9.741,9.741,0,0,0-9.742,9.742v15.93L324.978,282.7A2.415,2.415,0,0,0,327.24,286.479Z" transform="translate(225.326 167.801)" fill="none" stroke="#afdeef" stroke-linecap="round" stroke-linejoin="round" stroke-width="2.5"/>
        <path id="Path_3889" data-name="Path 3889" d="M363.4,271.469a16.2,16.2,0,1,1,26.085,12.838,8.41,8.41,0,0,0-3.251,6.676,2.65,2.65,0,0,1-2.65,2.65h-7.96a2.65,2.65,0,0,1-2.652-2.65,8.549,8.549,0,0,0-3.329-6.735,16.168,16.168,0,0,1-6.243-12.778" transform="translate(252.309 177.228)" fill="#fff" stroke="#ffb029" stroke-width="1"/>
        <path id="Path_3890" data-name="Path 3890" d="M363.4,271.469a16.2,16.2,0,1,1,26.085,12.838,8.41,8.41,0,0,0-3.251,6.676,2.65,2.65,0,0,1-2.65,2.65h-7.96a2.65,2.65,0,0,1-2.652-2.65,8.549,8.549,0,0,0-3.329-6.735A16.168,16.168,0,0,1,363.4,271.469Z" transform="translate(252.309 177.228)" fill="none" stroke="#ffb029" stroke-linecap="round" stroke-linejoin="round" stroke-width="2.5"/>
        <path id="Path_3891" data-name="Path 3891" d="M372.325,284.961H377.5a2.157,2.157,0,0,0,2.155-2.157v-4.895h-9.49V282.8a2.157,2.157,0,0,0,2.157,2.157" transform="translate(257.005 192.95)" fill="#ffb029" stroke="#ffb029" stroke-width="1"/>
        <path id="Path_3892" data-name="Path 3892" d="M372.325,284.961H377.5a2.157,2.157,0,0,0,2.155-2.157v-4.895h-9.49V282.8A2.157,2.157,0,0,0,372.325,284.961Z" transform="translate(257.005 192.95)" fill="none" stroke="#ffb029" stroke-linecap="round" stroke-linejoin="round" stroke-width="2.5"/>
        <line id="Line_46" data-name="Line 46" y2="5.369" transform="translate(632.16 421.758)" fill="none" stroke="#ffb029" stroke-linecap="round" stroke-linejoin="round" stroke-width="2.5"/>
        <line id="Line_47" data-name="Line 47" x1="5.368" transform="translate(653.434 448.69)" fill="none" stroke="#ffb029" stroke-linecap="round" stroke-linejoin="round" stroke-width="2.5"/>
        <line id="Line_48" data-name="Line 48" x1="4.244" y2="3.287" transform="translate(648.627 430.849)" fill="none" stroke="#ffb029" stroke-linecap="round" stroke-linejoin="round" stroke-width="2.5"/>
        <line id="Line_49" data-name="Line 49" x2="4.244" y2="3.287" transform="translate(612.762 430.849)" fill="none" stroke="#ffb029" stroke-linecap="round" stroke-linejoin="round" stroke-width="2.5"/>
        <line id="Line_50" data-name="Line 50" x1="5.369" transform="translate(605.318 448.69)" fill="none" stroke="#ffb029" stroke-linecap="round" stroke-linejoin="round" stroke-width="2.5"/>
        <path id="Path_3893" data-name="Path 3893" d="M27.449,26.95H136.068a11.048,11.048,0,0,1,10.879,11.208v70.427a11.048,11.048,0,0,1-10.879,11.209H101.152l3.573,25.855a2.707,2.707,0,0,1-4.151,2.714L58.338,119.794H27.449A11.048,11.048,0,0,1,16.57,108.584V38.158A11.048,11.048,0,0,1,27.449,26.95" transform="translate(11.504 18.711)" fill="#fff"/>
        <path id="Path_3894" data-name="Path 3894" d="M27.449,26.95H136.068a11.048,11.048,0,0,1,10.879,11.208v70.427a11.048,11.048,0,0,1-10.879,11.209H101.152l3.573,25.855a2.707,2.707,0,0,1-4.151,2.714L58.338,119.794H27.449A11.048,11.048,0,0,1,16.57,108.584V38.158A11.048,11.048,0,0,1,27.449,26.95Z" transform="translate(11.504 18.711)" fill="none" stroke="#59bfe3" stroke-linecap="round" stroke-linejoin="round" stroke-width="2.5"/>
        <path id="Path_3895" data-name="Path 3895" d="M102.155,71.836A10.553,10.553,0,0,0,94.861,61.8a11.829,11.829,0,0,0,.551-3.558c0-5.869-4.2-10.625-9.369-10.625a8.277,8.277,0,0,0-2.287.332C83.6,42.394,78.04,37.926,71.194,37.926c-4.956,0-9.23,2.345-11.279,5.744A11.328,11.328,0,0,0,43.4,55.447a15.1,15.1,0,1,0,12.465,27.3c1.94,2.4,5.984,4.049,10.676,4.049A16.858,16.858,0,0,0,74.379,85a10.509,10.509,0,0,0,6.757,2.452,10.722,10.722,0,0,0,1.22-.071A7.088,7.088,0,0,1,90.4,93.545c.037.4.059.8.061,1.216a3.451,3.451,0,0,0,3.214,3.453,3.373,3.373,0,0,0,3.533-3.37,20.137,20.137,0,0,0-.483-4.4,12.977,12.977,0,0,1,2.738-11.565A10.515,10.515,0,0,0,102.155,71.836Z" transform="translate(22.892 26.332)" fill="none" stroke="#59bfe3" stroke-linecap="round" stroke-linejoin="round" stroke-width="2.5"/>
        <path id="Path_3896" data-name="Path 3896" d="M53.106,50.787c-4.021-4.346-12-3.492-17.841,1.911" transform="translate(24.484 33.335)" fill="none" stroke="#59bfe3" stroke-linecap="round" stroke-linejoin="round" stroke-width="2.5"/>
        <path id="Path_3897" data-name="Path 3897" d="M63.832,59.572c0,6.74-4.942,12.194-11.048,12.194" transform="translate(36.648 41.36)" fill="none" stroke="#59bfe3" stroke-linecap="round" stroke-linejoin="round" stroke-width="2.5"/>
        <path id="Path_3898" data-name="Path 3898" d="M59.02,51.59c0-4.651,3.492-7.833,10.669-7.833" transform="translate(40.977 30.38)" fill="none" stroke="#59bfe3" stroke-linecap="round" stroke-linejoin="round" stroke-width="2.5"/>
        <path id="Path_3899" data-name="Path 3899" d="M54.595,50.65c.208-5.237-3.043-9.612-7.267-9.779" transform="translate(32.859 28.376)" fill="none" stroke="#59bfe3" stroke-linecap="round" stroke-linejoin="round" stroke-width="2.5"/>
        <path id="Path_3900" data-name="Path 3900" d="M63.137,60.418c.744-5.218,6.12-8.761,12.019-7.919" transform="translate(43.836 36.364)" fill="none" stroke="#59bfe3" stroke-linecap="round" stroke-linejoin="round" stroke-width="2.5"/>
        <path id="Path_3901" data-name="Path 3901" d="M51.929,59.255c.324,5-3.256,8.534-7.624,10.278" transform="translate(30.761 41.14)" fill="none" stroke="#59bfe3" stroke-linecap="round" stroke-linejoin="round" stroke-width="2.5"/>
        <path id="Path_3902" data-name="Path 3902" d="M55.043,59.646c0,4.237,3.124,5.971,4.89,5.971" transform="translate(38.216 41.412)" fill="none" stroke="#59bfe3" stroke-linecap="round" stroke-linejoin="round" stroke-width="2.5"/>
        <path id="Path_3903" data-name="Path 3903" d="M47.328,46.963c0-3.367,1.627-6.091,3.638-6.091" transform="translate(32.859 28.377)" fill="none" stroke="#59bfe3" stroke-linecap="round" stroke-linejoin="round" stroke-width="2.5"/>
        <path id="Path_3904" data-name="Path 3904" d="M42.93,58.031c0-4.427,4.961-8.011,11.089-8.011" transform="translate(29.806 34.728)" fill="none" stroke="#59bfe3" stroke-linecap="round" stroke-linejoin="round" stroke-width="2.5"/>
        <path id="Path_3905" data-name="Path 3905" d="M76.853,123.07a2.411,2.411,0,0,1-3.514,2.887c-4.6-3.031-12.324-7.521-17.754-7.606-8.209-.125-9.173-4.778-5.284-6.762s17.69,1.4,23.264,6.791a13.6,13.6,0,0,1,3.289,4.69" transform="translate(33.394 77.078)" fill="#263238"/>
        <path id="Path_3906" data-name="Path 3906" d="M76.853,123.07a2.411,2.411,0,0,1-3.514,2.887c-4.6-3.031-12.324-7.521-17.754-7.606-8.209-.125-9.173-4.778-5.284-6.762s17.69,1.4,23.264,6.791A13.6,13.6,0,0,1,76.853,123.07Z" transform="translate(33.394 77.078)" fill="none" stroke="#263238" stroke-linecap="round" stroke-linejoin="round" stroke-width="2.5"/>
        <path id="Path_3907" data-name="Path 3907" d="M43.447,118.484a2.42,2.42,0,0,1-1.7-3.109,2.735,2.735,0,0,1,3.338-1.66,2.417,2.417,0,0,1,1.7,3.109,2.735,2.735,0,0,1-3.336,1.66" transform="translate(28.896 78.876)" fill="#263238"/>
        <path id="Path_3908" data-name="Path 3908" d="M43.447,118.484a2.42,2.42,0,0,1-1.7-3.109,2.735,2.735,0,0,1,3.338-1.66,2.417,2.417,0,0,1,1.7,3.109A2.735,2.735,0,0,1,43.447,118.484Z" transform="translate(28.896 78.876)" fill="none" stroke="#263238" stroke-linecap="round" stroke-linejoin="round" stroke-width="2.5"/>
        <path id="Path_3909" data-name="Path 3909" d="M149.153,206.421l18.854,7.191s8.214,8.6,15.833,27.9c16.081-14.02,28.34-47.549,28.34-47.549a20.3,20.3,0,0,1,11.254-12.007c3.153-1.335,6.059-2.548,6.318-2.57l6.576-.534c16.109-1.044,12.848,4.9,12.848,11.846,0,0,21.868-6.081,26.372,1.225,6.447,10.464-14.074,14.9-14.074,14.9l3.949,16.108c4.829,6.067-8.6,22.588-21.584,27.451,0,0-46.644,71.814-75.2,58.26a22.484,22.484,0,0,1-10.674-10.25c-5.713-7.323-4.383-9.849-5.508-10.6-2.3-1.533-22.2-61.267-22.2-61.267Z" transform="translate(90.435 124.093)" fill="#fcd8c3"/>
        <path id="Path_3910" data-name="Path 3910" d="M258.126,191.924c-4.5-7.306-26.37-1.225-26.37-1.225,0-6.945,3.26-12.89-12.85-11.846l-6.574.534c-.261.02-3.167,1.235-6.318,2.569a20.3,20.3,0,0,0-11.255,12.009S182.5,227.493,166.42,241.513c-1.2-3.048-2.419-5.8-3.617-8.322a47.2,47.2,0,0,1-6.657,4.544c2.448,4.236-2.685,8.753,0,15.559,25.662-5.083,44.113-53.787,44.113-53.787A20.3,20.3,0,0,1,211.512,187.5c3.151-1.333,6.059-2.548,6.318-2.569l6.574-.534c16.109-1.045,4.966,12.074,4.966,19.018,0,0,18.041-5.015,24.723-.461,4.044-2.419,7.109-6.037,4.032-11.028" transform="translate(107.855 124.093)" fill="#fff"/>
        <path id="Path_3911" data-name="Path 3911" d="M149.153,206.421l18.854,7.191s8.214,8.6,15.833,27.9c16.081-14.02,28.34-47.549,28.34-47.549a20.3,20.3,0,0,1,11.254-12.007c3.153-1.335,6.059-2.548,6.318-2.57l6.576-.534c16.109-1.044,12.848,4.9,12.848,11.846,0,0,21.868-6.081,26.372,1.225,6.447,10.464-14.074,14.9-14.074,14.9l3.949,16.108c4.829,6.067-8.6,22.588-21.584,27.451,0,0-46.644,71.814-75.2,58.26a22.484,22.484,0,0,1-10.674-10.25c-5.713-7.323-4.383-9.849-5.508-10.6-2.3-1.533-22.2-61.267-22.2-61.267Z" transform="translate(90.435 124.093)" fill="none" stroke="#263238" stroke-linecap="round" stroke-linejoin="round" stroke-width="2.5"/>
        <path id="Path_3912" data-name="Path 3912" d="M96.37,274.492s16.389-.51,4.246,55.683c-11.879,54.978-38.681,35.3-38.681,35.3a10.422,10.422,0,0,0,11.082,14.581c7.379-1.173,16.423-5.745,25.34-18.253,20.538-28.8,22.776-111.29,22.776-111.29-7.838,3.163-24.764,15.527-24.764,23.979" transform="translate(42.355 173.929)" fill="#0565ff"/>
        <path id="Path_3913" data-name="Path 3913" d="M96.37,274.492s16.389-.51,4.246,55.683c-11.879,54.978-38.681,35.3-38.681,35.3a10.422,10.422,0,0,0,11.082,14.581c7.379-1.173,16.423-5.745,25.34-18.253,20.538-28.8,22.776-111.29,22.776-111.29-7.838,3.163-24.764,15.527-24.764,23.979" transform="translate(42.355 173.929)" fill="#0565ff"/>
        <path id="Path_3914" data-name="Path 3914" d="M203.847,190.116s-17.07,3.024-15.94,9.474,15.94,8.129,15.94,8.129" transform="translate(130.425 131.996)" fill="#fcd8c3"/>
        <path id="Path_3915" data-name="Path 3915" d="M203.847,190.116s-17.07,3.024-15.94,9.474,15.94,8.129,15.94,8.129" transform="translate(130.425 131.996)" fill="none" stroke="#263238" stroke-linecap="round" stroke-linejoin="round" stroke-width="2.5"/>
        <path id="Path_3916" data-name="Path 3916" d="M207,199.044s-17.07,3.024-15.94,9.476S207,216.649,207,216.649" transform="translate(132.612 138.195)" fill="#fcd8c3"/>
        <path id="Path_3917" data-name="Path 3917" d="M207,199.044s-17.07,3.024-15.94,9.476S207,216.649,207,216.649" transform="translate(132.612 138.195)" fill="none" stroke="#263238" stroke-linecap="round" stroke-linejoin="round" stroke-width="2.5"/>
        <path id="Path_3918" data-name="Path 3918" d="M48.163,404.007l-8.15,21.943,73,24.586L98.737,423.617Z" transform="translate(27.781 280.499)" fill="#0565ff"/>
        <path id="Path_3919" data-name="Path 3919" d="M48.163,404.007l-8.15,21.943,73,24.586L98.737,423.617Z" transform="translate(27.781 280.499)" fill="none" stroke="#263238" stroke-linecap="round" stroke-linejoin="round" stroke-width="2.5"/>
        <path id="Path_3920" data-name="Path 3920" d="M132.843,417.72l3.329,19.676,77.39-5.2-40.683-19Z" transform="translate(92.232 286.88)" fill="#0565ff"/>
        <path id="Path_3921" data-name="Path 3921" d="M132.843,417.72l3.329,19.676,77.39-5.2-40.683-19Z" transform="translate(92.232 286.88)" fill="none" stroke="#263238" stroke-linecap="round" stroke-linejoin="round" stroke-width="2.5"/>
        <path id="Path_3922" data-name="Path 3922" d="M242.681,244.748c.017,2.728-.3,4.49-.915,5.557a87.523,87.523,0,0,0-13.131-.3c-.22.017-.44.051-.678.085-3.473.491-6.777,3.1-9.793,6l-.1.1c-2.457,2.372-4.71,4.93-6.659,6.675-.576.508-3.626,3.423-4.846,4.761a2.437,2.437,0,0,0-.491.644c.424,1.135.83,2.236,1.22,3.321,6.472,18.027,9.132,28.989,9.742,37.071.068,1,.136,2.423.136,4.185v.169a29.236,29.236,0,0,0,1.745,9.234c.407,2.406.8,4.812,1.135,7.218q.686,4.7,1.237,9.454a22.049,22.049,0,0,1-5.168,9.895,8.158,8.158,0,0,1-4.015,3.49,121.953,121.953,0,0,1-82.444,2.372l-3.456-1.118a122.028,122.028,0,0,0-47-5.473l-2.287.186-2.968.236A10.422,10.422,0,0,1,64.3,332.516c.075-.113.151-.227.227-.342,6.455-9.641,6.523-41.832.322-63.807-1.745-6.2-19.569,4.659-20.84-.034,2.592-5.1,8.641-19.145,8.675-25.3l-.136-4.134c-.017,1.711-.085,3.134-.186,2.186-3.711-32.988,25.431-59.232,52.184-60.961,7.811-.508,21.907-8.963,21.907-8.963l19.62-8.81s.2.085.559.254c4.168,1.965,15.791,11.115,22.382,11.453,40.765,1.948,47.677,16.282,53.929,41.866a.723.723,0,0,0,.1.3c1.66,4.727,17.316,10.369,19.4,25.414a23.652,23.652,0,0,1,.237,3.1" transform="translate(30.554 112.722)" fill="#0565ff"/>
        <path id="Path_3923" data-name="Path 3923" d="M211.921,224.854c-.068-.1-.085-1.9-.1-2-6.252-25.584-13.165-39.919-53.928-41.868-6.592-.339-21.606-7.79-25.774-9.756-.356-.169-.559-.254-.559-.254l-19.62,8.81s-14.1,8.455-21.907,8.963c-12.3.795-25.1,7.858-34.987,18.453,10.262-15.274,26.436-26.08,41.832-27.075,7.811-.508,21.907-8.963,21.907-8.963l19.62-8.81s.2.085.559.254c4.168,1.965,15.792,11.113,22.383,11.452,40.763,1.948,47.676,16.284,53.928,41.868a.722.722,0,0,0,.1.3c1.66,4.727,17.316,10.364,19.4,25.409a23.647,23.647,0,0,1,.237,3.1c.017,2.728-.3,4.49-.915,5.557-2.07-.174-2.464-.312-4.541-.383-2.275-14.886-15.989-20.372-17.636-25.062" transform="translate(38.217 112.72)" fill="#fff"/>
        <path id="Path_3924" data-name="Path 3924" d="M242.681,244.748c.017,2.728-.3,4.49-.915,5.557a87.523,87.523,0,0,0-13.131-.3c-.22.017-.44.051-.678.085-2.829.508-6.354,3-9.793,6l-.1.1c-4.575,4-9,8.878-11.487,11.1-.034.034-.034.136-.017.339a35.8,35.8,0,0,0,.729,3.965c1.152,5.286,3.456,14.639,5.557,23.093.034.136.068.254.1.39,1.169,4.744,2.27,9.2,3.067,12.453.068.237.119.491.169.762.61,2.558.983,4.236.983,4.558v.169a29.236,29.236,0,0,0,1.745,9.234c.407,2.406.8,4.812,1.135,7.218q.686,4.7,1.237,9.454a22.049,22.049,0,0,1-5.168,9.895,8.158,8.158,0,0,1-4.015,3.49,121.953,121.953,0,0,1-82.444,2.372l-3.456-1.118a122.028,122.028,0,0,0-47-5.473l-2.287.186-2.968.236A10.422,10.422,0,0,1,64.3,332.516c.075-.113.151-.227.227-.342,6.455-9.641,6.523-41.832.322-63.807-1.745-6.2-19.569,4.659-20.84-.034,2.592-5.1,8.641-19.145,8.675-25.3l-.136-4.134c-.017,1.711-.085,3.134-.186,2.186-3.711-32.988,25.431-59.232,52.184-60.961,7.811-.508,21.907-8.963,21.907-8.963l19.62-8.81s.2.085.559.254c4.168,1.965,15.791,11.115,22.382,11.453,40.765,1.948,47.677,16.282,53.929,41.866a.723.723,0,0,0,.1.3c1.66,4.727,17.316,10.369,19.4,25.414A23.652,23.652,0,0,1,242.681,244.748Z" transform="translate(30.554 112.722)" fill="none" stroke="#263238" stroke-linecap="round" stroke-linejoin="round" stroke-width="2.5"/>
        <path id="Path_3925" data-name="Path 3925" d="M253.445,584.239a.133.133,0,0,1-.068.068,1.415,1.415,0,0,1-.2.135,23.064,23.064,0,0,0-6.455-.712h-.034a20.823,20.823,0,0,0-8.4,2.423c-6.083,3.084-12.521,4.422-19.044,5.235-11.64,1.457-23.483,1.254-33.852,6.4a5.838,5.838,0,0,1-3.084.712c-1.017-2.745,2.321-13.825-5.625-28.684-7.9-14.74-20.721-43.069-16.79-69.415,4.608-30.9.356-43.73-2.067-51.269.3-3.185.576-5.659.8-7.285-.491,1.813-.966,3.558-1.423,5.218-1.864,6.625-3.507,11.911-4.795,15.079-7.98,19.772-40.155,114.331-40,122.26.068,4.3-9.81,6.167-20.518,5.4a.481.481,0,0,1-.22,0c-8.98-.678-18.485-3.185-23.195-7.641-14.283-13.537-24.432-11.5-27.024-13.554-.661-.525-1.135.119-1.423.322-.119.119-.2.119-.237-.136,0-.61,9.285-15.706,9.285-19.23,0-15.062,3.575-36.885,7.912-53.523C63.363,471.586,81,458.743,79.306,453.1c-1.694-5.659,5.828-60.418,1.864-83-2.321-13.266-2.338-20.924-1.948-25.008a4.278,4.278,0,0,1,.627-1.847,4.39,4.39,0,0,1,3.761-2.1,74.074,74.074,0,0,0,52.421-36.648l25.923-45.864A144.014,144.014,0,0,0,167.07,169.6h6.879l2.863,4.456a189,189,0,0,1,29.193,85.409l16.977,64.976q.686,4.7,1.237,9.454.534,4.676.915,9.386c.254,7.252.644,16.367,1.271,24.381,5.049,21.467,13.673,65.162,16.57,83.613.051.339.1.678.153,1,.034.288.085.559.119.83,4.219,28.329,2.372,105.368,10.742,126.6,1,2.541.186,3.982-.542,4.541" transform="translate(27.618 117.748)" fill="#afdeef"/>
        <path id="Path_3926" data-name="Path 3926" d="M145.947,314.2c.286-2.985-11.826,24.415-13.371,26.512l-.251.436a254.338,254.338,0,0,1-9.63,25.206c-7.98,19.772-36.942,104.292-36.79,112.221.051,3.231-10.159,10.259-17.46,10.662q1.657.206,3.309.33a.439.439,0,0,0,.22,0c10.708.762,20.586-1.1,20.518-5.4-.142-7.377,27.7-89.742,38-117.091-.708-9.015,16.75-48.84,15.454-52.872" transform="translate(47.521 217.99)" fill="#fff"/>
        <path id="Path_3927" data-name="Path 3927" d="M201.825,579.7c-8.37-21.23-6.523-98.269-10.742-126.6-.034-.271-.085-.542-.119-.83-.051-.322-.1-.661-.152-1-2.9-18.451-11.521-62.147-16.57-83.613-.627-8.014-1.017-17.129-1.271-24.381q-.381-4.7-.915-9.386-.559-4.752-1.237-9.454L153.843,259.46a189,189,0,0,0-29.193-85.409l-2.863-4.456h-6.879c10.843,10.3,29.808,63.611,32.286,91.612l16.152,55.48c.457,3.134,2.538,15.494,2.909,18.663.356,3.117,1.44,9.471,1.694,12.606.254,7.252-1.049,12.741-.424,20.755,5.049,21.467,13,62.875,15.894,81.326.051.339,2.845,106.69,11.215,127.919,1,2.541-3.866,5.31-4.595,5.869a.132.132,0,0,1-.068.068c.09.2.19.4.276.6a18.344,18.344,0,0,1,4.275-.762h.034a23.064,23.064,0,0,1,6.455.712,1.416,1.416,0,0,0,.2-.135.133.133,0,0,0,.068-.068c.729-.559,1.542-2,.542-4.541" transform="translate(79.78 117.748)" fill="#fff"/>
        <path id="Path_3928" data-name="Path 3928" d="M165.039,414.441c.42.086.813.173,1.166.241a1.34,1.34,0,0,0,.205-.136.139.139,0,0,0,.068-.068,2.336,2.336,0,0,0,.366-.374c-.574.078-1.176.188-1.8.337" transform="translate(114.585 287.509)" fill="#fff"/>
        <path id="Path_3929" data-name="Path 3929" d="M253.445,584.239a.133.133,0,0,1-.068.068,1.415,1.415,0,0,1-.2.135,23.064,23.064,0,0,0-6.455-.712h-.034a20.823,20.823,0,0,0-8.4,2.423c-6.083,3.084-12.521,4.422-19.044,5.235-11.64,1.457-23.483,1.254-33.852,6.4a5.838,5.838,0,0,1-3.084.712c-1.017-2.745,2.321-13.825-5.625-28.684-7.9-14.74-20.721-43.069-16.79-69.415,4.608-30.9.356-43.73-2.067-51.269.3-3.185.576-5.659.8-7.285-.491,1.813-.966,3.558-1.423,5.218-1.864,6.625-3.507,11.911-4.795,15.079-7.98,19.772-40.155,114.331-40,122.26.068,4.3-9.81,6.167-20.518,5.4a.481.481,0,0,1-.22,0c-8.98-.678-18.485-3.185-23.195-7.641-14.283-13.537-24.432-11.5-27.024-13.554-.661-.525-1.135.119-1.423.322-.119.119-.2.119-.237-.136,0-.61,9.285-15.706,9.285-19.23,0-15.062,3.575-36.885,7.912-53.523C63.363,471.586,81,458.743,79.306,453.1c-1.694-5.659,5.828-60.418,1.864-83-2.321-13.266-2.338-20.924-1.948-25.008a4.278,4.278,0,0,1,.627-1.847,4.39,4.39,0,0,1,3.761-2.1,74.074,74.074,0,0,0,52.421-36.648l25.923-45.864A144.014,144.014,0,0,0,167.07,169.6h6.879l2.863,4.456a189,189,0,0,1,29.193,85.409l4.134,11.928c2.1,6.032,3.965,12.131,5.642,18.264.034.136.068.254.1.39,1.118,4.134,2.152,8.285,3.067,12.453.068.237.119.491.169.762.356,1.576.695,3.151.983,4.727.644,3.067,1.22,6.133,1.745,9.234.407,2.406.8,4.812,1.135,7.218q.686,4.7,1.237,9.454.534,4.676.915,9.386.864,10.267,1.084,20.6c.034,1.322.085,2.575.186,3.778,5.049,21.467,13.673,65.162,16.57,83.613.051.339.1.678.153,1,.034.288.085.559.119.83,4.219,28.329,2.372,105.368,10.742,126.6C254.987,582.24,254.174,583.68,253.445,584.239Z" transform="translate(27.618 117.748)" fill="none" stroke="#263238" stroke-linecap="round" stroke-linejoin="round" stroke-width="2.5"/>
        <path id="Path_3930" data-name="Path 3930" d="M44.125,226.055a1.454,1.454,0,0,1-.12-.286,13.147,13.147,0,0,1,1.362-2.1,9.5,9.5,0,0,1-1.242,2.389" transform="translate(30.552 155.29)" fill="#fff"/>
        <path id="Path_3931" data-name="Path 3931" d="M123.461,182.778c-1.42,5.976-7.75,7.634-14.93,4.431a27.664,27.664,0,0,1-2.645-1.388c-.266-.168-.539-.329-.812-.507-.618-.4-1.247-.847-1.832-1.293-7.45-5.686-12.112-14.823-10.589-21.223.91-3.819,3.814-5.893,7.658-6.044a5.517,5.517,0,0,1,.576.008c.266,0,.549.014.83.03a20.108,20.108,0,0,1,9.322,3.451c8.5,5.528,14.071,15.608,12.421,22.532" transform="translate(64.129 108.831)" fill="#263238"/>
        <path id="Path_3932" data-name="Path 3932" d="M123.461,182.778c-1.42,5.976-7.75,7.634-14.93,4.431a27.664,27.664,0,0,1-2.645-1.388c-.266-.168-.539-.329-.812-.507-.618-.4-1.247-.847-1.832-1.293-7.45-5.686-12.112-14.823-10.589-21.223.91-3.819,3.814-5.893,7.658-6.044a5.517,5.517,0,0,1,.576.008c.266,0,.549.014.83.03a20.108,20.108,0,0,1,9.322,3.451C119.541,165.774,125.112,175.854,123.461,182.778Z" transform="translate(64.129 108.831)" fill="none" stroke="#263238" stroke-linecap="round" stroke-linejoin="round" stroke-width="2.5"/>
        <path id="Path_3933" data-name="Path 3933" d="M130.25,186.15a20.333,20.333,0,0,1-1.66,1.542v.017c-.136.119-.288.237-.424.356l-.457.356a6.072,6.072,0,0,1-.559.424c-.119.085-.254.186-.373.271-.068.051-.152.1-.237.153-.271.186-.559.373-.847.542a1.415,1.415,0,0,1-.2.136c-.152.085-.322.186-.474.271a18.008,18.008,0,0,1-2.508,1.22c-.407.169-.813.322-1.237.457a4.709,4.709,0,0,1-.644.2,13.965,13.965,0,0,1-1.44.407,25.967,25.967,0,0,1-15.554-1.288c-.39-.153-.779-.322-1.152-.491h-.017a32.005,32.005,0,0,1-8.048-5.2c-.3-.271-.61-.559-.915-.83-.881-.864-1.745-1.779-2.575-2.762-.322-.407-.661-.8-.983-1.22-.119-.169-.254-.339-.373-.508-.22-.3-.441-.61-.661-.932l-.508-.762c-.169-.254-.339-.508-.491-.762-.424-.678-.813-1.372-1.186-2.067v-.017a31.478,31.478,0,0,1-2.88-22.11,24.259,24.259,0,0,1,5.947-10.877c.339-.339.661-.661,1.017-.983a13.347,13.347,0,0,1,1.05-.932h.017l.051-.051c.254-.186.491-.39.746-.576a21.8,21.8,0,0,1,5.2-2.88.059.059,0,0,0,.034-.017,22.2,22.2,0,0,1,4.676-1.271,25.682,25.682,0,0,1,10.911.661h.017c.373.1.712.22,1.084.356.508.153,1.034.339,1.559.542.8.3,1.593.644,2.372,1.034.254.136.525.271.779.407a23.466,23.466,0,0,1,2.508,1.457,3.094,3.094,0,0,1,.44.271c.474.3.932.627,1.389.966l.034.034c.424.322.83.644,1.254,1,.152.119.288.237.441.373.339.288.695.61,1.017.915A33.372,33.372,0,0,1,130.1,148.1a36.04,36.04,0,0,1,2.389,3.541,32.531,32.531,0,0,1,2.389,4.964c.322.847.61,1.694.881,2.541,2.914,9.827,1.017,20.213-5.506,27.007" transform="translate(57.606 94.186)" fill="#fcd8c3"/>
        <path id="Path_3934" data-name="Path 3934" d="M126.727,186.15a16.12,16.12,0,0,1-1.66,1.559c-.136.136-.288.254-.424.373-.152.119-.3.237-.457.339a6.07,6.07,0,0,1-.559.424c-.1.085-.2.153-.3.237a.088.088,0,0,1-.068.034c-.068.051-.152.1-.237.153v.017c-.271.186-.559.356-.847.525a1.416,1.416,0,0,1-.2.136c-.152.1-.322.186-.474.271a18.008,18.008,0,0,1-2.508,1.22A23.5,23.5,0,0,0,124,185.523v-.017c5.727-9.607,4.727-23.28-3.338-33.835a33.407,33.407,0,0,0-6.608-6.523,30.38,30.38,0,0,0-7.336-4.049c-.525-.186-1.05-.39-1.559-.542-.373-.136-.745-.254-1.1-.356a24.639,24.639,0,0,0-16.011.83c.085-.1.186-.169.288-.271h.017l.051-.051c.254-.186.491-.39.745-.576a23.112,23.112,0,0,1,5.2-2.88.059.059,0,0,0,.034-.017,25.139,25.139,0,0,1,4.676-1.271,25.682,25.682,0,0,1,10.911.661h.017c.373.1.712.22,1.084.356.508.153,1.034.339,1.559.542.8.3,1.593.644,2.372,1.034a31.758,31.758,0,0,1,3.3,1.83c.136.1.271.2.424.3.474.3.932.627,1.389.966l.034.034c.424.322.83.644,1.254,1,.152.119.288.237.441.373.339.288.695.61,1.017.915a33.486,33.486,0,0,1,3.727,4.117,34.513,34.513,0,0,1,4.761,8.505c.339.847.627,1.694.881,2.541,2.914,9.827,1.017,20.213-5.506,27.007" transform="translate(61.13 94.186)" fill="#fff"/>
        <path id="Path_3935" data-name="Path 3935" d="M130.25,186.15a16.119,16.119,0,0,1-1.66,1.559c-.136.136-.288.254-.424.373-.424.356-.864.678-1.322,1a.088.088,0,0,1-.068.034,1.2,1.2,0,0,1-.237.169c-.339.237-.695.457-1.05.661-.152.1-.322.186-.474.271a18.008,18.008,0,0,1-2.508,1.22c-.407.169-.813.322-1.237.457a4.709,4.709,0,0,1-.644.2,13.965,13.965,0,0,1-1.44.407,25.967,25.967,0,0,1-15.554-1.288c-.39-.153-.779-.322-1.152-.491h-.017a32.005,32.005,0,0,1-8.048-5.2c-.3-.271-.61-.559-.915-.83-.9-.881-1.745-1.8-2.575-2.762-.322-.407-.661-.8-.983-1.22-.119-.169-.254-.339-.373-.508-.22-.3-.441-.61-.661-.932l-.508-.762c-.169-.254-.339-.508-.491-.762-.424-.678-.813-1.372-1.186-2.067v-.017a31.478,31.478,0,0,1-2.88-22.11,24.423,24.423,0,0,1,5.947-10.877c.339-.339.661-.661,1.017-.983a7.11,7.11,0,0,1,.762-.661c.085-.1.186-.169.288-.271h.017l.051-.051c.254-.186.491-.39.746-.576a23.112,23.112,0,0,1,5.2-2.88.059.059,0,0,0,.034-.017,25.138,25.138,0,0,1,4.676-1.271,25.682,25.682,0,0,1,10.911.661h.017c.373.1.712.22,1.084.356.508.153,1.034.339,1.559.542.8.3,1.593.644,2.372,1.034a31.759,31.759,0,0,1,3.3,1.83c.136.1.271.2.424.3.474.3.932.627,1.389.966l.034.034c.424.322.83.644,1.254,1,.152.119.288.237.441.373.339.288.695.61,1.017.915a33.486,33.486,0,0,1,3.727,4.117,34.513,34.513,0,0,1,4.761,8.505c.339.847.627,1.694.881,2.541C138.671,168.97,136.773,179.356,130.25,186.15Z" transform="translate(57.606 94.186)" fill="none" stroke="#263238" stroke-linecap="round" stroke-linejoin="round" stroke-width="2.5"/>
        <path id="Path_3936" data-name="Path 3936" d="M140.62,206.1c-.091,1.381.451,6.7,0,8.087a40.2,40.2,0,0,0,.8,26.621" transform="translate(96.322 143.091)" fill="none" stroke="#263238" stroke-linecap="round" stroke-linejoin="round" stroke-width="2.5"/>
        <path id="Path_3937" data-name="Path 3937" d="M68.834,235.925s-27.046-6.111-25.35-8.448,21.785-2.55,21.785-2.55Z" transform="translate(30.138 156.165)" fill="#263238"/>
        <path id="Path_3938" data-name="Path 3938" d="M68.834,235.925s-27.046-6.111-25.35-8.448,21.785-2.55,21.785-2.55Z" transform="translate(30.138 156.165)" fill="none" stroke="#263238" stroke-linecap="round" stroke-linejoin="round" stroke-width="2.5"/>
        <path id="Path_3939" data-name="Path 3939" d="M92.412,175.075c-4.8-1.566-9.929-1.865-14.945-1.965" transform="translate(53.785 120.189)" fill="none" stroke="#263238" stroke-linecap="round" stroke-linejoin="round" stroke-width="2.5"/>
        <path id="Path_3940" data-name="Path 3940" d="M139.654,223.417c2.758-3.71,4.993-9.312,6.511-13.666" transform="translate(96.961 145.628)" fill="none" stroke="#263238" stroke-linecap="round" stroke-linejoin="round" stroke-width="2.5"/>
        <path id="Path_3941" data-name="Path 3941" d="M62.958,211.443c6.137,3.109,13.219,4.39,20.027,4.864" transform="translate(43.711 146.803)" fill="none" stroke="#263238" stroke-linecap="round" stroke-linejoin="round" stroke-width="2.5"/>
        <path id="Path_3942" data-name="Path 3942" d="M62.241,205.688a27,27,0,0,0,7.084,3.09" transform="translate(43.213 142.808)" fill="none" stroke="#263238" stroke-linecap="round" stroke-linejoin="round" stroke-width="2.5"/>
        <path id="Path_3943" data-name="Path 3943" d="M118.3,180.987c-4.48,4.305-11.167,4.72-16.536,1.865" transform="translate(70.655 125.658)" fill="none" stroke="#263238" stroke-linecap="round" stroke-linejoin="round" stroke-width="2.5"/>
        <path id="Path_3944" data-name="Path 3944" d="M43.454,232.655c14.307-6.13,30.194-14.073,45.2-15.2" transform="translate(30.17 150.978)" fill="none" stroke="#263238" stroke-linecap="round" stroke-linejoin="round" stroke-width="2.5"/>
        <path id="Path_3945" data-name="Path 3945" d="M52.747,211.261l.085-5.954v.237l.237,7.668c-.036,6.15-6.083,20.2-8.675,25.3a10.476,10.476,0,0,0-.8,2.067l-.137.508-.017.034" transform="translate(30.163 142.543)" fill="none" stroke="#263238" stroke-linecap="round" stroke-linejoin="round" stroke-width="2.5"/>
        <path id="Path_3946" data-name="Path 3946" d="M121.83,140.387c-.017.017-.017.017-.017.034a11.278,11.278,0,0,1-2.05,2.067,21.981,21.981,0,0,1-2.186,2.66,26.837,26.837,0,0,1-12.487,7.387,13.515,13.515,0,0,0-3.541,2.406,6.467,6.467,0,0,0-1.728,6.794,10.953,10.953,0,0,1-6.286,13.775,7.7,7.7,0,0,1-3.711.542,22,22,0,0,1-2.575-.3,2.788,2.788,0,0,0-.525-.068v-.017a31.478,31.478,0,0,1-2.88-22.11,24.259,24.259,0,0,1,5.947-10.877c.339-.339.661-.661,1.017-.983a13.347,13.347,0,0,1,1.05-.932h.017l.051-.051c.254-.186.491-.39.746-.576a21.8,21.8,0,0,1,5.2-2.88.059.059,0,0,0,.034-.017,22.2,22.2,0,0,1,4.676-1.271,25.682,25.682,0,0,1,10.911.661h.017c.373.1.712.22,1.084.356.508.153,1.034.339,1.559.542.8.3,1.593.644,2.372,1.034a31.759,31.759,0,0,1,3.3,1.83" transform="translate(57.606 94.186)" fill="#263238"/>
        <path id="Path_3947" data-name="Path 3947" d="M121.83,140.387c-.017.017-.017.017-.017.034a11.278,11.278,0,0,1-2.05,2.067,21.981,21.981,0,0,1-2.186,2.66,26.837,26.837,0,0,1-12.487,7.387,13.515,13.515,0,0,0-3.541,2.406,6.467,6.467,0,0,0-1.728,6.794,10.953,10.953,0,0,1-6.286,13.775,7.7,7.7,0,0,1-3.711.542,22,22,0,0,1-2.575-.3,2.788,2.788,0,0,0-.525-.068v-.017a31.478,31.478,0,0,1-2.88-22.11,24.259,24.259,0,0,1,5.947-10.877c.339-.339.661-.661,1.017-.983a13.347,13.347,0,0,1,1.05-.932h.017l.051-.051c.254-.186.491-.39.746-.576a21.8,21.8,0,0,1,5.2-2.88.059.059,0,0,0,.034-.017,22.2,22.2,0,0,1,4.676-1.271,25.682,25.682,0,0,1,10.911.661h.017c.373.1.712.22,1.084.356.508.153,1.034.339,1.559.542.8.3,1.593.644,2.372,1.034A31.759,31.759,0,0,1,121.83,140.387Z" transform="translate(57.606 94.186)" fill="none" stroke="#263238" stroke-linecap="round" stroke-linejoin="round" stroke-width="2.5"/>
        <path id="Path_3948" data-name="Path 3948" d="M111.525,241.9c0,2.833,26.14,4.79,39.548-.524,1.33-.529,15.357,70.66-10.42,69.02" transform="translate(77.431 167.586)" fill="none" stroke="#263238" stroke-linecap="round" stroke-linejoin="round" stroke-width="2.5"/>
        <path id="Path_3949" data-name="Path 3949" d="M148.643,178.418c7.2,3.014,8.175,10.533,8.175,16.077" transform="translate(103.202 123.874)" fill="none" stroke="#263238" stroke-linecap="round" stroke-linejoin="round" stroke-width="2.5"/>
        <path id="Path_3950" data-name="Path 3950" d="M153.652,175.551a12.1,12.1,0,0,1,6.054,5.491" transform="translate(106.679 121.884)" fill="none" stroke="#263238" stroke-linecap="round" stroke-linejoin="round" stroke-width="2.5"/>
        <line id="Line_51" data-name="Line 51" x1="13.019" y2="12.052" transform="translate(263.359 363.02)" fill="none" stroke="#263238" stroke-linecap="round" stroke-linejoin="round" stroke-width="2.5"/>
        <path id="Path_3951" data-name="Path 3951" d="M207.234,181.7c0,7.931,1.137,5.8-16.572,11.364" transform="translate(132.375 126.152)" fill="none" stroke="#263238" stroke-linecap="round" stroke-linejoin="round" stroke-width="2.5"/>
        <path id="Path_3952" data-name="Path 3952" d="M188.98,179.119c0,2.414,7.78,8.568,19.422,4.368" transform="translate(131.207 124.361)" fill="none" stroke="#263238" stroke-linecap="round" stroke-linejoin="round" stroke-width="2.5"/>
        <path id="Path_3953" data-name="Path 3953" d="M186.589,157.527a12.142,12.142,0,0,1,16.587,4.444l28.013,45.917,4.166,24.262-25.2-12.119-6.274-10.867c.54-.083,1.081-.164,1.623-.273,4.175-.825,12.463-5.423,11.4-9.28-1.181-4.3-11.425-6.67-15.576-5.849a31.178,31.178,0,0,1-6.055.5l-13.136-20.148a12.142,12.142,0,0,1,4.444-16.587" transform="translate(125.331 108.238)" fill="#fff"/>
        <path id="Path_3954" data-name="Path 3954" d="M186.589,157.527a12.142,12.142,0,0,1,16.587,4.444l28.013,45.917,4.166,24.262-25.2-12.119-6.274-10.867c.54-.083,1.081-.164,1.623-.273,4.175-.825,12.463-5.423,11.4-9.28-1.181-4.3-11.425-6.67-15.576-5.849a31.178,31.178,0,0,1-6.055.5l-13.136-20.148A12.142,12.142,0,0,1,186.589,157.527Z" transform="translate(125.331 108.238)" fill="none" stroke="#263238" stroke-linecap="round" stroke-linejoin="round" stroke-width="2.5"/>
        <path id="Path_3955" data-name="Path 3955" d="M204.214,164.031c-7.292,3.517-14.444,7.211-21.4,11.24l-.669-1.157a12.143,12.143,0,0,1,21.031-12.143l1.159,2.008c-.039.019-.081.034-.12.052" transform="translate(125.331 108.238)" fill="#afdeef"/>
        <path id="Path_3956" data-name="Path 3956" d="M204.214,164.031c-7.292,3.517-14.444,7.211-21.4,11.24l-.669-1.157a12.143,12.143,0,0,1,21.031-12.143l1.159,2.008C204.3,164,204.253,164.012,204.214,164.031Z" transform="translate(125.331 108.238)" fill="none" stroke="#263238" stroke-linecap="round" stroke-linejoin="round" stroke-width="2.5"/>
        <path id="Path_3957" data-name="Path 3957" d="M185.729,178.9l6.015,7.828a31.616,31.616,0,0,0,5.964-.508c4.168-.83,14.4,1.56,15.584,5.847,1.067,3.863-7.231,8.453-11.4,9.283-.525.1-1.034.169-1.542.254l19.467,33.733,11.674,8.4,12.351,8.912-1.508-14.791-1.491-14.673-34.072-56.437Z" transform="translate(128.95 115.777)" fill="#fff"/>
        <path id="Path_3958" data-name="Path 3958" d="M185.729,178.9l6.015,7.828a31.616,31.616,0,0,0,5.964-.508c4.168-.83,14.4,1.56,15.584,5.847,1.067,3.863-7.231,8.453-11.4,9.283-.525.1-1.034.169-1.542.254l19.467,33.733,11.674,8.4,12.351,8.912-1.508-14.791-1.491-14.673-34.072-56.437Z" transform="translate(128.95 115.777)" fill="none" stroke="#263238" stroke-linecap="round" stroke-linejoin="round" stroke-width="2.5"/>
        <path id="Path_3959" data-name="Path 3959" d="M201.885,201.35c4.176-.827,12.465-5.423,11.4-9.281-1.179-4.3-11.423-6.669-15.576-5.849a31.039,31.039,0,0,1-5.964.5l-6.018-7.821,21.031-12.141,34.086,56.432-21.033,12.143-19.471-33.725c.513-.081,1.027-.158,1.54-.259" transform="translate(128.952 115.779)" fill="#afdeef"/>
        <path id="Path_3960" data-name="Path 3960" d="M201.885,201.35c4.176-.827,12.465-5.423,11.4-9.281-1.179-4.3-11.423-6.669-15.576-5.849a31.039,31.039,0,0,1-5.964.5l-6.018-7.821,21.031-12.141,34.086,56.432-21.033,12.143-19.471-33.725C200.859,201.528,201.372,201.451,201.885,201.35Z" transform="translate(128.952 115.779)" fill="none" stroke="#263238" stroke-linecap="round" stroke-linejoin="round" stroke-width="2.5"/>
        <path id="Path_3961" data-name="Path 3961" d="M212.739,214.605l12.351,8.912-1.508-14.791a38.843,38.843,0,0,0-10.843,5.879" transform="translate(147.703 144.917)" fill="#afdeef"/>
        <path id="Path_3962" data-name="Path 3962" d="M212.739,214.605l12.351,8.912-1.508-14.791A38.843,38.843,0,0,0,212.739,214.605Z" transform="translate(147.703 144.917)" fill="none" stroke="#263238" stroke-linecap="round" stroke-linejoin="round" stroke-width="2.5"/>
        <path id="Path_3963" data-name="Path 3963" d="M130.438,295.93c.808,21.018-8.477,46.059-15.762,73.883-1.142,4.363-6.04,17.19-9.066,24.643-2.9,7.14-7.868,21.453-9.115,26.2" transform="translate(66.996 205.462)" fill="none" stroke="#263238" stroke-linecap="round" stroke-linejoin="round" stroke-width="2.5"/>
        <path id="Path_3964" data-name="Path 3964" d="M90.813,279.551C88.485,292.136,78.9,300.9,69.39,299.137" transform="translate(48.177 194.09)" fill="none" stroke="#263238" stroke-linecap="round" stroke-linejoin="round" stroke-width="2.5"/>
        <path id="Path_3965" data-name="Path 3965" d="M132.045,296.242c-3.616,5.866-9.131,13.846-15.232,16.957" transform="translate(81.102 205.679)" fill="none" stroke="#263238" stroke-linecap="round" stroke-linejoin="round" stroke-width="2.5"/>
        <path id="Path_3966" data-name="Path 3966" d="M70.536,224.057l.141,2.137C70.67,226.193,70.614,225.334,70.536,224.057Z" transform="translate(48.973 155.561)" fill="none" stroke="#263238" stroke-linecap="round" stroke-linejoin="round" stroke-width="2.5"/>
        <path id="Path_3967" data-name="Path 3967" d="M66.682,122.186a24.062,24.062,0,0,0-28.534,14.606c-4.807,12.763,1.545,28.574,14.815,31.083,22.573,4.271,25.516-9.171,36.38-1.391,4.171,2.985,5.713,8.756,10.977,10.472a17.766,17.766,0,0,0,21.958-10.664A17.581,17.581,0,0,0,111.3,143.553c-5.274-1.749-10.91-1.627-16.011-.888-10.178,1.476-19.51-18.01-28.61-20.479" transform="translate(25.377 84.272)" fill="#263238"/>
        <path id="Path_3968" data-name="Path 3968" d="M66.682,122.186a24.062,24.062,0,0,0-28.534,14.606c-4.807,12.763,1.545,28.574,14.815,31.083,22.573,4.271,25.516-9.171,36.38-1.391,4.171,2.985,5.713,8.756,10.977,10.472a17.766,17.766,0,0,0,21.958-10.664A17.581,17.581,0,0,0,111.3,143.553c-5.274-1.749-10.91-1.627-16.011-.888C85.115,144.141,75.783,124.655,66.682,122.186Z" transform="translate(25.377 84.272)" fill="none" stroke="#263238" stroke-linecap="round" stroke-linejoin="round" stroke-width="2.5"/>
        <path id="Path_3969" data-name="Path 3969" d="M96.37,274.492s16.389-.51,4.246,55.683c-11.879,54.978-38.681,35.3-38.681,35.3a10.422,10.422,0,0,0,11.082,14.581c7.379-1.173,16.423-5.745,25.34-18.253,20.538-28.8,22.776-111.29,22.776-111.29-7.838,3.163-24.764,15.527-24.764,23.979" transform="translate(42.355 173.929)" fill="#afdeef"/>
        <path id="Path_3970" data-name="Path 3970" d="M96.37,274.492s16.389-.51,4.246,55.683c-11.879,54.978-38.681,35.3-38.681,35.3a10.422,10.422,0,0,0,11.082,14.581c7.379-1.173,16.423-5.745,25.34-18.253,20.538-28.8,22.776-111.29,22.776-111.29C113.3,253.676,96.37,266.039,96.37,274.492Z" transform="translate(42.355 173.929)" fill="none" stroke="#263238" stroke-linecap="round" stroke-linejoin="round" stroke-width="2.5"/>
        <path id="Path_3971" data-name="Path 3971" d="M159.543,217a17.957,17.957,0,0,0-4.6-15.923A63.612,63.612,0,0,0,149.495,196c-7.467-6.028,4.688,8.034,3.453-6.264-.566-6.54-18.6-21.938-19.781-15.916-.4,2.021,2.336-8.637-6.933-2.674a31.835,31.835,0,0,0-7.782,7.718c-.573,1.41,9.746-16.8,4.251-16.445-12.772.832-23.768,27.556-15.469,39.482l11.109,18.219-35.98,35.56c-7.019.761-21.7,5.811-29.931,12.284,3.18,12.465,7.606,47.567,54.112,45.036,15.46-.84,53-96,53-96m-76.438,49.86.141,2.137c-.007,0-.063-.859-.141-2.137" transform="translate(36.403 112.763)" fill="#fcd8c3"/>
        <path id="Path_3972" data-name="Path 3972" d="M68.413,228.028l-.141-2.137c.076,1.276.132,2.137.141,2.137" transform="translate(47.401 156.835)" fill="#fff"/>
        <path id="Path_3973" data-name="Path 3973" d="M92.288,168.414c1.806-.117,2.109,1.354,1.71,3.373q1.2.638,2.375,1.332c2.248-4.841,4.4-10.908,1.2-10.7s-6.264,2.03-8.958,4.83c1.643-.989,1.911,1.279,3.668,1.164" transform="translate(61.528 112.763)" fill="#fff"/>
        <path id="Path_3974" data-name="Path 3974" d="M131.78,198.248a64.893,64.893,0,0,0-5.054-4.741c1.752.4,3.575-.618,3.058-6.6-.564-6.528-18.522-21.875-19.771-15.948.2-1.425.549-7.463-6.943-2.641-1.413.91-6.67,6.633-7.782,7.717,7.474-4.8,11.086-3.392,10.888-1.967,1.249-5.927,19.206,9.42,19.771,15.947.517,5.977-4.326,1.167-6.077.773,1.476,1.225,6.3,8.726,8.073,10.566a17.948,17.948,0,0,1,4.6,15.921s-29.255,74.161-46.749,92.117c16.618-9.114,50.587-95.224,50.587-95.224a17.945,17.945,0,0,0-4.6-15.923" transform="translate(59.566 115.59)" fill="#fff"/>
        <path id="Path_3975" data-name="Path 3975" d="M159.543,217a17.957,17.957,0,0,0-4.6-15.923A63.352,63.352,0,0,0,149.493,196c-7.465-6.028,4.69,8.034,3.455-6.264-.566-6.54-18.6-21.939-19.781-15.916-.4,2.021,2.364-4.969-6.933-2.674a10.128,10.128,0,0,0-6.842,5.876c-.571,1.408,8.805-14.962,3.311-14.6-12.772.832-23.768,27.556-15.469,39.482l11.108,18.219L82.363,255.68c-7.021.761-21.7,5.811-29.931,12.284,3.18,12.465,7.606,47.567,54.112,45.036C122,312.159,159.543,217,159.543,217Z" transform="translate(36.403 112.762)" fill="none" stroke="#263238" stroke-linecap="round" stroke-linejoin="round" stroke-width="2.5"/>
        <path id="Path_3976" data-name="Path 3976" d="M62.958,232.652c1.984-3.483,12.1-15.191,12.1-15.191" transform="translate(43.711 150.981)" fill="none" stroke="#263238" stroke-linecap="round" stroke-linejoin="round" stroke-width="2.5"/>
        <path id="Path_3977" data-name="Path 3977" d="M102.089,169.147c-5.179,8.79-4.893,15.56-4.893,15.56" transform="translate(67.481 117.437)" fill="none" stroke="#263238" stroke-linecap="round" stroke-linejoin="round" stroke-width="2.5"/>
        <path id="Path_3978" data-name="Path 3978" d="M105.906,180.009c10.474,5,11.911,8.848,11.911,8.848" transform="translate(73.53 124.979)" fill="none" stroke="#263238" stroke-linecap="round" stroke-linejoin="round" stroke-width="2.5"/>
        <path id="Path_3979" data-name="Path 3979" d="M96.979,167.4c-5.179,8.79-7.4,20.12-7.4,20.12" transform="translate(62.191 116.224)" fill="none" stroke="#263238" stroke-linecap="round" stroke-linejoin="round" stroke-width="2.5"/>
        <path id="Path_3980" data-name="Path 3980" d="M99.112,163.908c-.981,4.986-7.358,9.81-11.813,8.934" transform="translate(60.611 113.8)" fill="none" stroke="#263238" stroke-linecap="round" stroke-linejoin="round" stroke-width="2.5"/>
      </g>
    </g>
  </g>
</svg>
