<svg xmlns="http://www.w3.org/2000/svg" width="51.434" height="48.116" viewBox="0 0 51.434 48.116">
  <g id="Group_1124" data-name="Group 1124" transform="translate(-723.278 -266.014)">
    <rect id="Rectangle_54" data-name="Rectangle 54" width="51.434" height="48.116" rx="7" transform="translate(723.278 266.014)" fill="#0565ff" opacity="0.08"/>
    <g id="mail_outline" transform="translate(732.396 276.877)">
      <path id="Path_381" data-name="Path 381" d="M13.8,21.6H24.2a46.681,46.681,0,0,1,5.681.2A6.329,6.329,0,0,1,33.73,23.47,6.329,6.329,0,0,1,35.4,27.318,46.707,46.707,0,0,1,35.6,33v3.592a46.709,46.709,0,0,1-.2,5.681,6.329,6.329,0,0,1-1.672,3.848,6.329,6.329,0,0,1-3.848,1.672,46.712,46.712,0,0,1-5.681.2H13.8a46.711,46.711,0,0,1-5.681-.2A6.329,6.329,0,0,1,4.27,46.119,6.329,6.329,0,0,1,2.6,42.272a46.68,46.68,0,0,1-.2-5.681V33a46.678,46.678,0,0,1,.2-5.681A6.329,6.329,0,0,1,4.27,23.47,6.329,6.329,0,0,1,8.118,21.8,46.68,46.68,0,0,1,13.8,21.6ZM8.458,24.329a3.839,3.839,0,0,0-2.382.946,3.839,3.839,0,0,0-.946,2.382,45.734,45.734,0,0,0-.176,5.434V36.5a45.736,45.736,0,0,0,.176,5.434,3.839,3.839,0,0,0,.946,2.382,3.839,3.839,0,0,0,2.382.946,45.761,45.761,0,0,0,5.434.176H24.107a45.762,45.762,0,0,0,5.434-.176,3.839,3.839,0,0,0,2.382-.946,3.839,3.839,0,0,0,.946-2.382,45.762,45.762,0,0,0,.176-5.434V33.092a45.76,45.76,0,0,0-.176-5.434,3.839,3.839,0,0,0-.946-2.382,3.839,3.839,0,0,0-2.382-.946,45.738,45.738,0,0,0-5.434-.176H13.892A45.736,45.736,0,0,0,8.458,24.329Z" transform="translate(-2.4 -21.6)" fill="#0565ff" fill-rule="evenodd"/>
      <path id="Path_382" data-name="Path 382" d="M31.414,60.568a1.277,1.277,0,0,1,1.771-.354l4.549,3.033c1.4.931,2.36,1.571,3.164,1.99a3.237,3.237,0,0,0,3.588,0c.8-.418,1.768-1.059,3.164-1.99L52.2,60.214a1.277,1.277,0,0,1,1.417,2.125l-4.608,3.072c-1.323.882-2.4,1.6-3.343,2.091a5.733,5.733,0,0,1-5.945,0,39.424,39.424,0,0,1-3.343-2.091l-4.608-3.072A1.277,1.277,0,0,1,31.414,60.568Z" transform="translate(-26.092 -53.189)" fill="#0565ff" fill-rule="evenodd"/>
    </g>
  </g>
</svg>
