<svg xmlns="http://www.w3.org/2000/svg" xmlns:xlink="http://www.w3.org/1999/xlink" width="228" height="208" viewBox="0 0 228 208">
  <defs>
    <clipPath id="clip-path">
      <rect id="Rectangle_335" data-name="Rectangle 335" width="149.297" height="147.985" fill="#8a8a8a"/>
    </clipPath>
  </defs>
  <g id="Group_340" data-name="Group 340" transform="translate(-1200 -9252)">
    <circle id="Ellipse_78" data-name="Ellipse 78" cx="104" cy="104" r="104" transform="translate(1220 9252)" fill="#e1e1e1" opacity="0.43"/>
    <g id="Group_265" data-name="Group 265" transform="translate(1200 9269.563)">
      <g id="Group_262" data-name="Group 262" transform="translate(0 0)" clip-path="url(#clip-path)">
        <path id="Path_331" data-name="Path 331" d="M74.558,147.954q-33.332,0-66.663,0c-7.445,0-7.893-.464-7.895-8.09,0-2.209,0-4.419.085-6.623.061-1.5.32-3.344,1.881-3.7,3.483-.794,3.157-3.272,3.155-5.8-.012-23.7.04-47.409-.058-71.112-.015-3.357.848-5.793,3.579-7.969C15.2,39.437,21.488,33.876,27.926,28.5c1.424-1.191,2.854-2.947,5.012-1.871,2.093,1.046,1.746,3.229,1.746,5.109.019,30.476-.013,60.954.077,91.43.006,1.925-1.288,5.348,1.813,5.443,3.654.113,2.21-3.535,2.216-5.536q.145-57.42.076-114.839c0-8.031.2-8.23,8.079-8.23q28.254,0,56.511,0c6.432,0,6.967.522,6.97,7.119q.027,57.641.089,115.281c.007,2.173-1.546,6.116,1.989,6.162,3.649.046,2.011-3.913,2.019-6.04.12-29.592.08-59.186.086-88.779a29.08,29.08,0,0,1,.132-4.409c.444-2.866,2.321-4.148,4.643-2.274,8.015,6.463,15.84,13.165,23.653,19.873,1.614,1.387,1.139,3.56,1.139,5.447q.027,35.334.018,70.67c0,2.719-.681,5.659,3.318,6.58,1.5.347,1.7,2.286,1.727,3.786.058,3.09,0,6.183.056,9.273.082,4.064-2.12,5.313-5.865,5.29-13.245-.086-26.489-.031-39.734-.03H74.558m30.233-80.56c0-18.977-.077-37.957.067-56.934.028-3.67-1.2-4.839-4.822-4.809q-25.366.209-50.732,0c-3.566-.028-4.873,1.029-4.863,4.762q.169,56.935,0,113.869c-.01,3.686,1.2,4.8,4.817,4.774,16.909-.148,33.821-.182,50.732.019,4.066.047,4.894-1.509,4.866-5.189-.147-18.83-.068-37.662-.068-56.493m-76.6-31.706c-4.52,3.793-8.816,7.752-13.491,11.2-3.108,2.289-3.974,4.934-3.946,8.624.141,20.429.064,40.861.064,61.293,0,12.232,0,12.232,12.29,12.189,5.88-.021,5.9-.021,5.9-5.8q.013-41.451-.021-82.9c0-1.4.469-2.909-.8-4.6m92.1-.694v6.153q0,40.572,0,81.143c0,1.028.064,2.06,0,3.085-.165,2.646,1.053,3.713,3.673,3.633,3.523-.108,7.059-.162,10.578.018,3.2.163,3.986-1.36,3.98-4.254-.065-23.813-.039-47.627-.042-71.44,0-1.477.053-3.034-1.2-4.093-5.346-4.521-10.726-9-17-14.245M74.509,142.233q32.21,0,64.419-.009c4.392,0,5.429-1.246,4.686-5.137-.648-3.393-3.321-2.35-5.288-2.353q-63.757-.087-127.515-.046c-.589,0-1.178.042-1.765.01-2.413-.126-3.3.986-3.452,3.415-.217,3.493,1.44,4.174,4.5,4.162,21.472-.085,42.944-.045,64.417-.043" transform="translate(0 0)" fill="#8a8a8a"/>
        <path id="Path_332" data-name="Path 332" d="M52.279,19C52.508,7.447,49.867,7.243,64.973,7.366c1.615.013,3.232.058,4.84.179,2.611.2,4.011,1.615,4.016,4.28.01,5.438.021,10.875-.009,16.313-.016,2.675-1.414,4.081-4.1,4.094-4.407.021-8.814.013-13.22.006-2.939-.006-4.25-1.566-4.225-4.431.025-2.645.006-5.29.006-8.807m15.883,1.449c0-1.028-.07-2.062.012-3.084.294-3.674-2.037-4-4.811-3.916-2.66.082-5.588-.375-5.4,3.79.1,2.2.024,4.407.065,6.61a2.439,2.439,0,0,0,1.9,2.577c5.536,1.713,8.23-.2,8.228-5.977" transform="translate(25.248 3.553)" fill="#8a8a8a"/>
        <path id="Path_333" data-name="Path 333" d="M55.437,39.67c0,2.351-.089,4.705.019,7.051.157,3.464-1.242,5.242-4.868,5.156-3.964-.093-7.93-.076-11.894,0-3.287.059-4.9-1.378-4.864-4.738.059-4.995.077-9.991-.006-14.984-.056-3.283,1.449-4.978,4.69-5.033,3.962-.067,7.926-.036,11.889-.037,3.7,0,5.3,1.842,5.063,5.537-.151,2.341-.028,4.7-.03,7.051m-5.7-.217c-.406-1.785,1.049-4.511-1.317-5.8-2.212-1.206-4.944-.927-7.315-.174-2.2.7-1.4,2.94-1.538,4.607-.086,1.021.095,2.069-.034,3.082-.485,3.806,1,5.294,4.937,5.092,5.2-.267,5.263-.113,5.268-6.8" transform="translate(16.35 13.089)" fill="#8a8a8a"/>
        <path id="Path_334" data-name="Path 334" d="M73.843,59.648c0,13.046,1.138,11.874-11.788,11.882-9.8.006-9.8-.006-9.8-9.887,0-3.378.076-6.757,0-10.134-.073-3.149,1.522-4.644,4.5-4.711,4.106-.09,8.218-.09,12.325-.036,3.186.044,4.868,1.627,4.776,4.955-.073,2.642-.015,5.287-.015,7.932m-5.683-.3c-.66-1.863,1.409-4.922-1.787-6.309-4.98-2.163-8.4.23-8.414,5.715,0,1.467.024,2.936.059,4.4.04,1.547.82,2.3,2.379,2.621,6.039,1.233,7.752-.068,7.763-6.43" transform="translate(25.257 22.587)" fill="#8a8a8a"/>
        <path id="Path_335" data-name="Path 335" d="M55.421,20.205c-.04,13.232,1.38,12.012-12.061,12.036-9.532.015-9.534,0-9.529-9.339,0-3.526.056-7.055,0-10.581-.045-3.047,1.354-4.775,4.409-4.842q6.382-.14,12.769,0c3.023.064,4.52,1.685,4.426,4.79-.082,2.643-.018,5.291-.018,7.936m-5.687-.564c0-5.739-4.091-8.767-8.559-5.748-3.545,2.4-1.265,6.782-1.47,10.262-.151,2.553,2.143,2.277,3.881,2.347,6.1.24,6.146.181,6.149-6.861" transform="translate(16.353 3.583)" fill="#8a8a8a"/>
        <path id="Path_336" data-name="Path 336" d="M55.433,59.375C55.354,72.709,56.88,71.488,43.5,71.512c-9.67.018-9.672,0-9.667-9.609,0-3.525.037-7.048.024-10.572-.012-2.87,1.431-4.456,4.242-4.518,4.25-.093,8.5-.025,12.754.034,3.275.045,4.751,1.746,4.6,5.041-.116,2.491-.022,4.992-.016,7.488m-5.695-.068c-.678-1.93,1.534-5.259-2.261-6.387-5.567-1.657-7.918.132-7.926,5.848,0,1.469.022,2.936.05,4.4.03,1.559.813,2.293,2.378,2.6,6.074,1.194,7.746-.08,7.758-6.465" transform="translate(16.353 22.607)" fill="#8a8a8a"/>
        <path id="Path_337" data-name="Path 337" d="M52.268,39.493c-.021-11.461-.021-11.461,11.351-12.179,10.106-.638,10.247-.512,10.24,9.387,0,3.674-.009,7.349-.043,11.023-.025,2.683-1.411,4.078-4.1,4.093-4.407.022-8.813.007-13.22.01-2.939,0-4.268-1.518-4.237-4.4.03-2.645.006-5.291.006-7.936m5.684-.122c.721,1.963-1.59,5.284,1.951,6.606,5.355,2,8.251-.163,8.252-5.88,0-1.47-.01-2.942-.074-4.41A2.49,2.49,0,0,0,66.029,33.2c-5.776-1.716-8.076-.092-8.077,6.166" transform="translate(25.262 13.098)" fill="#8a8a8a"/>
        <path id="Path_338" data-name="Path 338" d="M55.427,78.525c-.085,14,1.547,12.487-12.453,12.558-1.472.007-2.945-.053-4.413,0-3.393.116-4.774-1.6-4.731-4.874.064-5,.042-10.01.015-15.015-.018-3.09,1.354-4.607,4.548-4.538,4.118.09,8.242.11,12.358-.013,3.446-.1,4.8,1.531,4.69,4.821-.08,2.353-.015,4.71-.015,7.065m-15.874.211c.665,1.881-1.424,4.953,1.66,6.384,4.817,2.238,8.5-.267,8.522-5.564,0-.883-.079-1.771.01-2.643.346-3.381-1.046-4.735-4.523-4.719-5.669.027-5.669-.145-5.669,6.542" transform="translate(16.353 32.21)" fill="#8a8a8a"/>
        <path id="Path_339" data-name="Path 339" d="M73.859,78.928c-.033,13.437,1.2,12.137-12.012,12.162-9.592.018-9.593,0-9.592-9.688,0-3.385.073-6.772,0-10.157-.074-3.44,1.633-4.705,4.917-4.6,3.821.122,7.656.162,11.474-.012s5.416,1.486,5.232,5.23c-.116,2.35-.022,4.71-.018,7.065m-5.753-.85c-.47-1.513,1.325-4.539-1.107-5.48-2.452-.949-6.255-1.479-7.964.528-2.454,2.881-1.3,7.077-.718,10.6.409,2.483,3.143,1.38,4.911,1.629,5.856.828,4.981-3.272,4.877-7.28" transform="translate(25.258 32.204)" fill="#8a8a8a"/>
      </g>
    </g>
  </g>
</svg>
