<svg xmlns="http://www.w3.org/2000/svg" xmlns:xlink="http://www.w3.org/1999/xlink" width="34.143" height="41.143" viewBox="0 0 34.143 41.143">
  <defs>
    <clipPath id="clip-path">
      <rect width="34.143" height="41.143" fill="none"/>
    </clipPath>
  </defs>
  <g id="Repeat_Grid_71" data-name="Repeat Grid 71" clip-path="url(#clip-path)">
    <g transform="translate(-1362.532 -9035.142)">
      <g id="close-circled" transform="translate(1408.834 9081.824) rotate(180)">
        <path id="Path_1048" data-name="Path 1048" d="M29.231,12.54A17.071,17.071,0,1,0,46.3,29.611,17.072,17.072,0,0,0,29.231,12.54Zm8.254,22.825a.6.6,0,0,1,.175.427.587.587,0,0,1-.175.427l-1.646,1.654a.593.593,0,0,1-.427.175.613.613,0,0,1-.427-.175l-5.754-5.762L23.485,37.88a.581.581,0,0,1-.427.175.613.613,0,0,1-.427-.175l-1.646-1.654a.6.6,0,0,1-.175-.427.587.587,0,0,1,.175-.427l5.769-5.792L20.97,23.865a.612.612,0,0,1,0-.861l1.646-1.654a.607.607,0,0,1,.854,0l5.769,5.693,5.769-5.693a.607.607,0,0,1,.854,0L37.508,23a.612.612,0,0,1,0,.861l-5.784,5.716,5.762,5.784Z" transform="translate(0 0)" fill="#ff8585"/>
      </g>
    </g>
  </g>
</svg>
