<svg xmlns="http://www.w3.org/2000/svg" width="39.538" height="39.554" viewBox="0 0 39.538 39.554">
  <path id="Path_322" data-name="Path 322" d="M138.317,0h3.395c.785.127,1.581.181,2.355.37Q155.628,3.2,159.117,14.576a20.424,20.424,0,0,1,.647,3.555v3.24c-.016.088-.039.175-.047.264A19.794,19.794,0,1,1,120.54,16.2,19.887,19.887,0,0,1,134.8.652,27.933,27.933,0,0,1,138.317,0m3.365,26.155c0-1.774.006-3.548-.005-5.322,0-.317.1-.429.422-.422.8.016,1.594,0,2.391.006.23,0,.4-.038.431-.317.1-1.086.2-2.173.325-3.258.036-.322-.087-.4-.382-.393-.925.013-1.851,0-2.777.006-.292,0-.416-.1-.409-.406.015-.655,0-1.311,0-1.967,0-.851.369-1.211,1.231-1.216.643,0,1.286-.008,1.928,0,.274,0,.4-.1.4-.382q-.013-1.523,0-3.047c0-.276-.1-.4-.383-.395-1.247.009-2.495-.024-3.74.018a4.069,4.069,0,0,0-3.8,2.833,5.113,5.113,0,0,0-.294,1.7c0,.81-.01,1.62,0,2.43,0,.309-.117.442-.435.433-.488-.015-.977,0-1.465,0-.271-.005-.4.089-.4.379q.013,1.6,0,3.2c0,.282.106.394.388.387.488-.012.978.015,1.465-.008.347-.016.464.134.444.453-.009.141,0,.283,0,.424q0,5.014,0,10.027c0,.5.026.527.52.528,1.221,0,2.443-.01,3.664.007.369.005.493-.114.49-.488-.016-1.735-.007-3.471-.006-5.206" transform="translate(-120.226 -0.001)" fill="#7e8e9e"/>
</svg>
