<svg xmlns="http://www.w3.org/2000/svg" xmlns:xlink="http://www.w3.org/1999/xlink" width="56" height="56" viewBox="0 0 56 56">
  <defs>
    <clipPath id="clip-path">
      <rect id="Rectangle_1792" data-name="Rectangle 1792" width="27.382" height="27.38" fill="#fff"/>
    </clipPath>
  </defs>
  <g id="Group_7383" data-name="Group 7383" transform="translate(-951 -7493.697)">
    <circle id="Ellipse_802" data-name="Ellipse 802" cx="28" cy="28" r="28" transform="translate(951 7493.697)" fill="#0565ff"/>
    <g id="Group_7377" data-name="Group 7377" transform="translate(965.616 7508.156)">
      <g id="Group_7376" data-name="Group 7376" clip-path="url(#clip-path)">
        <path id="Path_3981" data-name="Path 3981" d="M13.689,37.277q-5.054,0-10.109,0A3.475,3.475,0,0,1,.092,34.457a3.878,3.878,0,0,1-.085-.8Q0,26.779.006,19.9a3.521,3.521,0,0,1,2.971-3.559A2.966,2.966,0,0,1,3.51,16.3q5.144,0,10.287,0c.366,0,.374.006.3.369a3.051,3.051,0,0,0-.043.621c0,1.338-.007,2.676,0,4.014a3.4,3.4,0,0,0,2.593,3.416.47.47,0,0,1,.326.264,2.818,2.818,0,0,0,4.549.808c.247-.229.492-.462.717-.712a.787.787,0,0,1,.656-.265c.763.013,1.526,0,2.289,0a3.394,3.394,0,0,0,1.872-.587c.079-.051.15-.172.253-.116s.063.2.063.3q0,2.735,0,5.471c0,1.259.007,2.517,0,3.776a3.534,3.534,0,0,1-2.982,3.581,3.708,3.708,0,0,1-.651.035q-5.025,0-10.049,0M9.232,34.03c1.516,0,3.033,0,4.549,0a1.389,1.389,0,0,0,1.445-1.441c0-.258,0-.515,0-.773a2.181,2.181,0,0,0-.4-1.283,4.226,4.226,0,0,0-1.744-1.393.406.406,0,0,0-.542.089A4.6,4.6,0,0,1,9.322,30.55,4.73,4.73,0,0,1,5.9,29.2c-.116-.109-.21-.184-.386-.1-1.394.651-2.4,1.512-2.283,3.407A1.476,1.476,0,0,0,4.8,34.03q2.215,0,4.43,0m.01-4.817a3.447,3.447,0,1,0-3.448-3.44,3.441,3.441,0,0,0,3.448,3.44" transform="translate(0 -15.005)" fill="#fff"/>
        <path id="Path_3982" data-name="Path 3982" d="M197.706,0q1.8,0,3.6,0a2.311,2.311,0,0,1,2.471,2.475q0,1.843,0,3.686A2.313,2.313,0,0,1,201.3,8.637c-.862,0-1.724.006-2.586,0a.692.692,0,0,0-.552.223c-.343.357-.692.71-1.059,1.043a1.62,1.62,0,0,1-2.573-.3,1.455,1.455,0,0,1-.214-.674c-.011-.241-.123-.287-.338-.295a2.264,2.264,0,0,1-2.148-1.374,2.416,2.416,0,0,1-.2-1.013c0-1.278-.006-2.557,0-3.835A2.3,2.3,0,0,1,194.05,0c1.219,0,2.438,0,3.656,0" transform="translate(-176.402 0)" fill="#fff"/>
        <path id="Path_3983" data-name="Path 3983" d="M80.035,299.424q-3.389,0-6.778,0a1.048,1.048,0,0,1-1.137-.759.978.978,0,0,1,.95-1.221q.772-.02,1.546,0a.332.332,0,0,0,.379-.28c.137-.455.3-.9.446-1.354a.328.328,0,0,1,.357-.276q4.251.007,8.5,0a.328.328,0,0,1,.358.274c.139.444.3.88.436,1.326a.361.361,0,0,0,.418.311c.465-.019.931-.007,1.4,0a1,1,0,1,1,.023,1.98c-1.457.011-2.913.009-4.37.011q-1.263,0-2.527,0v-.007" transform="translate(-66.362 -272.052)" fill="#fff"/>
      </g>
    </g>
  </g>
</svg>
