<svg xmlns="http://www.w3.org/2000/svg" xmlns:xlink="http://www.w3.org/1999/xlink" width="105.999" height="104.002" viewBox="0 0 105.999 104.002">
  <defs>
    <linearGradient id="linear-gradient" x1="0.5" x2="0.5" y2="1" gradientUnits="objectBoundingBox">
      <stop offset="0" stop-color="#fff"/>
      <stop offset="1" stop-color="#014eff"/>
    </linearGradient>
  </defs>
  <g id="Group_719" data-name="Group 719" transform="translate(-636.001 -9218.998)">
    <circle id="Ellipse_277" data-name="Ellipse 277" cx="48.5" cy="48.5" r="48.5" transform="translate(645 9226)" fill="#0f202e"/>
    <g id="Group_689" data-name="Group 689" transform="translate(317.001 -988.916)">
      <path id="Path_1473" data-name="Path 1473" d="M128.367,435.423a2.425,2.425,0,0,1-.485-.959A29.888,29.888,0,0,0,117.4,421.649a1.693,1.693,0,0,1-.829-1.584c.025-8.13.016-16.261.015-24.391,0-1.017,0-1.019-1.034-1.02q-3.029,0-6.059,0c-.577,0-1.178.02-1.49-.595s.074-1.073.446-1.523q6.43-7.784,12.855-15.573c1.01-1.222,1.476-1.219,2.5.015q6.412,7.748,12.812,15.507c.082.1.158.205.241.3a1.077,1.077,0,0,1-.89,1.858c-1.864.007-3.729.006-5.593.006s-1.869,0-1.869,1.9v13.478l1.417-.808a25.371,25.371,0,0,1,10.431-3.284c.591-.052.654-.337.652-.806-.01-2.175,0-4.35,0-6.525,0-.559.022-1.107.614-1.4.609-.3,1.029.073,1.456.425q7.842,6.482,15.687,12.96c1.109.915,1.12,1.433.03,2.334q-7.841,6.483-15.684,12.964c-.421.348-.844.736-1.456.454-.632-.292-.65-.867-.649-1.455.005-2.046-.017-4.091.012-6.136.01-.683-.234-.853-.884-.73a14.257,14.257,0,0,0-11.517,12.7c-.117,1.3-.068,2.586-.11,3.878-.009.265.1.559-.13.819" transform="translate(233.51 9831.864)" fill="url(#linear-gradient)"/>
      <path id="Path_1474" data-name="Path 1474" d="M37.013,577.232c-1.553,0-3.107.009-4.66,0-.932-.007-1.257-.332-1.255-1.274a25.149,25.149,0,0,0-.475-6.561A15.856,15.856,0,0,0,19.4,557.683c-.59-.186-.834-.086-.821.6.037,1.967.012,3.935.013,5.9,0,.582,0,1.18-.631,1.465-.592.266-1.036-.083-1.466-.439Q8.569,558.659.637,552.105c-.873-.722-.855-1.308.084-2.087Q5.8,545.8,10.9,541.611l5.628-4.648c.427-.352.863-.718,1.462-.425s.609.844.609,1.4c0,2.175.017,4.35-.011,6.524-.009.643.2.9.859,1a28.24,28.24,0,0,1,23.106,22.373A43.99,43.99,0,0,1,43,576.11c0,.777-.364,1.109-1.174,1.117-1.6.016-3.21,0-4.815.005" transform="translate(319 9704.772)" fill="url(#linear-gradient)"/>
    </g>
  </g>
</svg>
