<svg id="google-logo-search-new-svgrepo-com" xmlns="http://www.w3.org/2000/svg" width="32.751" height="32.753" viewBox="0 0 32.751 32.753">
  <path id="Path_133" data-name="Path 133" d="M28.342,16A9.571,9.571,0,0,1,9.763,19.245L4.285,23.628A16.368,16.368,0,0,0,35.139,16" transform="translate(-2.388 0.376)" fill="#00ac47"/>
  <path id="Path_134" data-name="Path 134" d="M24.517,16A9.564,9.564,0,0,1,20.5,23.784l5.416,4.333A16.319,16.319,0,0,0,31.314,16" transform="translate(1.437 0.376)" fill="#4285f4"/>
  <path id="Path_135" data-name="Path 135" d="M9.547,17.456a9.514,9.514,0,0,1,.578-3.245L4.647,9.828a16.285,16.285,0,0,0,0,15.256L10.125,20.7a9.514,9.514,0,0,1-.578-3.245Z" transform="translate(-2.75 -1.08)" fill="#ffba00"/>
  <path id="Path_136" data-name="Path 136" d="M8.718,13.374Z" transform="translate(-1.342 -0.244)" fill="#2ab2db"/>
  <path id="Path_137" data-name="Path 137" d="M18.763,9.547A9.515,9.515,0,0,1,24.4,11.4l5.018-4.683A16.332,16.332,0,0,0,4.285,11.5L9.763,15.88A9.586,9.586,0,0,1,18.763,9.547Z" transform="translate(-2.388 -2.75)" fill="#ea4435"/>
  <path id="Path_138" data-name="Path 138" d="M8.718,18.626Z" transform="translate(-1.342 0.995)" fill="#2ab2db"/>
  <path id="Path_139" data-name="Path 139" d="M32.258,15.236v1.236L29.477,20.8H16.5V14H31.022A1.236,1.236,0,0,1,32.258,15.236Z" transform="translate(0.493 -0.096)" fill="#4285f4"/>
</svg>
