<svg xmlns="http://www.w3.org/2000/svg" xmlns:xlink="http://www.w3.org/1999/xlink" width="105.999" height="104.002" viewBox="0 0 105.999 104.002">
  <defs>
    <linearGradient id="linear-gradient" x1="0.5" x2="0.5" y2="1" gradientUnits="objectBoundingBox">
      <stop offset="0" stop-color="#fff"/>
      <stop offset="1" stop-color="#014eff"/>
    </linearGradient>
  </defs>
  <g id="Group_720" data-name="Group 720" transform="translate(-1060.001 -9218.998)">
    <circle id="Ellipse_277" data-name="Ellipse 277" cx="48.5" cy="48.5" r="48.5" transform="translate(1069 9226)" fill="#0f202e"/>
    <g id="Group_691" data-name="Group 691" transform="translate(548.782 -920.868)">
      <g id="Group_690" data-name="Group 690" transform="translate(511.219 10139.866)">
        <path id="Path_1468" data-name="Path 1468" d="M1188.1,153.843c0-4.77.006-9.539-.008-14.309a2.582,2.582,0,0,1,.486-1.593q4.147-5.829,8.256-11.685a5.755,5.755,0,0,1,3.929-2.631,5.185,5.185,0,0,1,5.8,6.1c-.613,2.638-1.425,5.231-2.148,7.843-.276,1-.276,1,.72,1,3.056,0,6.112-.019,9.168.012a7.061,7.061,0,0,1,6.872,8.781c-1.456,5.665-3.063,11.294-4.7,16.911a6.981,6.981,0,0,1-6.8,5.066c-6.883.037-13.766,0-20.649.026-.8,0-.945-.356-.943-1.045.018-4.827.009-9.653.009-14.48" transform="translate(-1159.282 -95.274)" fill="url(#linear-gradient)"/>
        <path id="Path_1469" data-name="Path 1469" d="M1136.893,204.459q0,7.109,0,14.217c0,1.129-.029,1.156-1.148,1.159-1.256,0-2.512.011-3.769,0a5.09,5.09,0,0,1-5.261-5.241q-.022-10.192,0-20.384a4.987,4.987,0,0,1,5.129-5.151c1.342-.015,2.685.034,4.025-.019.791-.031,1.041.254,1.037,1.031-.025,4.8-.012,9.592-.012,14.388" transform="translate(-1111.947 -145.754)" fill="url(#linear-gradient)"/>
        <path id="Path_1470" data-name="Path 1470" d="M1065.544,65.633c.237-1.4.445-2.843.737-4.266a1.692,1.692,0,0,0-.542-1.69c-.961-.935-1.9-1.889-2.873-2.816a1.523,1.523,0,0,1-.525-1.687,1.5,1.5,0,0,1,1.377-.98c1.355-.182,2.7-.426,4.057-.606a1.65,1.65,0,0,0,1.365-1.016c.568-1.183,1.167-2.35,1.741-3.53a1.494,1.494,0,0,1,2.883-.015c.531,1.106,1.1,2.195,1.6,3.311a1.953,1.953,0,0,0,1.656,1.282c1.3.155,2.591.389,3.889.57a1.535,1.535,0,0,1,1.417,1.056,1.559,1.559,0,0,1-.6,1.667c-.919.9-1.81,1.824-2.76,2.686a1.862,1.862,0,0,0-.6,1.918c.251,1.286.433,2.586.671,3.875a1.468,1.468,0,0,1-.573,1.585,1.423,1.423,0,0,1-1.613.021c-1.159-.615-2.334-1.2-3.48-1.839a1.939,1.939,0,0,0-2.089-.01c-1.188.678-2.4,1.316-3.641,1.9a1.427,1.427,0,0,1-2.1-1.417" transform="translate(-1062.256 -36.958)" fill="url(#linear-gradient)"/>
        <path id="Path_1471" data-name="Path 1471" d="M1320.193,47.872a1.592,1.592,0,0,1,1.4.976c.581,1.177,1.193,2.339,1.742,3.531a1.883,1.883,0,0,0,1.617,1.2c1.329.16,2.649.4,3.975.58a1.439,1.439,0,0,1,1.289.972,1.477,1.477,0,0,1-.47,1.625c-.986.951-1.95,1.924-2.935,2.877a1.659,1.659,0,0,0-.542,1.685c.281,1.309.461,2.639.7,3.957a1.537,1.537,0,0,1-.536,1.611,1.454,1.454,0,0,1-1.688.053c-1.188-.622-2.388-1.222-3.557-1.878a1.821,1.821,0,0,0-1.935.02c-1.149.633-2.322,1.224-3.485,1.832a1.47,1.47,0,0,1-2.251-1.657c.251-1.257.41-2.533.664-3.79a1.918,1.918,0,0,0-.656-1.983c-.952-.86-1.846-1.785-2.765-2.681a1.494,1.494,0,0,1-.539-1.605,1.524,1.524,0,0,1,1.42-1.045c1.327-.179,2.645-.429,3.973-.6a1.841,1.841,0,0,0,1.529-1.192c.543-1.163,1.13-2.305,1.689-3.461a1.641,1.641,0,0,1,1.366-1.029" transform="translate(-1253.387 -36.91)" fill="url(#linear-gradient)"/>
        <path id="Path_1472" data-name="Path 1472" d="M1189.535,17.426c.174-1.009.357-2.252.611-3.48a2.35,2.35,0,0,0-.764-2.533c-.892-.754-1.693-1.616-2.534-2.431a1.541,1.541,0,0,1-.588-1.669,1.51,1.51,0,0,1,1.418-1.044c1.329-.174,2.648-.422,3.978-.587a1.748,1.748,0,0,0,1.473-1.127c.556-1.19,1.166-2.354,1.74-3.536a1.469,1.469,0,0,1,2.8.012c.587,1.207,1.2,2.4,1.781,3.612a1.628,1.628,0,0,0,1.355,1.023c1.385.179,2.762.422,4.146.616a1.463,1.463,0,0,1,1.325,1.043,1.446,1.446,0,0,1-.478,1.547c-.911.906-1.815,1.824-2.778,2.672a2.119,2.119,0,0,0-.68,2.16c.2,1.123.412,2.245.6,3.371.117.713.215,1.448-.491,1.951a1.753,1.753,0,0,1-2.007-.12c-1.133-.607-2.279-1.188-3.409-1.8a1.5,1.5,0,0,0-1.541.006c-1.257.676-2.513,1.358-3.8,1.977-1.21.582-2.2-.1-2.155-1.665" transform="translate(-1157.81 0)" fill="url(#linear-gradient)"/>
      </g>
    </g>
  </g>
</svg>
