<svg id="Group_513" data-name="Group 513" xmlns="http://www.w3.org/2000/svg" width="47.2" height="47.575" viewBox="0 0 47.2 47.575">
  <path id="Path_429" data-name="Path 429" d="M35.572,35.161a5.161,5.161,0,0,1-2.723-.728l-19-11.113a1.9,1.9,0,1,1,1.9-3.166L34.527,31.109a1.931,1.931,0,0,0,2.153,0L55.2,20.186a2.47,2.47,0,0,1,1.393-.443,1.9,1.9,0,0,1,1.71,1.33,1.836,1.836,0,0,1-.728,2.09c-.6.38-1.235.728-1.836,1.076L38.358,34.4A5.224,5.224,0,0,1,35.572,35.161Z" transform="translate(-12.519 2.969)" fill="#fff"/>
  <path id="Path_430" data-name="Path 430" d="M35.113,38.089a4.939,4.939,0,0,1-2.406-.7l-19-11.144a1.867,1.867,0,1,1,1.9-3.166l10.226,5.952,8.612,5.034a1.931,1.931,0,0,0,2.153,0L55.059,23.082a2.723,2.723,0,0,1,.918-.412,1.9,1.9,0,0,1,2.248,1.171,1.836,1.836,0,0,1-.76,2.28l-2.976,1.741-16.273,9.5a5.572,5.572,0,0,1-3.1.728Z" transform="translate(-12.376 9.476)" fill="#fff"/>
  <path id="Path_431" data-name="Path 431" d="M57.728,22.619l-19-9.5a6.332,6.332,0,0,0-3.166-.633,5.73,5.73,0,0,0-2.5.665l-8.548,4.464-10.036,5a3.166,3.166,0,0,0-1.868,2.121,2.881,2.881,0,0,0,1.71,3.166l19,11.081a5.224,5.224,0,0,0,5.541,0l7.5-4.369,11.493-6.68a3.166,3.166,0,0,0,1.71-2.09,2.849,2.849,0,0,0-1.836-3.229Zm-3.514,3.166-17.1,9.973a1.868,1.868,0,0,1-2.058,0l-17.1-9.973-.538-.317L23.756,22.3l11.208-5.6a2.406,2.406,0,0,1,2.311,0l16.97,8.485.475.253Z" transform="translate(-12.417 -12.477)" fill="#fff"/>
</svg>
