<svg id="Group_516" data-name="Group 516" xmlns="http://www.w3.org/2000/svg" width="51.836" height="41.078" viewBox="0 0 51.836 41.078">
  <path id="Path_432" data-name="Path 432" d="M42.186,15.075a2.017,2.017,0,0,0-2.581-.237C36.639,16.915,21.362,27.3,19.731,28.928a6.083,6.083,0,0,0,8.6,8.6c1.631-1.631,12.014-16.819,14.09-19.874a2.017,2.017,0,0,0-.237-2.581Zm-16.7,19.578a2.1,2.1,0,0,1-2.966-2.966c.623-.623,4.954-3.708,10.264-7.386-3.619,5.4-6.7,9.7-7.327,10.323Z" transform="translate(1.791 -7.417)" fill="#2f63f9"/>
  <path id="Path_433" data-name="Path 433" d="M42.186,15.075a2.017,2.017,0,0,0-2.581-.237C36.639,16.915,21.362,27.3,19.731,28.928a6.083,6.083,0,0,0,8.6,8.6c1.631-1.631,12.014-16.819,14.09-19.874a2.017,2.017,0,0,0-.237-2.581Zm-16.7,19.578a2.1,2.1,0,0,1-2.966-2.966c.623-.623,4.954-3.708,10.264-7.386-3.619,5.4-6.7,9.7-7.327,10.323Z" transform="translate(1.791 -7.417)" fill="#2f63f9"/>
  <path id="Path_434" data-name="Path 434" d="M20.536,47.4l-2.492,1.216A21.773,21.773,0,0,1,16.68,30.228l2.966,1.365a2.023,2.023,0,0,0,1.75-3.649L18.43,26.579A21.892,21.892,0,0,1,35.071,16.2v2.966a2.032,2.032,0,1,0,4.064,0V16.2a21.625,21.625,0,0,1,6.971,1.839,2.018,2.018,0,1,0,1.661-3.678,25.9,25.9,0,0,0-32.185,37.91,2.017,2.017,0,0,0,2.581.682l4.153-2.017a2.03,2.03,0,0,0-1.78-3.649Z" transform="translate(-11.294 -12.098)" fill="#2f63f9"/>
  <path id="Path_435" data-name="Path 435" d="M20.536,47.4l-2.492,1.216A21.773,21.773,0,0,1,16.68,30.228l2.966,1.365a2.023,2.023,0,0,0,1.75-3.649L18.43,26.579A21.892,21.892,0,0,1,35.071,16.2v2.966a2.032,2.032,0,1,0,4.064,0V16.2a21.625,21.625,0,0,1,6.971,1.839,2.018,2.018,0,1,0,1.661-3.678,25.9,25.9,0,0,0-32.185,37.91,2.017,2.017,0,0,0,2.581.682l4.153-2.017a2.03,2.03,0,0,0-1.78-3.649Z" transform="translate(-11.294 -12.098)" fill="#2f63f9"/>
  <path id="Path_436" data-name="Path 436" d="M34.988,17.987a2.018,2.018,0,1,0-3.678,1.661,21.8,21.8,0,0,1-.86,19.637L27.72,38.159a2.017,2.017,0,1,0-1.631,3.56l4.242,2.017a2.017,2.017,0,0,0,2.551-.712A25.866,25.866,0,0,0,34.988,17.987Z" transform="translate(14.566 -2.853)" fill="#2f63f9"/>
  <path id="Path_437" data-name="Path 437" d="M34.988,17.987a2.018,2.018,0,1,0-3.678,1.661,21.8,21.8,0,0,1-.86,19.637L27.72,38.159a2.017,2.017,0,1,0-1.631,3.56l4.242,2.017a2.017,2.017,0,0,0,2.551-.712A25.866,25.866,0,0,0,34.988,17.987Z" transform="translate(14.566 -2.853)" fill="#2f63f9"/>
</svg>
