<svg id="Group_514" data-name="Group 514" xmlns="http://www.w3.org/2000/svg" width="47.394" height="46.737" viewBox="0 0 47.394 46.737">
  <path id="Path_425" data-name="Path 425" d="M21.579,26.974a5.674,5.674,0,1,1,3.3-10.819l-1.216,1.559,5.986-.281-.779-5.924L27.5,13.162a9.759,9.759,0,1,0-7.982,17.553,18.707,18.707,0,0,1,2.058-3.741Z" transform="translate(-12.379 -11.51)" fill="#2f63f9"/>
  <path id="Path_426" data-name="Path 426" d="M18.87,41.124l2.588-5.394-1.871.561A14.529,14.529,0,1,1,34.958,47.2H45.5a18.707,18.707,0,1,0-29.651-9.728l-2,.624Z" transform="translate(-9.264 -6.608)" fill="#2f63f9"/>
  <path id="Path_427" data-name="Path 427" d="M59.644,27.953l-4.4-4.053v2h-42a.811.811,0,0,0-.811.811V29.2a.811.811,0,0,0,.811.811h42v2Z" transform="translate(-12.25 14.731)" fill="#2f63f9"/>
  <path id="Path_428" data-name="Path 428" d="M13.656,27.845V25.351a.811.811,0,0,1,.811-.811H13.251a.811.811,0,0,0-.811.811v2.494a.811.811,0,0,0,.811.811h1.216A.811.811,0,0,1,13.656,27.845Z" transform="translate(-12.25 16.085)" fill="#2f63f9"/>
</svg>
