<svg id="Group_515" data-name="Group 515" xmlns="http://www.w3.org/2000/svg" width="47.532" height="47.322" viewBox="0 0 47.532 47.322">
  <path id="Path_438" data-name="Path 438" d="M20.267,40.347a1.868,1.868,0,0,0,2.564-.507,16.178,16.178,0,0,1,26.848,0,1.9,1.9,0,1,0,3.166-2.09,19.851,19.851,0,0,0-9.783-7.6,10.511,10.511,0,1,0-13.329,0,19.819,19.819,0,0,0-9.91,7.693,1.868,1.868,0,0,0,.443,2.5Zm16.084-25.17a6.775,6.775,0,1,1-6.775,6.775,6.775,6.775,0,0,1,6.775-6.775Zm7.409,29.191-2.786,1.995a1.171,1.171,0,0,0-.412,1.3l1.108,3.166a1.171,1.171,0,0,1,0,.412,1.235,1.235,0,0,1-1.931.886L36.952,50.13a1.171,1.171,0,0,0-1.393,0l-2.786,1.995a1.235,1.235,0,0,1-1.931-.886,1.2,1.2,0,0,1,0-.412l1.108-3.166a1.171,1.171,0,0,0-.412-1.3l-2.786-1.995a1.266,1.266,0,0,1,.7-2.248h3.736a1.076,1.076,0,0,0,1.108-.665l1.045-3.166a1.171,1.171,0,0,1,2.248,0l1.045,3.166a1.076,1.076,0,0,0,1.108.665h3.419a1.266,1.266,0,0,1,.6,2.28Zm15.83,6.49L56.8,52.853a1.171,1.171,0,0,0-.412,1.3L57.5,57.317a1.171,1.171,0,0,1,0,.412,1.235,1.235,0,0,1-1.931.887L52.783,56.62a1.171,1.171,0,0,0-1.393,0L48.6,58.615a1.235,1.235,0,0,1-1.931-.886,1.2,1.2,0,0,1,0-.412l1.108-3.166a1.171,1.171,0,0,0-.412-1.3l-2.533-1.8a1.266,1.266,0,0,1,.7-2.248h3.483a1.076,1.076,0,0,0,1.108-.665l1.045-3.166a1.171,1.171,0,0,1,2.248,0l1.045,3.166a1.076,1.076,0,0,0,1.108.665h3.419a1.266,1.266,0,0,1,.665,2.09Zm-31.66,0-2.786,1.995a1.171,1.171,0,0,0-.412,1.3l1.108,3.166a1.171,1.171,0,0,1,0,.412,1.235,1.235,0,0,1-1.931.886L21.122,56.62a1.171,1.171,0,0,0-1.393,0l-2.786,1.995a1.235,1.235,0,0,1-1.931-.886,1.2,1.2,0,0,1,0-.412l1.108-3.166a1.171,1.171,0,0,0-.412-1.3l-2.786-1.995a1.266,1.266,0,0,1,.7-2.248h3.419a1.076,1.076,0,0,0,1.108-.665l1.045-3.166a1.171,1.171,0,0,1,2.248,0l1.045,3.166a1.076,1.076,0,0,0,1.108.665h3.578a1.266,1.266,0,0,1,.7,2.28Z" transform="translate(-12.451 -11.513)" fill="#2f63f9"/>
</svg>
