<svg xmlns="http://www.w3.org/2000/svg" xmlns:xlink="http://www.w3.org/1999/xlink" width="106.501" height="104.502" viewBox="0 0 106.501 104.502">
  <defs>
    <linearGradient id="linear-gradient" x1="0.542" y1="0.084" x2="0.857" y2="0.833" gradientUnits="objectBoundingBox">
      <stop offset="0" stop-color="#fff"/>
      <stop offset="1" stop-color="#014eff"/>
    </linearGradient>
  </defs>
  <g id="Group_718" data-name="Group 718" transform="translate(-211.499 -9218.498)">
    <circle id="Ellipse_277" data-name="Ellipse 277" cx="48.5" cy="48.5" r="48.5" transform="translate(221 9226)" fill="#0f202e"/>
    <path id="Union_3" data-name="Union 3" d="M-11449.273-5307.919a32.779,32.779,0,0,1-12.19-2.347c-.79-.32-.8-.349-.187-.9a18.175,18.175,0,0,0,3.057-3.575.806.806,0,0,1,1.106-.4,23.32,23.32,0,0,0,7.719,1.263,23.465,23.465,0,0,0,7.876-1.193,1.034,1.034,0,0,1,1.468.481,14.882,14.882,0,0,0,3.021,3.5c.433.375.36.559-.133.761a31.348,31.348,0,0,1-9.419,2.263c-.735.056-1.468.155-2.027.155C-11449.087-5307.908-11449.184-5307.911-11449.273-5307.919Zm21-4.376a13.241,13.241,0,0,1-9.713-10.884,13.6,13.6,0,0,1,8.722-14.808,13.593,13.593,0,0,1,16.6,6.467,17.511,17.511,0,0,1,1.444,4.388v3.746a16.233,16.233,0,0,1-2.428,5.9,13.71,13.71,0,0,1-11.091,5.711A11.929,11.929,0,0,1-11428.273-5312.3Zm-59.727-12.876a13.4,13.4,0,0,1,13.481-13.62,13.408,13.408,0,0,1,13.539,13.441,13.5,13.5,0,0,1-13.5,13.548A13.527,13.527,0,0,1-11488-5325.171Zm6.942-18.582a32.341,32.341,0,0,1,1.854-7.3,31.691,31.691,0,0,1,10.079-13.605c.669-.528.706-.513.905.34a17.368,17.368,0,0,0,1.571,4.351.8.8,0,0,1-.217,1.15,25.262,25.262,0,0,0-7.859,13.479,1.1,1.1,0,0,1-1.248,1.038,15.72,15.72,0,0,0-4.394.839,1.649,1.649,0,0,1-.443.108C-11480.968-5343.356-11481.081-5343.445-11481.058-5343.753Zm62.281.292a20.162,20.162,0,0,0-3.572-.79c-.124-.015-.245-.052-.369-.055-1.663-.02-1.418.055-1.808-1.534a25.49,25.49,0,0,0-7.646-12.867.959.959,0,0,1-.28-1.387,15.355,15.355,0,0,0,1.534-4.359c.133-.669.363-.637.821-.271a31.668,31.668,0,0,1,11.971,20.732c.012.075.021.15.029.228,0,.318-.119.406-.271.406A1.535,1.535,0,0,1-11418.776-5343.462Zm-30.866-11.5a13.556,13.556,0,0,1-13.453-13.536,13.6,13.6,0,0,1,13.585-13.5,13.6,13.6,0,0,1,13.453,13.56,13.554,13.554,0,0,1-13.548,13.479Z" transform="translate(11700 14601)" stroke="rgba(0,0,0,0)" stroke-width="1" fill="url(#linear-gradient)"/>
  </g>
</svg>
