<svg id="Group_199" data-name="Group 199" xmlns="http://www.w3.org/2000/svg" width="39.593" height="39.556" viewBox="0 0 39.593 39.556">
  <path id="Path_323" data-name="Path 323" d="M1065.868,136.157v-3.4c.039-.267.083-.533.117-.8a19.065,19.065,0,0,1,5.371-11.212,19.332,19.332,0,0,1,16.786-5.925,18.63,18.63,0,0,1,11.039,5.211c5.118,4.945,7.228,11.025,5.886,18.007-1.528,7.951-6.419,13.085-14.143,15.506a19.977,19.977,0,0,1-3.671.675h-3.242c-.648-.093-1.3-.147-1.942-.285-7.932-1.709-13.1-6.455-15.527-14.188a21.028,21.028,0,0,1-.674-3.593m19.774,9.636c1.812-.074,3.629.008,5.436-.169a5.948,5.948,0,0,0,5.063-3.3,7.156,7.156,0,0,0,.721-3.1,96.131,96.131,0,0,0-.075-10.26,5.835,5.835,0,0,0-3.078-4.92,7.12,7.12,0,0,0-3.3-.823,93.111,93.111,0,0,0-10.259.076,5.813,5.813,0,0,0-5.124,3.492,7.307,7.307,0,0,0-.622,2.887c-.1,3.42-.168,6.842.066,10.26a6.038,6.038,0,0,0,5.7,5.687c1.824.136,3.651.087,5.476.162" transform="translate(-1065.868 -114.667)" fill="#7e8e9e"/>
  <path id="Path_324" data-name="Path 324" d="M1209.559,268.2c-1.557,0-3.113.016-4.668-.078a4.979,4.979,0,0,1-3.21-1.123,4.677,4.677,0,0,1-1.387-3.447c-.138-2.622-.091-5.247-.059-7.871a14.267,14.267,0,0,1,.194-2.65,4.017,4.017,0,0,1,3.762-3.4c2.271-.222,4.548-.131,6.824-.145a36.9,36.9,0,0,1,3.93.143,4.068,4.068,0,0,1,3.844,3.848c.162,1.6.141,3.21.144,4.818,0,1.736.016,3.473-.074,5.208a7.2,7.2,0,0,1-.247,1.6,4.009,4.009,0,0,1-3.656,2.956c-1.8.182-3.6.136-5.4.147m5.783-9.357a5.769,5.769,0,1,0-5.792,5.766,5.737,5.737,0,0,0,5.792-5.766m.305-7.382a1.319,1.319,0,1,0,1.3,1.318,1.361,1.361,0,0,0-1.3-1.318" transform="translate(-1189.809 -239.047)" fill="#7e8e9e"/>
  <path id="Path_325" data-name="Path 325" d="M1275.9,321.246a3.812,3.812,0,1,1-3.816,3.779,3.778,3.778,0,0,1,3.816-3.779" transform="translate(-1256.136 -305.265)" fill="#7e8e9e"/>
</svg>
