<svg xmlns="http://www.w3.org/2000/svg" width="39.531" height="39.554" viewBox="0 0 39.531 39.554">
  <g id="Group_200" data-name="Group 200" transform="translate(0 -0.001)">
    <path id="Path_321" data-name="Path 321" d="M1564.038,715.394H1560.8a25.986,25.986,0,0,1-3.446-.607,19.825,19.825,0,0,1-14.563-21.6,19.051,19.051,0,0,1,5.3-11.146c5.073-5.178,11.278-7.224,18.358-5.707,7.744,1.659,12.729,6.538,15.051,14.114a20.415,20.415,0,0,1,.656,3.592v3.239c-.1.672-.149,1.354-.294,2.016q-2.605,11.816-14.161,15.43a20.01,20.01,0,0,1-3.665.674m-4.622-16.87h-.01q0,3.335,0,6.669c0,.5.033.531.518.532q1.793,0,3.585,0c.583,0,.584,0,.584-.571q0-3.759,0-7.517a2.954,2.954,0,0,1,.584-1.876,2.544,2.544,0,0,1,2.584-1.014,2.205,2.205,0,0,1,1.83,1.849,4.329,4.329,0,0,1,.142,1.066q0,3.778.006,7.556c0,.492.016.507.492.508q1.87,0,3.739,0c.473,0,.491-.018.491-.51q0-4.028,0-8.057a8.225,8.225,0,0,0-.322-2.281,4.94,4.94,0,0,0-3.431-3.643,5.68,5.68,0,0,0-1.366-.22,4.772,4.772,0,0,0-3.9,1.389c-.195.2-.36.434-.543.65-.063.075-.1.214-.22.183s-.084-.172-.085-.267c-.006-.385-.02-.772,0-1.156.02-.359-.129-.47-.475-.466-1.233.014-2.467,0-3.7.006-.474,0-.508.039-.508.5v6.669m-7.478-.017c0,2.249,0,4.5,0,6.746,0,.34.1.483.464.478q1.889-.025,3.778,0c.335,0,.451-.115.45-.448q-.01-6.746,0-13.492c0-.341-.135-.446-.46-.443-1.221.011-2.441,0-3.662,0-.545,0-.565.02-.565.564q0,3.3,0,6.592m2.313-9.257a2.436,2.436,0,0,0,2.508-3.371,2.385,2.385,0,0,0-2.308-1.509,2.513,2.513,0,0,0-2.724,1.8,2.423,2.423,0,0,0,2.524,3.082" transform="translate(-1542.626 -675.84)" fill="#7e8e9e"/>
  </g>
</svg>
