<svg id="os-new-logo-2024" xmlns="http://www.w3.org/2000/svg" width="203.199" height="38.403" viewBox="0 0 203.199 38.403">
  <g id="Group_4" data-name="Group 4" transform="translate(0 0)">
    <g id="Group_1" data-name="Group 1">
      <path id="Path_1" data-name="Path 1" d="M18.2,391.049a13.572,13.572,0,1,0,9.606,3.975A13.581,13.581,0,0,0,18.2,391.049Zm0,22.9a9.32,9.32,0,1,1,9.319-9.319A9.32,9.32,0,0,1,18.2,413.95Z" transform="translate(-4.616 -383.044)" fill="#1e2b36"/>
      <path id="Path_2" data-name="Path 2" d="M43.195,375.13s-.357-5.934,7.846-6.173C51.039,368.957,51.039,375.289,43.195,375.13Z" transform="translate(-29.214 -368.957)" fill="#f47722"/>
    </g>
    <g id="Group_3" data-name="Group 3" transform="translate(31.503 15.183)">
      <g id="Group_2" data-name="Group 2" transform="translate(0 0)">
        <path id="Path_3" data-name="Path 3" d="M91.6,415.722c0-1.633,0-3.067-.04-4.421h4.422c.04.357.119,1.991.119,2.867a5.182,5.182,0,0,1,5.217-3.226v4.3c-3.265-.079-5.217.8-5.217,5.258v7.09H91.6Z" transform="translate(-91.556 -410.903)" fill="#1e2b36"/>
        <path id="Path_4" data-name="Path 4" d="M136.13,423.3a29.91,29.91,0,0,0,.238,4.182h-4.3a6.692,6.692,0,0,1-.238-1.593c-.6.915-1.712,1.952-4.58,1.952-3.9,0-5.576-2.589-5.576-5.1,0-3.7,2.987-5.416,7.726-5.416h2.31v-1c0-1.155-.4-2.31-2.509-2.31-1.912,0-2.31.8-2.509,1.992h-4.26c.238-2.908,2.031-5.217,6.97-5.178,4.341.08,6.731,1.792,6.731,5.655Zm-4.381-3.186h-1.832c-2.709,0-3.7.837-3.7,2.39a2.068,2.068,0,0,0,2.35,2.151c2.868,0,3.226-1.992,3.226-4.141v-.4Z" transform="translate(-110.76 -410.832)" fill="#1e2b36"/>
        <path id="Path_5" data-name="Path 5" d="M172.82,415.4c0-1.394,0-2.908-.04-4.1h4.341a16.875,16.875,0,0,1,.159,2.07c.558-1.035,1.872-2.429,4.7-2.429,3.266,0,5.377,2.191,5.377,6.293v10.355h-4.5v-9.839c0-1.832-.6-3.146-2.589-3.146-1.912,0-2.987,1.075-2.987,3.943v9.041h-4.5V415.4Z" transform="translate(-143.334 -410.903)" fill="#1e2b36"/>
        <path id="Path_6" data-name="Path 6" d="M237.313,425.6c0,5.217-1.911,8.523-8.085,8.523-5.934,0-7.09-3.307-7.248-5.137h4.58c.318,1.115,1.155,1.871,2.867,1.871,2.908,0,3.465-1.792,3.465-4.978v-.757c-.836,1.394-2.191,2.27-4.58,2.27-4.262,0-6.731-3.505-6.731-7.886,0-5.1,3.027-8.563,7.09-8.563,2.788,0,3.943,1.314,4.182,2.071.04-.438.159-1.434.159-1.712h4.262c-.04,1.434-.04,3.107-.04,4.66V425.6ZM226.2,419.306c0,2.788,1.394,4.461,3.385,4.461,2.708,0,3.426-1.872,3.426-4.58,0-2.748-.477-4.62-3.346-4.62-1.912,0-3.465,1.474-3.465,4.739Z" transform="translate(-174.443 -410.902)" fill="#1e2b36"/>
        <path id="Path_7" data-name="Path 7" d="M278.22,420.419c0,2.031,1.035,4.022,3.266,4.022a2.56,2.56,0,0,0,2.827-1.752h4.5c-.558,1.991-2.35,5.257-7.448,5.257-5.337,0-7.686-3.983-7.686-8.284,0-5.1,2.629-8.722,7.846-8.722,5.575,0,7.487,4.022,7.487,8.085,0,.558,0,.916-.04,1.354H278.219Zm6.253-2.788c-.04-1.911-.8-3.465-2.987-3.465-2.151,0-3.027,1.474-3.188,3.465Z" transform="translate(-207.654 -410.9)" fill="#1e2b36"/>
        <path id="Path_8" data-name="Path 8" d="M325.846,422.693c.357,1.314,1.394,2.031,3.069,2.031s2.27-.6,2.27-1.593c0-1.035-.717-1.434-3.027-2.031-5.3-1.314-6.173-2.948-6.173-5.218,0-2.39,1.673-4.938,6.572-4.938,4.938,0,6.611,2.708,6.73,4.9h-4.26c-.159-.6-.558-1.752-2.668-1.752-1.474,0-1.952.677-1.952,1.394,0,.8.518,1.195,3.146,1.832,5.416,1.275,6.173,3.106,6.173,5.5,0,2.709-2.031,5.138-7.01,5.138-4.938,0-6.97-2.39-7.329-5.257Z" transform="translate(-238.066 -410.903)" fill="#1e2b36"/>
        <path id="Path_9" data-name="Path 9" d="M382.038,422.4c-.558,2.708-2.469,5.615-7.288,5.615-5.058,0-7.647-3.5-7.647-8.364,0-4.779,2.947-8.6,7.886-8.6,5.5,0,7.01,3.943,7.09,5.775H377.7a2.54,2.54,0,0,0-2.788-2.23c-2.071,0-3.226,1.792-3.226,4.938,0,3.465,1.234,5.018,3.188,5.018a2.768,2.768,0,0,0,2.788-2.15Z" transform="translate(-267.208 -410.972)" fill="#1e2b36"/>
        <path id="Path_10" data-name="Path 10" d="M416.164,415.722c0-1.633,0-3.067-.04-4.421h4.421c.04.357.119,1.991.119,2.867a5.182,5.182,0,0,1,5.218-3.226v4.3c-3.266-.079-5.218.8-5.218,5.258v7.09h-4.5Z" transform="translate(-298.459 -410.903)" fill="#1e2b36"/>
        <path id="Path_11" data-name="Path 11" d="M464.465,423.552c0,1.553,0,3.265.04,4.739h-4.421c-.079-.438-.079-1.314-.119-1.871a4.621,4.621,0,0,1-4.461,2.27c-3.307,0-5.417-2.031-5.417-6.054V412.042h4.5v9.678c0,1.792.558,3.266,2.509,3.266,2.071,0,2.907-1.075,2.907-4.3v-8.642h4.5v11.51Z" transform="translate(-320.108 -411.604)" fill="#1e2b36"/>
        <path id="Path_12" data-name="Path 12" d="M500.765,415.594c0-1.394,0-2.788-.039-4.182h4.3c.04.4.16,1.314.16,1.952a5.132,5.132,0,0,1,4.5-2.31,4.23,4.23,0,0,1,4.182,2.469,5.672,5.672,0,0,1,5.018-2.469c2.828,0,5.138,1.752,5.138,5.974V427.7h-4.379V417.546c0-1.474-.518-2.908-2.39-2.908-1.912,0-2.668,1.235-2.668,3.744v9.28h-4.421V417.7c0-1.673-.4-3.027-2.35-3.027-1.832,0-2.708,1.115-2.708,3.9v9.081h-4.462V415.594Z" transform="translate(-352.328 -410.974)" fill="#1e2b36"/>
      </g>
    </g>
  </g>
</svg>
