<svg xmlns="http://www.w3.org/2000/svg" xmlns:xlink="http://www.w3.org/1999/xlink" width="240" height="240" viewBox="0 0 240 240">
  <defs>
    <filter id="Ellipse_806" x="0" y="0" width="240" height="240" filterUnits="userSpaceOnUse">
      <feOffset dx="13" dy="10" input="SourceAlpha"/>
      <feGaussianBlur stdDeviation="16" result="blur"/>
      <feFlood flood-opacity="0.09"/>
      <feComposite operator="in" in2="blur"/>
      <feComposite in="SourceGraphic"/>
    </filter>
  </defs>
  <g id="Group_7404" data-name="Group 7404" transform="translate(-266.5 -8999)">
    <g transform="matrix(1, 0, 0, 1, 266.5, 8999)" filter="url(#Ellipse_806)">
      <g id="Ellipse_806-2" data-name="Ellipse 806" transform="translate(35 38)" fill="#fff" stroke="#e9e9e9" stroke-width="2">
        <circle cx="72" cy="72" r="72" stroke="none"/>
        <circle cx="72" cy="72" r="71" fill="none"/>
      </g>
    </g>
    <path id="Path_4111" data-name="Path 4111" d="M0,491.979a17.371,17.371,0,0,1,1.653-4.914,14.037,14.037,0,0,1,5.923-5.824,1,1,0,0,0,.635-.928,26.628,26.628,0,0,1,10.082-19.571,18.581,18.581,0,0,1,2-1.444,1.114,1.114,0,0,0,.544-1.137,14.293,14.293,0,0,1,23.452-11.44A14.076,14.076,0,0,1,49.4,458a1.507,1.507,0,0,0,.766,1.435,26.715,26.715,0,0,1,11.719,19.014,7.646,7.646,0,0,1,.136,1.5,1.34,1.34,0,0,0,.873,1.417,14.273,14.273,0,0,1,4.034,21.723,14.114,14.114,0,0,1-10.7,5.061,13.441,13.441,0,0,1-7.8-2.209,1.039,1.039,0,0,0-1.183-.068,26.872,26.872,0,0,1-24.245,0,1,1,0,0,0-1.125.023A14.281,14.281,0,0,1,.106,496.148c-.027-.157-.07-.31-.106-.466v-3.7m35.117,11.1a20.982,20.982,0,0,0,7.963-1.493c.567-.217.684-.425.378-.986a13.766,13.766,0,0,1-1.618-8.407A14.252,14.252,0,0,1,55.691,479.6c.494-.015.616-.144.547-.637A21,21,0,0,0,48.4,465.121c-.721-.586-.709-.564-1.24.2-3.5,5.052-8.291,7.315-14.406,6.388a13.736,13.736,0,0,1-9.768-6.543c-.227-.353-.372-.659-.866-.269A21.085,21.085,0,0,0,14,478.95c-.08.562.113.643.6.65a13.329,13.329,0,0,1,6.24,1.62,14.22,14.22,0,0,1,5.94,19.37c-.292.565-.191.767.372.988a20.764,20.764,0,0,0,7.958,1.5M14.232,485.255a8.625,8.625,0,1,0-.035,17.25,8.625,8.625,0,1,0,.035-17.25m41.825,0a8.624,8.624,0,1,0,8.607,8.574,8.579,8.579,0,0,0-8.607-8.574m-20.9-36.211a8.622,8.622,0,1,0,8.587,8.646,8.554,8.554,0,0,0-8.587-8.646" transform="translate(338.626 8632.605)" fill="#0565ff"/>
  </g>
</svg>
