<svg xmlns="http://www.w3.org/2000/svg" xmlns:xlink="http://www.w3.org/1999/xlink" width="241" height="240" viewBox="0 0 241 240">
  <defs>
    <filter id="Ellipse_807" x="0" y="0" width="241" height="240" filterUnits="userSpaceOnUse">
      <feOffset dx="13" dy="10" input="SourceAlpha"/>
      <feGaussianBlur stdDeviation="16" result="blur"/>
      <feFlood flood-opacity="0.09"/>
      <feComposite operator="in" in2="blur"/>
      <feComposite in="SourceGraphic"/>
    </filter>
  </defs>
  <g id="Group_7405" data-name="Group 7405" transform="translate(-1083.912 -8999)">
    <g transform="matrix(1, 0, 0, 1, 1083.91, 8999)" filter="url(#Ellipse_807)">
      <g id="Ellipse_807-2" data-name="Ellipse 807" transform="translate(35 38)" fill="#fff" stroke="#e9e9e9" stroke-width="2">
        <ellipse cx="72.5" cy="72" rx="72.5" ry="72" stroke="none"/>
        <ellipse cx="72.5" cy="72" rx="71.5" ry="71" fill="none"/>
      </g>
    </g>
    <g id="Group_7401" data-name="Group 7401" transform="translate(1159.573 9074.925)">
      <g id="Group_7400" data-name="Group 7400" transform="translate(0)">
        <path id="Path_4112" data-name="Path 4112" d="M57.883,0c.016.422.044.844.045,1.266q.005,6.448,0,12.9c0,1.03,0,1.03,1,1.03h8.419c.988,0,.991,0,.991,1q0,23.487,0,46.974c0,.223.013.446,0,.668-.024.4.156.554.556.548.98-.015,1.96.012,2.94-.01.471-.01.694.128.679.64-.027.957-.019,1.915,0,2.873.007.419-.141.629-.58.6-.2-.015-.4,0-.6,0H10.456c-.178,0-.357-.015-.534,0-.47.042-.625-.179-.616-.63.02-.957.022-1.916,0-2.873-.011-.479.2-.615.643-.607.98.018,1.96-.009,2.94.01.429.008.623-.146.591-.582-.016-.222,0-.445,0-.668q0-19.344,0-38.688c0-.223.016-.447,0-.668-.042-.518.18-.709.7-.7,1.514.022,3.029.007,4.544.007,1.448,0,2.9-.028,4.343.013.633.018.842-.163.837-.819-.028-3.942.009-7.885-.034-11.827a1.089,1.089,0,0,1,.962-1.276Q40.783,4.737,56.722.245c.256-.072.507-.164.76-.246ZM53.716,34.89h.106q0-14.329,0-28.658c0-.839,0-.843-.784-.624q-12.18,3.415-24.364,6.819a.791.791,0,0,0-.694.921q.034,4.476,0,8.952c-.006.617.178.8.794.795,2.873-.029,5.745-.013,8.618-.013,1.134,0,1.135,0,1.135,1.129q0,19.641,0,39.283c0,.881,0,.883.885.883H52.774c.94,0,.942,0,.942-.96q0-14.264,0-28.527M17.674,45.817c0,5.9.01,11.8-.014,17.705,0,.67.179.873.862.87q7.483-.042,14.966,0c.69,0,.857-.211.856-.874q-.027-17.672-.014-35.344c0-.9,0-.908-.946-.908q-7.383,0-14.766,0c-.943,0-.945,0-.945.978q0,8.786,0,17.572m40.256-3.97q0,10.888-.011,21.775c0,.576.149.783.749.768,1.469-.039,2.939-.012,4.408-.013,1.065,0,1.066,0,1.066-1.037q0-8.283,0-16.565,0-13.326.012-26.651c0-.635-.174-.856-.827-.837-1.491.043-2.983.013-4.475.014-.922,0-.923,0-.923.905q0,10.821,0,21.642" transform="translate(-9.305 0.001)" fill="#0565ff"/>
        <path id="Path_4113" data-name="Path 4113" d="M199.58,273.518c0-1.091.027-2.182-.011-3.272-.022-.626.239-.827.826-.81.89.026,1.781.021,2.671,0,.5-.01.72.166.716.7q-.028,3.439,0,6.878c0,.524-.212.719-.713.712q-1.4-.02-2.8,0c-.522.008-.7-.232-.69-.735.021-1.157.007-2.315.006-3.472" transform="translate(-165.594 -221.324)" fill="#0565ff"/>
        <path id="Path_4114" data-name="Path 4114" d="M203.816,108.689c0,1.133-.018,2.267.009,3.4.013.554-.2.747-.746.73-.932-.03-1.866-.019-2.8,0-.436.007-.661-.136-.659-.607q.014-3.5,0-7c0-.458.192-.634.642-.626q1.466.024,2.932,0c.464-.008.631.2.626.642-.013,1.155,0,2.31,0,3.466" transform="translate(-165.637 -85.907)" fill="#0565ff"/>
        <path id="Path_4115" data-name="Path 4115" d="M199.578,191.08c0-1.114.017-2.228-.007-3.341-.011-.528.151-.781.721-.764.934.029,1.871.02,2.806,0,.476-.009.684.169.68.664q-.02,3.441,0,6.882c0,.531-.211.7-.719.684-.89-.027-1.783-.044-2.672,0-.671.037-.841-.246-.821-.86.036-1.09.01-2.182.01-3.274" transform="translate(-165.592 -153.588)" fill="#0565ff"/>
        <path id="Path_4116" data-name="Path 4116" d="M91.037,273.538c0-1.135.015-2.271-.007-3.406-.009-.494.194-.68.671-.673q1.4.021,2.8,0c.489-.007.735.159.731.7q-.024,3.439,0,6.878c0,.523-.212.719-.714.712q-1.4-.021-2.8,0c-.521.008-.7-.23-.689-.735.022-1.157.007-2.315.007-3.473" transform="translate(-76.437 -221.344)" fill="#0565ff"/>
        <path id="Path_4117" data-name="Path 4117" d="M91.039,191.114c0-1.136.014-2.272-.007-3.408-.01-.507.165-.733.693-.72.957.023,1.915.017,2.873,0,.453-.006.64.182.638.637q-.014,3.474,0,6.949c0,.443-.154.65-.624.64q-1.469-.031-2.94,0c-.457.009-.642-.17-.636-.627.015-1.158,0-2.316,0-3.474" transform="translate(-76.437 -153.597)" fill="#0565ff"/>
      </g>
    </g>
  </g>
</svg>
