<svg id="os-new-logo-2024" xmlns="http://www.w3.org/2000/svg" width="227.724" height="43.037" viewBox="0 0 227.724 43.037">
  <g id="Group_4" data-name="Group 4" transform="translate(0 0)">
    <g id="Group_1" data-name="Group 1">
      <path id="Path_1" data-name="Path 1" d="M19.835,391.049A15.21,15.21,0,1,0,30.6,395.5,15.22,15.22,0,0,0,19.835,391.049Zm0,25.664a10.444,10.444,0,1,1,10.444-10.444,10.444,10.444,0,0,1-10.444,10.444Z" transform="translate(-4.616 -382.078)" fill="#fff"/>
      <path id="Path_2" data-name="Path 2" d="M43.195,375.875s-.4-6.651,8.793-6.918C51.987,368.957,51.987,376.054,43.195,375.875Z" transform="translate(-27.527 -368.957)" fill="#f47722"/>
    </g>
    <g id="Group_3" data-name="Group 3" transform="translate(35.305 17.016)">
      <g id="Group_2" data-name="Group 2" transform="translate(0 0)">
        <path id="Path_3" data-name="Path 3" d="M91.6,416.3c0-1.83,0-3.437-.045-4.954h4.956c.045.4.134,2.232.134,3.214.8-2.1,2.767-3.615,5.847-3.615v4.82c-3.66-.089-5.847.893-5.847,5.892V429.6H91.6Z" transform="translate(-91.556 -410.898)" fill="#fff"/>
        <path id="Path_4" data-name="Path 4" d="M137.875,424.8a33.519,33.519,0,0,0,.267,4.687h-4.82a7.5,7.5,0,0,1-.267-1.785c-.668,1.026-1.919,2.187-5.133,2.187-4.374,0-6.249-2.9-6.249-5.713,0-4.151,3.347-6.07,8.658-6.07h2.589v-1.116c0-1.295-.446-2.589-2.812-2.589-2.142,0-2.589.892-2.812,2.232h-4.774c.267-3.259,2.276-5.847,7.811-5.8,4.865.09,7.543,2.009,7.543,6.338Zm-4.909-3.571h-2.053c-3.036,0-4.151.938-4.151,2.678a2.317,2.317,0,0,0,2.634,2.41c3.214,0,3.615-2.232,3.615-4.641v-.447Z" transform="translate(-109.443 -410.832)" fill="#fff"/>
        <path id="Path_5" data-name="Path 5" d="M172.825,415.942c0-1.562,0-3.259-.045-4.6h4.865a18.916,18.916,0,0,1,.178,2.32c.625-1.16,2.1-2.722,5.267-2.722,3.66,0,6.026,2.455,6.026,7.053v11.6h-5.045V418.574c0-2.053-.67-3.526-2.9-3.526-2.142,0-3.348,1.2-3.348,4.419V429.6H172.78V415.942Z" transform="translate(-139.78 -410.898)" fill="#fff"/>
        <path id="Path_6" data-name="Path 6" d="M239.212,427.368c0,5.847-2.142,9.551-9.06,9.551-6.65,0-7.946-3.706-8.123-5.758h5.133c.357,1.25,1.295,2.1,3.213,2.1,3.259,0,3.884-2.008,3.884-5.579v-.848c-.937,1.563-2.455,2.544-5.133,2.544-4.776,0-7.543-3.928-7.543-8.838,0-5.713,3.392-9.6,7.946-9.6,3.124,0,4.419,1.473,4.687,2.321.045-.491.179-1.607.179-1.919h4.776c-.045,1.607-.045,3.482-.045,5.222v10.8Zm-12.453-7.053c0,3.125,1.562,5,3.794,5,3.035,0,3.839-2.1,3.839-5.133,0-3.079-.534-5.177-3.749-5.177-2.142,0-3.883,1.652-3.883,5.311Z" transform="translate(-168.754 -410.897)" fill="#fff"/>
        <path id="Path_7" data-name="Path 7" d="M278.768,421.563c0,2.277,1.16,4.507,3.66,4.507,2.1,0,2.678-.848,3.169-1.964h5.043c-.625,2.232-2.633,5.891-8.347,5.891-5.981,0-8.614-4.463-8.614-9.283,0-5.713,2.946-9.775,8.793-9.775,6.248,0,8.391,4.507,8.391,9.06,0,.625,0,1.027-.045,1.517H278.767Zm7.008-3.124c-.045-2.142-.892-3.883-3.347-3.883-2.41,0-3.392,1.652-3.572,3.883Z" transform="translate(-199.685 -410.895)" fill="#fff"/>
        <path id="Path_8" data-name="Path 8" d="M326.384,424.111c.4,1.473,1.562,2.277,3.439,2.277s2.544-.67,2.544-1.786c0-1.16-.8-1.607-3.392-2.276-5.936-1.473-6.918-3.3-6.918-5.847,0-2.678,1.875-5.534,7.365-5.534,5.534,0,7.409,3.035,7.543,5.49h-4.774c-.179-.67-.625-1.964-2.99-1.964-1.652,0-2.187.759-2.187,1.562,0,.893.58,1.339,3.526,2.053,6.07,1.428,6.918,3.481,6.918,6.159,0,3.035-2.276,5.758-7.856,5.758-5.534,0-7.811-2.678-8.213-5.891Z" transform="translate(-228.01 -410.898)" fill="#fff"/>
        <path id="Path_9" data-name="Path 9" d="M383.841,423.773c-.625,3.035-2.767,6.293-8.168,6.293-5.669,0-8.57-3.928-8.57-9.373,0-5.356,3.3-9.641,8.837-9.641,6.159,0,7.856,4.419,7.946,6.472h-4.911a2.847,2.847,0,0,0-3.125-2.5c-2.321,0-3.615,2.009-3.615,5.535,0,3.883,1.383,5.623,3.572,5.623a3.1,3.1,0,0,0,3.124-2.41Z" transform="translate(-255.152 -410.963)" fill="#fff"/>
        <path id="Path_10" data-name="Path 10" d="M416.169,416.3c0-1.83,0-3.437-.045-4.954h4.954c.045.4.134,2.232.134,3.214.8-2.1,2.767-3.615,5.847-3.615v4.82c-3.66-.089-5.847.893-5.847,5.892V429.6h-5.043Z" transform="translate(-284.258 -410.898)" fill="#fff"/>
        <path id="Path_11" data-name="Path 11" d="M466.2,424.941c0,1.741,0,3.66.045,5.311h-4.954c-.089-.491-.089-1.473-.133-2.1-1.071,1.83-2.678,2.544-5,2.544-3.706,0-6.07-2.276-6.07-6.784V412.042h5.044v10.846c0,2.008.625,3.66,2.812,3.66,2.32,0,3.258-1.205,3.258-4.821v-9.685h5.044v12.9Z" transform="translate(-304.421 -411.551)" fill="#fff"/>
        <path id="Path_12" data-name="Path 12" d="M500.78,416.142c0-1.562,0-3.124-.044-4.686h4.82c.045.447.179,1.473.179,2.187a5.751,5.751,0,0,1,5.043-2.589,4.74,4.74,0,0,1,4.687,2.767,6.356,6.356,0,0,1,5.624-2.767c3.169,0,5.758,1.964,5.758,6.7v11.962h-4.908V418.329c0-1.652-.581-3.259-2.678-3.259-2.142,0-2.99,1.384-2.99,4.2v10.4h-4.955V418.508c0-1.875-.447-3.392-2.633-3.392-2.053,0-3.035,1.25-3.035,4.374v10.177h-5V416.142Z" transform="translate(-334.428 -410.964)" fill="#fff"/>
      </g>
    </g>
  </g>
</svg>
