<svg xmlns="http://www.w3.org/2000/svg" width="1551.213" height="293.165" viewBox="0 0 1551.213 293.165">
  <g id="os-new-logo-2024" opacity="0.08">
    <g id="Group_4" data-name="Group 4" transform="translate(0 0)">
      <g id="Group_1" data-name="Group 1">
        <path id="Path_1" data-name="Path 1" d="M108.285,391.049a103.609,103.609,0,1,0,73.335,30.345A103.674,103.674,0,0,0,108.285,391.049Zm0,174.821a71.145,71.145,0,1,1,71.143-71.143,71.146,71.146,0,0,1-71.143,71.143Z" transform="translate(-4.616 -329.938)" fill="#7e8e9e"/>
        <path id="Path_2" data-name="Path 2" d="M43.21,416.081s-2.729-45.3,59.9-47.124C103.1,368.957,103.1,417.3,43.21,416.081Z" transform="translate(63.516 -368.957)" fill="#7e8e9e"/>
      </g>
      <g id="Group_3" data-name="Group 3" transform="translate(240.494 115.907)">
        <g id="Group_2" data-name="Group 2" transform="translate(0 0)">
          <path id="Path_3" data-name="Path 3" d="M91.861,447.429c0-12.467,0-23.413-.3-33.747h33.759c.3,2.729.91,15.2.91,21.89,5.472-14.292,18.849-24.628,39.829-24.628v32.835c-24.928-.6-39.829,6.084-39.829,40.136v54.127H91.861Z" transform="translate(-91.556 -410.634)" fill="#7e8e9e"/>
          <path id="Path_4" data-name="Path 4" d="M232.035,506c0,11.86.91,29.189,1.819,31.926H201.021a51.088,51.088,0,0,1-1.819-12.161c-4.549,6.988-13.072,14.9-34.964,14.9-29.792,0-42.565-19.766-42.565-38.919,0-28.273,22.8-41.348,58.98-41.348h17.635v-7.6c0-8.82-3.041-17.634-19.154-17.634-14.594,0-17.634,6.079-19.156,15.2H127.456c1.819-22.2,15.5-39.829,53.206-39.526,33.142.61,51.382,13.682,51.382,43.172Zm-33.443-24.323H184.608c-20.677,0-28.278,6.386-28.278,18.244,0,9.122,5.474,16.42,17.94,16.42,21.891,0,24.627-15.205,24.627-31.612v-3.043Z" transform="translate(-38.363 -410.832)" fill="#7e8e9e"/>
          <path id="Path_5" data-name="Path 5" d="M173.087,445c0-10.641,0-22.2-.307-31.314h33.142a128.842,128.842,0,0,1,1.214,15.806c4.257-7.9,14.289-18.544,35.878-18.544,24.932,0,41.045,16.722,41.045,48.041v79.048H249.695V462.925c0-13.986-4.562-24.018-19.761-24.018-14.594,0-22.8,8.208-22.8,30.1v69.016H172.78V445Z" transform="translate(52.013 -410.634)" fill="#7e8e9e"/>
          <path id="Path_6" data-name="Path 6" d="M341.673,522.833c0,39.827-14.592,65.061-61.718,65.061-45.3,0-54.127-25.244-55.332-39.219h34.962c2.431,8.513,8.82,14.287,21.89,14.287,22.2,0,26.454-13.68,26.454-38v-5.779c-6.384,10.643-16.722,17.332-34.964,17.332-32.533,0-51.382-26.759-51.382-60.2,0-38.915,23.106-65.369,54.127-65.369,21.283,0,30.1,10.034,31.926,15.809.3-3.345,1.217-10.944,1.217-13.07h32.533c-.307,10.944-.307,23.716-.307,35.572v73.578Zm-84.829-48.041c0,21.285,10.641,34.055,25.845,34.055,20.673,0,26.154-14.289,26.154-34.966,0-20.975-3.639-35.267-25.539-35.267-14.594,0-26.45,11.251-26.45,36.178Z" transform="translate(138.273 -410.636)" fill="#7e8e9e"/>
          <path id="Path_7" data-name="Path 7" d="M308.34,483.305c0,15.508,7.9,30.7,24.932,30.7,14.289,0,18.239-5.776,21.585-13.377h34.355c-4.257,15.2-17.937,40.131-56.856,40.131-40.741,0-58.675-30.4-58.675-63.237,0-38.917,20.066-66.585,59.9-66.585,42.562,0,57.158,30.7,57.158,61.718,0,4.258,0,6.994-.3,10.336h-82.1Zm47.734-21.281c-.3-14.591-6.079-26.449-22.8-26.449-16.418,0-23.109,11.251-24.334,26.449Z" transform="translate(230.36 -410.64)" fill="#7e8e9e"/>
          <path id="Path_8" data-name="Path 8" d="M355.423,500.634c2.729,10.034,10.641,15.508,23.425,15.508s17.33-4.562,17.33-12.163c0-7.9-5.474-10.946-23.108-15.5-40.436-10.034-47.125-22.5-47.125-39.831,0-18.244,12.77-37.7,50.168-37.7,37.7,0,50.469,20.675,51.379,37.4H394.97c-1.217-4.562-4.257-13.378-20.37-13.378-11.251,0-14.9,5.167-14.9,10.642,0,6.081,3.953,9.12,24.018,13.986,41.348,9.729,47.126,23.711,47.126,41.956,0,20.677-15.506,39.221-53.511,39.221-37.7,0-53.206-18.244-55.946-40.131Z" transform="translate(314.679 -410.633)" fill="#7e8e9e"/>
          <path id="Path_9" data-name="Path 9" d="M481.118,497.7c-4.257,20.673-18.849,42.867-55.637,42.867-38.614,0-58.378-26.754-58.378-63.847,0-36.485,22.5-65.673,60.2-65.673,41.957,0,53.513,30.1,54.127,44.084H447.977c-2.131-10.034-7.906-17.025-21.285-17.025-15.809,0-24.628,13.682-24.628,37.7,0,26.45,9.424,38.305,24.334,38.305,11.858,0,18.244-6.989,21.282-16.413Z" transform="translate(395.49 -410.443)" fill="#7e8e9e"/>
          <path id="Path_10" data-name="Path 10" d="M416.429,447.429c0-12.467,0-23.413-.3-33.747h33.748c.3,2.729.91,15.2.91,21.89,5.474-14.292,18.851-24.628,39.831-24.628v32.835c-24.932-.6-39.831,6.084-39.831,40.136v54.127H416.429Z" transform="translate(482.125 -410.634)" fill="#7e8e9e"/>
          <path id="Path_11" data-name="Path 11" d="M559.842,499.909c0,11.856,0,24.928.305,36.179H526.4c-.607-3.345-.607-10.034-.91-14.287-7.3,12.463-18.244,17.327-34.053,17.327-25.244,0-41.35-15.506-41.35-46.214V412.042h34.357v73.881c0,13.679,4.258,24.933,19.156,24.933,15.806,0,22.192-8.21,22.192-32.838V412.042H560.15v87.867Z" transform="translate(542.169 -408.695)" fill="#7e8e9e"/>
          <path id="Path_12" data-name="Path 12" d="M501.556,445.713c0-10.641,0-21.282-.3-31.923h32.833c.3,3.043,1.219,10.034,1.219,14.9,6.383-9.12,16.418-17.635,34.354-17.635s27.669,9.122,31.926,18.849c7.294-10.034,17.935-18.849,38.306-18.849,21.587,0,39.221,13.377,39.221,45.605v81.482H645.684V460.613c0-11.251-3.956-22.2-18.244-22.2-14.594,0-20.371,9.424-20.371,28.578v70.84H573.317V461.826c0-12.769-3.043-23.106-17.937-23.106-13.987,0-20.675,8.515-20.675,29.793v69.321H500.646V445.713Z" transform="translate(631.604 -410.441)" fill="#7e8e9e"/>
        </g>
      </g>
    </g>
  </g>
</svg>
