<svg xmlns="http://www.w3.org/2000/svg" width="716.467" height="927.634" viewBox="0 0 716.467 927.634">
  <g id="OS_logo" data-name="OS logo" transform="translate(-2773.452 -909.865)" opacity="0.22">
    <g id="Group_32" data-name="Group 32" transform="translate(2773.452 909.865)">
      <g id="Group_31" data-name="Group 31" transform="translate(0 0)">
        <g id="Group_28" data-name="Group 28">
          <path id="Path_58" data-name="Path 58" d="M362.854,391.049c-198.56,0-358.238,160.728-358.238,358.238s160.739,358.238,358.238,358.238S721.083,946.786,721.083,749.287,560.354,391.049,362.854,391.049Zm0,604.064c-135.525,0-245.825-110.311-245.825-245.826s110.3-245.825,245.825-245.825S608.68,613.772,608.68,749.287A245.473,245.473,0,0,1,362.854,995.113Z" transform="translate(-4.616 -179.891)" fill="#dcdcdc"/>
          <path id="Path_59" data-name="Path 59" d="M43.25,531.788S33.8,375.254,250.212,368.957C250.212,368.957,250.212,535.995,43.25,531.788Z" transform="translate(325.491 -368.957)" fill="#dcdcdc"/>
        </g>
      </g>
    </g>
  </g>
</svg>
