<svg xmlns="http://www.w3.org/2000/svg" xmlns:xlink="http://www.w3.org/1999/xlink" width="1215.468" height="388.179" viewBox="0 0 1215.468 388.179">
  <defs>
    <clipPath id="clip-path">
      <path id="Path_22" data-name="Path 22" d="M0,36.779A36.779,36.779,0,1,0,36.778,0,36.779,36.779,0,0,0,0,36.779" transform="translate(0)"/>
    </clipPath>
    <clipPath id="clip-path-2">
      <path id="Path_26" data-name="Path 26" d="M0,0H47.364V25.789H0ZM0,0" transform="translate(0 0)"/>
    </clipPath>
    <clipPath id="clip-path-3">
      <path id="Path_25" data-name="Path 25" d="M26.5,0H1.3A1.322,1.322,0,0,0,0,1.3v17.26A7.079,7.079,0,0,0,7.113,25.6h25.2a1.307,1.307,0,0,0,1.3-1.281V7.046A7.079,7.079,0,0,0,26.529,0H26.5m19.1.439-10.4,7.6V17.6l10.4,7.6c.742.574,1.6.742,1.6-.792V1.231C47.2.39,46.934,0,46.519,0a1.6,1.6,0,0,0-.925.436" transform="translate(0 0)"/>
    </clipPath>
    <filter id="Ellipse_47" x="442.882" y="18.713" width="369.466" height="369.466" filterUnits="userSpaceOnUse">
      <feOffset dy="3" input="SourceAlpha"/>
      <feGaussianBlur stdDeviation="25.5" result="blur"/>
      <feFlood flood-opacity="0.078"/>
      <feComposite operator="in" in2="blur"/>
      <feComposite in="SourceGraphic"/>
    </filter>
  </defs>
  <g id="Group_693" data-name="Group 693" transform="translate(-205.534 -16173.098)">
    <g id="Group_26" data-name="Group 26" transform="translate(1188.063 16173.098) rotate(14)">
      <circle id="Ellipse_25" data-name="Ellipse 25" cx="40.787" cy="40.787" r="40.787" fill="#00a85d"/>
      <path id="Subtraction_2" data-name="Subtraction 2" d="M0,81.332V0A40.458,40.458,0,0,1,27.913,12.318a40.472,40.472,0,0,1,11.5,28.348,40.47,40.47,0,0,1-11.5,28.348A40.461,40.461,0,0,1,0,81.332Z" transform="translate(41.957 0)" fill="#27c27c"/>
      <g id="Group_25" data-name="Group 25" transform="translate(28.041 8.922)">
        <g id="Group_24" data-name="Group 24" transform="translate(0 0)">
          <path id="Exclusion_3" data-name="Exclusion 3" d="M24.042,26.767H4a4,4,0,0,1-4-4V4A4,4,0,0,1,4,0H24.042a4,4,0,0,1,4,4V22.767A4,4,0,0,1,24.042,26.767ZM14.021,2.231A10.986,10.986,0,0,0,3.235,13.384,10.986,10.986,0,0,0,14.021,24.537,10.986,10.986,0,0,0,24.806,13.384,10.986,10.986,0,0,0,14.021,2.231Zm0,19.4A8.129,8.129,0,0,1,6.04,13.384a8.13,8.13,0,0,1,7.981-8.253A8.129,8.129,0,0,1,22,13.384,8.129,8.129,0,0,1,14.021,21.636Zm0-12.713a3.3,3.3,0,0,0-3.236,3.345,3.369,3.369,0,0,0,1.466,2.8l-.966,2.747h5.608l-1.032-2.8a3.386,3.386,0,0,0,1.4-2.753A3.3,3.3,0,0,0,14.02,8.923Z" transform="translate(0 12.746)" fill="#fff"/>
          <path id="Subtraction_1" data-name="Subtraction 1" d="M4.531,10.2H0a10.2,10.2,0,0,1,20.394,0H15.862a5.665,5.665,0,0,0-11.331,0Z" transform="translate(3.824 0)" fill="#fff"/>
        </g>
      </g>
      <text id="SSO" transform="translate(20.394 67.259)" fill="#fff" font-size="18" font-family="Graphik-Semibold, Graphik" font-weight="600"><tspan x="0" y="0">SSO</tspan></text>
    </g>
    <g id="Group_115" data-name="Group 115" transform="translate(1365.281 16268.423) rotate(31)">
      <path id="Path_27" data-name="Path 27" d="M34.213,0H0V34.213H34.213Z" transform="translate(15.396 15.397)" fill="#fff"/>
      <path id="Path_28" data-name="Path 28" d="M0,15.4,15.4,0H0Z" transform="translate(49.609 49.61)" fill="#ea4335"/>
      <path id="Path_29" data-name="Path 29" d="M15.4,0H0V34.213H15.4Z" transform="translate(49.609 15.397)" fill="#fbbc04"/>
      <path id="Path_30" data-name="Path 30" d="M34.213,0H0V15.4H34.213Z" transform="translate(15.396 49.61)" fill="#34a853"/>
      <path id="Path_31" data-name="Path 31" d="M0,0V10.264A5.131,5.131,0,0,0,5.132,15.4H15.4V0Z" transform="translate(0 49.61)" fill="#188038"/>
      <path id="Path_32" data-name="Path 32" d="M15.4,15.4V5.132A5.131,5.131,0,0,0,10.264,0H0V15.4Z" transform="translate(49.609 0)" fill="#1967d2"/>
      <path id="Path_33" data-name="Path 33" d="M49.609,0H5.132A5.131,5.131,0,0,0,0,5.132V49.609H15.4V15.4H49.609Z" transform="translate(0 0)" fill="#4285f4"/>
      <path id="Path_34" data-name="Path 34" d="M2.647,19.527A6.614,6.614,0,0,1,0,15.734l2.968-1.223A4.506,4.506,0,0,0,4.379,16.9a3.636,3.636,0,0,0,2.429.843,3.745,3.745,0,0,0,2.5-.885A2.827,2.827,0,0,0,10.358,14.6a2.8,2.8,0,0,0-1.1-2.284,4.279,4.279,0,0,0-2.763-.885H4.777V8.493h1.54a3.752,3.752,0,0,0,2.4-.77,2.538,2.538,0,0,0,.975-2.108,2.329,2.329,0,0,0-.872-1.9A3.381,3.381,0,0,0,6.607,3a2.973,2.973,0,0,0-2.079.7A4.092,4.092,0,0,0,3.409,5.41L.47,4.187A6.524,6.524,0,0,1,2.622,1.266,6.2,6.2,0,0,1,6.633,0,7.316,7.316,0,0,1,9.875.7,5.545,5.545,0,0,1,12.129,2.63a4.934,4.934,0,0,1,.813,2.776,4.547,4.547,0,0,1-.757,2.66,5.217,5.217,0,0,1-1.86,1.672v.175a5.65,5.65,0,0,1,2.386,1.86,4.874,4.874,0,0,1,.932,2.994,5.6,5.6,0,0,1-.885,3.113,6.132,6.132,0,0,1-2.442,2.151,7.7,7.7,0,0,1-3.5.787,7.251,7.251,0,0,1-4.165-1.292ZM20.879,4.8,17.62,7.155,15.99,4.683,21.837.466h2.241V20.357h-3.2Z" transform="translate(19.767 22.409)" fill="#4285f4"/>
    </g>
    <path id="Path_1" data-name="Path 1" d="M32.814,10.467,16.407,20.933,32.814,31.4,16.407,41.866,0,31.343,16.407,20.876,0,10.467,16.407,0ZM16.322,45.232,32.729,34.766,49.136,45.232,32.729,55.7ZM32.814,31.343,49.221,20.876,32.814,10.467,49.136,0,65.543,10.467,49.136,20.933,65.543,31.4,49.136,41.866Z" transform="matrix(0.951, -0.309, 0.309, 0.951, 1112.609, 16435.299)" fill="#0061ff"/>
    <g id="Group_116" data-name="Group 116" transform="translate(1278.517 16415.047)">
      <path id="Path_4" data-name="Path 4" d="M18.456,75.628A8.828,8.828,0,1,1,9.628,66.8h8.828Zm4.414,0a8.828,8.828,0,1,1,17.656,0V97.7a8.828,8.828,0,0,1-17.656,0Z" transform="translate(-0.734 -22.524)" fill="#e01e5a"/>
      <path id="Path_5" data-name="Path 5" d="M31.665,18.256a8.828,8.828,0,1,1,8.828-8.828v8.828Zm0,4.481a8.828,8.828,0,1,1,0,17.656H9.528a8.828,8.828,0,0,1,0-17.656Z" transform="translate(-0.7 -0.6)" fill="#36c5f0"/>
      <path id="Path_6" data-name="Path 6" d="M88.97,31.565A8.828,8.828,0,1,1,97.8,40.393H88.97Zm-4.414,0a8.828,8.828,0,1,1-17.656,0V9.428a8.828,8.828,0,1,1,17.656,0V31.565Z" transform="translate(-22.625 -0.6)" fill="#2eb67d"/>
      <path id="Path_7" data-name="Path 7" d="M75.728,88.87A8.828,8.828,0,1,1,66.9,97.7V88.87Zm0-4.414a8.828,8.828,0,1,1,0-17.656H97.865a8.828,8.828,0,1,1,0,17.656Z" transform="translate(-22.625 -22.524)" fill="#ecb22e"/>
    </g>
    <g id="Group_12" data-name="Group 12" transform="matrix(0.891, -0.454, 0.454, 0.891, 396.068, 16219.132)">
      <g id="Group_8" data-name="Group 8" transform="translate(0 0)" clip-path="url(#clip-path)">
        <path id="Path_21" data-name="Path 21" d="M0,77.569H77.569V0H0Zm0,0" transform="translate(-2.006 -2.006)" fill="#4a8cff"/>
      </g>
      <g id="Group_11" data-name="Group 11" transform="translate(12.692 23.817)" clip-path="url(#clip-path-2)">
        <g id="Group_10" data-name="Group 10" transform="translate(0.084 0.151)" clip-path="url(#clip-path-3)">
          <path id="Path_24" data-name="Path 24" d="M0,29.582H51.19V0H0Zm0,0" transform="translate(-1.989 -1.988)" fill="#fff"/>
        </g>
      </g>
    </g>
    <g id="Group_118" data-name="Group 118" transform="matrix(0.875, -0.485, 0.485, 0.875, 205.44, 16302.327)">
      <g id="Group_14" data-name="Group 14" transform="translate(0 0.02)">
        <path id="Path_35" data-name="Path 35" d="M.015,0,.1,0,.1.09l-.1,0Z" transform="translate(30.503 0)" fill="#0ba25e"/>
        <path id="Path_36" data-name="Path 36" d="M30.2.431c.072-.1.211-.308.283-.411L30.615,0a24.682,24.682,0,0,0,.694,3.418c1.105,4.922,2.221,9.84,3.384,14.748C35.455,21.531,36.3,24.88,37,28.258c.606,2.091.931,4.248,1.516,6.343.378,1.953.971,3.859,1.289,5.823-.129.215-.257.431-.387.646-.031.05-.1.152-.129.2l-.048.083c-.007.015-.024.046-.033.061l-.286.525c-.013.024-.04.072-.055.1l-.13.231c-.017.028-.048.081-.062.108l-.152.266c-.007.015-.024.044-.033.059l-.189.33c-.017.028-.05.086-.066.116l-.073.123-.185.319-.059.1-.114.193c-.018.033-.059.1-.077.134-.073.127-.218.38-.292.509-.013.022-.04.068-.053.092l-.116.193c-.018.035-.059.1-.079.136-.068.119-.207.356-.275.475-.017.028-.048.084-.064.112l-.138.248-.051.09-.141.248-.059.1c-.073.121-.217.365-.288.488l-.066.114-.13.235c-.013.022-.037.064-.048.086l-.151.261c-.013.024-.04.07-.053.092l-.307.527c-.013.024-.042.072-.057.1l-.11.182c-.018.033-.057.1-.075.13l-.277.483L34.849,49l-.151.268-.044.079-.154.27-.051.084c-.072.121-.217.36-.288.481-.02.031-.057.1-.077.13l-.108.2c-.015.026-.042.077-.055.1l-.189.327c-.015.028-.048.083-.062.11s-.046.079-.061.1c-.31.523-.591,1.063-.934,1.566-1.955,3.189-3.754,6.477-5.647,9.7q-4.61,7.978-9.216,15.956c-.461.828-.986,1.621-1.382,2.486l-.081.117c-.736-1.061-1.305-2.232-1.979-3.334q-4.61-7.983-9.22-15.967C3.44,58.692,1.661,55.734,0,52.712Q9.87,35.68,19.7,18.62c.006-.011.018-.031.024-.042l.18-.308c.007-.013.022-.039.031-.051l.182-.31c.017-.028.05-.086.068-.114l.073-.13.182-.323.051-.088.136-.217.1-.143c.066-.1.2-.3.268-.4.007-.033.02-.1.028-.129l.16-.307.029-.051.184-.308c.018-.029.055-.092.073-.123s.061-.106.083-.143l.154-.27.066-.114.129-.226c.015-.024.044-.075.059-.1.072-.123.215-.369.288-.492l.059-.1.134-.244.044-.077.176-.308c.022-.037.068-.112.092-.149l.119-.18c.026-.037.075-.108.1-.143s.068-.11.092-.147l.1-.191.134-.286.1-.141.072-.1.274-.233-.013-.215c.011-.026.037-.077.05-.1l.156-.31.051-.09.138-.224.1-.147c.062-.1.189-.3.252-.406.018-.037.051-.108.07-.145l.1-.211c.029-.055.092-.167.123-.224l.121-.173.1-.14.09-.147.09-.189.083-.171.158-.3c.024-.037.07-.114.092-.152l.121-.18.1-.143c.024-.037.07-.112.092-.149l.094-.191c.028-.053.081-.158.106-.211l.125-.206c.022-.035.066-.1.09-.14.066-.1.2-.308.268-.409.007-.031.024-.094.031-.125l.16-.3c.006-.013.02-.037.028-.05l.184-.314.072-.123c.018-.029.053-.092.072-.121l.184-.321c.007-.013.022-.039.029-.053l.173-.3a.544.544,0,0,0,.033-.055l.185-.312.066-.114.073-.129.176-.31L28,4.239,28.153,4c.024-.035.072-.106.094-.141.068-.1.2-.3.268-.4.006-.031.02-.094.028-.125l.156-.3c.013-.022.04-.068.053-.092l.14-.218c.026-.035.073-.106.1-.143l.257-.409c.009-.029.026-.088.035-.117l.162-.3.029-.055.187-.316c.015-.028.048-.083.064-.11s.05-.09.066-.119l.184-.327c.009-.013.024-.04.031-.053l.174-.3Z" transform="translate(0 0.173)" fill="#0ba25e"/>
      </g>
      <g id="Group_15" data-name="Group 15" transform="translate(30.599 0)">
        <path id="Path_37" data-name="Path 37" d="M0,.018c5.963-.028,11.928,0,17.893-.013C22.827.024,27.766-.033,32.7.033c.1.187.2.373.3.558.015.024.042.075.057.1.477.832.962,1.66,1.434,2.493.009.015.024.042.033.055Q35.9,5.595,37.247,7.96c.007.013.024.039.031.053.163.281.332.562.5.845.015.024.042.073.057.1q.344.606.694,1.208a.51.51,0,0,1,.031.053c.233.4.463.8.694,1.208l.057.1c.233.393.459.789.683,1.186.015.024.042.073.057.1q3.288,5.678,6.563,11.364c-.25,1.1.354,2.194.018,3.3A15.14,15.14,0,0,1,43.408,35.8c-.611.663-.018,1.583-.084,2.368a15.157,15.157,0,0,1-2.308,2.04c0,.6,0,1.2-.024,1.808-.714.472-1.533.745-2.258,1.2-.077.244-.156.49-.231.738-.582.275-1.2.453-1.786.733-2.3-.661-4.584-1.4-6.883-2.078-2.139-.707-4.329-1.261-6.446-2.04l-.121-.217c-.011-.017-.029-.05-.039-.066l-.174-.3-.073-.125c-.017-.028-.046-.081-.062-.108-.13-.231-.25-.468-.356-.71l-.011-.024-.013-.018c-.081-.129-.244-.387-.327-.516-.009-.015-.028-.044-.037-.061l-.053-.084c-.031-.053-.1-.158-.127-.211l-.318-.536c-.02-.033-.059-.1-.079-.134l-.112-.191-.059-.1-.178-.307c-.007-.013-.024-.039-.031-.053l-.187-.321c-.017-.029-.05-.088-.066-.116l-.075-.134-.152-.268-.073-.128-.118-.207-.064-.11c-.072-.132-.217-.395-.29-.527-.007-.015-.026-.046-.033-.061l-.05-.086-.138-.206c-.182-.3-.352-.617-.516-.931-.009-.015-.026-.046-.033-.061l-.048-.084c-.035-.05-.1-.149-.14-.2l-.323-.58a.684.684,0,0,1-.035-.062l-.05-.088-.145-.241-.158-.266c-.015-.026-.046-.077-.062-.1-.07-.121-.211-.365-.283-.487-.017-.028-.048-.084-.064-.114-.125-.207-.244-.417-.362-.626l-.039-.066-.174-.3c-.018-.029-.053-.088-.07-.119l-.064-.11-.185-.323c-.009-.015-.026-.046-.035-.061l-.151-.27-.05-.086c-.07-.123-.211-.367-.281-.49l-.059-.1c-.114-.189-.228-.38-.338-.569Q8.672,15.062,1.017,1.821a14.525,14.525,0,0,0-1-1.63L.007.108Z" transform="translate(0)" fill="#fccd48"/>
      </g>
      <g id="Group_16" data-name="Group 16" transform="translate(19.698 0.11)">
        <path id="Path_38" data-name="Path 38" d="M.017,0l.1,0L.129.083,0,.1Z" transform="translate(10.79 0)" fill="#089156"/>
        <path id="Path_39" data-name="Path 39" d="M0,0A14.524,14.524,0,0,1,1,1.63Q8.653,14.873,16.292,28.122q-3.536,6.158-7.1,12.3C8.875,38.46,8.282,36.554,7.9,34.6c-.586-2.095-.911-4.252-1.516-6.343-.7-3.378-1.548-6.727-2.31-10.092C2.915,13.259,1.8,8.34.694,3.418A24.684,24.684,0,0,1,0,0Z" transform="translate(10.918 0.083)" fill="#089156"/>
        <path id="Path_40" data-name="Path 40" d="M0,.039.024,0Z" transform="translate(10.483 0.514)" fill="#089156"/>
        <path id="Path_41" data-name="Path 41" d="M0,.053C.009.04.024.013.031,0,.024.013.009.04,0,.053Z" transform="translate(10.277 0.848)" fill="#089156"/>
        <path id="Path_42" data-name="Path 42" d="M0,.119C.017.088.05.029.066,0,.05.029.017.088,0,.119Z" transform="translate(10.028 1.228)" fill="#089156"/>
        <path id="Path_43" data-name="Path 43" d="M0,.11C.015.083.048.028.064,0,.048.028.015.083,0,.11Z" transform="translate(9.963 1.348)" fill="#089156"/>
        <path id="Path_44" data-name="Path 44" d="M0,.055.029,0Z" transform="translate(9.747 1.773)" fill="#089156"/>
        <path id="Path_45" data-name="Path 45" d="M0,.118C.009.088.026.029.035,0,.026.029.009.088,0,.118Z" transform="translate(9.55 2.131)" fill="#089156"/>
        <path id="Path_46" data-name="Path 46" d="M0,.409.257,0Z" transform="translate(9.293 2.249)" fill="#089156"/>
        <path id="Path_47" data-name="Path 47" d="M0,.143C.026.108.073.037.1,0,.073.037.026.108,0,.143Z" transform="translate(9.194 2.658)" fill="#089156"/>
        <path id="Path_48" data-name="Path 48" d="M0,.092C.013.07.04.024.053,0,.04.024.013.07,0,.092Z" transform="translate(9.001 3.02)" fill="#089156"/>
        <path id="Path_49" data-name="Path 49" d="M0,.125C.006.094.02.031.028,0,.02.031.006.094,0,.125Z" transform="translate(8.818 3.411)" fill="#089156"/>
        <path id="Path_50" data-name="Path 50" d="M0,.4C.068.3.2.1.268,0,.2.1.068.3,0,.4Z" transform="translate(8.55 3.536)" fill="#089156"/>
        <path id="Path_51" data-name="Path 51" d="M0,.141C.024.106.072.035.094,0,.072.035.024.106,0,.141Z" transform="translate(8.456 3.94)" fill="#089156"/>
        <path id="Path_52" data-name="Path 52" d="M0,.077.044,0Z" transform="translate(8.263 4.322)" fill="#089156"/>
        <path id="Path_53" data-name="Path 53" d="M0,.129.073,0Z" transform="translate(8.014 4.709)" fill="#089156"/>
        <path id="Path_54" data-name="Path 54" d="M0,.114.066,0Z" transform="translate(7.948 4.838)" fill="#089156"/>
        <path id="Path_55" data-name="Path 55" d="M0,.055A.548.548,0,0,0,.033,0,.548.548,0,0,1,0,.055Z" transform="translate(7.729 5.263)" fill="#089156"/>
        <path id="Path_56" data-name="Path 56" d="M0,.053C.007.04.022.015.029,0,.022.015.007.04,0,.053Z" transform="translate(7.527 5.618)" fill="#089156"/>
        <path id="Path_57" data-name="Path 57" d="M0,.121C.018.092.053.029.072,0,.053.029.018.092,0,.121Z" transform="translate(7.272 5.992)" fill="#089156"/>
        <path id="Path_58" data-name="Path 58" d="M0,.123.072,0Z" transform="translate(7.2 6.114)" fill="#089156"/>
        <path id="Path_59" data-name="Path 59" d="M0,.05C.006.037.02.013.028,0,.02.013.006.037,0,.05Z" transform="translate(6.989 6.55)" fill="#089156"/>
        <path id="Path_60" data-name="Path 60" d="M0,.125C.007.094.024.031.031,0,.024.031.007.094,0,.125Z" transform="translate(6.798 6.905)" fill="#089156"/>
        <path id="Path_61" data-name="Path 61" d="M0,.409C.066.307.2.1.268,0,.2.1.066.307,0,.409Z" transform="translate(6.53 7.03)" fill="#089156"/>
        <path id="Path_62" data-name="Path 62" d="M0,.14C.022.1.066.035.09,0,.066.035.022.1,0,.14Z" transform="translate(6.44 7.439)" fill="#089156"/>
        <path id="Path_63" data-name="Path 63" d="M0,.211C.028.158.081.053.106,0,.081.053.028.158,0,.211Z" transform="translate(6.209 7.784)" fill="#089156"/>
        <path id="Path_64" data-name="Path 64" d="M0,.149C.024.112.07.037.092,0,.07.037.024.112,0,.149Z" transform="translate(6.024 8.186)" fill="#089156"/>
        <path id="Path_65" data-name="Path 65" d="M0,.143.1,0Z" transform="translate(5.921 8.335)" fill="#089156"/>
        <path id="Path_66" data-name="Path 66" d="M0,.152C.024.116.07.039.092,0,.07.039.024.116,0,.152Z" transform="translate(5.708 8.658)" fill="#089156"/>
        <path id="Path_67" data-name="Path 67" d="M0,.171.083,0Z" transform="translate(5.467 9.115)" fill="#089156"/>
        <path id="Path_68" data-name="Path 68" d="M0,.147.09,0Z" transform="translate(5.287 9.475)" fill="#089156"/>
        <path id="Path_69" data-name="Path 69" d="M0,.14.1,0Z" transform="translate(5.185 9.622)" fill="#089156"/>
        <path id="Path_70" data-name="Path 70" d="M0,.224C.029.169.092.057.123,0,.092.057.029.169,0,.224Z" transform="translate(4.94 9.934)" fill="#089156"/>
        <path id="Path_71" data-name="Path 71" d="M0,.145C.018.108.051.037.07,0,.051.037.018.108,0,.145Z" transform="translate(4.773 10.369)" fill="#089156"/>
        <path id="Path_72" data-name="Path 72" d="M0,.406C.062.3.189.1.252,0,.189.1.062.3,0,.406Z" transform="translate(4.522 10.514)" fill="#089156"/>
        <path id="Path_73" data-name="Path 73" d="M0,.147.1,0Z" transform="translate(4.421 10.92)" fill="#089156"/>
        <path id="Path_74" data-name="Path 74" d="M0,.09.051,0Z" transform="translate(4.232 11.291)" fill="#089156"/>
        <path id="Path_75" data-name="Path 75" d="M0,.1C.011.077.037.026.05,0,.037.026.011.077,0,.1Z" transform="translate(4.026 11.691)" fill="#089156"/>
        <path id="Path_76" data-name="Path 76" d="M0,.448C.064.336.195.112.261,0L.274.215Z" transform="translate(3.765 11.794)" fill="#089156"/>
        <path id="Path_77" data-name="Path 77" d="M0,.1.072,0Z" transform="translate(3.694 12.242)" fill="#089156"/>
        <path id="Path_78" data-name="Path 78" d="M0,.286C.033.215.1.072.134,0,.1.072.033.215,0,.286Z" transform="translate(3.459 12.484)" fill="#089156"/>
        <path id="Path_79" data-name="Path 79" d="M0,.147C.022.11.068.037.092,0,.068.037.022.11,0,.147Z" transform="translate(3.268 12.961)" fill="#089156"/>
        <path id="Path_80" data-name="Path 80" d="M0,.143C.026.106.075.035.1,0,.075.035.026.106,0,.143Z" transform="translate(3.167 13.108)" fill="#089156"/>
        <path id="Path_81" data-name="Path 81" d="M0,.149C.022.112.068.037.092,0,.068.037.022.112,0,.149Z" transform="translate(2.956 13.431)" fill="#089156"/>
        <path id="Path_82" data-name="Path 82" d="M0,.077.044,0Z" transform="translate(2.735 13.889)" fill="#089156"/>
        <path id="Path_83" data-name="Path 83" d="M0,.1.059,0Z" transform="translate(2.543 14.21)" fill="#089156"/>
        <path id="Path_84" data-name="Path 84" d="M0,.1C.015.077.044.026.059,0,.044.026.015.077,0,.1Z" transform="translate(2.196 14.805)" fill="#089156"/>
        <path id="Path_85" data-name="Path 85" d="M0,.114.066,0Z" transform="translate(2.001 15.131)" fill="#089156"/>
        <path id="Path_86" data-name="Path 86" d="M0,.143C.02.108.061.037.083,0,.061.037.02.108,0,.143Z" transform="translate(1.764 15.515)" fill="#089156"/>
        <path id="Path_87" data-name="Path 87" d="M0,.123C.018.094.055.031.073,0,.055.031.018.094,0,.123Z" transform="translate(1.691 15.658)" fill="#089156"/>
        <path id="Path_88" data-name="Path 88" d="M0,.051.029,0Z" transform="translate(1.478 16.09)" fill="#089156"/>
        <path id="Path_89" data-name="Path 89" d="M0,.129C.007.1.02.031.028,0,.02.031.007.1,0,.129Z" transform="translate(1.291 16.448)" fill="#089156"/>
        <path id="Path_90" data-name="Path 90" d="M0,.4C.066.3.2.1.268,0,.2.1.066.3,0,.4Z" transform="translate(1.023 16.576)" fill="#089156"/>
        <path id="Path_91" data-name="Path 91" d="M0,.143.1,0Z" transform="translate(0.927 16.975)" fill="#089156"/>
        <path id="Path_92" data-name="Path 92" d="M0,.088.051,0Z" transform="translate(0.74 17.334)" fill="#089156"/>
        <path id="Path_93" data-name="Path 93" d="M0,.13.073,0Z" transform="translate(0.485 17.746)" fill="#089156"/>
        <path id="Path_94" data-name="Path 94" d="M0,.114C.017.086.05.028.068,0,.05.028.017.086,0,.114Z" transform="translate(0.417 17.876)" fill="#089156"/>
        <path id="Path_95" data-name="Path 95" d="M0,.051C.007.039.022.013.031,0,.022.013.007.039,0,.051Z" transform="translate(0.204 18.3)" fill="#089156"/>
        <path id="Path_96" data-name="Path 96" d="M0,.042C.006.031.018.011.024,0,.018.011.006.031,0,.042Z" transform="translate(0 18.66)" fill="#089156"/>
        <path id="Path_97" data-name="Path 97" d="M0,.2C.031.152.1.05.129,0,.1.05.031.152,0,.2Z" transform="translate(19.594 41.153)" fill="#089156"/>
        <path id="Path_98" data-name="Path 98" d="M0,.061C.009.046.026.015.033,0,.026.015.009.046,0,.061Z" transform="translate(19.514 41.44)" fill="#089156"/>
        <path id="Path_99" data-name="Path 99" d="M0,.1C.015.072.042.024.055,0,.042.024.015.072,0,.1Z" transform="translate(19.172 42.025)" fill="#089156"/>
        <path id="Path_100" data-name="Path 100" d="M0,.108C.015.081.046.028.062,0,.046.028.015.081,0,.108Z" transform="translate(18.979 42.352)" fill="#089156"/>
        <path id="Path_101" data-name="Path 101" d="M0,.059C.009.044.026.015.033,0,.026.015.009.044,0,.059Z" transform="translate(18.794 42.727)" fill="#089156"/>
        <path id="Path_102" data-name="Path 102" d="M0,.116C.016.086.05.027.066,0,.05.027.016.086,0,.116Z" transform="translate(18.539 43.116)" fill="#089156"/>
        <path id="Path_103" data-name="Path 103" d="M0,.123.073,0Z" transform="translate(18.465 43.232)" fill="#089156"/>
        <path id="Path_104" data-name="Path 104" d="M0,.1.059,0Z" transform="translate(18.221 43.674)" fill="#089156"/>
        <path id="Path_105" data-name="Path 105" d="M0,.134C.018.1.059.033.077,0,.059.033.018.1,0,.134Z" transform="translate(18.03 43.966)" fill="#089156"/>
        <path id="Path_106" data-name="Path 106" d="M0,.092C.013.068.04.022.053,0,.04.022.013.068,0,.092Z" transform="translate(17.685 44.608)" fill="#089156"/>
        <path id="Path_107" data-name="Path 107" d="M0,.136C.02.1.061.035.079,0,.061.035.02.1,0,.136Z" transform="translate(17.491 44.893)" fill="#089156"/>
        <path id="Path_108" data-name="Path 108" d="M0,.112C.017.084.048.028.064,0,.048.028.017.084,0,.112Z" transform="translate(17.151 45.504)" fill="#089156"/>
        <path id="Path_109" data-name="Path 109" d="M0,.09.051,0Z" transform="translate(16.962 45.864)" fill="#089156"/>
        <path id="Path_110" data-name="Path 110" d="M0,.1.059,0Z" transform="translate(16.762 46.202)" fill="#089156"/>
        <path id="Path_111" data-name="Path 111" d="M0,.114.066,0Z" transform="translate(16.407 46.793)" fill="#089156"/>
        <path id="Path_112" data-name="Path 112" d="M0,.086C.011.064.035.022.048,0,.035.022.011.064,0,.086Z" transform="translate(16.229 47.142)" fill="#089156"/>
        <path id="Path_113" data-name="Path 113" d="M0,.092C.013.07.04.024.053,0,.04.024.013.07,0,.092Z" transform="translate(16.025 47.489)" fill="#089156"/>
        <path id="Path_114" data-name="Path 114" d="M0,.1C.015.072.044.024.057,0,.044.024.015.072,0,.1Z" transform="translate(15.662 48.108)" fill="#089156"/>
        <path id="Path_115" data-name="Path 115" d="M0,.13C.018.1.057.033.075,0,.057.033.018.1,0,.13Z" transform="translate(15.477 48.385)" fill="#089156"/>
        <path id="Path_116" data-name="Path 116" d="M0,.084.048,0Z" transform="translate(15.152 48.998)" fill="#089156"/>
        <path id="Path_117" data-name="Path 117" d="M0,.079.044,0Z" transform="translate(14.957 49.351)" fill="#089156"/>
        <path id="Path_118" data-name="Path 118" d="M0,.084.051,0Z" transform="translate(14.751 49.699)" fill="#089156"/>
        <path id="Path_119" data-name="Path 119" d="M0,.13C.02.1.057.031.077,0,.057.031.02.1,0,.13Z" transform="translate(14.386 50.265)" fill="#089156"/>
        <path id="Path_120" data-name="Path 120" d="M0,.1C.013.077.04.026.055,0,.04.026.013.077,0,.1Z" transform="translate(14.223 50.597)" fill="#089156"/>
        <path id="Path_121" data-name="Path 121" d="M0,.11C.015.083.048.028.062,0,.048.028.015.083,0,.11Z" transform="translate(13.971 51.025)" fill="#089156"/>
        <path id="Path_122" data-name="Path 122" d="M0,.1C.015.079.044.026.061,0,.044.026.015.079,0,.1Z" transform="translate(13.911 51.135)" fill="#089156"/>
      </g>
      <g id="Group_17" data-name="Group 17" transform="translate(63.6 0.59)">
        <path id="Path_123" data-name="Path 123" d="M0,0C.015.024.042.075.057.1.042.075.015.024,0,0Z" transform="translate(0 0)" fill="#10985b"/>
        <path id="Path_124" data-name="Path 124" d="M0,0C.009.015.024.042.033.055.024.042.009.015,0,0Z" transform="translate(1.491 2.594)" fill="#10985b"/>
        <path id="Path_125" data-name="Path 125" d="M0,0C.007.013.024.039.031.053.024.039.007.013,0,0Z" transform="translate(4.246 7.369)" fill="#10985b"/>
        <path id="Path_126" data-name="Path 126" d="M0,0C.015.024.042.073.057.1.042.073.015.024,0,0Z" transform="translate(4.777 8.267)" fill="#10985b"/>
        <path id="Path_127" data-name="Path 127" d="M0,0A.5.5,0,0,1,.031.053.5.5,0,0,0,0,0Z" transform="translate(5.528 9.574)" fill="#10985b"/>
        <path id="Path_128" data-name="Path 128" d="M0,0,.057.1Z" transform="translate(6.253 10.835)" fill="#10985b"/>
        <path id="Path_129" data-name="Path 129" d="M0,0C.015.024.042.073.057.1.042.073.015.024,0,0Z" transform="translate(6.993 12.117)" fill="#10985b"/>
      </g>
      <g id="Group_18" data-name="Group 18" transform="translate(67.315 24.17)">
        <path id="Path_130" data-name="Path 130" d="M9.9,0C13.09,5.532,16.3,11.054,19.47,16.6c.015.024.044.075.059.1.073.121.22.362.292.481l.059.1.147.252c.009.016.028.051.039.068l.184.319c.018.031.053.1.072.127s.05.084.066.114l.18.312.029.051.18.308.029.05.18.312.072.123c.016.031.051.092.068.121l.185.327c.026.064.077.189.1.252l.051.1.024.053.04.053.108.163.152.242c.022.037.07.11.092.147l.121.193.147.332.055.1.02.039.016.024c.081.119.241.36.321.479.02.033.061.1.083.132l.11.184.066.114.185.325.066.117.066.116.184.314a.534.534,0,0,0,.033.055l.167.294.044.075.169.3c.02.033.059.1.079.134l.068.118c.136.226.266.455.387.69.018.039.055.116.072.154l.084.191c.022.037.066.112.086.149l.108.141.127.18.09.141.185.321.066.117c.017.029.049.086.068.116l.184.316c.007.015.022.04.029.053l.174.3.029.05.178.31c.018.031.055.094.073.127s.055.094.072.125l.184.316.028.051.195.364,0,.165c-4.593-1.32-9.113-2.886-13.72-4.158C8.4,23.088,4.18,21.86,0,20.518c.582-.279,1.2-.457,1.786-.733.075-.248.154-.494.231-.738.725-.455,1.544-.729,2.258-1.2.028-.6.026-1.206.024-1.808A15.157,15.157,0,0,0,6.607,14c.066-.786-.527-1.706.085-2.368A15.14,15.14,0,0,0,9.916,3.3C10.252,2.194,9.648,1.1,9.9,0Z" transform="translate(0 0)" fill="#f9c941"/>
        <path id="Path_131" data-name="Path 131" d="M0,0,.1,0,.149.143.04.151Z" transform="translate(26.299 28.596)" fill="#f9c941"/>
      </g>
      <g id="Group_19" data-name="Group 19" transform="translate(47.246 28.883)">
        <path id="Path_132" data-name="Path 132" d="M0,0,.059.1Z" transform="translate(0 0)" fill="#e3b73a"/>
        <path id="Path_133" data-name="Path 133" d="M0,0,.05.086Z" transform="translate(0.34 0.589)" fill="#e3b73a"/>
        <path id="Path_134" data-name="Path 134" d="M0,0C.009.015.026.046.035.061.026.046.009.015,0,0Z" transform="translate(0.54 0.946)" fill="#e3b73a"/>
        <path id="Path_135" data-name="Path 135" d="M0,0,.064.11Z" transform="translate(0.76 1.329)" fill="#e3b73a"/>
        <path id="Path_136" data-name="Path 136" d="M0,0C.017.031.051.09.07.119.051.09.017.031,0,0Z" transform="translate(0.824 1.439)" fill="#e3b73a"/>
        <path id="Path_137" data-name="Path 137" d="M0,0,.039.066Z" transform="translate(1.068 1.858)" fill="#e3b73a"/>
        <path id="Path_138" data-name="Path 138" d="M0,0C.017.029.048.086.064.114.048.086.017.029,0,0Z" transform="translate(1.469 2.55)" fill="#e3b73a"/>
        <path id="Path_139" data-name="Path 139" d="M0,0C.016.027.048.079.062.1.048.079.016.027,0,0Z" transform="translate(1.816 3.15)" fill="#e3b73a"/>
        <path id="Path_140" data-name="Path 140" d="M0,0,.145.24Z" transform="translate(2.036 3.521)" fill="#e3b73a"/>
        <path id="Path_141" data-name="Path 141" d="M0,0A.694.694,0,0,0,.035.062.694.694,0,0,1,0,0Z" transform="translate(2.231 3.85)" fill="#e3b73a"/>
        <path id="Path_142" data-name="Path 142" d="M0,0C.035.048.1.147.14.2.1.147.035.048,0,0Z" transform="translate(2.589 4.492)" fill="#e3b73a"/>
        <path id="Path_143" data-name="Path 143" d="M0,0C.007.015.024.046.033.061.024.046.007.015,0,0Z" transform="translate(2.776 4.773)" fill="#e3b73a"/>
        <path id="Path_144" data-name="Path 144" d="M0,0,.138.206Z" transform="translate(3.325 5.765)" fill="#e3b73a"/>
        <path id="Path_145" data-name="Path 145" d="M0,0C.007.015.026.046.033.061.026.046.007.015,0,0Z" transform="translate(3.512 6.057)" fill="#e3b73a"/>
        <path id="Path_146" data-name="Path 146" d="M0,0,.064.11Z" transform="translate(3.835 6.644)" fill="#e3b73a"/>
        <path id="Path_147" data-name="Path 147" d="M0,0,.073.128Z" transform="translate(4.017 6.962)" fill="#e3b73a"/>
        <path id="Path_148" data-name="Path 148" d="M0,0,.075.134Z" transform="translate(4.243 7.358)" fill="#e3b73a"/>
        <path id="Path_149" data-name="Path 149" d="M0,0C.017.028.05.086.066.116.05.086.017.028,0,0Z" transform="translate(4.318 7.492)" fill="#e3b73a"/>
        <path id="Path_150" data-name="Path 150" d="M0,0C.007.015.024.04.031.053.024.04.007.015,0,0Z" transform="translate(4.571 7.929)" fill="#e3b73a"/>
        <path id="Path_151" data-name="Path 151" d="M0,0,.059.1Z" transform="translate(4.781 8.289)" fill="#e3b73a"/>
        <path id="Path_152" data-name="Path 152" d="M0,0C.02.033.059.1.079.134.059.1.02.033,0,0Z" transform="translate(4.951 8.581)" fill="#e3b73a"/>
        <path id="Path_153" data-name="Path 153" d="M0,0C.031.053.1.158.127.211.1.158.031.053,0,0Z" transform="translate(5.348 9.251)" fill="#e3b73a"/>
        <path id="Path_154" data-name="Path 154" d="M0,0C.009.017.028.046.037.061.028.046.009.017,0,0Z" transform="translate(5.528 9.547)" fill="#e3b73a"/>
        <path id="Path_155" data-name="Path 155" d="M0,0,.013.018.024.042C.018.031.006.011,0,0Z" transform="translate(5.891 10.123)" fill="#e3b73a"/>
        <path id="Path_156" data-name="Path 156" d="M0,0C.016.028.046.081.062.108.046.081.016.028,0,0Z" transform="translate(6.271 10.876)" fill="#e3b73a"/>
        <path id="Path_157" data-name="Path 157" d="M0,0,.073.125Z" transform="translate(6.334 10.984)" fill="#e3b73a"/>
        <path id="Path_158" data-name="Path 158" d="M0,0C.009.017.027.05.039.066.027.05.009.017,0,0Z" transform="translate(6.582 11.405)" fill="#e3b73a"/>
        <path id="Path_159" data-name="Path 159" d="M0,0C2.117.778,4.307,1.333,6.446,2.04c2.3.681,4.579,1.417,6.883,2.078,4.18,1.342,8.4,2.57,12.58,3.92a15.093,15.093,0,0,1-.108,2.688c-.171.854-1.191.988-1.612,1.669-5.649,0-11.3.018-16.944-.006l-.121-.009C4.79,8.23,2.363,4.133,0,0Z" transform="translate(6.741 11.687)" fill="#e3b73a"/>
      </g>
      <g id="Group_20" data-name="Group 20" transform="translate(78.175 40.772)">
        <path id="Path_160" data-name="Path 160" d="M0,0C.015.024.044.075.059.1.044.075.015.024,0,0Z" transform="translate(8.61 0)" fill="#e8b835"/>
        <path id="Path_161" data-name="Path 161" d="M0,0,.059.1Z" transform="translate(8.961 0.58)" fill="#e8b835"/>
        <path id="Path_162" data-name="Path 162" d="M0,0C.009.017.028.051.039.068.028.051.009.017,0,0Z" transform="translate(9.167 0.929)" fill="#e8b835"/>
        <path id="Path_163" data-name="Path 163" d="M0,0C.018.031.053.1.071.127.053.1.018.031,0,0Z" transform="translate(9.389 1.316)" fill="#e8b835"/>
        <path id="Path_164" data-name="Path 164" d="M0,0,.066.114Z" transform="translate(9.46 1.443)" fill="#e8b835"/>
        <path id="Path_165" data-name="Path 165" d="M0,0,.029.051Z" transform="translate(9.706 1.869)" fill="#e8b835"/>
        <path id="Path_166" data-name="Path 166" d="M0,0,.03.05Z" transform="translate(9.916 2.229)" fill="#e8b835"/>
        <path id="Path_167" data-name="Path 167" d="M0,0,.072.123Z" transform="translate(10.125 2.59)" fill="#e8b835"/>
        <path id="Path_168" data-name="Path 168" d="M0,0C.016.031.051.092.068.121.051.092.016.031,0,0Z" transform="translate(10.197 2.713)" fill="#e8b835"/>
        <path id="Path_169" data-name="Path 169" d="M0,0C.026.064.077.189.1.252.077.189.026.064,0,0Z" transform="translate(10.45 3.161)" fill="#e8b835"/>
        <path id="Path_170" data-name="Path 170" d="M0,0C.017.028.048.081.064.106L.024.053Z" transform="translate(10.604 3.514)" fill="#e8b835"/>
        <path id="Path_171" data-name="Path 171" d="M0,0,.152.242Z" transform="translate(10.777 3.784)" fill="#e8b835"/>
        <path id="Path_172" data-name="Path 172" d="M0,0C.022.037.07.11.092.147.07.11.022.037,0,0Z" transform="translate(10.929 4.026)" fill="#e8b835"/>
        <path id="Path_173" data-name="Path 173" d="M0,0,.147.332Z" transform="translate(11.142 4.366)" fill="#e8b835"/>
        <path id="Path_174" data-name="Path 174" d="M0,0C.009.017.027.048.037.062L.02.039Z" transform="translate(11.344 4.797)" fill="#e8b835"/>
        <path id="Path_175" data-name="Path 175" d="M0,0C.02.033.061.1.083.132.061.1.02.033,0,0Z" transform="translate(11.702 5.339)" fill="#e8b835"/>
        <path id="Path_176" data-name="Path 176" d="M0,0,.066.114Z" transform="translate(11.895 5.655)" fill="#e8b835"/>
        <path id="Path_177" data-name="Path 177" d="M0,0,.066.117Z" transform="translate(12.146 6.093)" fill="#e8b835"/>
        <path id="Path_178" data-name="Path 178" d="M0,0,.066.116Z" transform="translate(12.212 6.211)" fill="#e8b835"/>
        <path id="Path_179" data-name="Path 179" d="M0,0A.554.554,0,0,0,.033.055.554.554,0,0,1,0,0Z" transform="translate(12.462 6.64)" fill="#e8b835"/>
        <path id="Path_180" data-name="Path 180" d="M0,0,.044.075Z" transform="translate(12.662 6.989)" fill="#e8b835"/>
        <path id="Path_181" data-name="Path 181" d="M0,0C.02.033.059.1.079.134.059.1.02.033,0,0Z" transform="translate(12.875 7.36)" fill="#e8b835"/>
        <path id="Path_182" data-name="Path 182" d="M0,0,.068.117Z" transform="translate(12.954 7.494)" fill="#e8b835"/>
        <path id="Path_183" data-name="Path 183" d="M1.72,0c4.606,1.272,9.126,2.838,13.72,4.158l.04.151c-5.157.117-10.321.02-15.48.048.42-.681,1.441-.815,1.612-1.669A15.066,15.066,0,0,0,1.72,0Z" transform="translate(0 7.836)" fill="#e8b835"/>
        <path id="Path_184" data-name="Path 184" d="M0,0C.018.039.055.116.071.154.055.116.018.039,0,0Z" transform="translate(13.409 8.302)" fill="#e8b835"/>
        <path id="Path_185" data-name="Path 185" d="M0,0C.022.037.066.112.086.149.066.112.022.037,0,0Z" transform="translate(13.565 8.647)" fill="#e8b835"/>
        <path id="Path_186" data-name="Path 186" d="M0,0C.027.037.081.106.108.141.081.106.027.037,0,0Z" transform="translate(13.652 8.796)" fill="#e8b835"/>
        <path id="Path_187" data-name="Path 187" d="M0,0,.09.141Z" transform="translate(13.887 9.117)" fill="#e8b835"/>
        <path id="Path_188" data-name="Path 188" d="M0,0,.066.117Z" transform="translate(14.162 9.58)" fill="#e8b835"/>
        <path id="Path_189" data-name="Path 189" d="M0,0C.016.029.05.086.068.116.05.086.016.029,0,0Z" transform="translate(14.228 9.697)" fill="#e8b835"/>
        <path id="Path_190" data-name="Path 190" d="M0,0C.007.015.022.04.029.053.022.04.007.015,0,0Z" transform="translate(14.48 10.129)" fill="#e8b835"/>
        <path id="Path_191" data-name="Path 191" d="M0,0,.029.049Z" transform="translate(14.683 10.487)" fill="#e8b835"/>
        <path id="Path_192" data-name="Path 192" d="M0,0C.018.031.055.094.073.127.055.094.018.031,0,0Z" transform="translate(14.891 10.846)" fill="#e8b835"/>
        <path id="Path_193" data-name="Path 193" d="M0,0C.018.031.055.094.072.125.055.094.018.031,0,0Z" transform="translate(14.964 10.973)" fill="#e8b835"/>
        <path id="Path_194" data-name="Path 194" d="M0,0,.028.051Z" transform="translate(15.219 11.414)" fill="#e8b835"/>
        <path id="Path_195" data-name="Path 195" d="M0,0,.1.169l-.1,0Z" transform="translate(15.44 11.829)" fill="#e8b835"/>
      </g>
      <g id="Group_21" data-name="Group 21" transform="translate(16.348 52.908)">
        <path id="Path_196" data-name="Path 196" d="M10.6,9.71c1.893-3.228,3.692-6.516,5.647-9.7,9.479.035,18.959-.053,28.436.035L44.8.05C40.01.2,35.2.009,30.41.131c-.914.589-1.524,1.544-2.4,2.187C27.2,2.91,26.6,3.736,25.822,4.37c-1.089.8-1.9,1.915-3,2.7-1.278,1.353-2.752,2.493-4.041,3.839-.966.742-1.773,1.658-2.673,2.475-.99.718-1.748,1.691-2.673,2.484-.024.02-.07.061-.094.083-.05.039-.147.119-.2.158l-.092.077c-.729.564-1.287,1.307-2,1.886l-.092.077c-.024.02-.07.059-.094.077-1.045.857-1.882,1.942-2.978,2.741C6.78,22.06,5.535,23,4.487,24.153c-1.549,1.274-2.89,2.778-4.487,4,.4-.865.922-1.658,1.382-2.486Q5.992,17.688,10.6,9.71Z" transform="translate(0.081 0)" fill="#296ad9"/>
        <path id="Path_197" data-name="Path 197" d="M0,.117.081,0,.075.119Z" transform="translate(0 28.152)" fill="#296ad9"/>
      </g>
      <g id="Group_22" data-name="Group 22" transform="translate(16.423 52.908)">
        <path id="Path_198" data-name="Path 198" d="M44.809.05C50.456.073,56.1.057,61.752.055c5.159-.028,10.323.07,15.48-.048L77.341,0l.073.02V.035Q69.246,14.154,61.095,28.286,30.546,28.277,0,28.271l.005-.119c1.6-1.221,2.937-2.724,4.487-4C5.541,23,6.785,22.06,7.889,20.966c1.1-.8,1.933-1.884,2.978-2.741.024-.018.07-.057.094-.077l.092-.077c.716-.578,1.274-1.322,2-1.885l.092-.077c.05-.039.147-.119.2-.158l.094-.083c.925-.793,1.684-1.766,2.673-2.484.9-.817,1.707-1.733,2.673-2.475,1.289-1.346,2.763-2.486,4.041-3.839,1.105-.786,1.915-1.9,3-2.7.777-.633,1.375-1.46,2.188-2.053.876-.643,1.485-1.6,2.4-2.187C35.209.009,40.015.2,44.809.05Z" transform="translate(0 0)" fill="#2a71e9"/>
      </g>
      <g id="Group_23" data-name="Group 23" transform="translate(27.289 68.776)">
        <path id="Path_199" data-name="Path 199" d="M0,.083.094,0Z" transform="translate(2.477 0)" fill="#286ee6"/>
        <path id="Path_200" data-name="Path 200" d="M0,.158C.05.119.147.039.2,0,.147.039.05.119,0,.158Z" transform="translate(2.28 0.083)" fill="#286ee6"/>
        <path id="Path_201" data-name="Path 201" d="M0,.077.092,0Z" transform="translate(2.188 0.241)" fill="#286ee6"/>
        <path id="Path_202" data-name="Path 202" d="M0,.077.092,0Z" transform="translate(0.094 2.203)" fill="#286ee6"/>
        <path id="Path_203" data-name="Path 203" d="M0,.077C.024.059.07.02.094,0,.07.02.024.059,0,.077Z" transform="translate(0 2.28)" fill="#286ee6"/>
      </g>
    </g>
    <path id="Path_2" data-name="Path 2" d="M34.119,0A34.123,34.123,0,0,0,23.333,66.494c1.705.316,2.331-.74,2.331-1.641,0-.814-.032-3.5-.046-6.352-9.492,2.064-11.495-4.025-11.495-4.025-1.552-3.944-3.788-4.992-3.788-4.992-3.1-2.118.233-2.074.233-2.074,3.426.241,5.23,3.516,5.23,3.516,3.043,5.216,7.982,3.708,9.929,2.836A7.267,7.267,0,0,1,27.893,49.2c-7.578-.863-15.545-3.788-15.545-16.862a13.2,13.2,0,0,1,3.515-9.158,12.26,12.26,0,0,1,.331-9.029s2.865-.917,9.385,3.5a32.363,32.363,0,0,1,17.087,0c6.512-4.414,9.373-3.5,9.373-3.5a12.244,12.244,0,0,1,.335,9.029,13.179,13.179,0,0,1,3.511,9.158c0,13.1-7.982,15.99-15.579,16.835,1.224,1.059,2.314,3.135,2.314,6.318,0,4.565-.039,8.239-.039,9.363,0,.908.614,1.972,2.344,1.637A34.124,34.124,0,0,0,34.119,0ZM12.779,48.6c-.075.17-.342.22-.585.1s-.386-.342-.306-.512.341-.223.588-.106S12.865,48.433,12.779,48.6Zm1.678,1.5c-.163.151-.481.081-.7-.158a.522.522,0,0,1-.1-.709c.168-.151.476-.08.7.158S14.627,49.948,14.457,50.1Zm1.151,1.916c-.209.145-.551.009-.762-.294s-.209-.667,0-.813.549-.015.763.286S15.822,51.868,15.608,52.017Zm1.947,2.219c-.187.206-.585.151-.877-.13s-.381-.666-.194-.872.59-.149.884.131S17.755,54.032,17.555,54.236Zm2.517.749c-.083.267-.466.389-.853.275s-.638-.43-.56-.7.466-.4.855-.274S20.152,54.713,20.072,54.985Zm2.864.318c.01.281-.318.515-.724.52s-.738-.219-.742-.5.32-.515.728-.522S22.936,55.023,22.936,55.3Zm2.814-.108c.049.275-.233.557-.636.632s-.763-.1-.813-.369.238-.563.633-.636S25.7,54.916,25.749,55.195Z" transform="translate(459.853 16403.486) rotate(-20)" fill="#161614"/>
    <g id="Group_117" data-name="Group 117" transform="translate(317.791 16439.469)">
      <path id="ed382d2a263c46a" d="M318.7,36.442a21.642,21.642,0,0,1-1.39,7.632,21.669,21.669,0,0,1-7.632,1.388h-.032a21.651,21.651,0,0,1-7.635-1.39,21.619,21.619,0,0,1-1.389-7.631v-.034a21.642,21.642,0,0,1,1.386-7.632,21.6,21.6,0,0,1,7.634-1.389h.03a21.563,21.563,0,0,1,7.632,1.389,21.607,21.607,0,0,1,1.389,7.632v.034h0ZM345.305,30.4h-21.1l14.917-14.918a36.29,36.29,0,0,0-8.52-8.518L315.686,21.882V.783a36.317,36.317,0,0,0-6-.5h-.039a36.2,36.2,0,0,0-6,.5v21.1L288.716,6.963a36.1,36.1,0,0,0-4.611,3.9l-.007.007a36.37,36.37,0,0,0-3.9,4.611L295.122,30.4h-21.1s-.5,3.964-.5,6.013v.025a36.159,36.159,0,0,0,.5,6.011h21.1L280.2,57.364a36.4,36.4,0,0,0,8.521,8.52l14.92-14.917v21.1a36.477,36.477,0,0,0,6,.5h.051a36.469,36.469,0,0,0,6-.5v-21.1l14.921,14.92a36.433,36.433,0,0,0,4.614-3.9h0a36.488,36.488,0,0,0,3.9-4.615L324.2,42.45h21.1a36.276,36.276,0,0,0,.5-6V36.4a36.325,36.325,0,0,0-.5-6v0Z" transform="translate(-273.518 -0.28)" fill="#ff4a00"/>
    </g>
    <path id="Path_257" data-name="Path 257" d="M6911.213,20383s86.5-61,179.182-26.58,167.707,92.682,263.918,35.307" transform="translate(-6007.024 -4042.568)" fill="none" stroke="#bfbfbf" stroke-width="1.5" stroke-dasharray="3"/>
    <path id="Path_258" data-name="Path 258" d="M0,37.886S68.258-20.378,156.2,7.6,257.211,142.152,375.667,119.656" transform="matrix(-0.999, -0.035, 0.035, -0.999, 1270.154, 16533.92)" fill="none" stroke="#bfbfbf" stroke-width="1.5" stroke-dasharray="3"/>
    <path id="Path_259" data-name="Path 259" d="M0,106.682s46.616,36.447,111.456,8.467S185.935-19.4,273.276,3.1" transform="translate(897.109 16260.063) rotate(-7)" fill="none" stroke="#bfbfbf" stroke-width="1.5" stroke-dasharray="3"/>
    <path id="Path_260" data-name="Path 260" d="M0,116.534s23.1,19.743,74.443-7.8S143.306-16.975,205.633,2.549" transform="matrix(0.875, 0.485, -0.485, 0.875, 949.216, 16318.741)" fill="none" stroke="#bfbfbf" stroke-width="1.5" stroke-dasharray="3"/>
    <g id="Group_119" data-name="Group 119" transform="translate(317.791 16226.758)">
      <path id="Path_262" data-name="Path 262" d="M7354.313,20383s-86.5-61-179.182-26.58-167.706,92.682-263.918,35.307" transform="translate(-6911.213 -20269.326)" fill="none" stroke="#bfbfbf" stroke-width="1.5" stroke-dasharray="3"/>
      <path id="Path_264" data-name="Path 264" d="M0,84.865s68.258,58.264,156.2,30.285S257.211-19.4,375.667,3.1" transform="matrix(0.999, -0.035, 0.035, 0.999, 72.851, 184.486)" fill="none" stroke="#bfbfbf" stroke-width="1.5" stroke-dasharray="3"/>
      <path id="Path_263" data-name="Path 263" d="M0,19.032s46.616-36.447,111.456-8.467,74.479,134.551,161.82,112.054" transform="translate(434.859 158.081) rotate(-173)" fill="none" stroke="#bfbfbf" stroke-width="1.5" stroke-dasharray="3"/>
      <path id="Path_261" data-name="Path 261" d="M0,6.042s24.254-17.413,78.146,6.881,51.093,126.159,116.52,108.939" transform="matrix(-0.875, 0.485, -0.485, -0.875, 457.892, 199.898)" fill="none" stroke="#bfbfbf" stroke-width="1.5" stroke-dasharray="3"/>
    </g>
    <g transform="matrix(1, 0, 0, 1, 205.53, 16173.1)" filter="url(#Ellipse_47)">
      <circle id="Ellipse_47-2" data-name="Ellipse 47" cx="108.233" cy="108.233" r="108.233" transform="translate(519.38 92.21)" fill="#fff"/>
    </g>
    <g id="Group_114" data-name="Group 114" transform="translate(788.224 16312.272)">
      <path id="Path_12" data-name="Path 12" d="M51.77,28.6A42.767,42.767,0,1,0,82.038,41.126,42.8,42.8,0,0,0,51.77,28.6Zm0,72.162A29.367,29.367,0,1,1,81.138,71.395,29.367,29.367,0,0,1,51.77,100.762Z" transform="translate(-8.973 -3.376)"/>
      <path id="Path_13" data-name="Path 13" d="M47.556,25.964S46.426,7.264,72.28,6.512C72.28,6.512,72.28,26.465,47.556,25.964Z" transform="translate(-3.502 -6.512)" fill="#f16901"/>
    </g>
  </g>
</svg>
