<svg xmlns="http://www.w3.org/2000/svg" xmlns:xlink="http://www.w3.org/1999/xlink" width="236" height="236" viewBox="0 0 236 236">
  <defs>
    <filter id="Ellipse_101" x="0" y="0" width="236" height="236" filterUnits="userSpaceOnUse">
      <feOffset dy="26" input="SourceAlpha"/>
      <feGaussianBlur stdDeviation="12.5" result="blur"/>
      <feFlood flood-color="#ebdfdb" flood-opacity="0.412"/>
      <feComposite operator="in" in2="blur"/>
      <feComposite in="SourceGraphic"/>
    </filter>
    <filter id="Ellipse_101-2" x="13" y="13" width="210" height="210" filterUnits="userSpaceOnUse">
      <feOffset dy="26" input="SourceAlpha"/>
      <feGaussianBlur stdDeviation="12.5" result="blur-2"/>
      <feFlood flood-color="#ebdfdb" flood-opacity="0.412"/>
      <feComposite operator="in" in2="blur-2"/>
      <feComposite in="SourceGraphic"/>
    </filter>
  </defs>
  <g id="Group_710" data-name="Group 710" transform="translate(-815.5 -4036.5)">
    <g id="Group_519" data-name="Group 519" transform="translate(17 25)">
      <g transform="matrix(1, 0, 0, 1, 798.5, 4011.5)" filter="url(#Ellipse_101)">
        <g id="Ellipse_101-3" data-name="Ellipse 101" transform="translate(37.5 11.5)" fill="#fff" stroke="#fff" stroke-width="3">
          <circle cx="80.5" cy="80.5" r="80.5" stroke="none"/>
          <circle cx="80.5" cy="80.5" r="79" fill="none"/>
        </g>
      </g>
      <g id="Group_515" data-name="Group 515" transform="translate(-43.384 -278.47)">
        <path id="Path_438" data-name="Path 438" d="M21.773,45.9a2.228,2.228,0,0,0,3.058-.6,19.294,19.294,0,0,1,32.019,0A2.262,2.262,0,1,0,60.626,42.8a23.674,23.674,0,0,0-11.667-9.062,12.536,12.536,0,1,0-15.9,0,23.637,23.637,0,0,0-11.818,9.175,2.228,2.228,0,0,0,.529,2.983ZM40.954,15.883a8.08,8.08,0,1,1-8.08,8.08,8.08,8.08,0,0,1,8.08-8.08ZM49.789,50.7l-3.323,2.379a1.4,1.4,0,0,0-.491,1.548L47.3,58.4a1.4,1.4,0,0,1,0,.491,1.473,1.473,0,0,1-2.3,1.057l-3.323-2.379a1.4,1.4,0,0,0-1.661,0l-3.323,2.379a1.473,1.473,0,0,1-2.3-1.057,1.435,1.435,0,0,1,0-.491l1.322-3.776a1.4,1.4,0,0,0-.491-1.548L31.892,50.7a1.51,1.51,0,0,1,.831-2.681h4.455a1.284,1.284,0,0,0,1.322-.793l1.246-3.776a1.4,1.4,0,0,1,2.681,0l1.246,3.776a1.284,1.284,0,0,0,1.322.793h4.078a1.51,1.51,0,0,1,.717,2.719Zm18.879,7.74-3.323,2.379a1.4,1.4,0,0,0-.491,1.548l1.322,3.776a1.4,1.4,0,0,1,0,.491,1.473,1.473,0,0,1-2.3,1.057L60.55,65.308a1.4,1.4,0,0,0-1.661,0l-3.323,2.379a1.473,1.473,0,0,1-2.3-1.057,1.435,1.435,0,0,1,0-.491l1.322-3.776a1.4,1.4,0,0,0-.491-1.548l-3.021-2.152a1.51,1.51,0,0,1,.831-2.681h4.153a1.284,1.284,0,0,0,1.322-.793l1.246-3.776a1.4,1.4,0,0,1,2.681,0l1.246,3.776a1.284,1.284,0,0,0,1.322.793h4.078a1.51,1.51,0,0,1,.793,2.492Zm-37.758,0-3.323,2.379a1.4,1.4,0,0,0-.491,1.548l1.322,3.776a1.4,1.4,0,0,1,0,.491,1.473,1.473,0,0,1-2.3,1.057l-3.323-2.379a1.4,1.4,0,0,0-1.661,0l-3.323,2.379a1.473,1.473,0,0,1-2.3-1.057,1.435,1.435,0,0,1,0-.491l1.322-3.776a1.4,1.4,0,0,0-.491-1.548l-3.323-2.379a1.51,1.51,0,0,1,.831-2.681h4.078a1.284,1.284,0,0,0,1.322-.793l1.246-3.776a1.4,1.4,0,0,1,2.681,0l1.246,3.776a1.284,1.284,0,0,0,1.322.793H30a1.51,1.51,0,0,1,.831,2.719Z" transform="translate(918.933 4341.957)" fill="#2f63f9"/>
      </g>
    </g>
    <g id="Group_522" data-name="Group 522" transform="translate(30 38)">
      <g transform="matrix(1, 0, 0, 1, 785.5, 3998.5)" filter="url(#Ellipse_101-2)">
        <g id="Ellipse_101-4" data-name="Ellipse 101" transform="translate(50.5 24.5)" fill="#fff" stroke="#fff" stroke-width="3">
          <circle cx="67.5" cy="67.5" r="67.5" stroke="none"/>
          <circle cx="67.5" cy="67.5" r="66" fill="none"/>
        </g>
      </g>
      <g id="Group_515-2" data-name="Group 515" transform="translate(879.603 4066.603)">
        <path id="Path_438-2" data-name="Path 438" d="M20.267,40.347a1.868,1.868,0,0,0,2.564-.507,16.178,16.178,0,0,1,26.848,0,1.9,1.9,0,1,0,3.166-2.09,19.851,19.851,0,0,0-9.783-7.6,10.511,10.511,0,1,0-13.329,0,19.819,19.819,0,0,0-9.91,7.693,1.868,1.868,0,0,0,.443,2.5Zm16.084-25.17a6.775,6.775,0,1,1-6.775,6.775,6.775,6.775,0,0,1,6.775-6.775Zm7.409,29.191-2.786,1.995a1.171,1.171,0,0,0-.412,1.3l1.108,3.166a1.171,1.171,0,0,1,0,.412,1.235,1.235,0,0,1-1.931.886L36.952,50.13a1.171,1.171,0,0,0-1.393,0l-2.786,1.995a1.235,1.235,0,0,1-1.931-.886,1.2,1.2,0,0,1,0-.412l1.108-3.166a1.171,1.171,0,0,0-.412-1.3l-2.786-1.995a1.266,1.266,0,0,1,.7-2.248h3.736a1.076,1.076,0,0,0,1.108-.665l1.045-3.166a1.171,1.171,0,0,1,2.248,0l1.045,3.166a1.076,1.076,0,0,0,1.108.665h3.419a1.266,1.266,0,0,1,.6,2.28Zm15.83,6.49L56.8,52.853a1.171,1.171,0,0,0-.412,1.3L57.5,57.317a1.171,1.171,0,0,1,0,.412,1.235,1.235,0,0,1-1.931.887L52.783,56.62a1.171,1.171,0,0,0-1.393,0L48.6,58.615a1.235,1.235,0,0,1-1.931-.886,1.2,1.2,0,0,1,0-.412l1.108-3.166a1.171,1.171,0,0,0-.412-1.3l-2.533-1.8a1.266,1.266,0,0,1,.7-2.248h3.483a1.076,1.076,0,0,0,1.108-.665l1.045-3.166a1.171,1.171,0,0,1,2.248,0l1.045,3.166a1.076,1.076,0,0,0,1.108.665h3.419a1.266,1.266,0,0,1,.665,2.09Zm-31.66,0-2.786,1.995a1.171,1.171,0,0,0-.412,1.3l1.108,3.166a1.171,1.171,0,0,1,0,.412,1.235,1.235,0,0,1-1.931.886L21.122,56.62a1.171,1.171,0,0,0-1.393,0l-2.786,1.995a1.235,1.235,0,0,1-1.931-.886,1.2,1.2,0,0,1,0-.412l1.108-3.166a1.171,1.171,0,0,0-.412-1.3l-2.786-1.995a1.266,1.266,0,0,1,.7-2.248h3.419a1.076,1.076,0,0,0,1.108-.665l1.045-3.166a1.171,1.171,0,0,1,2.248,0l1.045,3.166a1.076,1.076,0,0,0,1.108.665h3.578a1.266,1.266,0,0,1,.7,2.28Z" transform="translate(-12.451 -11.513)" fill="#2f63f9"/>
      </g>
    </g>
  </g>
</svg>
