<svg xmlns="http://www.w3.org/2000/svg" xmlns:xlink="http://www.w3.org/1999/xlink" width="182" height="353" viewBox="0 0 182 353">
  <defs>
    <clipPath id="clip-path">
      <rect id="Rectangle_547" data-name="Rectangle 547" width="182" height="353" transform="translate(0 183)" fill="#fff" stroke="#707070" stroke-width="1"/>
    </clipPath>
    <clipPath id="clip-path-2">
      <rect width="145" height="161" fill="none"/>
    </clipPath>
  </defs>
  <g id="Mask_Group_78" data-name="Mask Group 78" transform="translate(0 -183)" clip-path="url(#clip-path)">
    <g id="Group_735" data-name="Group 735">
      <g id="Repeat_Grid_66" data-name="Repeat Grid 66" transform="translate(37 199)" clip-path="url(#clip-path-2)">
        <g transform="translate(-1421 -279)">
          <circle id="Ellipse_1" data-name="Ellipse 1" cx="1.5" cy="1.5" r="1.5" transform="translate(1421 279)" fill="#e6a37c"/>
        </g>
        <g transform="translate(-1400 -279)">
          <circle id="Ellipse_1-2" data-name="Ellipse 1" cx="1.5" cy="1.5" r="1.5" transform="translate(1421 279)" fill="#e6a37c"/>
        </g>
        <g transform="translate(-1379 -279)">
          <circle id="Ellipse_1-3" data-name="Ellipse 1" cx="1.5" cy="1.5" r="1.5" transform="translate(1421 279)" fill="#e6a37c"/>
        </g>
        <g transform="translate(-1358 -279)">
          <circle id="Ellipse_1-4" data-name="Ellipse 1" cx="1.5" cy="1.5" r="1.5" transform="translate(1421 279)" fill="#e6a37c"/>
        </g>
        <g transform="translate(-1337 -279)">
          <circle id="Ellipse_1-5" data-name="Ellipse 1" cx="1.5" cy="1.5" r="1.5" transform="translate(1421 279)" fill="#e6a37c"/>
        </g>
        <g transform="translate(-1316 -279)">
          <circle id="Ellipse_1-6" data-name="Ellipse 1" cx="1.5" cy="1.5" r="1.5" transform="translate(1421 279)" fill="#e6a37c"/>
        </g>
        <g transform="translate(-1295 -279)">
          <circle id="Ellipse_1-7" data-name="Ellipse 1" cx="1.5" cy="1.5" r="1.5" transform="translate(1421 279)" fill="#e6a37c"/>
        </g>
        <g transform="translate(-1421 -258)">
          <circle id="Ellipse_1-8" data-name="Ellipse 1" cx="1.5" cy="1.5" r="1.5" transform="translate(1421 279)" fill="#e6a37c"/>
        </g>
        <g transform="translate(-1400 -258)">
          <circle id="Ellipse_1-9" data-name="Ellipse 1" cx="1.5" cy="1.5" r="1.5" transform="translate(1421 279)" fill="#e6a37c"/>
        </g>
        <g transform="translate(-1379 -258)">
          <circle id="Ellipse_1-10" data-name="Ellipse 1" cx="1.5" cy="1.5" r="1.5" transform="translate(1421 279)" fill="#e6a37c"/>
        </g>
        <g transform="translate(-1358 -258)">
          <circle id="Ellipse_1-11" data-name="Ellipse 1" cx="1.5" cy="1.5" r="1.5" transform="translate(1421 279)" fill="#e6a37c"/>
        </g>
        <g transform="translate(-1337 -258)">
          <circle id="Ellipse_1-12" data-name="Ellipse 1" cx="1.5" cy="1.5" r="1.5" transform="translate(1421 279)" fill="#e6a37c"/>
        </g>
        <g transform="translate(-1316 -258)">
          <circle id="Ellipse_1-13" data-name="Ellipse 1" cx="1.5" cy="1.5" r="1.5" transform="translate(1421 279)" fill="#e6a37c"/>
        </g>
        <g transform="translate(-1295 -258)">
          <circle id="Ellipse_1-14" data-name="Ellipse 1" cx="1.5" cy="1.5" r="1.5" transform="translate(1421 279)" fill="#e6a37c"/>
        </g>
        <g transform="translate(-1421 -237)">
          <circle id="Ellipse_1-15" data-name="Ellipse 1" cx="1.5" cy="1.5" r="1.5" transform="translate(1421 279)" fill="#e6a37c"/>
        </g>
        <g transform="translate(-1400 -237)">
          <circle id="Ellipse_1-16" data-name="Ellipse 1" cx="1.5" cy="1.5" r="1.5" transform="translate(1421 279)" fill="#e6a37c"/>
        </g>
        <g transform="translate(-1379 -237)">
          <circle id="Ellipse_1-17" data-name="Ellipse 1" cx="1.5" cy="1.5" r="1.5" transform="translate(1421 279)" fill="#e6a37c"/>
        </g>
        <g transform="translate(-1358 -237)">
          <circle id="Ellipse_1-18" data-name="Ellipse 1" cx="1.5" cy="1.5" r="1.5" transform="translate(1421 279)" fill="#e6a37c"/>
        </g>
        <g transform="translate(-1337 -237)">
          <circle id="Ellipse_1-19" data-name="Ellipse 1" cx="1.5" cy="1.5" r="1.5" transform="translate(1421 279)" fill="#e6a37c"/>
        </g>
        <g transform="translate(-1316 -237)">
          <circle id="Ellipse_1-20" data-name="Ellipse 1" cx="1.5" cy="1.5" r="1.5" transform="translate(1421 279)" fill="#e6a37c"/>
        </g>
        <g transform="translate(-1295 -237)">
          <circle id="Ellipse_1-21" data-name="Ellipse 1" cx="1.5" cy="1.5" r="1.5" transform="translate(1421 279)" fill="#e6a37c"/>
        </g>
        <g transform="translate(-1421 -216)">
          <circle id="Ellipse_1-22" data-name="Ellipse 1" cx="1.5" cy="1.5" r="1.5" transform="translate(1421 279)" fill="#e6a37c"/>
        </g>
        <g transform="translate(-1400 -216)">
          <circle id="Ellipse_1-23" data-name="Ellipse 1" cx="1.5" cy="1.5" r="1.5" transform="translate(1421 279)" fill="#e6a37c"/>
        </g>
        <g transform="translate(-1379 -216)">
          <circle id="Ellipse_1-24" data-name="Ellipse 1" cx="1.5" cy="1.5" r="1.5" transform="translate(1421 279)" fill="#e6a37c"/>
        </g>
        <g transform="translate(-1358 -216)">
          <circle id="Ellipse_1-25" data-name="Ellipse 1" cx="1.5" cy="1.5" r="1.5" transform="translate(1421 279)" fill="#e6a37c"/>
        </g>
        <g transform="translate(-1337 -216)">
          <circle id="Ellipse_1-26" data-name="Ellipse 1" cx="1.5" cy="1.5" r="1.5" transform="translate(1421 279)" fill="#e6a37c"/>
        </g>
        <g transform="translate(-1316 -216)">
          <circle id="Ellipse_1-27" data-name="Ellipse 1" cx="1.5" cy="1.5" r="1.5" transform="translate(1421 279)" fill="#e6a37c"/>
        </g>
        <g transform="translate(-1295 -216)">
          <circle id="Ellipse_1-28" data-name="Ellipse 1" cx="1.5" cy="1.5" r="1.5" transform="translate(1421 279)" fill="#e6a37c"/>
        </g>
        <g transform="translate(-1421 -195)">
          <circle id="Ellipse_1-29" data-name="Ellipse 1" cx="1.5" cy="1.5" r="1.5" transform="translate(1421 279)" fill="#e6a37c"/>
        </g>
        <g transform="translate(-1400 -195)">
          <circle id="Ellipse_1-30" data-name="Ellipse 1" cx="1.5" cy="1.5" r="1.5" transform="translate(1421 279)" fill="#e6a37c"/>
        </g>
        <g transform="translate(-1379 -195)">
          <circle id="Ellipse_1-31" data-name="Ellipse 1" cx="1.5" cy="1.5" r="1.5" transform="translate(1421 279)" fill="#e6a37c"/>
        </g>
        <g transform="translate(-1358 -195)">
          <circle id="Ellipse_1-32" data-name="Ellipse 1" cx="1.5" cy="1.5" r="1.5" transform="translate(1421 279)" fill="#e6a37c"/>
        </g>
        <g transform="translate(-1337 -195)">
          <circle id="Ellipse_1-33" data-name="Ellipse 1" cx="1.5" cy="1.5" r="1.5" transform="translate(1421 279)" fill="#e6a37c"/>
        </g>
        <g transform="translate(-1316 -195)">
          <circle id="Ellipse_1-34" data-name="Ellipse 1" cx="1.5" cy="1.5" r="1.5" transform="translate(1421 279)" fill="#e6a37c"/>
        </g>
        <g transform="translate(-1295 -195)">
          <circle id="Ellipse_1-35" data-name="Ellipse 1" cx="1.5" cy="1.5" r="1.5" transform="translate(1421 279)" fill="#e6a37c"/>
        </g>
        <g transform="translate(-1421 -174)">
          <circle id="Ellipse_1-36" data-name="Ellipse 1" cx="1.5" cy="1.5" r="1.5" transform="translate(1421 279)" fill="#e6a37c"/>
        </g>
        <g transform="translate(-1400 -174)">
          <circle id="Ellipse_1-37" data-name="Ellipse 1" cx="1.5" cy="1.5" r="1.5" transform="translate(1421 279)" fill="#e6a37c"/>
        </g>
        <g transform="translate(-1379 -174)">
          <circle id="Ellipse_1-38" data-name="Ellipse 1" cx="1.5" cy="1.5" r="1.5" transform="translate(1421 279)" fill="#e6a37c"/>
        </g>
        <g transform="translate(-1358 -174)">
          <circle id="Ellipse_1-39" data-name="Ellipse 1" cx="1.5" cy="1.5" r="1.5" transform="translate(1421 279)" fill="#e6a37c"/>
        </g>
        <g transform="translate(-1337 -174)">
          <circle id="Ellipse_1-40" data-name="Ellipse 1" cx="1.5" cy="1.5" r="1.5" transform="translate(1421 279)" fill="#e6a37c"/>
        </g>
        <g transform="translate(-1316 -174)">
          <circle id="Ellipse_1-41" data-name="Ellipse 1" cx="1.5" cy="1.5" r="1.5" transform="translate(1421 279)" fill="#e6a37c"/>
        </g>
        <g transform="translate(-1295 -174)">
          <circle id="Ellipse_1-42" data-name="Ellipse 1" cx="1.5" cy="1.5" r="1.5" transform="translate(1421 279)" fill="#e6a37c"/>
        </g>
        <g transform="translate(-1421 -153)">
          <circle id="Ellipse_1-43" data-name="Ellipse 1" cx="1.5" cy="1.5" r="1.5" transform="translate(1421 279)" fill="#e6a37c"/>
        </g>
        <g transform="translate(-1400 -153)">
          <circle id="Ellipse_1-44" data-name="Ellipse 1" cx="1.5" cy="1.5" r="1.5" transform="translate(1421 279)" fill="#e6a37c"/>
        </g>
        <g transform="translate(-1379 -153)">
          <circle id="Ellipse_1-45" data-name="Ellipse 1" cx="1.5" cy="1.5" r="1.5" transform="translate(1421 279)" fill="#e6a37c"/>
        </g>
        <g transform="translate(-1358 -153)">
          <circle id="Ellipse_1-46" data-name="Ellipse 1" cx="1.5" cy="1.5" r="1.5" transform="translate(1421 279)" fill="#e6a37c"/>
        </g>
        <g transform="translate(-1337 -153)">
          <circle id="Ellipse_1-47" data-name="Ellipse 1" cx="1.5" cy="1.5" r="1.5" transform="translate(1421 279)" fill="#e6a37c"/>
        </g>
        <g transform="translate(-1316 -153)">
          <circle id="Ellipse_1-48" data-name="Ellipse 1" cx="1.5" cy="1.5" r="1.5" transform="translate(1421 279)" fill="#e6a37c"/>
        </g>
        <g transform="translate(-1295 -153)">
          <circle id="Ellipse_1-49" data-name="Ellipse 1" cx="1.5" cy="1.5" r="1.5" transform="translate(1421 279)" fill="#e6a37c"/>
        </g>
        <g transform="translate(-1421 -132)">
          <circle id="Ellipse_1-50" data-name="Ellipse 1" cx="1.5" cy="1.5" r="1.5" transform="translate(1421 279)" fill="#e6a37c"/>
        </g>
        <g transform="translate(-1400 -132)">
          <circle id="Ellipse_1-51" data-name="Ellipse 1" cx="1.5" cy="1.5" r="1.5" transform="translate(1421 279)" fill="#e6a37c"/>
        </g>
        <g transform="translate(-1379 -132)">
          <circle id="Ellipse_1-52" data-name="Ellipse 1" cx="1.5" cy="1.5" r="1.5" transform="translate(1421 279)" fill="#e6a37c"/>
        </g>
        <g transform="translate(-1358 -132)">
          <circle id="Ellipse_1-53" data-name="Ellipse 1" cx="1.5" cy="1.5" r="1.5" transform="translate(1421 279)" fill="#e6a37c"/>
        </g>
        <g transform="translate(-1337 -132)">
          <circle id="Ellipse_1-54" data-name="Ellipse 1" cx="1.5" cy="1.5" r="1.5" transform="translate(1421 279)" fill="#e6a37c"/>
        </g>
        <g transform="translate(-1316 -132)">
          <circle id="Ellipse_1-55" data-name="Ellipse 1" cx="1.5" cy="1.5" r="1.5" transform="translate(1421 279)" fill="#e6a37c"/>
        </g>
        <g transform="translate(-1295 -132)">
          <circle id="Ellipse_1-56" data-name="Ellipse 1" cx="1.5" cy="1.5" r="1.5" transform="translate(1421 279)" fill="#e6a37c"/>
        </g>
      </g>
      <g id="Ellipse_94" data-name="Ellipse 94" transform="translate(-171 189)" fill="none" stroke="#f6cfbc" stroke-width="1">
        <circle cx="171" cy="171" r="171" stroke="none"/>
        <circle cx="171" cy="171" r="170.5" fill="none"/>
      </g>
    </g>
  </g>
</svg>
