<svg xmlns="http://www.w3.org/2000/svg" xmlns:xlink="http://www.w3.org/1999/xlink" width="236" height="236" viewBox="0 0 236 236">
  <defs>
    <filter id="Ellipse_101" x="0" y="0" width="236" height="236" filterUnits="userSpaceOnUse">
      <feOffset dy="26" input="SourceAlpha"/>
      <feGaussianBlur stdDeviation="12.5" result="blur"/>
      <feFlood flood-color="#ebdfdb" flood-opacity="0.412"/>
      <feComposite operator="in" in2="blur"/>
      <feComposite in="SourceGraphic"/>
    </filter>
    <filter id="Ellipse_101-2" x="13" y="13" width="210" height="210" filterUnits="userSpaceOnUse">
      <feOffset dy="26" input="SourceAlpha"/>
      <feGaussianBlur stdDeviation="12.5" result="blur-2"/>
      <feFlood flood-color="#ebdfdb" flood-opacity="0.412"/>
      <feComposite operator="in" in2="blur-2"/>
      <feComposite in="SourceGraphic"/>
    </filter>
  </defs>
  <g id="Group_730" data-name="Group 730" transform="translate(-549.5 -4036.5)">
    <g id="Group_514" data-name="Group 514" transform="translate(36.244 -216.459)">
      <path id="Path_425" data-name="Path 425" d="M23.351,29.953a6.767,6.767,0,1,1,3.941-12.9l-1.45,1.859,7.139-.335-.93-7.065-1.636,1.971A11.638,11.638,0,1,0,20.9,34.415a22.309,22.309,0,0,1,2.454-4.462Z" transform="translate(590.362 4305.949)" fill="#2f63f9"/>
      <path id="Path_426" data-name="Path 426" d="M19.836,46.381l3.086-6.433-2.231.669A17.327,17.327,0,1,1,39.023,53.632H51.591a22.31,22.31,0,1,0-35.361-11.6l-2.38.744Z" transform="translate(594.361 4312.24)" fill="#2f63f9"/>
      <path id="Path_427" data-name="Path 427" d="M68.735,28.734,63.492,23.9v2.38H13.407a.967.967,0,0,0-.967.967v2.975a.967.967,0,0,0,.967.967H63.492v2.38Z" transform="translate(590.528 4339.63)" fill="#2f63f9"/>
      <path id="Path_428" data-name="Path 428" d="M13.89,28.481V25.507a.967.967,0,0,1,.967-.967h-1.45a.967.967,0,0,0-.967.967v2.975a.967.967,0,0,0,.967.967h1.45A.967.967,0,0,1,13.89,28.481Z" transform="translate(590.528 4341.369)" fill="#2f63f9"/>
    </g>
    <g id="Group_729" data-name="Group 729">
      <g transform="matrix(1, 0, 0, 1, 549.5, 4036.5)" filter="url(#Ellipse_101)">
        <g id="Ellipse_101-3" data-name="Ellipse 101" transform="translate(37.5 11.5)" fill="#fff" stroke="#fff" stroke-width="3">
          <circle cx="80.5" cy="80.5" r="80.5" stroke="none"/>
          <circle cx="80.5" cy="80.5" r="79" fill="none"/>
        </g>
      </g>
      <g transform="matrix(1, 0, 0, 1, 549.5, 4036.5)" filter="url(#Ellipse_101-2)">
        <g id="Ellipse_101-4" data-name="Ellipse 101" transform="translate(50.5 24.5)" fill="#fff" stroke="#fff" stroke-width="3">
          <circle cx="67.5" cy="67.5" r="67.5" stroke="none"/>
          <circle cx="67.5" cy="67.5" r="66" fill="none"/>
        </g>
      </g>
    </g>
    <g id="Group_514-2" data-name="Group 514" transform="translate(643.591 4105.441)">
      <path id="Path_425-2" data-name="Path 425" d="M21.579,26.974a5.674,5.674,0,1,1,3.3-10.819l-1.216,1.559,5.986-.281-.779-5.924L27.5,13.162a9.759,9.759,0,1,0-7.982,17.553,18.707,18.707,0,0,1,2.058-3.741Z" transform="translate(-12.379 -11.51)" fill="#2f63f9"/>
      <path id="Path_426-2" data-name="Path 426" d="M18.87,41.124l2.588-5.394-1.871.561A14.529,14.529,0,1,1,34.958,47.2H45.5a18.707,18.707,0,1,0-29.651-9.728l-2,.624Z" transform="translate(-9.264 -6.608)" fill="#2f63f9"/>
      <path id="Path_427-2" data-name="Path 427" d="M59.644,27.953l-4.4-4.053v2h-42a.811.811,0,0,0-.811.811V29.2a.811.811,0,0,0,.811.811h42v2Z" transform="translate(-12.25 14.731)" fill="#2f63f9"/>
      <path id="Path_428-2" data-name="Path 428" d="M13.656,27.845V25.351a.811.811,0,0,1,.811-.811H13.251a.811.811,0,0,0-.811.811v2.494a.811.811,0,0,0,.811.811h1.216A.811.811,0,0,1,13.656,27.845Z" transform="translate(-12.25 16.085)" fill="#2f63f9"/>
    </g>
  </g>
</svg>
