<svg xmlns="http://www.w3.org/2000/svg" xmlns:xlink="http://www.w3.org/1999/xlink" width="107" height="107" viewBox="0 0 107 107">
  <defs>
    <filter id="Ellipse_22" x="0" y="0" width="107" height="107" filterUnits="userSpaceOnUse">
      <feOffset dx="6" dy="6" input="SourceAlpha"/>
      <feGaussianBlur stdDeviation="7.5" result="blur"/>
      <feFlood flood-opacity="0.059"/>
      <feComposite operator="in" in2="blur"/>
      <feComposite in="SourceGraphic"/>
    </filter>
    <filter id="Ellipse_19" x="5" y="5" width="97" height="97" filterUnits="userSpaceOnUse">
      <feOffset dx="6" dy="6" input="SourceAlpha"/>
      <feGaussianBlur stdDeviation="7.5" result="blur-2"/>
      <feFlood flood-opacity="0.059"/>
      <feComposite operator="in" in2="blur-2"/>
      <feComposite in="SourceGraphic"/>
    </filter>
  </defs>
  <g id="Group_152" data-name="Group 152" transform="translate(-1080.5 -840.5)">
    <g transform="matrix(1, 0, 0, 1, 1080.5, 840.5)" filter="url(#Ellipse_22)">
      <circle id="Ellipse_22-2" data-name="Ellipse 22" cx="31" cy="31" r="31" transform="translate(16.5 16.5)" fill="#f1f1f1"/>
    </g>
    <g transform="matrix(1, 0, 0, 1, 1080.5, 840.5)" filter="url(#Ellipse_19)">
      <circle id="Ellipse_19-2" data-name="Ellipse 19" cx="26" cy="26" r="26" transform="translate(21.5 21.5)" fill="#fff"/>
    </g>
    <path id="Union_4" data-name="Union 4" d="M-12347.074,23.641a1.135,1.135,0,0,1-1.241-1.081,2.78,2.78,0,0,1,.018-.849,1.121,1.121,0,0,1,.96-.955,5.338,5.338,0,0,1,1.023-.035c.188.005.379.01.567.005a9.353,9.353,0,0,0,8.228-4.368,7.411,7.411,0,0,0,1.166-3.516c.057-.533.146-1.06.239-1.588a5.351,5.351,0,0,0-.27-2.511,9.3,9.3,0,0,0-7.524-6.825,9.561,9.561,0,0,0-11.159,7.84,9.53,9.53,0,0,0,.182,2.806c.172,1.259.377,2.512.546,3.769a.953.953,0,0,1-.7,1.155,3.905,3.905,0,0,1-1.732.313,2.822,2.822,0,0,1-1.919-1.119,6,6,0,0,1-1.287-3.427,6.326,6.326,0,0,1,.34-2.7,3.419,3.419,0,0,1,2.521-2.39,1.056,1.056,0,0,0,.88-.808,10.948,10.948,0,0,1,8.862-7.2,10.988,10.988,0,0,1,10.01,3.364,10.623,10.623,0,0,1,2.528,4.215.45.45,0,0,0,.454.373,2.864,2.864,0,0,1,2.478,1.723,6.329,6.329,0,0,1-.6,6.813,2.772,2.772,0,0,1-1.857,1.161,3.079,3.079,0,0,1-1.4-.207.479.479,0,0,0-.626.212,11.205,11.205,0,0,1-6.163,4.3.413.413,0,0,0-.354.4,1.13,1.13,0,0,1-1.285,1.129l-1.443,0C-12346.11,23.645-12346.593,23.644-12347.074,23.641Zm-4.484-4.09a.747.747,0,0,1-.247-.825c.132-.593.259-1.19.4-1.781a.5.5,0,0,0-.127-.509,7.54,7.54,0,0,1-1.933-5.137,7.7,7.7,0,0,1,6.788-7.757c.36-.047.718-.044,1.039-.055a7.673,7.673,0,0,1,7.765,6.416,7.718,7.718,0,0,1-6.327,9.048,7.847,7.847,0,0,1-4.27-.408.673.673,0,0,0-.627.049c-.548.316-1.106.618-1.662.923a1.022,1.022,0,0,1-.474.155A.521.521,0,0,1-12351.559,19.551Zm8.5-8.3a1.416,1.416,0,0,0,1.4,1.44,1.4,1.4,0,0,0,1.445-1.4,1.426,1.426,0,0,0-1.418-1.464h-.007A1.426,1.426,0,0,0-12343.056,11.254Zm-3.99,0a1.429,1.429,0,0,0,1.443,1.44,1.436,1.436,0,0,0,1.438-1.412,1.449,1.449,0,0,0-1.444-1.449A1.447,1.447,0,0,0-12347.046,11.254Zm-3.955-.008a1.4,1.4,0,0,0,1.421,1.449,1.415,1.415,0,0,0,1.426-1.418,1.426,1.426,0,0,0-1.41-1.442h-.015A1.424,1.424,0,0,0-12351,11.246Z" transform="translate(13473.592 876.178)" fill="#0565ff"/>
  </g>
</svg>
