<svg xmlns="http://www.w3.org/2000/svg" xmlns:xlink="http://www.w3.org/1999/xlink" width="236" height="236" viewBox="0 0 236 236">
  <defs>
    <filter id="Ellipse_101" x="0" y="0" width="236" height="236" filterUnits="userSpaceOnUse">
      <feOffset dy="26" input="SourceAlpha"/>
      <feGaussianBlur stdDeviation="12.5" result="blur"/>
      <feFlood flood-color="#ebdfdb" flood-opacity="0.412"/>
      <feComposite operator="in" in2="blur"/>
      <feComposite in="SourceGraphic"/>
    </filter>
    <filter id="Ellipse_101-2" x="13" y="13" width="210" height="210" filterUnits="userSpaceOnUse">
      <feOffset dy="26" input="SourceAlpha"/>
      <feGaussianBlur stdDeviation="12.5" result="blur-2"/>
      <feFlood flood-color="#ebdfdb" flood-opacity="0.412"/>
      <feComposite operator="in" in2="blur-2"/>
      <feComposite in="SourceGraphic"/>
    </filter>
  </defs>
  <g id="Group_711" data-name="Group 711" transform="translate(-1082.5 -4036.5)">
    <g id="Group_518" data-name="Group 518" transform="translate(52 25)">
      <g transform="matrix(1, 0, 0, 1, 1030.5, 4011.5)" filter="url(#Ellipse_101)">
        <g id="Ellipse_101-3" data-name="Ellipse 101" transform="translate(37.5 11.5)" fill="#fff" stroke="#fff" stroke-width="3">
          <circle cx="80.5" cy="80.5" r="80.5" stroke="none"/>
          <circle cx="80.5" cy="80.5" r="79" fill="none"/>
        </g>
      </g>
      <g id="Group_516" data-name="Group 516" transform="translate(-2.227 -236.681)">
        <path id="Path_432" data-name="Path 432" d="M46.66,15.185A2.389,2.389,0,0,0,43.6,14.9C40.089,17.364,21.993,29.663,20.06,31.6a7.206,7.206,0,0,0,10.19,10.19c1.933-1.933,14.231-19.924,16.691-23.543a2.389,2.389,0,0,0-.281-3.057ZM26.877,38.377a2.485,2.485,0,0,1-3.514-3.514c.738-.738,5.868-4.392,12.158-8.75-4.287,6.4-7.941,11.49-8.679,12.228Z" transform="translate(1125.661 4309.567)" fill="#2f63f9"/>
        <path id="Path_433" data-name="Path 433" d="M46.66,15.185A2.389,2.389,0,0,0,43.6,14.9C40.089,17.364,21.993,29.663,20.06,31.6a7.206,7.206,0,0,0,10.19,10.19c1.933-1.933,14.231-19.924,16.691-23.543a2.389,2.389,0,0,0-.281-3.057ZM26.877,38.377a2.485,2.485,0,0,1-3.514-3.514c.738-.738,5.868-4.392,12.158-8.75-4.287,6.4-7.941,11.49-8.679,12.228Z" transform="translate(1125.661 4309.567)" fill="#2f63f9"/>
        <path id="Path_434" data-name="Path 434" d="M22.242,53.92,19.29,55.36a25.792,25.792,0,0,1-1.616-21.786l3.514,1.616a2.4,2.4,0,0,0,2.073-4.322l-3.514-1.616a25.933,25.933,0,0,1,19.713-12.3v3.514a2.407,2.407,0,1,0,4.814,0V16.954a25.617,25.617,0,0,1,8.258,2.179A2.39,2.39,0,1,0,54.5,14.775,30.676,30.676,0,0,0,16.374,59.682a2.389,2.389,0,0,0,3.057.808L24.35,58.1a2.4,2.4,0,0,0-2.108-4.322Z" transform="translate(1108.932 4303.582)" fill="#2f63f9"/>
        <path id="Path_435" data-name="Path 435" d="M22.242,53.92,19.29,55.36a25.792,25.792,0,0,1-1.616-21.786l3.514,1.616a2.4,2.4,0,0,0,2.073-4.322l-3.514-1.616a25.933,25.933,0,0,1,19.713-12.3v3.514a2.407,2.407,0,1,0,4.814,0V16.954a25.617,25.617,0,0,1,8.258,2.179A2.39,2.39,0,1,0,54.5,14.775,30.676,30.676,0,0,0,16.374,59.682a2.389,2.389,0,0,0,3.057.808L24.35,58.1a2.4,2.4,0,0,0-2.108-4.322Z" transform="translate(1108.932 4303.582)" fill="#2f63f9"/>
        <path id="Path_436" data-name="Path 436" d="M36.934,18.207a2.39,2.39,0,0,0-4.357,1.968,25.827,25.827,0,0,1-1.019,23.262L28.325,42.1a2.389,2.389,0,1,0-1.933,4.217l5.025,2.389a2.389,2.389,0,0,0,3.022-.843A30.641,30.641,0,0,0,36.934,18.207Z" transform="translate(1141.993 4315.401)" fill="#2f63f9"/>
        <path id="Path_437" data-name="Path 437" d="M36.934,18.207a2.39,2.39,0,0,0-4.357,1.968,25.827,25.827,0,0,1-1.019,23.262L28.325,42.1a2.389,2.389,0,1,0-1.933,4.217l5.025,2.389a2.389,2.389,0,0,0,3.022-.843A30.641,30.641,0,0,0,36.934,18.207Z" transform="translate(1141.993 4315.401)" fill="#2f63f9"/>
      </g>
    </g>
    <g id="Group_521" data-name="Group 521" transform="translate(64.544 37.544)">
      <g transform="matrix(1, 0, 0, 1, 1017.96, 3998.96)" filter="url(#Ellipse_101-2)">
        <g id="Ellipse_101-4" data-name="Ellipse 101" transform="translate(50.5 24.5)" fill="#fff" stroke="#fff" stroke-width="3">
          <circle cx="67.5" cy="67.5" r="67.5" stroke="none"/>
          <circle cx="67.5" cy="67.5" r="66" fill="none"/>
        </g>
      </g>
      <g id="Group_516-2" data-name="Group 516" transform="translate(1110.208 4070.273)">
        <path id="Path_432-2" data-name="Path 432" d="M42.186,15.075a2.017,2.017,0,0,0-2.581-.237C36.639,16.915,21.362,27.3,19.731,28.928a6.083,6.083,0,0,0,8.6,8.6c1.631-1.631,12.014-16.819,14.09-19.874a2.017,2.017,0,0,0-.237-2.581Zm-16.7,19.578a2.1,2.1,0,0,1-2.966-2.966c.623-.623,4.954-3.708,10.264-7.386-3.619,5.4-6.7,9.7-7.327,10.323Z" transform="translate(1.791 -7.417)" fill="#2f63f9"/>
        <path id="Path_433-2" data-name="Path 433" d="M42.186,15.075a2.017,2.017,0,0,0-2.581-.237C36.639,16.915,21.362,27.3,19.731,28.928a6.083,6.083,0,0,0,8.6,8.6c1.631-1.631,12.014-16.819,14.09-19.874a2.017,2.017,0,0,0-.237-2.581Zm-16.7,19.578a2.1,2.1,0,0,1-2.966-2.966c.623-.623,4.954-3.708,10.264-7.386-3.619,5.4-6.7,9.7-7.327,10.323Z" transform="translate(1.791 -7.417)" fill="#2f63f9"/>
        <path id="Path_434-2" data-name="Path 434" d="M20.536,47.4l-2.492,1.216A21.773,21.773,0,0,1,16.68,30.228l2.966,1.365a2.023,2.023,0,0,0,1.75-3.649L18.43,26.579A21.892,21.892,0,0,1,35.071,16.2v2.966a2.032,2.032,0,1,0,4.064,0V16.2a21.625,21.625,0,0,1,6.971,1.839,2.018,2.018,0,1,0,1.661-3.678,25.9,25.9,0,0,0-32.185,37.91,2.017,2.017,0,0,0,2.581.682l4.153-2.017a2.03,2.03,0,0,0-1.78-3.649Z" transform="translate(-11.294 -12.098)" fill="#2f63f9"/>
        <path id="Path_435-2" data-name="Path 435" d="M20.536,47.4l-2.492,1.216A21.773,21.773,0,0,1,16.68,30.228l2.966,1.365a2.023,2.023,0,0,0,1.75-3.649L18.43,26.579A21.892,21.892,0,0,1,35.071,16.2v2.966a2.032,2.032,0,1,0,4.064,0V16.2a21.625,21.625,0,0,1,6.971,1.839,2.018,2.018,0,1,0,1.661-3.678,25.9,25.9,0,0,0-32.185,37.91,2.017,2.017,0,0,0,2.581.682l4.153-2.017a2.03,2.03,0,0,0-1.78-3.649Z" transform="translate(-11.294 -12.098)" fill="#2f63f9"/>
        <path id="Path_436-2" data-name="Path 436" d="M34.988,17.987a2.018,2.018,0,1,0-3.678,1.661,21.8,21.8,0,0,1-.86,19.637L27.72,38.159a2.017,2.017,0,1,0-1.631,3.56l4.242,2.017a2.017,2.017,0,0,0,2.551-.712A25.866,25.866,0,0,0,34.988,17.987Z" transform="translate(14.566 -2.853)" fill="#2f63f9"/>
        <path id="Path_437-2" data-name="Path 437" d="M34.988,17.987a2.018,2.018,0,1,0-3.678,1.661,21.8,21.8,0,0,1-.86,19.637L27.72,38.159a2.017,2.017,0,1,0-1.631,3.56l4.242,2.017a2.017,2.017,0,0,0,2.551-.712A25.866,25.866,0,0,0,34.988,17.987Z" transform="translate(14.566 -2.853)" fill="#2f63f9"/>
      </g>
    </g>
  </g>
</svg>
