<svg xmlns="http://www.w3.org/2000/svg" xmlns:xlink="http://www.w3.org/1999/xlink" width="614.449" height="244.754" viewBox="0 0 614.449 244.754">
  <defs>
    <clipPath id="clip-path">
      <rect id="Rectangle_1283" data-name="Rectangle 1283" width="283.038" height="244.754" fill="none"/>
    </clipPath>
    <clipPath id="clip-path-2">
      <rect id="Rectangle_1299" data-name="Rectangle 1299" width="282.883" height="234.089" fill="none"/>
    </clipPath>
    <clipPath id="clip-path-3">
      <rect id="Rectangle_1288" data-name="Rectangle 1288" width="99.174" height="81.544" fill="none"/>
    </clipPath>
    <clipPath id="clip-path-4">
      <rect id="Rectangle_1290" data-name="Rectangle 1290" width="99.174" height="81.543" fill="none"/>
    </clipPath>
    <clipPath id="clip-path-5">
      <path id="Path_1116" data-name="Path 1116" d="M269.193,94.887l-.957,26.971c0-.063,13.7-.072,15.107-.013v-.015c-.072-3.611-.847-6.928,1.763-9.73,3.609-3.871-1.98-2.969-2.3-6.314-.269-2.853-.037-5.906-.111-8.788q-.028-1.054-.055-2.111Z" transform="translate(-268.236 -94.887)" fill="none"/>
    </clipPath>
    <clipPath id="clip-path-8">
      <path id="Path_1140" data-name="Path 1140" d="M109.145,160.561c-2.772.135-5.7.8-7.336,3.041-1.082,1.489-1.236,3.484-1.339,5.386q-.355,6.529-.43,13.1c-.056,4.951.531,8.617,3.568,12.7a14.634,14.634,0,0,1,2.488,9.276,41.255,41.255,0,0,1-.365,5.833c-.333,1.963-1.393,3.439-1.947,5.288-.884,2.947.652,5.565,3.134,7.049,6.1,3.645,15.136,1.306,20.6-2.378,2.117-1.428,2.058-4.643.747-6.584-.287-.426-.648-.8-.953-1.213-1.3-1.773-1.5-4.169-1.788-6.28a36.237,36.237,0,0,1,.014-7.558c.378-4.919,1.015-9.814,1.728-14.694a33.727,33.727,0,0,0-.44-13.783c-1.02-3.832-2.136-5.276-6.234-6.762-3.421-1.238-7.128-2.437-10.7-2.438-.249,0-.5.007-.743.018" transform="translate(-100.037 -160.543)" fill="none"/>
    </clipPath>
    <clipPath id="clip-path-10">
      <rect id="Rectangle_1298" data-name="Rectangle 1298" width="282.883" height="234.088" fill="none"/>
    </clipPath>
  </defs>
  <g id="Group_7380" data-name="Group 7380" transform="translate(-636.433 -547.624)">
    <g id="Group_1131" data-name="Group 1131" transform="translate(636.433 547.624)">
      <rect id="Rectangle_1268" data-name="Rectangle 1268" width="40.323" height="23.79" transform="translate(148.934 17.204)" fill="#fff"/>
      <rect id="Rectangle_1269" data-name="Rectangle 1269" width="40.323" height="23.79" transform="translate(148.934 17.204)" fill="none" stroke="#222221" stroke-width="1"/>
      <rect id="Rectangle_1270" data-name="Rectangle 1270" width="40.323" height="23.79" transform="translate(235.469 17.204)" fill="#fff"/>
      <rect id="Rectangle_1271" data-name="Rectangle 1271" width="40.323" height="23.79" transform="translate(235.469 17.204)" fill="none" stroke="#222221" stroke-width="1"/>
      <rect id="Rectangle_1272" data-name="Rectangle 1272" width="40.323" height="23.79" transform="translate(148.934 43.808)" fill="#fff"/>
      <rect id="Rectangle_1273" data-name="Rectangle 1273" width="40.323" height="23.79" transform="translate(148.934 43.808)" fill="none" stroke="#222221" stroke-width="1"/>
      <rect id="Rectangle_1274" data-name="Rectangle 1274" width="40.323" height="23.79" transform="translate(192.202 43.808)" fill="#fff"/>
      <rect id="Rectangle_1275" data-name="Rectangle 1275" width="40.323" height="23.79" transform="translate(192.202 43.808)" fill="none" stroke="#222221" stroke-width="1"/>
      <rect id="Rectangle_1276" data-name="Rectangle 1276" width="40.323" height="23.79" transform="translate(235.469 43.808)" fill="#fff"/>
      <rect id="Rectangle_1277" data-name="Rectangle 1277" width="40.323" height="23.79" transform="translate(235.469 43.808)" fill="none" stroke="#222221" stroke-width="1"/>
      <rect id="Rectangle_1278" data-name="Rectangle 1278" width="40.323" height="23.79" transform="translate(148.934 70.411)" fill="#fff"/>
      <rect id="Rectangle_1279" data-name="Rectangle 1279" width="40.323" height="23.79" transform="translate(148.934 70.411)" fill="none" stroke="#222221" stroke-width="1"/>
      <rect id="Rectangle_1280" data-name="Rectangle 1280" width="40.323" height="23.79" transform="translate(192.202 70.411)" fill="#fff"/>
      <rect id="Rectangle_1281" data-name="Rectangle 1281" width="40.323" height="23.79" transform="translate(192.202 70.411)" fill="none" stroke="#222221" stroke-width="1"/>
      <text id="_1" data-name="1" transform="translate(166.757 24.962)" font-size="2" font-family="SegoeUI, Segoe UI"><tspan x="0" y="0">1</tspan></text>
      <text id="_3" data-name="3" transform="translate(253.893 24.962)" font-size="2" font-family="SegoeUI, Segoe UI"><tspan x="0" y="0">3</tspan></text>
      <text id="_4" data-name="4" transform="translate(166.757 52.15)" font-size="2" font-family="SegoeUI, Segoe UI"><tspan x="0" y="0">4</tspan></text>
      <text id="_5" data-name="5" transform="translate(210.329 52.15)" font-size="2" font-family="SegoeUI, Segoe UI"><tspan x="0" y="0">5</tspan></text>
      <text id="_6" data-name="6" transform="translate(253.9 52.15)" font-size="2" font-family="SegoeUI, Segoe UI"><tspan x="0" y="0">6</tspan></text>
      <text id="_7" data-name="7" transform="translate(166.764 79.339)" font-size="2" font-family="SegoeUI, Segoe UI"><tspan x="0" y="0">7</tspan></text>
      <text id="_8" data-name="8" transform="translate(210.336 79.339)" font-size="2" font-family="SegoeUI, Segoe UI"><tspan x="0" y="0">8</tspan></text>
      <rect id="Rectangle_1282" data-name="Rectangle 1282" width="66.155" height="39.029" transform="translate(179.286 9.585)" fill="#0565ff"/>
      <path id="Path_1035" data-name="Path 1035" d="M224.248,25.449V35.681l8.807-5.116Z" transform="translate(-16.297 -1.849)" fill="#fff"/>
      <g id="Group_1130" data-name="Group 1130">
        <g id="Group_1129" data-name="Group 1129" clip-path="url(#clip-path)">
          <text id="lesson_2" data-name="lesson 2" transform="translate(179.046 2.896)" font-size="5" font-family="SegoeUI, Segoe UI"><tspan x="0" y="0" letter-spacing="0.074em">l</tspan><tspan y="0" letter-spacing="0.075em">e</tspan><tspan y="0" letter-spacing="0.074em">s</tspan><tspan y="0" letter-spacing="0.075em">s</tspan><tspan y="0" letter-spacing="0.074em">o</tspan><tspan y="0" letter-spacing="0.075em">n </tspan><tspan y="0">2</tspan></text>
          <path id="Path_1036" data-name="Path 1036" d="M110.678,47.668l-.939-.159c.1-.554-.386-1.127-.861-1.578a2.163,2.163,0,0,0-1.142-.734l-.315-.121.3-.885.279.09a4.016,4.016,0,0,1,1.792.929,2.792,2.792,0,0,1,.887,2.456" transform="translate(-7.806 -3.212)" fill="#51c2de"/>
          <path id="Path_1037" data-name="Path 1037" d="M115.318,52.667a4.168,4.168,0,1,1-4.168-4.168,4.169,4.169,0,0,1,4.168,4.168" transform="translate(-7.775 -3.525)" fill="#51c2de"/>
          <path id="Path_1038" data-name="Path 1038" d="M71.231,109.092a16.107,16.107,0,0,1,6.408-3.429c7.12-1.878,18.611,1.42,24.583,5.537,4.468,3.082,8.106,7.191,11.822,11.147,6.436,6.851,13.341,13.438,21.572,17.977,15.546,8.573,34.137,9.034,51.2,13.932a30.492,30.492,0,0,1,10.4,4.7c6.872,5.3,9,15.124,7.2,23.617-3.219,15.243-14.185,25.545-28.354,30.764-27.828,10.249-60.406,9.516-85.846-5.724C81.546,202.416,73.5,195.189,70.3,185.6c-3.493-10.472.343-21.566-2.331-31.969-2.471-9.612-5.813-18.983-4.495-29.229.743-5.768,3.446-11.6,7.755-15.309" transform="translate(-4.591 -7.639)" fill="#51c2de"/>
          <path id="Path_1039" data-name="Path 1039" d="M210.015,122.216c5.542.524,10.266,1.9,14,7.537,2.673,4.037,4.018,8.788,5.209,13.481a298.654,298.654,0,0,1,5.915,29.431c.688,4.609,1.121,9.285,2.049,13.818,1.181,5.772,1.462,11.842,2.1,17.7a87.993,87.993,0,0,1,15.06,5.3c1.162.532,2.456,1.276,2.647,2.539a2.686,2.686,0,0,1-1.521,2.591,7.4,7.4,0,0,1-3.1.667c-4.364.262-8.741.172-13.112.081-2.907-.061-7.027.07-9.516-1.676-2.534-1.778-3.277-6.007-3.869-8.794q-6.015-28.319-12.03-56.638c-3.092-.962-7.558.438-10.828.5q-6.778.122-13.558.154-12.8.056-25.591-.222c-2.457-.054-5.03-.143-7.11-1.172a9.984,9.984,0,0,1-4.6-5.673c-1.451-3.689-2.354-8.1-1.1-11.976,1.277-3.946,6.963-5.445,11.236-6.276a83.148,83.148,0,0,1,11.021-1.37,270.865,270.865,0,0,1,30.75-.372c2.078.115,4.067.195,5.961.374" transform="translate(-10.934 -8.833)" fill="#fff"/>
          <path id="Path_1040" data-name="Path 1040" d="M210.015,122.216c5.542.524,10.266,1.9,14,7.537,2.673,4.037,4.018,8.788,5.209,13.481a298.654,298.654,0,0,1,5.915,29.431c.688,4.609,1.121,9.285,2.049,13.818,1.181,5.772,1.462,11.842,2.1,17.7a87.993,87.993,0,0,1,15.06,5.3c1.162.532,2.456,1.276,2.647,2.539a2.686,2.686,0,0,1-1.521,2.591,7.4,7.4,0,0,1-3.1.667c-4.364.262-8.741.172-13.112.081-2.907-.061-7.027.07-9.516-1.676-2.534-1.778-3.277-6.007-3.869-8.794q-6.015-28.319-12.03-56.638c-3.092-.962-7.558.438-10.828.5q-6.778.122-13.558.154-12.8.056-25.591-.222c-2.457-.054-5.03-.143-7.11-1.172a9.984,9.984,0,0,1-4.6-5.673c-1.451-3.689-2.354-8.1-1.1-11.976,1.277-3.946,6.963-5.445,11.236-6.276a83.148,83.148,0,0,1,11.021-1.37,270.865,270.865,0,0,1,30.75-.372C206.132,121.957,208.122,122.037,210.015,122.216Z" transform="translate(-10.934 -8.833)" fill="none" stroke="#222221" stroke-width="1"/>
          <path id="Path_1041" data-name="Path 1041" d="M161.038,159.942c6,.6,11.306-11.643,12.615-16.07a27.719,27.719,0,0,0-2.386-21.588l-.057-.1a14.18,14.18,0,0,0-15.4-6.606c-6.247,1.449-12.543,2.288-19.666,3.23a21.266,21.266,0,0,0-9.474,3.617c-19.365,13.632,3.317,28.366,14.811,33.641,5.778,2.651,13.239,3.236,19.556,3.873" transform="translate(-8.657 -8.373)" fill="#111314"/>
          <path id="Path_1042" data-name="Path 1042" d="M230.424,152.8c-4.239-5.441-9.172-10.156-15.488-12.737-4.627-1.891-9.676-2.474-14.665-2.788-15.647-.984-31.631.856-47.1,2.546-8.716.953-23.22,1.529-24.312,13.025-.576,6.073,6.2,14.7,11.62,16.963,3.519,1.472,7.437,1.57,11.25,1.647,3.242.065,6.49.326,9.715.321a473.084,473.084,0,0,0,48.608-2.575,3.534,3.534,0,0,1,1.627.083,3.441,3.441,0,0,1,1.045.734c7.118,6.5,11.461,14.474,17.394,21.826A198.082,198.082,0,0,0,250.384,212.8c3.08,2.836,5.865,5.975,9.053,8.7,2.668,2.277,7.4,6.494,10.927,7.119,2.121.376,4.188-.746,6.049-1.829,5.216-3.033,10.571-6.185,14.247-10.97a5.313,5.313,0,0,0,1.269-2.659,2.145,2.145,0,0,0-1.444-2.32,3.187,3.187,0,0,0-1.473.142c-4.034,1.04-7.87,2.916-11.962,3.515-1.664.244-3.375.65-4.99-.051-.867-.377-2.876-3.268-3.324-3.268-2.242-3.112-4.689-6.076-6.839-9.256-8.3-12.284-15.88-25.183-23.782-37.794a134.675,134.675,0,0,0-7.689-11.322" transform="translate(-9.362 -9.956)" fill="#fff"/>
          <path id="Path_1043" data-name="Path 1043" d="M230.424,152.8c-4.239-5.441-9.172-10.156-15.488-12.737-4.627-1.891-9.676-2.474-14.665-2.788-15.647-.984-31.631.856-47.1,2.546-8.716.953-23.22,1.529-24.312,13.025-.576,6.073,6.2,14.7,11.62,16.963,3.519,1.472,7.437,1.57,11.25,1.647,3.242.065,6.49.326,9.715.321a473.084,473.084,0,0,0,48.608-2.575,3.534,3.534,0,0,1,1.627.083,3.441,3.441,0,0,1,1.045.734c7.118,6.5,11.461,14.474,17.394,21.826A198.082,198.082,0,0,0,250.384,212.8c3.08,2.836,5.865,5.975,9.053,8.7,2.668,2.277,7.4,6.494,10.927,7.119,2.121.376,4.188-.746,6.049-1.829,5.216-3.033,10.571-6.185,14.247-10.97a5.313,5.313,0,0,0,1.269-2.659,2.145,2.145,0,0,0-1.444-2.32,3.187,3.187,0,0,0-1.473.142c-4.034,1.04-7.87,2.916-11.962,3.515-1.664.244-3.375.65-4.99-.051-.867-.377-2.876-3.268-3.324-3.268-2.242-3.112-4.689-6.076-6.839-9.256-8.3-12.284-15.88-25.183-23.782-37.794A134.675,134.675,0,0,0,230.424,152.8Z" transform="translate(-9.362 -9.956)" fill="none" stroke="#222221" stroke-width="1"/>
          <path id="Path_1044" data-name="Path 1044" d="M171.757,125.387a11.784,11.784,0,0,0,4.927-3.739,3.462,3.462,0,0,0,.794-1.638,2.9,2.9,0,0,0-1.614-2.7,10.453,10.453,0,0,0-3.189-.93c-7.651-1.516-14.487-5.961-20.006-11.472s-9.855-12.079-14.005-18.684A40.99,40.99,0,0,0,133,78.553c-5.608-5.5-15.294-7.621-22.266-3.481a26.4,26.4,0,0,0,.286,5.358,13.786,13.786,0,0,0,.87,2.956c3.119,7.371,8.684,11.831,14.158,17.228,2.782,2.744,4.756,6.516,7.48,9.406a66.224,66.224,0,0,0,9.162,8.083c6.549,4.777,20.137,10.942,29.07,7.284" transform="translate(-8.046 -5.298)" fill="#f39300"/>
          <path id="Path_1045" data-name="Path 1045" d="M171.757,125.387a11.784,11.784,0,0,0,4.927-3.739,3.462,3.462,0,0,0,.794-1.638,2.9,2.9,0,0,0-1.614-2.7,10.453,10.453,0,0,0-3.189-.93c-7.651-1.516-14.487-5.961-20.006-11.472s-9.855-12.079-14.005-18.684A40.99,40.99,0,0,0,133,78.553c-5.608-5.5-15.294-7.621-22.266-3.481a26.4,26.4,0,0,0,.286,5.358,13.786,13.786,0,0,0,.87,2.956c3.119,7.371,8.684,11.831,14.158,17.228,2.782,2.744,4.756,6.516,7.48,9.406a66.224,66.224,0,0,0,9.162,8.083C149.236,122.879,162.824,129.045,171.757,125.387Z" transform="translate(-8.046 -5.298)" fill="none" stroke="#000" stroke-width="1"/>
          <path id="Path_1046" data-name="Path 1046" d="M147.316,176.427c.2.02.56.052,1.031.091,14.765-11.18,26.01-26.943,25.638-45.583-12.411.514-24.954,2.168-37.32,2.856-6.2.344-15.492-1.087-20.7,2.659a15.645,15.645,0,0,0-6.193,14.246c.671,6.394,4.711,12.039,9.685,16.112,8.326,6.821,17.45,8.569,27.862,9.619" transform="translate(-7.971 -9.515)" fill="#111314"/>
          <path id="Path_1047" data-name="Path 1047" d="M150.652,122.8l.1.162a258.519,258.519,0,0,0-46.633,24.97q-4.284-9.349-9.419-18.276c-3.022-5.251-6.309-9.551-7.806-15.636-2.033-8.262-4.876-18.671-2.514-27.072,2.037-7.249,6.891-9.844,13.576-11.491a69.842,69.842,0,0,1,17.1-2.023,12.647,12.647,0,0,1,10.286,4.557,30.785,30.785,0,0,1,5.329,9.617c2.226,5.744,5.368,11.2,8.325,16.668,3.51,6.486,7.719,12.345,11.651,18.522" transform="translate(-6.067 -5.337)" fill="#f39300"/>
          <path id="Path_1048" data-name="Path 1048" d="M122.33,79.674c4.038,8.275,8.107,16.6,13.57,24.011s12.459,13.933,20.968,17.45" transform="translate(-8.89 -5.79)" fill="none" stroke="#000" stroke-width="1"/>
          <path id="Path_1049" data-name="Path 1049" d="M89.408,79.309c-4.78,2.577-7.52,7.86-8.671,12.98-2.437,10.838,1.423,22.614,9,30.739s18.5,12.728,29.565,13.694,22.253-1.512,32.448-5.923l.926-6.935c-6.063,1.008-12.281-.2-18.176-1.94-8.971-2.645-17.787-6.673-24.315-13.369a32.065,32.065,0,0,1-8.329-14.978" transform="translate(-5.814 -5.764)" fill="#f39300"/>
          <path id="Path_1050" data-name="Path 1050" d="M89.408,79.309c-4.78,2.577-7.52,7.86-8.671,12.98-2.437,10.838,1.423,22.614,9,30.739s18.5,12.728,29.565,13.694,22.253-1.512,32.448-5.923l.926-6.935c-6.063,1.008-12.281-.2-18.176-1.94-8.971-2.645-17.787-6.673-24.315-13.369a32.065,32.065,0,0,1-8.329-14.978" transform="translate(-5.814 -5.764)" fill="none" stroke="#000" stroke-width="1"/>
          <path id="Path_1051" data-name="Path 1051" d="M187.183,135.811l-45.5,1.612,7.879-23.673a1.246,1.246,0,0,1,1.139-.852l42.846-1.517a1.246,1.246,0,0,1,1.226,1.639Z" transform="translate(-10.296 -8.094)" fill="#51c2de"/>
          <path id="Path_1052" data-name="Path 1052" d="M100.771,74.035c.016.007.03.009.045.017a9.444,9.444,0,0,0,9.3-.981c-.52-2.94-1.664-9.392-1.008-9.6,6.747-2.1,3.489-9.578,1.178-13.756a4.241,4.241,0,0,0-1.114-1.461,3.262,3.262,0,0,0-1.831-.517c-4.389-.131-9.337,2.823-10.164,7.312-.591,3.21,1,6.374,2,9.344a42.021,42.021,0,0,1,1.6,9.639" transform="translate(-7.052 -3.469)" fill="#fff"/>
          <path id="Path_1053" data-name="Path 1053" d="M100.771,74.035c.016.007.03.009.045.017a9.444,9.444,0,0,0,9.3-.981c-.52-2.94-1.664-9.392-1.008-9.6,6.747-2.1,3.489-9.578,1.178-13.756a4.241,4.241,0,0,0-1.114-1.461,3.262,3.262,0,0,0-1.831-.517c-4.389-.131-9.337,2.823-10.164,7.312-.591,3.21,1,6.374,2,9.344A42.021,42.021,0,0,1,100.771,74.035Z" transform="translate(-7.052 -3.469)" fill="none" stroke="#222221" stroke-width="1"/>
          <path id="Path_1054" data-name="Path 1054" d="M98.583,60.651Q98.463,62.326,98.4,64L93.37,58.223c-1.049-1.206-2.158-2.565-2.155-4.164a5.335,5.335,0,0,1,.893-2.671,15.741,15.741,0,0,1,7.17-6.138,10.735,10.735,0,0,1,8.955.721c1.044.611,2.658,2.668,1.456,3.714-.776.676-3.047,1.006-4.063,1.383l-4.979,1.845a1.818,1.818,0,0,0-1.473,1.9q-.383,2.911-.593,5.84" transform="translate(-6.629 -3.241)"/>
          <path id="Path_1055" data-name="Path 1055" d="M100.2,41.961a5.5,5.5,0,1,1-5.856-4.732,5.33,5.33,0,0,1,5.856,4.732" transform="translate(-6.485 -2.704)"/>
          <path id="Path_1056" data-name="Path 1056" d="M108.5,60.14a3.1,3.1,0,0,0,3.567-.491" transform="translate(-7.885 -4.335)" fill="#fff"/>
          <path id="Path_1057" data-name="Path 1057" d="M108.5,60.14a3.1,3.1,0,0,0,3.567-.491" transform="translate(-7.885 -4.335)" fill="none" stroke="#222221" stroke-width="1"/>
          <path id="Path_1058" data-name="Path 1058" d="M173.081,124.831a1.486,1.486,0,1,1-1.425-1.581,1.5,1.5,0,0,1,1.425,1.581" transform="translate(-12.362 -8.957)" fill="#222221"/>
          <path id="Path_1059" data-name="Path 1059" d="M160.512,176.125c-28.063,2.378-56.948-10.836-73.5-33.622" transform="translate(-6.323 -10.356)" fill="none" stroke="#000" stroke-width="1"/>
          <path id="Path_1060" data-name="Path 1060" d="M76.787,115.465a45.7,45.7,0,0,0,.1,31.233" transform="translate(-5.384 -8.391)" fill="none" stroke="#000" stroke-width="1"/>
          <path id="Path_1061" data-name="Path 1061" d="M151.447,211.927a57.7,57.7,0,0,0,41.484-12.307" transform="translate(-11.006 -14.507)" fill="none" stroke="#000" stroke-width="1"/>
          <path id="Path_1062" data-name="Path 1062" d="M9.573,149.232v13.237a6.622,6.622,0,1,0,0-13.237" transform="translate(-0.696 -10.845)"/>
          <path id="Path_1063" data-name="Path 1063" d="M100.91,59.686a4.168,4.168,0,1,1-4.167-4.168,4.168,4.168,0,0,1,4.167,4.168" transform="translate(-6.727 -4.035)" fill="#51c2de"/>
          <path id="Path_1064" data-name="Path 1064" d="M94.447,56.063c-.62-4.625.992-7.231,6.394-10.33a18.428,18.428,0,0,1,3.524-1.557,4.5,4.5,0,0,1,2.424.009l-.235.9a3.541,3.541,0,0,0-1.9-.023,17.348,17.348,0,0,0-3.33,1.474c-5.118,2.935-6.5,5.132-5.931,9.4Z" transform="translate(-6.855 -3.199)" fill="#51c2de"/>
          <path id="Path_1065" data-name="Path 1065" d="M185.627,137.674l-47.7,2.074a1.1,1.1,0,1,1-.1-2.19l47.7-2.075a1.1,1.1,0,1,1,.1,2.191" transform="translate(-9.94 -9.846)" fill="#51c2de"/>
          <path id="Path_1066" data-name="Path 1066" d="M14.088,154.722c4.872-.3,12.531-.174,17.315.971a10.023,10.023,0,0,1,4.983,2.383c1.946,1.993,2.175,5.062,2.111,7.847A65.169,65.169,0,0,1,36.2,181.617c-.785,2.871-1.738,6.079-.3,8.685,4.253,7.716,17.91,3.546,21.944,12.924,1.555,3.615,1.561,7.674,1.764,11.6s.7,8.057,3.03,11.233c3.344,4.568,9.479,5.947,15.1,6.659a143.563,143.563,0,0,0,15.849,1.121c7.245.109,15.226-.639,20.319-5.793,9.35-9.461,7.862-28.182,6.97-40.21-.924-12.456-2.177-24.835-2.5-37.343-.076-2.952-.024-6.195,1.893-8.441,2.375-2.786,7.706-3.545,11.364-3.421" transform="translate(-1.024 -10.074)" fill="none" stroke="#000" stroke-width="1"/>
          <path id="Path_1067" data-name="Path 1067" d="M223.137,150.761,226.5,152.2" transform="translate(-16.216 -10.956)" fill="#fff"/>
          <path id="Path_1068" data-name="Path 1068" d="M223.137,150.761,226.5,152.2" transform="translate(-16.216 -10.956)" fill="none" stroke="#222221" stroke-width="1"/>
          <path id="Path_1069" data-name="Path 1069" d="M222.171,131.494a3.849,3.849,0,0,0,2.845,1.489" transform="translate(-16.146 -9.556)" fill="#fff"/>
          <path id="Path_1070" data-name="Path 1070" d="M222.171,131.494a3.849,3.849,0,0,0,2.845,1.489" transform="translate(-16.146 -9.556)" fill="none" stroke="#222221" stroke-width="1"/>
          <path id="Path_1071" data-name="Path 1071" d="M107.126,132.6l3.345,1.019" transform="translate(-7.785 -9.637)" fill="#fff"/>
          <path id="Path_1072" data-name="Path 1072" d="M107.126,132.6l3.345,1.019" transform="translate(-7.785 -9.637)" fill="none" stroke="#222221" stroke-width="1"/>
          <path id="Path_1080" data-name="Path 1080" d="M126.783,259.8c0,1.975-8.578,3.577-19.16,3.577s-19.16-1.6-19.16-3.577,8.578-3.577,19.16-3.577,19.16,1.6,19.16,3.577" transform="translate(-6.429 -18.62)" fill="#111314"/>
          <path id="Path_1081" data-name="Path 1081" d="M130.192,244.037c-.683-3.911-5.352-5.858-9.135-5.165v-3.587H94.043v9.867a13.5,13.5,0,0,0,24.3,8.094c5.933.054,12.957-2.861,11.846-9.208m-3.963,2.738c-1.058,1.683-3.5,2.654-5.984,2.955a13.48,13.48,0,0,0,.812-4.579v-3.284c2.977-.537,7.276,1.557,5.172,4.907" transform="translate(-6.834 -17.099)" fill="#f39300"/>
          <path id="Path_1082" data-name="Path 1082" d="M224.908,257.286l-47.388,2.848-17.883-17.056.149-4.268,64.915,14.5Z" transform="translate(-11.601 -17.355)" fill="#111314"/>
          <path id="Path_1083" data-name="Path 1083" d="M224.146,253.175l-46.723,1.957a.228.228,0,0,1-.164-.061l-17.182-16.061a.246.246,0,0,1,.159-.42l46.722-1.956a.226.226,0,0,1,.164.06L224.3,252.756a.245.245,0,0,1-.159.419" transform="translate(-11.628 -17.197)" fill="#fff"/>
          <path id="Path_1084" data-name="Path 1084" d="M224.146,253.175l-46.723,1.957a.228.228,0,0,1-.164-.061l-17.182-16.061a.246.246,0,0,1,.159-.42l46.722-1.956a.226.226,0,0,1,.164.06L224.3,252.756A.245.245,0,0,1,224.146,253.175Z" transform="translate(-11.628 -17.197)" fill="none" stroke="#222221" stroke-width="1"/>
          <path id="Path_1085" data-name="Path 1085" d="M199.571,240.982l9.388,9.542,7.6-.453-9.388-9.314Z" transform="translate(-14.503 -17.496)" fill="#51c2de"/>
          <path id="Path_1086" data-name="Path 1086" d="M279.564,86.532a6.167,6.167,0,1,1-4-1.476" transform="translate(-19.577 -6.181)" fill="none" stroke="#d3d3d4" stroke-width="2"/>
          <path id="Path_1087" data-name="Path 1087" d="M272.408,151.367a5.481,5.481,0,1,1-5.481-5.481A5.481,5.481,0,0,1,272.408,151.367Z" transform="translate(-19 -10.602)" fill="none" stroke="#128264" stroke-width="1"/>
          <path id="Path_1088" data-name="Path 1088" d="M280.849,151.367a5.481,5.481,0,1,1-5.481-5.481A5.481,5.481,0,0,1,280.849,151.367Z" transform="translate(-19.613 -10.602)" fill="none" stroke="#128264" stroke-width="1"/>
          <path id="Path_1089" data-name="Path 1089" d="M298.8,151.367a5.481,5.481,0,1,1-5.481-5.481A5.481,5.481,0,0,1,298.8,151.367Z" transform="translate(-20.918 -10.602)" fill="none" stroke="#128264" stroke-width="1"/>
          <circle id="Ellipse_796" data-name="Ellipse 796" cx="4.111" cy="4.111" r="4.111" transform="matrix(0.174, -0.985, 0.985, 0.174, 42.027, 58.852)" fill="none" stroke="#128264" stroke-width="1"/>
          <circle id="Ellipse_797" data-name="Ellipse 797" cx="4.111" cy="4.111" r="4.111" transform="matrix(0.174, -0.985, 0.985, 0.174, 42.027, 65.704)" fill="none" stroke="#128264" stroke-width="1"/>
          <circle id="Ellipse_798" data-name="Ellipse 798" cx="4.111" cy="4.111" r="4.111" transform="matrix(0.174, -0.985, 0.985, 0.174, 42.027, 70.791)" fill="none" stroke="#128264" stroke-width="1"/>
          <path id="Path_1090" data-name="Path 1090" d="M40.412,15.841H33.149l-3.632,6.292,3.632,6.289h7.263l3.631-6.289Zm-3.631,9.907A3.616,3.616,0,1,1,40.4,22.133a3.615,3.615,0,0,1-3.617,3.615" transform="translate(-2.145 -1.151)"/>
          <path id="Path_1091" data-name="Path 1091" d="M39.257,15.585H31.994l-3.631,6.29,3.631,6.291h7.263l3.632-6.291Zm-3.631,9.907a3.616,3.616,0,1,1,3.617-3.617,3.616,3.616,0,0,1-3.617,3.617" transform="translate(-2.061 -1.133)" fill="#51c2de"/>
          <path id="Path_1092" data-name="Path 1092" d="M291.1,187.917h-7.263l-3.631,6.291,3.631,6.29H291.1l3.632-6.29Zm-3.631,9.907a3.616,3.616,0,1,1,3.617-3.616,3.616,3.616,0,0,1-3.617,3.616" transform="translate(-20.363 -13.656)"/>
          <path id="Path_1093" data-name="Path 1093" d="M289.942,187.66h-7.263l-3.632,6.29,3.632,6.291h7.263l3.631-6.291Zm-3.631,9.907a3.616,3.616,0,1,1,3.617-3.617,3.616,3.616,0,0,1-3.617,3.617" transform="translate(-20.279 -13.638)" fill="#51c2de"/>
          <path id="Path_1094" data-name="Path 1094" d="M23.419,104.5H16.156l-3.631,6.291,3.631,6.29h7.263l3.632-6.29Zm-3.631,9.907a3.616,3.616,0,1,1,3.617-3.616,3.615,3.615,0,0,1-3.617,3.616" transform="translate(-0.91 -7.594)"/>
          <path id="Path_1095" data-name="Path 1095" d="M22.264,104.244H15l-3.632,6.29L15,116.825h7.263l3.631-6.291Zm-3.631,9.907a3.616,3.616,0,1,1,3.617-3.617,3.616,3.616,0,0,1-3.617,3.617" transform="translate(-0.826 -7.576)" fill="#51c2de"/>
          <path id="Path_1096" data-name="Path 1096" d="M90.6,14.973l4.134,4.62,5.837-7.781" transform="translate(-6.584 -0.858)" fill="none" stroke="#128264" stroke-width="1"/>
          <path id="Path_1097" data-name="Path 1097" d="M105.677,14.973l4.134,4.62,5.837-7.781" transform="translate(-7.68 -0.858)" fill="none" stroke="#128264" stroke-width="1"/>
          <line id="Line_9" data-name="Line 9" x2="7.48" y2="7.479" transform="translate(113.834 11.56)" fill="none" stroke="#f39300" stroke-width="1"/>
          <line id="Line_10" data-name="Line 10" x1="7.48" y2="7.479" transform="translate(113.834 11.56)" fill="none" stroke="#f39300" stroke-width="1"/>
        </g>
      </g>
    </g>
    <g id="Group_1154" data-name="Group 1154" transform="translate(968 547.624)">
      <g id="Group_1153" data-name="Group 1153" clip-path="url(#clip-path-2)">
        <g id="Group_1138" data-name="Group 1138" transform="translate(56.695 23.431)">
          <g id="Group_1137" data-name="Group 1137" clip-path="url(#clip-path-3)">
            <rect id="Rectangle_1287" data-name="Rectangle 1287" width="99.174" height="81.544" transform="translate(0.001)" fill="none" stroke="#000" stroke-width="1"/>
            <path id="Path_1098" data-name="Path 1098" d="M80.778,60.808c.433-1.923,1.978-3.321,2.6-5.167s.548-3.879,1.6-5.581a30.275,30.275,0,0,1,2.708-3.01c.759-.926,1.287-2.017,1.961-3.006,3.144-4.616,9.384-6.523,14.853-5.4s10.142,4.866,13.389,9.41a24.958,24.958,0,0,1,3.636,8.085c.787,3.173-.89,6.72.532,9.741.828,1.759,2.758,3.236,2.418,5.151-.2,1.141-1.371,2.559-1.864,3.674a11.445,11.445,0,0,1-2.451,3.584,13.929,13.929,0,0,1-7.287,3.691c-2.315.409-4.7.328-7.013.724-4.615.79-9.172,3.462-13.694,2.249-3-.8-5.278-3.17-7.4-5.436A6.282,6.282,0,0,1,83.6,77.964c-.646-1.375-.223-2.982-.225-4.5,0-2.5-1.177-4.816-1.994-7.175a10.365,10.365,0,0,1-.6-5.48" transform="translate(-71.771 -30.599)"/>
            <path id="Path_1099" data-name="Path 1099" d="M92.193,126.955c-5.343-.629-10.776-1.439-16.068-.468.419-8.37,1.586-16.817,4.858-24.532s8.833-14.688,16.347-18.4c9.4-4.641,20.818-4.645,30.728-1.707,9.724,2.883,18.832,10.323,25.756,17.548a72.647,72.647,0,0,1,9.629,12.522,14.918,14.918,0,0,1,1.676,3.467,8.4,8.4,0,0,1-.95,6.78c-4.165,6.572-14.009,4.516-20.391,5.171q-8.571.88-17.189,1.128a235.8,235.8,0,0,1-34.4-1.513" transform="translate(-70.931 -38.359)"/>
            <path id="Path_1100" data-name="Path 1100" d="M104.624,87.155c1.637,3.214,5.119,4.813,9,4.289l.088-.011a7.336,7.336,0,0,0,6.036-8.706l-1.3-6.676a6.127,6.127,0,0,1-.12-2.667,9.911,9.911,0,0,1,1.108-2.191c2.907-5.331-.4-11.382-3.117-16a12.956,12.956,0,0,0-10.566-6.448c-9.5-.392-14.183,8.236-12.335,16.682,1.052,4.8,3.944,8.248,7.625,11.309s3.881,5.843,3.581,10.423" transform="translate(-74.09 -32.544)" fill="#fff"/>
            <path id="Path_1101" data-name="Path 1101" d="M104.624,87.155c1.637,3.214,5.119,4.813,9,4.289l.088-.011a7.336,7.336,0,0,0,6.036-8.706l-1.3-6.676a6.127,6.127,0,0,1-.12-2.667,9.911,9.911,0,0,1,1.108-2.191c2.907-5.331-.4-11.382-3.117-16a12.956,12.956,0,0,0-10.566-6.448c-9.5-.392-14.183,8.236-12.335,16.682,1.052,4.8,3.944,8.248,7.625,11.309S104.924,82.575,104.624,87.155Z" transform="translate(-74.09 -32.544)" fill="none" stroke="#000" stroke-width="1"/>
            <path id="Path_1102" data-name="Path 1102" d="M94.64,58.443a6.2,6.2,0,0,0-.091,2.224,9.42,9.42,0,0,1-.858,5.186,8.476,8.476,0,0,1-1.638,2.013A5.263,5.263,0,0,1,90.2,69.1a2.3,2.3,0,0,1-2.135-.261,2.49,2.49,0,0,1-.8-2.116,11.592,11.592,0,0,1,.518-2.288c.371-1.387.517-2.828.906-4.21a6.394,6.394,0,0,1,2.237-3.582,3.537,3.537,0,0,1,3.035-.536c.368.12,1.146.455,1.278.865.184.571-.428.885-.607,1.467" transform="translate(-73.015 -33.898)"/>
            <path id="Path_1103" data-name="Path 1103" d="M96.307,94.391c.74-2.883,1.4-6.033.759-8.648-.684-2.783-2.963-5.206-4.143-7.811-1.067-2.357-1.627-5.11-.693-7.522a1.416,1.416,0,0,1,.236-.434,1.155,1.155,0,0,1,1.679.25,5.046,5.046,0,0,1,.671,1.8,13.121,13.121,0,0,0,2.871,4.623c2.684,3.217,6.1,5.335,6.775,9.757.433,2.856.167,5.822.448,8.7.329,3.371.875,6.715,1.188,10.087.327,3.52,1.352,14.157-2.773,15.884-2.6,1.087-8.965.215-10.975-1.869a6.6,6.6,0,0,1-1.614-4.809,18.471,18.471,0,0,1,1.119-5.071c1.275-3.909,2.667-7.789,3.635-11.789.238-.983.533-2.05.818-3.158" transform="translate(-73.662 -36.467)" fill="#fff"/>
            <path id="Path_1104" data-name="Path 1104" d="M96.307,94.391c.74-2.883,1.4-6.033.759-8.648-.684-2.783-2.963-5.206-4.143-7.811-1.067-2.357-1.627-5.11-.693-7.522a1.416,1.416,0,0,1,.236-.434,1.155,1.155,0,0,1,1.679.25,5.046,5.046,0,0,1,.671,1.8,13.121,13.121,0,0,0,2.871,4.623c2.684,3.217,6.1,5.335,6.775,9.757.433,2.856.167,5.822.448,8.7.329,3.371.875,6.715,1.188,10.087.327,3.52,1.352,14.157-2.773,15.884-2.6,1.087-8.965.215-10.975-1.869a6.6,6.6,0,0,1-1.614-4.809,18.471,18.471,0,0,1,1.119-5.071c1.275-3.909,2.667-7.789,3.635-11.789C95.728,96.566,96.023,95.5,96.307,94.391Z" transform="translate(-73.662 -36.467)" fill="none" stroke="#000" stroke-width="1"/>
            <path id="Path_1105" data-name="Path 1105" d="M98.508,56.175a6.339,6.339,0,0,0,2.537-3.011,2.967,2.967,0,0,0,1.057,1.192,7.721,7.721,0,0,0,4.95,1.731c2.361-.141,3.015-2.383,4.961-1.561,1.835.775,2.544,2.817,4.953,1.741a4.248,4.248,0,0,0,2.188-3.762c.159-3.38-2.335-6.476-5.413-7.881s-6.615-1.4-9.971-.968A21.988,21.988,0,0,0,96.9,45.53c-2.324,1.146-3.175,2.946-4.448,5.127a4.129,4.129,0,0,0,4.275,6.175,4.952,4.952,0,0,0,1.783-.657" transform="translate(-73.874 -31.548)"/>
            <path id="Path_1106" data-name="Path 1106" d="M152.879,117.324a.463.463,0,0,0-.541-.383,30.163,30.163,0,0,0-5.58-4.968c-.182-.11-.454.124-.311.31a29.2,29.2,0,0,0,2.694,2.764q1.507,1.5,2.983,3.031c.26.271.862.086.808-.334l-.054-.42" transform="translate(-84.075 -44.366)" fill="#fff"/>
            <path id="Path_1107" data-name="Path 1107" d="M152.692,116.629a107.382,107.382,0,0,0-18.137,5.378,21.959,21.959,0,0,1-4.34,1.3,29.89,29.89,0,0,1-4.835.054c-4.3-.066-8.865.956-11.866,4.031-1.06,1.085-1.351,3.8.38,4.494,1.8.724,4.48-.533,6.46-.3a25.429,25.429,0,0,0,6.015.054q9.219-.973,18.505-1.028c7.2-.041,14.443.332,21.551-.789a10.209,10.209,0,0,0,3.87-1.211c2.918-1.822,3.693-6.349,1.378-8.837-2.583-2.778-7.474-3.731-11.07-3.815a40.614,40.614,0,0,0-7.912.664" transform="translate(-77.763 -45.116)" fill="#fff"/>
            <path id="Path_1108" data-name="Path 1108" d="M152.692,116.629a107.382,107.382,0,0,0-18.137,5.378,21.959,21.959,0,0,1-4.34,1.3,29.89,29.89,0,0,1-4.835.054c-4.3-.066-8.865.956-11.866,4.031-1.06,1.085-1.351,3.8.38,4.494,1.8.724,4.48-.533,6.46-.3a25.429,25.429,0,0,0,6.015.054q9.219-.973,18.505-1.028c7.2-.041,14.443.332,21.551-.789a10.209,10.209,0,0,0,3.87-1.211c2.918-1.822,3.693-6.349,1.378-8.837-2.583-2.778-7.474-3.731-11.07-3.815A40.614,40.614,0,0,0,152.692,116.629Z" transform="translate(-77.763 -45.116)" fill="none" stroke="#000" stroke-width="1"/>
            <path id="Path_1109" data-name="Path 1109" d="M118.933,80.272a29.992,29.992,0,0,1-4.67,1.508,12.748,12.748,0,0,1,5.378.809,11.613,11.613,0,0,1,1.5.789l1.817,1.072c-.409-2.106-1.4-5.141-.122-7.08a10.064,10.064,0,0,1-3.9,2.9" transform="translate(-78.063 -37.9)"/>
            <path id="Path_1110" data-name="Path 1110" d="M107.472,75.276l3.234.381" transform="translate(-76.793 -37.509)" fill="#fff"/>
            <path id="Path_1111" data-name="Path 1111" d="M107.472,75.276l3.234.381" transform="translate(-76.793 -37.509)" fill="none" stroke="#000" stroke-width="1"/>
          </g>
        </g>
        <rect id="Rectangle_1289" data-name="Rectangle 1289" width="99.174" height="81.544" transform="translate(56.695 23.431)" fill="none" stroke="#000" stroke-width="1"/>
        <g id="Group_1140" data-name="Group 1140" transform="translate(173.756 42.534)">
          <g id="Group_1139" data-name="Group 1139" clip-path="url(#clip-path-4)">
            <path id="Path_1112" data-name="Path 1112" d="M282.019,93.41c-3.054-.227-6.111-.431-9.164-.68a17.392,17.392,0,0,0-3.219-.275c-4.065.392-7.857.546-11.85-.549.216,4.11-1.427,8.071-2.029,12.142a32.377,32.377,0,0,0-.233,6.4,20.285,20.285,0,0,0,2.46,9.6,10.521,10.521,0,0,0,4.693,4.183,30.948,30.948,0,0,0,3.017.787,18.07,18.07,0,0,0,2.942.854c2.257.341,4.542.186,6.788.384a18.757,18.757,0,0,0,7.469-1.422,13.257,13.257,0,0,0,5.087-3.037c2.954-3.039,3.2-7.337,3.463-11.322a84.762,84.762,0,0,0-.626-15.165c-.139-1.216-.24-1.721-1.454-1.537a8.656,8.656,0,0,1-3.013.124,35.544,35.544,0,0,0-4.332-.484" transform="translate(-221.531 -59.722)" fill="#292929"/>
            <path id="Path_1113" data-name="Path 1113" d="M261.75,117.041a6.659,6.659,0,0,1-.875,1.037A11.222,11.222,0,0,1,256.7,120.3a78.566,78.566,0,0,1-9.162,2.606c1.859,1.44,3.318,3.206,5.281,4.578a36.021,36.021,0,0,0,6.986,3.789,38.047,38.047,0,0,0,13.455,2.684,42.21,42.21,0,0,0,13.776-1.948c.4-.126.791-.261,1.184-.4a21.481,21.481,0,0,0,3-1.9,25.982,25.982,0,0,0,3.908-3.682c.663-.763,1.288-1.561,1.879-2.385-2.634-.6-5.58-.777-8.127-1.661a24.168,24.168,0,0,1-5.626-2.341,6.592,6.592,0,0,1-2.4-3.815,24.421,24.421,0,0,1-.524-4.562c-.23-3.639-.846-7.318-1.29-10.888-.3-2.447-3.169-3.681-5.387-4.108-3.191-.613-7.341,1.55-8.448,4.649-1.59,4.456-.689,9.457-2.358,13.935a10.03,10.03,0,0,1-1.106,2.189" transform="translate(-220.049 -60.518)" fill="#fff"/>
            <path id="Path_1114" data-name="Path 1114" d="M261.75,117.041a6.659,6.659,0,0,1-.875,1.037A11.222,11.222,0,0,1,256.7,120.3a78.566,78.566,0,0,1-9.162,2.606c1.859,1.44,3.318,3.206,5.281,4.578a36.021,36.021,0,0,0,6.986,3.789,38.047,38.047,0,0,0,13.455,2.684,42.21,42.21,0,0,0,13.776-1.948c.4-.126.791-.261,1.184-.4a21.481,21.481,0,0,0,3-1.9,25.982,25.982,0,0,0,3.908-3.682c.663-.763,1.288-1.561,1.879-2.385-2.634-.6-5.58-.777-8.127-1.661a24.168,24.168,0,0,1-5.626-2.341,6.592,6.592,0,0,1-2.4-3.815,24.421,24.421,0,0,1-.524-4.562c-.23-3.639-.846-7.318-1.29-10.888-.3-2.447-3.169-3.681-5.387-4.108-3.191-.613-7.341,1.55-8.448,4.649-1.59,4.456-.689,9.457-2.358,13.935A10.03,10.03,0,0,1,261.75,117.041Z" transform="translate(-220.049 -60.518)" fill="none" stroke="#222221" stroke-width="1"/>
          </g>
        </g>
        <g id="Group_1142" data-name="Group 1142" transform="translate(218.073 77.142)">
          <g id="Group_1141" data-name="Group 1141" clip-path="url(#clip-path-5)">
            <path id="Path_1115" data-name="Path 1115" d="M290.407,103.733c-3.309-1.3-10.817-2.331-15.421-1.958a51.261,51.261,0,0,1-.289,10.566,20.608,20.608,0,0,0,13.012,1.507,19.5,19.5,0,0,0,3.8-4.111,6.429,6.429,0,0,0,1.276-3.458c.077-1.487-1.129-2.056-2.374-2.545" transform="translate(-269.444 -96.161)" fill="#292929"/>
          </g>
        </g>
        <g id="Group_1144" data-name="Group 1144" transform="translate(173.756 42.534)">
          <g id="Group_1143" data-name="Group 1143" clip-path="url(#clip-path-4)">
            <path id="Path_1117" data-name="Path 1117" d="M289.523,82.15c.108.853.2,1.708.289,2.563.25,2.376.34,3.958-1.082,5.8s-2.218,4.08-3.85,5.763c-3.1,3.2-6.895,5.959-11.271,6.819s-9.388-.541-11.91-4.219c-1.77-2.58-1.645-5.771-3.335-8.321a5.755,5.755,0,0,1-.8-1.387,4.488,4.488,0,0,1-.016-1.938c.37-2.75.809-5.465,1.058-8.2a15.237,15.237,0,0,1,2.808-7.756,10.949,10.949,0,0,1,9.365-4.542c1.135.094,2.241.4,3.372.537,1.433.179,2.89.1,4.324.27a12.539,12.539,0,0,1,8.248,4.7c2.079,2.655,2.387,6.662,2.8,9.918" transform="translate(-221.902 -55.006)" fill="#292929"/>
            <path id="Path_1118" data-name="Path 1118" d="M289.229,86.443c-.05.02-.1.042-.15.066a4.788,4.788,0,0,0-1.485,1l0,0a4.064,4.064,0,0,0-.254-.663c-.139-.273-.335-.514-.484-.783a5.511,5.511,0,0,1-.454-2.544,14.014,14.014,0,0,0-.58-4.054c-1.63-4.871-7.775-6.018-12.254-6.018-2.982,0-6.885.393-9.613,1.652a3.213,3.213,0,0,0-1.273.922,3.755,3.755,0,0,0-.561,1.883q-.171,1.611-.244,3.231a6.1,6.1,0,0,1-.643,3.044c-.355.56-.894.98-1.3,1.5a3.44,3.44,0,0,0-.56,1.845c-.063-.087-.125-.175-.2-.259-.047-.056-.1-.111-.146-.165a2.626,2.626,0,0,0-.963-.7c-2.334-.882-4.992,1.279-4.992,3.8,0,2.389,2.3,4.326,5.141,4.326a5.972,5.972,0,0,0,1.3-.147v.772c0,8.047,10.3,11.941,13.9,12.14,2.715,0,14.2-4.093,14.2-12.14,0-.246.01-.513.024-.79a5.933,5.933,0,0,0,1.375.166c2.84,0,5.141-1.937,5.141-4.326,0-2.494-2.637-4.7-4.923-3.764" transform="translate(-221.084 -56.27)" fill="#fff"/>
            <path id="Path_1119" data-name="Path 1119" d="M289.229,86.443c-.05.02-.1.042-.15.066a4.788,4.788,0,0,0-1.485,1l0,0a4.064,4.064,0,0,0-.254-.663c-.139-.273-.335-.514-.484-.783a5.511,5.511,0,0,1-.454-2.544,14.014,14.014,0,0,0-.58-4.054c-1.63-4.871-7.775-6.018-12.254-6.018-2.982,0-6.885.393-9.613,1.652a3.213,3.213,0,0,0-1.273.922,3.755,3.755,0,0,0-.561,1.883q-.171,1.611-.244,3.231a6.1,6.1,0,0,1-.643,3.044c-.355.56-.894.98-1.3,1.5a3.44,3.44,0,0,0-.56,1.845c-.063-.087-.125-.175-.2-.259-.047-.056-.1-.111-.146-.165a2.626,2.626,0,0,0-.963-.7c-2.334-.882-4.992,1.279-4.992,3.8,0,2.389,2.3,4.326,5.141,4.326a5.972,5.972,0,0,0,1.3-.147v.772c0,8.047,10.3,11.941,13.9,12.14,2.715,0,14.2-4.093,14.2-12.14,0-.246.01-.513.024-.79a5.933,5.933,0,0,0,1.375.166c2.84,0,5.141-1.937,5.141-4.326C294.152,87.713,291.516,85.511,289.229,86.443Z" transform="translate(-221.084 -56.27)" fill="none" stroke="#222221" stroke-width="1"/>
            <path id="Path_1120" data-name="Path 1120" d="M257.25,92.02a3.058,3.058,0,0,1,2.725,3.876" transform="translate(-221.865 -59.743)" fill="#222221"/>
            <path id="Path_1121" data-name="Path 1121" d="M298.77,92.02a3.058,3.058,0,0,0-2.725,3.876" transform="translate(-229.096 -59.743)" fill="#222221"/>
            <path id="Path_1122" data-name="Path 1122" d="M273.034,104.505c1.529,3.466,6.827,3.466,8.74.163" transform="translate(-224.817 -62.078)" fill="#ef3984"/>
            <path id="Path_1123" data-name="Path 1123" d="M285.336,71.325a9.686,9.686,0,0,1,3.153,4.225c.494,1.337.919,4.541-1.241,2.383l-2.082-2.082c-1.119-1.117-2.428-2.315-4.008-2.265-1.632.052-2.873,1.4-4.022,2.563a28.924,28.924,0,0,1-15.073,8.01,2.736,2.736,0,0,1-2.336-.3,2.4,2.4,0,0,1-.653-1.588c-.568-5.464,4.217-10.86,8.951-12.811a19.326,19.326,0,0,1,11.4-.793,14.645,14.645,0,0,1,5.915,2.661" transform="translate(-222.197 -55.281)" fill="#292929"/>
            <path id="Path_1124" data-name="Path 1124" d="M312.349,154.353a3.286,3.286,0,0,0,.092-1.172,27.508,27.508,0,0,0-3.431-13.239,22.812,22.812,0,0,0-10.609-9.057c-4.158-1.877-8.661-2.306-13.059-3.341.2.047-1.739,1.483-1.841,1.543a27.5,27.5,0,0,1-2.62,1.339,29.969,29.969,0,0,1-14.2,2.372,34.779,34.779,0,0,1-18.056-6.31.885.885,0,0,0-.333-.18.873.873,0,0,0-.389.038c-9.254,2.34-18.488,5.188-24.5,13.134-3.278,4.336-5.323,9.67-4.73,15.17,10.91.48,22.017-.025,32.955-.025h58.455c1.488,0,2.061.207,2.261-.272" transform="translate(-214.632 -66.153)" fill="#0565ff"/>
          </g>
        </g>
        <rect id="Rectangle_1292" data-name="Rectangle 1292" width="99.174" height="81.544" transform="translate(173.756 42.533)" fill="none" stroke="#000" stroke-width="1"/>
        <g id="Group_1146" data-name="Group 1146" transform="translate(46.34 119.936)">
          <g id="Group_1145" data-name="Group 1145" clip-path="url(#clip-path-3)">
            <rect id="Rectangle_1293" data-name="Rectangle 1293" width="99.174" height="81.544" transform="translate(0 -0.001)" fill="none" stroke="#000" stroke-width="1"/>
            <path id="Path_1125" data-name="Path 1125" d="M109.2,180.457c.445,4.141-2.26,7.5-6.041,7.5s-7.206-3.358-7.65-7.5,2.26-7.5,6.041-7.5,7.206,3.358,7.65,7.5" transform="translate(-64.192 -152.281)"/>
            <path id="Path_1126" data-name="Path 1126" d="M107.006,215.835a7.248,7.248,0,0,0,2.067,1.419,7.574,7.574,0,0,0,2.578.439c4,.158,9.355-.023,12.588-2.593,1.792-1.425,4.532-5.257,4.423-7.685-.071-1.59-1.1-1.619-2.017-2.44a5.312,5.312,0,0,1-1.38-3.562,50.41,50.41,0,0,1,.855-14.737c1.167-5.611,1.993-11.275.485-16.932-1.02-3.832-2.136-5.276-6.234-6.761-3.659-1.325-7.645-2.606-11.444-2.42a9.3,9.3,0,0,0-9.288,8.4c-.907,6.509-1.28,13.26.5,19.661.919,3.31,2.544,6.628,5.437,8.479a33.478,33.478,0,0,1-2.394,12.534c-.939,2.344,2.166,4.68,3.752,6.127l.073.066" transform="translate(-64.832 -149.96)" fill="#fff"/>
            <path id="Path_1127" data-name="Path 1127" d="M107.006,215.835a7.248,7.248,0,0,0,2.067,1.419,7.574,7.574,0,0,0,2.578.439c4,.158,9.355-.023,12.588-2.593,1.792-1.425,4.532-5.257,4.423-7.685-.071-1.59-1.1-1.619-2.017-2.44a5.312,5.312,0,0,1-1.38-3.562,50.41,50.41,0,0,1,.855-14.737c1.167-5.611,1.993-11.275.485-16.932-1.02-3.832-2.136-5.276-6.234-6.761-3.659-1.325-7.645-2.606-11.444-2.42a9.3,9.3,0,0,0-9.288,8.4c-.907,6.509-1.28,13.26.5,19.661.919,3.31,2.544,6.628,5.437,8.479a33.478,33.478,0,0,1-2.394,12.534c-.939,2.344,2.166,4.68,3.752,6.127Z" transform="translate(-64.832 -149.96)" fill="none" stroke="#000" stroke-width="1"/>
            <path id="Path_1128" data-name="Path 1128" d="M149.835,231.487q.121.249.233.5a126.678,126.678,0,0,1,5.054,13.086c.452,1.44,1.18,4.076-.471,5.1-1.072.663-3.6.659-4.869.988-3.3.854-7.433.394-10.826.39-7.266-.011-14.528-.362-21.795-.251-12.235.186-24.416,1.659-36.656,1.692a103.4,103.4,0,0,1-18.285-1.4c-1.143-.2-2.959-.231-3.978-.781-1.229-.664-1.033-.828-.741-2.35.526-2.753,1.14-5.5,1.927-8.189a31.305,31.305,0,0,1,8.21-13.9,23.11,23.11,0,0,1,6.38-4.809,40.522,40.522,0,0,1,7.923-2.65c4.983-1.21,10.148-2.059,14.66-4.493a17.669,17.669,0,0,0,22-.364A86.8,86.8,0,0,0,130.1,218.8a61.629,61.629,0,0,1,11.079,4.321,19.41,19.41,0,0,1,8.652,8.362" transform="translate(-57.052 -159.968)" fill="#0565ff"/>
            <path id="Path_1129" data-name="Path 1129" d="M104.367,194.328a7.179,7.179,0,0,0,5.856,3.337,5.59,5.59,0,0,0,5.082-3.048q-5.462-.059-10.938-.289" transform="translate(-65.857 -156.278)" fill="#ef3984"/>
            <path id="Path_1130" data-name="Path 1130" d="M100.754,173.677a8.927,8.927,0,0,0,2.051-.079c2.194-.344,4.169-1.479,6.244-2.269a2.6,2.6,0,0,1,1.341-.238,6.013,6.013,0,0,1,1.66.925,4.617,4.617,0,0,0,3.91-.276c1.193-.51,3.109-1.662,4.436-.993,1.059.535,1.88,2.473,1.959,3.564.139,1.919-1,4.008-.024,5.667.493.842,1.441,1.346,1.92,2.2.917,1.622-1.221,8.372,3.037,7.045a3.634,3.634,0,0,0,1.619-1.183c2.064-2.424,2.257-6.05,2.9-9.01a17.572,17.572,0,0,0-.946-10.4c-2.1-4.912-6.833-7.742-11.872-8.918-5.776-1.349-13.247-1.632-18.476,1.539a23.333,23.333,0,0,0-4.088,3.338c-1.176,1.146-2.4,2.53-2.323,4.171a4.624,4.624,0,0,0,2.255,3.393,9.091,9.091,0,0,0,4.4,1.524" transform="translate(-63.937 -149.625)"/>
            <path id="Path_1131" data-name="Path 1131" d="M125.474,185.5a4.153,4.153,0,0,0,.128,1.074c.35,1.359,1.575,3.075,3.126,3.059a4.786,4.786,0,0,0,4.323-6.738,3.283,3.283,0,0,0-.763-1.1,3.376,3.376,0,0,0-2.906-.65,4.486,4.486,0,0,0-3.908,4.358" transform="translate(-69.805 -153.797)" fill="#fff"/>
            <path id="Path_1132" data-name="Path 1132" d="M129.291,191.458a4.743,4.743,0,0,0,3.293-1.027" transform="translate(-70.518 -155.549)" fill="none" stroke="#000" stroke-width="1"/>
            <path id="Path_1133" data-name="Path 1133" d="M126.5,183.673a3.786,3.786,0,0,1,1.859-2.187" transform="translate(-69.996 -153.876)" fill="none" stroke="#000" stroke-width="1"/>
            <path id="Path_1134" data-name="Path 1134" d="M144.428,183.589c.445,4.141-2.26,7.5-6.041,7.5s-7.206-3.358-7.651-7.5,2.261-7.5,6.041-7.5,7.206,3.358,7.651,7.5" transform="translate(-70.78 -152.867)"/>
            <path id="Path_1135" data-name="Path 1135" d="M131.476,161.247c-.067-.049-.133-.1-.2-.145-3.584-2.531-8.212-3.376-12.588-3.55a10.744,10.744,0,0,0-4.423,1.025c4.7.354,9.532.748,13.723,2.893,5.824,2.982,7.11,9.679,6.08,15.674-.264,1.535,2.462,2.189,2.726.653.953-5.532.258-12.464-5.317-16.551" transform="translate(-67.708 -149.4)"/>
            <path id="Path_1136" data-name="Path 1136" d="M141.841,183.893a2.505,2.505,0,0,1-2.385,2.96,3.241,3.241,0,0,1-3.019-2.96,2.505,2.505,0,0,1,2.384-2.961,3.243,3.243,0,0,1,3.02,2.961" transform="translate(-71.851 -153.772)" fill="#131834"/>
            <path id="Path_1137" data-name="Path 1137" d="M167.29,254.792c-2.854,2.738-7.959,3.256-11.482,1.769a16.025,16.025,0,0,1-6.4-5.076c-1.2-1.66-1.18.266-1.719-1.684-1.764-6.37-2.566-17.313-3.4-23.845-.647-5.063-1.653-10.071-2.742-15.055-.484-2.214-.88-4.439-1.387-6.637-.458-1.985-.447-4.1-1.392-5.955a15.749,15.749,0,0,0-2.165-2.894,15.18,15.18,0,0,1-3.742-7.035.712.712,0,0,1,.038-.49.581.581,0,0,1,.531-.221c1.485.056,1.9,2.43,3.366,2.7,1.249-1.889.254-4.194-.574-6.033-.724-1.609-2.427-4.4-.555-5.823,1-.759,2.825-.361,3.879.113a8.308,8.308,0,0,1,3.094,2.574,27.7,27.7,0,0,1,3.143,6.127c3.252,7.626,5.862,15.483,9.087,23.121,4.48,10.612,10.379,20.935,13.544,32.015.879,3.042,1.611,6.3.712,9.339a6.779,6.779,0,0,1-1.836,2.992" transform="translate(-71.181 -153.241)" fill="#fff"/>
            <path id="Path_1138" data-name="Path 1138" d="M167.29,254.792c-2.854,2.738-7.959,3.256-11.482,1.769a16.025,16.025,0,0,1-6.4-5.076c-1.2-1.66-1.18.266-1.719-1.684-1.764-6.37-2.566-17.313-3.4-23.845-.647-5.063-1.653-10.071-2.742-15.055-.484-2.214-.88-4.439-1.387-6.637-.458-1.985-.447-4.1-1.392-5.955a15.749,15.749,0,0,0-2.165-2.894,15.18,15.18,0,0,1-3.742-7.035.712.712,0,0,1,.038-.49.581.581,0,0,1,.531-.221c1.485.056,1.9,2.43,3.366,2.7,1.249-1.889.254-4.194-.574-6.033-.724-1.609-2.427-4.4-.555-5.823,1-.759,2.825-.361,3.879.113a8.308,8.308,0,0,1,3.094,2.574,27.7,27.7,0,0,1,3.143,6.127c3.252,7.626,5.862,15.483,9.087,23.121,4.48,10.612,10.379,20.935,13.544,32.015.879,3.042,1.611,6.3.712,9.339A6.779,6.779,0,0,1,167.29,254.792Z" transform="translate(-71.181 -153.241)" fill="none" stroke="#000" stroke-width="1"/>
          </g>
        </g>
        <g id="Group_1148" data-name="Group 1148" transform="translate(81.329 130.52)">
          <g id="Group_1147" data-name="Group 1147" clip-path="url(#clip-path-8)">
            <path id="Path_1139" data-name="Path 1139" d="M106.172,205.2a6.627,6.627,0,0,1,.728,2.175,18.422,18.422,0,0,0,7.653-2.56c-2.214.083-7.31.3-9.175-.778a8,8,0,0,1,.793,1.163" transform="translate(-101.036 -168.677)"/>
          </g>
        </g>
        <rect id="Rectangle_1295" data-name="Rectangle 1295" width="99.174" height="81.544" transform="translate(46.34 119.935)" fill="none" stroke="#000" stroke-width="1"/>
        <g id="Group_1150" data-name="Group 1150" transform="translate(159.188 138.184)">
          <g id="Group_1149" data-name="Group 1149" clip-path="url(#clip-path-3)">
            <path id="Path_1141" data-name="Path 1141" d="M297.475,273.208c-4.07-7.5-8.967-14.886-15.286-20.421a34.586,34.586,0,0,0-7.4-5.214,46.964,46.964,0,0,0-10.805-3.254,134.38,134.38,0,0,0-13.7-1.626,16.079,16.079,0,0,0-2.879-.186c-.862.085-1.736-.1-2.612-.054a24.45,24.45,0,0,0-5.814,1.34,25.722,25.722,0,0,1-4.049,1c-.613.086-1.239.123-1.854.168a6.531,6.531,0,0,1-1.88-.348,4.069,4.069,0,0,0-.689-.12,3.851,3.851,0,0,0-1,.115,30.67,30.67,0,0,0-12.551,5.172,31.948,31.948,0,0,0-6.07,6.162c-3.966,5.245-6.559,11.211-8.92,17.263Z" transform="translate(-196.956 -183.524)" fill="#39d6ef"/>
            <path id="Path_1142" data-name="Path 1142" d="M238.316,222.7a21.067,21.067,0,0,0,2.4,1.763c.776.547.749.835.839,1.86.2,2.323.3,4.658.3,6.989,0,2.4-2.956,2.74-5.359,3.1.13,3.014,4.7,5.547,6.922,6.426a18.107,18.107,0,0,0,9.489,1.217,14.974,14.974,0,0,0,10.945-8.723c-3.094-.954-5.517-2.4-6.348-5.349a8.73,8.73,0,0,1-.3-2.089,64.552,64.552,0,0,1,.293-8.521c.132-1.3.254-2.533.3-3.728a4.934,4.934,0,0,0,3.115-4.578A3.928,3.928,0,0,0,256.4,207.4c-.1.012-.2.033-.3.052a20.276,20.276,0,0,0-6.732-7.6,13.9,13.9,0,0,0-4.648-2.073c-3.981-.876-7.8,3.164-9.371,6.614a17.6,17.6,0,0,0-.058,13.435,12.588,12.588,0,0,0,3.023,4.872" transform="translate(-202.946 -175.148)" fill="#fff"/>
            <path id="Path_1143" data-name="Path 1143" d="M238.316,222.7a21.067,21.067,0,0,0,2.4,1.763c.776.547.749.835.839,1.86.2,2.323.3,4.658.3,6.989,0,2.4-2.956,2.74-5.359,3.1.13,3.014,4.7,5.547,6.922,6.426a18.107,18.107,0,0,0,9.489,1.217,14.974,14.974,0,0,0,10.945-8.723c-3.094-.954-5.517-2.4-6.348-5.349a8.73,8.73,0,0,1-.3-2.089,64.552,64.552,0,0,1,.293-8.521c.132-1.3.254-2.533.3-3.728a4.934,4.934,0,0,0,3.115-4.578A3.928,3.928,0,0,0,256.4,207.4c-.1.012-.2.033-.3.052a20.276,20.276,0,0,0-6.732-7.6,13.9,13.9,0,0,0-4.648-2.073c-3.981-.876-7.8,3.164-9.371,6.614a17.6,17.6,0,0,0-.058,13.435A12.588,12.588,0,0,0,238.316,222.7Z" transform="translate(-202.946 -175.148)" fill="none" stroke="#222221" stroke-width="1"/>
            <path id="Path_1144" data-name="Path 1144" d="M244.575,233.646a14.706,14.706,0,0,1,2.031-1.314c.659-.359,1.336-.677,2.013-1,.317-.15.634-.3.947-.458.236-.12.677-.523.92-.55q-1.382.156-2.763.308c-2.006.217-4.187.377-5.892-.7.676.428.98,1.729,1.124,2.446a15.207,15.207,0,0,1,.118,2.742,8.989,8.989,0,0,1,1.5-1.475" transform="translate(-204.413 -181.184)"/>
            <path id="Path_1145" data-name="Path 1145" d="M256.169,219.3c-1.089-.988-1.379-3.58-1.711-4.737-.371-1.294-.95-2.6-1.193-3.921a5,5,0,0,0-.913-2.048c-.761-.715-1.062.307-1.687.528-.444.157-.828-.379-.9-.845-.125-.851.631-3.1-.691-3.222-1.536-.146-16.708-.794-16.771-.43a15.772,15.772,0,0,1,6.63-10.133c2.615-1.758,5.164-1.447,8.146-1.364a17.632,17.632,0,0,1,8.332,1.967,14.113,14.113,0,0,1,6.57,9.876,20.748,20.748,0,0,1-1.818,11.937,5.1,5.1,0,0,1-1.721,2.33c-1.015.645-1.741.546-2.275.062" transform="translate(-202.632 -174.288)"/>
            <path id="Path_1146" data-name="Path 1146" d="M260.81,213.136a1.375,1.375,0,0,1,1.637.1,1.926,1.926,0,0,1,.681,1.774,2.353,2.353,0,0,1-1.176,1.671" transform="translate(-207.963 -178.001)"/>
            <path id="Path_1147" data-name="Path 1147" d="M261.055,197.91a6.751,6.751,0,1,0,7.111-6.1,6.63,6.63,0,0,0-7.111,6.1" transform="translate(-208.006 -174.052)"/>
            <path id="Path_1148" data-name="Path 1148" d="M239.509,188.414a6.512,6.512,0,1,0,6.859-5.888,6.394,6.394,0,0,0-6.859,5.888" transform="translate(-203.977 -172.317)"/>
            <path id="Path_1149" data-name="Path 1149" d="M245.574,223.16a3.7,3.7,0,0,1-6.03-.68" transform="translate(-203.986 -179.791)" fill="#fff"/>
            <path id="Path_1150" data-name="Path 1150" d="M254.854,212.977a3.547,3.547,0,0,1,4.262-1.688c1.846.691,2.5,3.423,1.681,5.1a3.74,3.74,0,0,1-3.45,2.048" transform="translate(-206.849 -177.66)" fill="#fff"/>
            <path id="Path_1151" data-name="Path 1151" d="M254.854,212.977a3.547,3.547,0,0,1,4.262-1.688c1.846.691,2.5,3.423,1.681,5.1a3.74,3.74,0,0,1-3.45,2.048" transform="translate(-206.849 -177.66)" fill="none" stroke="#222221" stroke-width="1"/>
            <path id="Path_1152" data-name="Path 1152" d="M259.5,213.484a1.632,1.632,0,0,0-1.942,2.034" transform="translate(-207.343 -178.101)" fill="#fff"/>
            <path id="Path_1153" data-name="Path 1153" d="M259.5,213.484a1.632,1.632,0,0,0-1.942,2.034" transform="translate(-207.343 -178.101)" fill="none" stroke="#222221" stroke-width="1"/>
            <path id="Path_1154" data-name="Path 1154" d="M239.232,223.419a2.813,2.813,0,0,0,2.178.865,5.221,5.221,0,0,0,2.3-.686" transform="translate(-203.927 -179.966)" fill="#fff"/>
            <path id="Path_1155" data-name="Path 1155" d="M239.232,223.419a2.813,2.813,0,0,0,2.178.865,5.221,5.221,0,0,0,2.3-.686" transform="translate(-203.927 -179.966)" fill="none" stroke="#222221" stroke-width="1"/>
          </g>
        </g>
        <rect id="Rectangle_1297" data-name="Rectangle 1297" width="99.174" height="81.544" transform="translate(159.188 138.184)" fill="none" stroke="#000" stroke-width="1"/>
        <path id="Path_1156" data-name="Path 1156" d="M95.748,141.729l7.337-6.4,2.882,6.4,6.34-6.618,2.979,6.618,6.236-6.51,2.932,6.51,5.981-6.244" transform="translate(-17.906 -25.267)" fill="none" stroke="#000" stroke-width="1"/>
        <g id="Group_1152" data-name="Group 1152" transform="translate(0 0.001)">
          <g id="Group_1151" data-name="Group 1151" clip-path="url(#clip-path-10)">
            <path id="Path_1157" data-name="Path 1157" d="M.7,216.391l7.96-7.785,3.128,7.785,6.878-8.045,3.232,8.045,6.767-7.915" transform="translate(-0.131 -38.964)" fill="none" stroke="#a1dedb" stroke-width="2"/>
            <path id="Path_1158" data-name="Path 1158" d="M244.185,284.245l9.441-7.785,2.483,7.785,8.307-8.045,2.566,8.045,8.172-7.914,2.524,7.914,7.838-7.59" transform="translate(-45.666 -51.654)" fill="none" stroke="#a1dedb" stroke-width="2"/>
            <path id="Path_1159" data-name="Path 1159" d="M126.933,271.7a2.575,2.575,0,0,1,4.123-1.094l.16.139a2.576,2.576,0,0,0,4.183-1.292l.824-3.15a2.576,2.576,0,0,1,4.184-1.292l.1.089a2.576,2.576,0,0,0,4.184-1.291l.776-2.97a2.576,2.576,0,0,1,4.184-1.291,2.576,2.576,0,0,0,4.184-1.291" transform="translate(-23.738 -48.297)" fill="none" stroke="#000" stroke-width="1"/>
            <path id="Path_1160" data-name="Path 1160" d="M329.278,179.434A9.32,9.32,0,0,1,343.424,167.3" transform="translate(-61.159 -30.679)" fill="none" stroke="#a1dedb" stroke-width="2"/>
            <path id="Path_1161" data-name="Path 1161" d="M276.767,34.087a4.919,4.919,0,1,1-4.919-4.919,4.918,4.918,0,0,1,4.919,4.919" transform="translate(-49.919 -5.456)" fill="#a1dedb"/>
            <path id="Path_1162" data-name="Path 1162" d="M290.312,224.421A11.083,11.083,0,0,1,301.4,235.5" transform="translate(-54.292 -41.97)" fill="#a1dedb"/>
            <line id="Line_11" data-name="Line 11" x1="16.213" y2="16.213" transform="translate(163.304 92.631)" fill="none" stroke="#000" stroke-width="1"/>
            <line id="Line_12" data-name="Line 12" x1="16.213" y2="16.213" transform="translate(158.981 100.198)" fill="none" stroke="#000" stroke-width="1"/>
            <line id="Line_13" data-name="Line 13" x1="15.533" y2="15.533" transform="translate(226.849 20.088)" fill="none" stroke="#000" stroke-width="1"/>
            <path id="Path_1163" data-name="Path 1163" d="M204.79,32.29A2.813,2.813,0,0,1,207.6,35.1" transform="translate(-38.298 -6.039)" fill="none" stroke="#000" stroke-width="1"/>
            <path id="Path_1164" data-name="Path 1164" d="M205.059,24.559a8.77,8.77,0,0,1,8.77,8.77" transform="translate(-38.348 -4.594)" fill="none" stroke="#000" stroke-width="1"/>
            <path id="Path_1165" data-name="Path 1165" d="M205.059,16.085a15.659,15.659,0,0,1,15.659,15.659" transform="translate(-38.348 -3.009)" fill="none" stroke="#000" stroke-width="1"/>
            <path id="Path_1166" data-name="Path 1166" d="M62.714,160.48H44.072a11.69,11.69,0,0,0,0,23.381H58.22a29.084,29.084,0,0,0,12.135,13.267,25.805,25.805,0,0,1-5.4-11.536c-.137-.625-.253-1.254-.36-1.883a11.69,11.69,0,0,0-1.88-23.229" transform="translate(-6.056 -30.012)" fill="#fff"/>
            <path id="Path_1167" data-name="Path 1167" d="M62.714,160.48H44.072a11.69,11.69,0,0,0,0,23.381H58.22a29.084,29.084,0,0,0,12.135,13.267,25.805,25.805,0,0,1-5.4-11.536c-.137-.625-.253-1.254-.36-1.883a11.69,11.69,0,0,0-1.88-23.229Z" transform="translate(-6.056 -30.012)" fill="none" stroke="#000" stroke-width="1"/>
            <path id="Path_1168" data-name="Path 1168" d="M49.711,174.909a1.474,1.474,0,1,1-1.475-1.475,1.475,1.475,0,0,1,1.475,1.475" transform="translate(-8.745 -32.435)"/>
            <path id="Path_1169" data-name="Path 1169" d="M58.779,174.909a1.474,1.474,0,1,1-1.475-1.475,1.475,1.475,0,0,1,1.475,1.475" transform="translate(-10.441 -32.435)"/>
            <path id="Path_1170" data-name="Path 1170" d="M67.847,174.909a1.474,1.474,0,1,1-1.475-1.475,1.475,1.475,0,0,1,1.475,1.475" transform="translate(-12.137 -32.435)"/>
            <circle id="Ellipse_799" data-name="Ellipse 799" cx="13.128" cy="13.128" r="13.128" transform="matrix(0.257, -0.966, 0.966, 0.257, 12.279, 80.834)" fill="none" stroke="#a1dedb" stroke-width="1"/>
            <path id="Path_1171" data-name="Path 1171" d="M34.154,76.733l.571,9.132,6.849-5.136" transform="translate(-6.387 -14.351)" fill="none" stroke="#a1dedb" stroke-width="1"/>
          </g>
        </g>
      </g>
    </g>
  </g>
</svg>
