<svg xmlns="http://www.w3.org/2000/svg" width="39.549" height="39.554" viewBox="0 0 39.549 39.554">
  <g id="Group_201" data-name="Group 201" transform="translate(0 -0.001)">
    <g id="Group_198" data-name="Group 198" transform="translate(0 0.001)">
      <path id="Path_319" data-name="Path 319" d="M0,542.362v-3.4c.017-.088.04-.176.049-.264a18.688,18.688,0,0,1,3.73-9.7c5.017-6.5,11.67-9.229,19.733-7.737a19.522,19.522,0,0,1,15.68,22.946c-1.528,7.981-6.429,13.129-14.187,15.543a20.177,20.177,0,0,1-3.632.666H18.133c-.647-.093-1.3-.147-1.941-.284Q4.3,557.57.673,545.953A21.064,21.064,0,0,1,0,542.362m8.626,9.851c.459,0,.917-.011,1.374,0a.732.732,0,0,0,.632-.286q3.576-4.174,7.164-8.337c.362-.421.361-.424.671.028C20.317,546.313,22.174,549,24,551.7a1.044,1.044,0,0,0,1.007.52c1.581-.028,3.163-.011,4.744-.011.309,0,.617,0,.926,0,.22,0,.3-.07.153-.27-.067-.094-.13-.191-.2-.287q-4.248-6.183-8.5-12.361a.541.541,0,0,1,.027-.794c1.808-2.074,3.6-4.165,5.391-6.25q1.2-1.389,2.389-2.778c.073-.085.213-.171.169-.283-.057-.146-.227-.075-.347-.079-.321-.009-.644.014-.964-.008a.813.813,0,0,0-.723.342q-3.323,3.883-6.662,7.751c-.395.459-.4.463-.746-.045q-2.633-3.829-5.258-7.665a.778.778,0,0,0-.727-.386c-1.89.014-3.78.007-5.67.007l-.231,0c-.189,0-.229.086-.123.242l.13.191q4.106,5.976,8.22,11.947a.6.6,0,0,1-.038.886q-4.1,4.718-8.158,9.467a.483.483,0,0,0-.191.37" transform="translate(0 -520.865)" fill="#7e8e9e"/>
      <path id="Path_320" data-name="Path 320" d="M261.8,743.784c1.208-.346,1.806.334,2.44,1.252,4.282,6.2,8.616,12.363,12.934,18.539a.282.282,0,0,1,.022.031c.074.144.28.265.2.429s-.3.089-.458.091c-.72.007-1.44-.006-2.16.008a.687.687,0,0,1-.642-.327q-6.843-9.806-13.7-19.6c-.071-.1-.205-.2-.148-.335s.228-.078.348-.08c.386-.008.771,0,1.157,0" transform="translate(-249.1 -734.122)" fill="#7e8e9e"/>
    </g>
  </g>
</svg>
