<svg xmlns="http://www.w3.org/2000/svg" width="64.323" height="70.354" viewBox="0 0 64.323 70.354">
  <g id="Group_6196" data-name="Group 6196" transform="translate(-1723.308 -16334.451)">
    <path id="Path_3712" data-name="Path 3712" d="M345.619,2141.914a8.516,8.516,0,0,1-6.313-5.9H357.7a8.451,8.451,0,0,1-4.436,5.239l-2.014.662Z" transform="translate(1406.968 14262.891)" fill="#56c4c5"/>
    <path id="Path_3713" data-name="Path 3713" d="M307.266,1896.22h-4.529v-6.587h2.676a1.611,1.611,0,0,0,1.026-.895c.131-.693-.161-3.589.025-3.887a3.7,3.7,0,1,0-4.622-2.489,4.028,4.028,0,0,0,2.386,2.555l.018,2.52H301.3a1.709,1.709,0,0,0-.755.755v8.028h-2.47v-14.684a3.658,3.658,0,1,0-2.2,0v14.684h-2.47v-8.028a1.709,1.709,0,0,0-.755-.755H289.7l.018-2.52a4.028,4.028,0,0,0,2.386-2.555,3.7,3.7,0,1,0-4.622,2.489c.2.915-.316,3.928.336,4.467a5.361,5.361,0,0,0,.716.315h2.676v6.587h-4.529c-1.316-3.789-4.753-6.288-7.029-9.507-7.96-11.257-1.3-27.356,11.666-30.937a20.765,20.765,0,0,1,26.224,22.518,17.758,17.758,0,0,1-3.771,9.129c-2.192,2.886-5.337,5.277-6.5,8.8" transform="translate(1458.495 14492.392)" fill="#56c4c5"/>
    <path id="Path_3714" data-name="Path 3714" d="M258.137,1840.261c.939-3.476,3.874-5.746,6.035-8.442,12.364-15.424-.159-37.8-19.551-36.568-17.919,1.142-27.8,22.3-16.4,36.568,2.162,2.7,5.087,4.962,6.035,8.442-.124.1-1.116-.533-1.373-.615-2.789-.881-4.961,3.345-7.822,1.1a30.59,30.59,0,0,1-3.215-3.235c-1.728-2.467,1.34-4.449,1.436-6.654.043-.984-1.413-3.359-1.855-4.455-.412-1.023-.795-3.007-1.506-3.709-1.332-1.313-4.585-.979-5.481-2.89a14.292,14.292,0,0,1-.113-6.261c.83-2.205,3.962-1.739,5.455-3.053.861-.759,1.311-2.961,1.785-4.116.395-.963,1.673-3.09,1.717-3.92.107-1.988-2.393-3.518-1.867-5.973.192-.9,3.311-4.057,4.147-4.5,2.354-1.244,4.32,1.636,6.428,1.636,1.089,0,2.625-1.089,3.681-1.545a35.811,35.811,0,0,0,4-1.484c1.994-1.387,1.03-5.707,4.116-6.04a32.129,32.129,0,0,1,4.8,0c2.942.318,2.173,4.229,3.839,5.767.768.709,3.051,1.234,4.184,1.717.914.389,2.678,1.5,3.5,1.575,2.247.193,4.29-2.9,6.7-1.626a23.188,23.188,0,0,1,3.911,3.911c1.327,2.51-1.721,4.386-1.629,6.558.041.964.873,1.97,1.263,2.864.594,1.361.973,2.945,1.556,4.208,1.171,2.536,5,1.5,6.043,3.838a14.443,14.443,0,0,1,.1,6.157c-.89,2.528-4.989,1.6-6.107,3.911-.423.875-.632,2.043-1.006,2.974-.4,1-1.811,3.358-1.857,4.192-.128,2.377,3.359,4.416,1.313,7.066a29.81,29.81,0,0,1-3.09,3.086c-2.213,1.738-3.916-.331-5.945-1.057-1.452-.519-1.952.085-3.251.573" transform="translate(1509.271 14549.995)" fill="#56c4c5"/>
    <path id="Path_3715" data-name="Path 3715" d="M356.274,2091.849l-.137,5.9H337.2l-.137-5.9Z" transform="translate(1408.802 14298.957)" fill="#56c4c5"/>
    <path id="Path_3716" data-name="Path 3716" d="M427.338,1990.5c1.482-1.48,3.66.982,2.084,2.29a1.551,1.551,0,0,1-2.084-2.29" transform="translate(1335.451 14382.1)" fill="#56c4c5"/>
    <path id="Path_3717" data-name="Path 3717" d="M337.811,1990.5a1.552,1.552,0,0,1-2.084,2.29c-1.576-1.307.6-3.77,2.084-2.29" transform="translate(1410.339 14382.099)" fill="#56c4c5"/>
    <path id="Path_3718" data-name="Path 3718" d="M383.581,1972.728a1.549,1.549,0,0,1-2.084,2.29c-1.53-1.361.654-3.652,2.084-2.29" transform="translate(1372.938 14396.581)" fill="#56c4c5"/>
  </g>
</svg>
