<svg xmlns="http://www.w3.org/2000/svg" width="72.809" height="68.646" viewBox="0 0 72.809 68.646">
  <g id="Group_6188" data-name="Group 6188" transform="translate(-2948.09 -14587.388)">
    <path id="Path_3683" data-name="Path 3683" d="M1562.3,37.433a11.524,11.524,0,0,1,11.049,5.972c.286.517.574,1.648.917,1.909.517.394,1.171.157,1.764.277,9.263,1.867,8.626,14.8-.582,15.981l-27.011-.007A7,7,0,0,1,1545.07,49.1c2.114-1.6,4.379-1.516,6.906-1.573A11.627,11.627,0,0,1,1562.3,37.433" transform="translate(1422.027 14549.995)" fill="#56c4c5"/>
    <path id="Path_3684" data-name="Path 3684" d="M1750.356,323.092a5.5,5.5,0,0,1-4.327-3.524c-.507-1.694-.521-9.342-.042-11.051a5.276,5.276,0,0,1,3.811-3.568c4.981.269,10.9-.6,15.788-.072a5.249,5.249,0,0,1,4.472,4.949c.18,2.036.238,8.37-.441,10.074-.591,1.484-2.549,3.191-4.188,3.191h-5.417v3.925h3.533a3.392,3.392,0,0,1,1.093.792,2.112,2.112,0,0,1-1.713,3.3,72.691,72.691,0,0,1-9.906,0,2.164,2.164,0,0,1-2.216-2.1c.02-.653.743-1.987,1.438-1.987h3.533v-3.925c-1.715-.147-3.741.2-5.417,0" transform="translate(1250.721 14324.739)" fill="#56c4c5"/>
    <path id="Path_3685" data-name="Path 3685" d="M1440.439,322.619a5.909,5.909,0,0,1-1.466-3.48,69.206,69.206,0,0,1-.008-9.11,5.235,5.235,0,0,1,4.479-5.1c4.794-.521,10.5.392,15.39,0,2.785.518,4.261,2.513,4.472,5.263.178,2.315.269,8.859-.492,10.809a5.061,5.061,0,0,1-4.139,3.083c-4.822-.309-10.161.417-14.921.007a5.673,5.673,0,0,1-3.315-1.474" transform="translate(1509.272 14324.687)" fill="#56c4c5"/>
    <path id="Path_3686" data-name="Path 3686" d="M1621.093,305.05a59.883,59.883,0,0,1,9.5,0c2.256.35,3.264,2.34,3.42,4.431.419,5.62-.324,11.757-.009,17.432a4.336,4.336,0,0,1-3.838,4.327,60.774,60.774,0,0,1-8.943-.02c-2.257-.3-3.4-2.361-3.552-4.455-.423-5.659.312-11.856.026-17.571a4.26,4.26,0,0,1,3.393-4.144m4.237,18.213c-2.1.429-1.775,4.033.679,3.819a1.944,1.944,0,1,0-.679-3.819" transform="translate(1358.668 14324.605)" fill="#56c4c5"/>
    <path id="Path_3687" data-name="Path 3687" d="M1532.166,213.825h18.292a6.949,6.949,0,0,1,4.321,2.116c1.265,1.424,2.714,5.6-.092,6.038-2.861.445-2.06-2.151-2.98-3.28a3.521,3.521,0,0,0-.936-.634h-18.606V220.5a2.8,2.8,0,0,1-.949,1.249c-1.071.667-3.133-.084-3.133-1.249v-2.434h-18.606a3.524,3.524,0,0,0-.936.634c-.919,1.13-.119,3.725-2.98,3.28-2.806-.436-1.356-4.614-.092-6.038a6.95,6.95,0,0,1,4.321-2.116h18.292v-2.434a3.822,3.822,0,0,1,.7-1.022,2.058,2.058,0,0,1,2.583-.067,3.3,3.3,0,0,1,.795,1.089Z" transform="translate(1454.387 14404.645)" fill="#56c4c5"/>
    <path id="Path_3688" data-name="Path 3688" d="M1446.953,447.048a2.133,2.133,0,0,1,1.12-.529h18.849a2.062,2.062,0,0,1-.317,4.086c-5.681.61-12.421-.458-18.215,0a2.107,2.107,0,0,1-1.438-3.559" transform="translate(1502.912 14205.234)" fill="#56c4c5"/>
  </g>
</svg>
