<svg xmlns="http://www.w3.org/2000/svg" width="77.274" height="77.025" viewBox="0 0 77.274 77.025">
  <g id="Group_6192" data-name="Group 6192" transform="translate(-2559.753 -15231.247)">
    <path id="Path_3696" data-name="Path 3696" d="M1097.136,688.016a28.425,28.425,0,0,1,6.372,35.046c-.846,1.554-1.943,2.927-2.845,4.441l6.713,6.758a7.252,7.252,0,0,1,6.8,1.272c4.23,3.441,8.147,8.454,12.263,12.123a6.645,6.645,0,0,1-7.214,10.355c-2.467-.67-5.117-4.071-6.986-5.873-2.216-2.135-4.643-4.211-6.742-6.43a7.1,7.1,0,0,1-1.947-7.489c-2.11-2.369-4.511-4.465-6.652-6.814-.334-.165-1.78,1.131-2.194,1.4-20.534,13.414-46.72-2.483-44.029-26.824,2.454-22.191,29.56-32.544,46.463-17.968m-20.165-1.364c-17.836,1.342-27.268,21.966-16.638,36.446,10.716,14.6,33.686,11.221,39.86-5.744a22.928,22.928,0,0,0-23.222-30.7" transform="translate(1509.271 14549.995)" fill="#56c4c5"/>
    <path id="Path_3697" data-name="Path 3697" d="M1102.338,785.663V774.817c0-.159.645-.563.874-.594a33.551,33.551,0,0,1,4.14.07c.434.047.97.364.97.823v8.453h1.8v-4.862a1.468,1.468,0,0,1,.677-.52,36.391,36.391,0,0,1,4.858.072,5.185,5.185,0,0,1,.449.6v4.713c.531-.1,1.672.294,1.8-.374l.078-12.339a.951.951,0,0,1,.6-.448,28.348,28.348,0,0,1,4.338,0,1.2,1.2,0,0,1,.636.184,7.568,7.568,0,0,1,.334.788v12.193h1.8V765.092c0-.165.612-.48.832-.515a28.779,28.779,0,0,1,4.326,0c.558.1.827.947.827,1.417v19.449a1.514,1.514,0,0,1-.224.224Z" transform="translate(1470.77 14488.191)" fill="#56c4c5"/>
    <path id="Path_3698" data-name="Path 3698" d="M1110.007,743.224c-.578-.042-2.4-1.356-2.745-1.328-.068.006-.512.43-.762.54a3,3,0,0,1-3.83-4.279,3.028,3.028,0,0,1,5.178.121c.242.5.327,1.623.536,1.857a19.9,19.9,0,0,0,2.594,1.239c.292-.051.884-.617,1.535-.7.583-.077,1.453.194,1.749.115.538-.143,2.92-3.1,3.627-3.575a12.927,12.927,0,0,1-.012-2.1,3.032,3.032,0,0,1,3.441-2.225c.846.132.636.663,1.564.05.323-.213,2.552-1.862,2.632-2.006.2-.357.01-1.279.193-1.9a3.016,3.016,0,0,1,4.151-1.691c3,1.447,1.515,6.165-1.762,5.654-.352-.055-.8-.361-1.111-.377a19.41,19.41,0,0,0-3.269,2.361c-.172.377.1.713.075,1.1a3.231,3.231,0,0,1-2.786,2.775c-.577.04-.988-.259-1.356-.257-.407,0-3.258,3.254-3.862,3.712,1.456,4.907-5.837,6.061-5.78.918m19.282-12.335a1.165,1.165,0,0,0-1.533-1.755,1.165,1.165,0,0,0,1.533,1.755m-8.827,3.814c-2.162.482.237,3.834,1.368,1.671a1.2,1.2,0,0,0-1.368-1.671m-15.559,3.89c-1.924.43-.215,3.456,1.175,1.926a1.181,1.181,0,0,0-1.175-1.926m7.628,3.891a1.176,1.176,0,1,0,1.054,2.1c1.2-.519.484-2.563-1.054-2.1" transform="translate(1470.855 14515.993)" fill="#56c4c5"/>
  </g>
</svg>
