<svg xmlns="http://www.w3.org/2000/svg" width="80.929" height="60.227" viewBox="0 0 80.929 60.227">
  <g id="Group_6189" data-name="Group 6189" transform="translate(-3666.949 -14977.348)">
    <path id="Path_3699" data-name="Path 3699" d="M2193.363,432.2c2.529,3.267,6.774,1.273,6.22,6.9-.121,1.227-.444,1.811-1.727,1.928-6.25.571-11.615-1.225-17.646,1.846-13.408,6.828-11.01,26.967,3.686,30.571,4.694,1.151,9.806-.162,14.346.484,1.536.219,1.469,2.734,1.33,3.941-.252,2.2-2.154,2.173-3.731,2.97a7.209,7.209,0,0,0-3.32,3.38c-.634,1.477-.188,3.078-2.183,3.3-.967.108-5.193.113-5.867-.234-1.056-.543-.979-2.374-1.584-3.492-1.615-2.978-6.856-5.153-10.071-4.255-1.887.527-2.633,2.224-4.495.946a42.022,42.022,0,0,1-3.472-3.422c-1.471-1.879.5-2.86.964-4.731.789-3.164-1.419-8.374-4.346-9.959-1.609-.871-3.456-.24-3.72-2.574-.115-1.011-.125-4.867.25-5.638.469-.963,1.737-.866,2.648-1.21,3.759-1.422,6.307-7.381,4.915-11.117-.346-.93-1.47-1.88-1.283-2.9a14.358,14.358,0,0,1,1.8-2.28,28.5,28.5,0,0,1,2.654-2.421c1.417-.818,2.579.8,4.045,1.2,3.409.927,8.977-1.458,10.393-4.834.421-1,.292-2.429,1.329-2.935.865-.422,5.917-.418,6.739.07.895.531,1.128,3.175,2.13,4.469" transform="translate(1509.271 14549.995)" fill="#56c4c5"/>
    <path id="Path_3700" data-name="Path 3700" d="M2287.173,484.354c1.719-1.414,3.323-3.6,4.95-5.1a4.365,4.365,0,0,1,2.742-1.116c2.916-.253,6.159.23,9.112-.025,1.707-3.257,5.564-4.767,8.851-2.7,5.163,3.255,2.456,11.591-4.127,10.827-2.33-.27-3.551-1.753-4.724-3.6-2.548.162-5.61-.328-8.094-.036a1.737,1.737,0,0,0-1.011.41c-2.124,1.475-5.346,6.451-7.764,6.855l-20.869.053c-2.122.12-1.938-4.028-.562-4.43l19.657-.038c.755-.04,1.292-.655,1.839-1.1m24.379-5.732c-2.4-2.545-6.3,1.056-3.9,3.594,2.38,2.518,6.268-1.078,3.9-3.594" transform="translate(1432.348 14516.112)" fill="#56c4c5"/>
    <path id="Path_3701" data-name="Path 3701" d="M2290.416,536.226l-24.627-.051c-1.731-.245-1.663-4.469.391-4.453l23.964.005c.553-.1.837-1.186,1.313-1.732a5.957,5.957,0,0,1,9.962,2.028c2.492,7.388-8.059,11.18-11,4.2m3.359-3.813a2.661,2.661,0,0,0,4.279,3.163c2.041-2.926-2.476-5.872-4.279-3.163" transform="translate(1432.407 14477.556)" fill="#56c4c5"/>
    <path id="Path_3702" data-name="Path 3702" d="M2265.281,456.622c-.76-.695-.7-3.622.323-3.908,3.88-.312,7.825.112,11.7-.084.343-.017,1.271-.04,1.521-.1,1.227-.291,2.546-2.34,3.31-3.288.176-.219.691-.346.856-.682.091-.185-.7-2.079-.725-2.745a5.937,5.937,0,1,1,5.99,5.609c-.586.01-1.229-.345-1.717-.123s-2.982,3.4-3.657,4.07a4.914,4.914,0,0,1-3.754,1.728,94.417,94.417,0,0,1-12.4,0,2.608,2.608,0,0,1-1.448-.482m24.844-13.055a2.7,2.7,0,0,0-4.519,2.366,2.645,2.645,0,1,0,5.023-1.556c-.015-.045-.47-.778-.5-.811" transform="translate(1432.258 14541.225)" fill="#56c4c5"/>
    <path id="Path_3703" data-name="Path 3703" d="M2282.122,569.529c.948.8,2.24,2.57,3.221,3.586a1.382,1.382,0,0,1,.316.594,5.905,5.905,0,0,1,6.842,8.61c-3.182,5.721-12.384,2.635-10.877-4.582.085-.41.577-.889.519-1.23a23.124,23.124,0,0,0-2.645-3.034,2.306,2.306,0,0,0-.857-.158c-3.847-.358-8.646.512-12.376-.009a1.533,1.533,0,0,1-1.53-1.313c-.17-1.029-.235-3.011,1.117-3.122,4.493.225,9.081-.29,13.556-.138a4.563,4.563,0,0,1,2.713.8m7.307,8.121c-2.247-2.7-6.434.87-3.993,3.487s6.034-1.036,3.993-3.487" transform="translate(1432.346 14448.344)" fill="#56c4c5"/>
  </g>
</svg>
