<svg xmlns="http://www.w3.org/2000/svg" width="71.867" height="71.819" viewBox="0 0 71.867 71.819">
  <g id="Group_6197" data-name="Group 6197" transform="translate(-2366.546 -16514.366)">
    <path id="Path_3689" data-name="Path 3689" d="M882.622,2029.009l7.541-7.606c1.5-.066,3.042.17,4.571.075,18.635-1.162,26.552-24.872,12.392-37.2-13.1-11.4-34.018-2.764-35.093,14.494-.1,1.525.119,3.08.075,4.571l-7.536,7.54a32.071,32.071,0,0,1-1.364-4.579l-5.891-2.373-.043-7.159.306-.274,5.363-2.031a.565.565,0,0,0,.323-.257c.236-.444.507-2.207.727-2.9a35.243,35.243,0,0,1,3.791-8.046l-2.54-5.915,4.832-4.9.513-.075,5.665,2.482a33.1,33.1,0,0,1,10.945-4.56l2.376-5.888,7.163-.047c.4.138,1.915,5.365,2.561,5.992a32.9,32.9,0,0,1,10.94,4.517l5.914-2.535,4.9,4.832.075.513-2.482,5.665a33.3,33.3,0,0,1,4.56,10.945l5.888,2.376.047,7.163c-.147.429-5.356,1.917-5.992,2.561a32.746,32.746,0,0,1-4.518,10.941l2.537,5.914-4.915,4.964-.43.008-5.666-2.485a32.555,32.555,0,0,1-10.946,4.561l-2.376,5.887h-7.254L887.2,2030.3Z" transform="translate(1509.272 14549.995)" fill="#56c4c5"/>
    <path id="Path_3690" data-name="Path 3690" d="M943.736,2096.068c5.1-.608,5.672,7.818-.037,7.355-.435-.035-.974-.374-1.308-.157l-29.208,29.23c-1.274,1.074-2.94-.32-1.818-1.673L940.8,2101.4a3.754,3.754,0,0,1,2.933-5.33" transform="translate(1465.956 14443.83)" fill="#56c4c5"/>
    <path id="Path_3691" data-name="Path 3691" d="M926.353,2094.661a3.759,3.759,0,0,1,3.425,5.467c-1.034,1.9-3.039,2.223-4.988,1.671l-3.492,3.477c-.537,1.617.412,4.783-.509,6.16l-11.51,11.541a1.237,1.237,0,0,1-1.812-1.667l11.154-11.172c.241-1.858-.113-3.778.185-5.614l4.318-4.391a4.684,4.684,0,0,1,0-3.183,3.77,3.77,0,0,1,3.233-2.289" transform="translate(1468.992 14444.942)" fill="#56c4c5"/>
    <path id="Path_3692" data-name="Path 3692" d="M979.267,2171.588a3.71,3.71,0,1,1-.979,6.991c-.99.677-3.595,4.088-4.484,4.363-1.4.433-4.112-.25-5.659.14l-11.23,11.241a1.219,1.219,0,0,1-1.683-1.683l11.816-11.816c1.92-.4,4.04.126,5.96-.274l3.474-3.492c.214-.424-.157-.814-.208-1.239a3.774,3.774,0,0,1,2.995-4.23" transform="translate(1430.42 14382.952)" fill="#56c4c5"/>
  </g>
</svg>
