<svg xmlns="http://www.w3.org/2000/svg" width="75.377" height="75.438" viewBox="0 0 75.377 75.438">
  <g id="Group_6187" data-name="Group 6187" transform="translate(-1509.271 -14549.999)">
    <path id="Path_3679" data-name="Path 3679" d="M33.244,5.046c.365-.4.663-.882,1.024-1.286a11.526,11.526,0,0,1,1.511-1.51,20.722,20.722,0,0,1,3.143,1.66c.195.122,1.358.834,1.4.906a.422.422,0,0,1,.029.212l-1.6,4.742c-.04.114.016.176.074.262.1.149,1.9,1.957,2.027,2.029.063.037.113.093.2.09l4.873-1.59c.389.1,2.048,3.1,2.3,3.642.078.166.376.743.391.844.041.294-1.027,1.236-1.3,1.486a24.567,24.567,0,0,0-2.5,2.123,12.229,12.229,0,0,0,.574,2.253c.065.255-.024.6.176.767,1.373.6,3.206.409,4.557.9a.981.981,0,0,1,.68.922,27.716,27.716,0,0,1-.027,4.318.944.944,0,0,1-.123.348c-.313.412-4.262.831-4.995,1.127a23.226,23.226,0,0,0-.848,2.884,2.4,2.4,0,0,0,.527.661,34.539,34.539,0,0,1,3.063,2.683c.156.206.266.28.194.567a17.251,17.251,0,0,1-1.184,2.217,17.7,17.7,0,0,1-1.319,2.073,1,1,0,0,1-.665,0l-4.36-1.544-2.235,2.2,1.59,4.987c-.082.416-3.825,2.313-4.406,2.658l-.214.025c-1.38-1.041-2.3-2.619-3.621-3.741a10.075,10.075,0,0,0-2.952.8c-.272.652-.763,4.755-1.123,4.98a3.292,3.292,0,0,1-.8.146,25.558,25.558,0,0,1-4.03-.026c-.452-.081-.619-.343-.757-.751-.468-1.383-.357-3.078-.905-4.467-.169-.2-.789-.183-1.065-.254a13.92,13.92,0,0,0-1.915-.533.244.244,0,0,0-.187.08,41.376,41.376,0,0,1-2.735,3.3c-.183.174-.552.547-.791.442A31.354,31.354,0,0,1,11.16,46.6c-.613-.459-.748-.43-.544-1.192.388-1.45,1.079-2.819,1.48-4.267,0-.082-.053-.132-.09-.2-.072-.124-1.878-1.93-2.027-2.029-.087-.058-.148-.114-.262-.074L4.906,40.516C4.389,39.8,3.9,39.053,3.451,38.292a13.938,13.938,0,0,1-1.245-2.429c.042-.423,2.756-2.471,3.254-2.97.184-.184.6-.528.586-.788l-.739-2.882c-1.03-.145-2.1-.3-3.118-.508a9.8,9.8,0,0,1-2-.542,1.274,1.274,0,0,1-.15-.6c-.122-1.464.078-3.119.027-4.6l.062-.195L5.3,21.746,6.063,18.7c-.013-.229-1.238-1.08-1.5-1.312-.641-.565-1.318-1.151-1.931-1.743-.188-.182-.493-.381-.4-.685.559-.762,2-4.042,2.718-4.364.373-.166,4.165,1.376,4.832,1.544.551-.685,1.776-1.416,2.233-2.1.058-.087.114-.148.074-.263L10.507,4.96c.1-.375,3.808-2.36,4.388-2.693.343-.071.859.565,1.109.834.859.923,1.632,1.964,2.442,2.932.077.087.156.079.261.069.926-.086,2.021-.636,2.972-.758L22.7.171a1.208,1.208,0,0,1,.454-.09,30.694,30.694,0,0,1,4.514.013A1.084,1.084,0,0,1,28.1.231c.437.335.808,4.333,1.131,5.09L32.09,6.1c.24-.024.949-.823,1.154-1.05m2.614,18.925c-.756.663-1.419,1.443-2.154,2.13L23.441,16.023l-7.482,7.488,10.07,10.275c-.414.472-3.009,2.892-3.015,3.3-.009.6,1.718.4,2.126.42a102.021,102.021,0,0,0,10.349,0c.621-.032,1.727.273,1.913-.442.013-4.019.377-8.418.115-12.421-.022-.333-.1-1.461-.44-1.548a3.858,3.858,0,0,0-1.219.876" transform="translate(1509.271 14549.995)" fill="#56c4c5"/>
    <path id="Path_3680" data-name="Path 3680" d="M410.917,397.4h2.521a1.807,1.807,0,0,1,.083-.337,19.482,19.482,0,0,1,1.662-3.146.557.557,0,0,1,.377-.092,13.984,13.984,0,0,1,2.124.523,8.511,8.511,0,0,1,1.462.516c.284.476-.361,3.255-.145,3.989.529.211,1.412,1.024,1.883,1.16a.377.377,0,0,0,.351-.031c.621-.368,2.475-2.008,3.087-2.01a.72.72,0,0,1,.306.077,23.086,23.086,0,0,1,2.049,2,3.231,3.231,0,0,1,.5.729c.088.565-1.783,2.691-2.024,3.372l1.087,2.061,4.14-.209a25.662,25.662,0,0,1,.936,3.879c-.137.468-2.786,1.461-3.315,1.774a.257.257,0,0,0-.151.226,10.153,10.153,0,0,0,.14,2.406c.462.33,3.214,1.386,3.328,1.762.193.638-.828,3.011-.874,3.8-.2.288-3.56-.044-4.132-.1-.246.578-1.259,1.76-1.047,2.355a25.811,25.811,0,0,0,1.814,2.616,4.609,4.609,0,0,0,.288.471l-.028.122c-.766.637-1.453,1.615-2.218,2.218-.408.322-.744.578-1.3.352s-1.481-1.124-2.1-1.476a2.5,2.5,0,0,0-.706-.336c-.473-.031-1.576.908-2.1,1.051l.163,4.124c-.715.13-3.5,1.143-4.02.838-.257-.15-1.3-2.835-1.574-3.278a9.372,9.372,0,0,0-2.589-.05c-.127.077-1.068,2.3-1.281,2.676-.106.187-.292.6-.477.653-.9.274-2.987-.749-3.98-.834l.268-4.08c-.082-.246-1.747-.943-2.054-1.151a25.99,25.99,0,0,0-2.826,1.8c-.3.154-.532.271-.844.083a15.934,15.934,0,0,1-2.222-2.114,1.137,1.137,0,0,1-.336-.612c-.01-.6,2.2-3.16,2.131-3.347l-1.248-1.983-3.984.145a5.19,5.19,0,0,1-.422-1.18,17.968,17.968,0,0,1-.606-2.322c-.041-.493.15-.545.509-.791.46-.314,2.963-1.324,3.047-1.568l0-2.378c-.586-.256-3.3-1.365-3.521-1.8a8.635,8.635,0,0,1,.492-2.526,6.06,6.06,0,0,1,.537-1.347c.491-.351,2.947.184,3.658.182a5.176,5.176,0,0,0,1.431-2.155c-.467-.9-1.191-1.668-1.685-2.553-.526-.942-.394-.917.274-1.691a14.474,14.474,0,0,1,1.271-1.273c.375-.323.79-.813,1.294-.538l2.848,1.866c.447.188,2.168-1.04,2.249-1.349,0-.711-.532-3.172-.182-3.662a8.292,8.292,0,0,1,1.628-.633c.5-.151,1.849-.573,2.269-.331.556.321,1.476,2.776,1.77,3.458m3.1,6.611a7.886,7.886,0,0,0-1.173-.194c-2.465-.159-5.808-.114-8.294,0a6.881,6.881,0,0,1-1.456.1c-.016,3.047-.232,6.139-.1,9.2.024.542.118,1.2.193,1.74.252.175,1.838-1.563,2.12-1.788.153-.122.468-.414.637-.37l7.737,7.436a10.178,10.178,0,0,0,1.7-1.413c.69-.645,1.371-1.343,2.028-2.023a23.768,23.768,0,0,0,1.952-2.172l-7.474-7.773c-.047-.174.3-.54.438-.707.225-.271,1.868-1.774,1.692-2.028" transform="translate(1153.301 14193.303)" fill="#56c4c5"/>
  </g>
</svg>
