<svg xmlns="http://www.w3.org/2000/svg" width="58.877" height="59.45" viewBox="0 0 58.877 59.45">
  <g id="Group_6199" data-name="Group 6199" transform="translate(-3129.499 -15841.661)">
    <g id="Group_6193" data-name="Group 6193" transform="translate(3129.499 15841.661)">
      <path id="Path_3728" data-name="Path 3728" d="M1676.186,1341.49h-1.845v-26.533a2.921,2.921,0,0,0-2.918-2.918h-13.042v-17.456a2.921,2.921,0,0,0-2.918-2.917h-28.753a2.921,2.921,0,0,0-2.918,2.917v46.882h-.648a2.921,2.921,0,0,0-2.918,2.917v3.815a2.921,2.921,0,0,0,2.918,2.918h53.042a2.906,2.906,0,0,0,2.918-2.918v-3.815a2.949,2.949,0,0,0-2.918-2.893m-26.109-10.623a2.906,2.906,0,0,1-2.918,2.918h-12.12a2.906,2.906,0,0,1-2.918-2.918v-.873a2.921,2.921,0,0,1,2.918-2.917h12.12a2.921,2.921,0,0,1,2.918,2.917Zm0-12.693a2.921,2.921,0,0,1-2.918,2.918h-12.12a2.905,2.905,0,0,1-2.918-2.918v-.873a2.921,2.921,0,0,1,2.918-2.917h12.12a2.921,2.921,0,0,1,2.918,2.917Zm0-13.666a2.906,2.906,0,0,1-2.918,2.918h-12.12a2.906,2.906,0,0,1-2.918-2.918v-.873a2.938,2.938,0,0,1,2.918-2.918h12.12a2.922,2.922,0,0,1,2.918,2.918Zm18.553,31.545h-7.756a2.419,2.419,0,1,1,0-4.838h7.756a2.419,2.419,0,1,1,0,4.838m0-9.8h-7.756a2.419,2.419,0,1,1,0-4.838h7.756a2.419,2.419,0,1,1,0,4.838" transform="translate(-1620.227 -1291.666)" fill="#56c4c5"/>
    </g>
  </g>
</svg>
