<svg xmlns="http://www.w3.org/2000/svg" width="63.772" height="89.412" viewBox="0 0 63.772 89.412">
  <g id="Group_6201" data-name="Group 6201" transform="translate(-1686.785 -15593.2)">
    <g id="Group_6195" data-name="Group 6195" transform="translate(1686.785 15593.2)">
      <path id="Path_3723" data-name="Path 3723" d="M274.662,1367.378a3.071,3.071,0,0,1,.838,2.536c-.247,6.891-1.713,14.1-1.95,21.04a2.8,2.8,0,0,1-1.992,2.449c-10.957.424-22.009.054-33,.188-1.722-.148-2.937-.787-3.155-2.636-.223-6.92-1.753-14.166-1.96-21.031-.043-1.432.358-2.547,1.779-3.063,12.8-.217,25.705-.218,38.509,0a3.507,3.507,0,0,1,.932.517m-18.643,2.444h-3.086c-.08.412.121,2.136-.02,2.3-.059.067-1.374.374-1.713.5-.378.146-1.025.675-1.259.676-.445,0-1.32-1.269-1.733-1.545l-2.022,2.025c.336.494,1.658,1.3,1.512,1.885-.06.24-.605.964-.78,1.363s-.277,1.419-.535,1.59c-1.072.711-2.58-1.268-2.335,2.125.123,1.7,2.089.455,2.512.87.038.038.081.766.19,1.065.135.369.972,1.974.953,2.087-.049.29-1.289,1.211-1.518,1.573l2.022,2.025c.379-.242,1.249-1.451,1.571-1.514s2.421,1.419,3.146,1.139c-.277,3.011.273,2.544,2.9,2.5a14.007,14.007,0,0,1,.207-2.5c.037-.039.768-.09,1.056-.2a16.273,16.273,0,0,1,2.084-.946c.325.062,1.192,1.269,1.571,1.512l2.022-2.026c0-.13-1.187-1.08-1.364-1.348-.422-.64,1.245-2.4.989-3.377l2.307-.008v-2.9c-2.628.242-2.1-.137-2.856-2.066-.138-.351-.53-.741-.589-.976-.146-.584,1.176-1.391,1.512-1.885l-2.022-2.025c-.413.276-1.288,1.548-1.733,1.545-.263,0-.768-.48-1.123-.62-1.752-.691-2.615-.35-1.87-2.86" transform="translate(-222.635 -1304.202)" fill="#56c4c5"/>
      <path id="Path_3724" data-name="Path 3724" d="M233.465,1309.356c.021-.607-.036-1.224,0-1.833.184-3.007,1.328-7.153.283-9.947a6.521,6.521,0,0,0-5.966-4.07c-12-.838-24.952.651-37.049,0a6.7,6.7,0,0,0-5.188,2.917c-2.254,3.558-.024,8.923-.3,12.931h-6.269c-1.425,0-1.5-2.012-1.454-3,.222-5.113,1.706-10.644,1.951-15.818.724-3.3,6.1-5.237,8.92-6.521,2.6-1.182,5.286-2.225,7.946-3.266a.813.813,0,0,1,.589.2c.394.289,1.583,2.209,2.2,2.819a14.363,14.363,0,0,0,20.458,0c.673-.667,1.652-2.337,2.213-2.805a.65.65,0,0,1,.57-.214c2.654,1.065,5.345,2.086,7.948,3.267,2.939,1.334,8.084,3.154,8.886,6.555,1.212,5.135,1.024,11.5,2.066,16.763a2.212,2.212,0,0,1-1.535,2.024Z" transform="translate(-177.513 -1234.849)" fill="#56c4c5"/>
      <path id="Path_3725" data-name="Path 3725" d="M289.809,1168.568c.4.185,1.138-.288,1.459.765.491,1.615-.774,5.3-1.364,6.96-2.139,6.013-5.747,15.106-13.114,15.844-9.567.958-13.3-8.3-15.915-15.739-.61-1.736-1.978-5.349-1.452-7.065.295-.961,1.15-.672,1.254-.772.2-.193-.352-2.3.394-2.6l28.259-.1c.9,0,.346,2.641.479,2.7" transform="translate(-243.504 -1142.168)" fill="#56c4c5"/>
      <path id="Path_3726" data-name="Path 3726" d="M272.305,1046.038a14.945,14.945,0,0,1,8.045,9.618c.19.725.5,3.638.612,3.793.168.233.9.069,1.236.151,2.4.582,2.28,4.542-.53,4.8l-32.035,0a2.491,2.491,0,0,1-1.99-3.939c.831-1.115,2.372-.812,2.471-.907.127-.121.345-2.85.489-3.47a15.067,15.067,0,0,1,8.2-10.043c.508,1.819.536,6.127,1.374,7.607.564,1,2.017.685,1.885-.918-.191-2.313-1.416-5.364-1.508-7.589a1.525,1.525,0,0,1,1.429-1.81,47.18,47.18,0,0,1,6.762,0c1.036.087,1.854.455,1.816,1.617-.075,2.269-1.449,5.384-1.543,7.756-.071,1.778,1.524,1.973,2.036.683Zm-7.576,9.511c-2.769.576-2.705,5.091.161,5.544a2.869,2.869,0,1,0-.161-5.544" transform="translate(-233.711 -1043.205)" fill="#56c4c5"/>
      <path id="Path_3727" data-name="Path 3727" d="M318.312,1406.872c7.547-.989,8.622,10.24,1.863,11.138-8.026,1.066-8.834-10.225-1.863-11.138" transform="translate(-287.289 -1336.565)" fill="#56c4c5"/>
    </g>
  </g>
</svg>
