<svg xmlns="http://www.w3.org/2000/svg" width="68.434" height="68.457" viewBox="0 0 68.434 68.457">
  <g id="Group_6190" data-name="Group 6190" transform="translate(-4368.431 -14895.017)">
    <path id="Path_3693" data-name="Path 3693" d="M2882.748,345.217c20.948-2.362,37.226,17.095,29.858,37.118-.5,1.366-3.667,6.458-3.6,6.838a1.192,1.192,0,0,0,2.323.239l15.222,15.266a5.559,5.559,0,0,1-7.96,7.6c-1.377-2.18-15.062-14-15.062-15.064,0-.184,1.074-.9,1.074-1.089a5.776,5.776,0,0,0-1.313-1.233c-.353-.062-5.116,2.939-6.308,3.4-21.267,8.308-42.283-10.608-37-32.639,2.451-10.214,12.217-19.249,22.762-20.438m2.185,7.63c-25.822,2.432-22.765,41.8,3.881,39.458,25.439-2.234,22.139-41.909-3.881-39.458" transform="translate(1509.271 14549.995)" fill="#56c4c5"/>
    <path id="Path_3694" data-name="Path 3694" d="M2919.624,396.925c-.092.09-.032,1-.2,1.42-.183.46-.838,1.365-.816,1.643.078.957,2.817,1.751,1.187,4.192-2.6,3.89-3.452.869-5.184.394a6.339,6.339,0,0,0-3.2,1.023c-1.264,1.916,1.4,4.368-4.316,3.605-2.417-.323-.834-2.678-1.9-3.625a10.419,10.419,0,0,0-2.8-.967c-.907.1-2.157,1.725-2.894,1.664a8.841,8.841,0,0,1-2.8-2.277c-1.276-2.174,1.252-2.548,1.041-4.288-.341-2.8-1.75-2.306-3.664-2.894-1.648-.506-.8-3.438-1.005-4.761.17-.726,3.176-.521,3.677-1.2a24.666,24.666,0,0,0,.982-2.785c-.124-.869-1.867-1.8-1.759-2.949a10.1,10.1,0,0,1,2.362-2.764c2.016-1.193,2.961,1.406,4,1.343a16.554,16.554,0,0,0,2.761-1.473c1.158-1.635-.928-4.508,4.5-3.468,1.993.382.781,2.891,2.257,3.913a8.5,8.5,0,0,0,2.458.809c.84-.082,2.039-1.9,3.133-1.664a10.978,10.978,0,0,1,2.694,2.387c.85,1.834-1.677,2.8-1.462,4.008a11.9,11.9,0,0,0,1.27,2.705c1.774,1.028,4.311-.66,3.652,4-.367,2.6-3.489,1.526-3.981,2.006M2903.75,389.4c-5.147,5.5,1.983,14.235,8.407,9.678,7.523-5.337-2.2-16.311-8.407-9.678" transform="translate(1487.751 14528.708)" fill="#56c4c5"/>
    <path id="Path_3695" data-name="Path 3695" d="M2926.951,409.909c5.988-1.38,7.063,7.224,1.643,7.842-4.921.56-6-6.838-1.643-7.842" transform="translate(1467.948 14508.876)" fill="#56c4c5"/>
  </g>
</svg>
