<svg xmlns="http://www.w3.org/2000/svg" width="53.828" height="70.712" viewBox="0 0 53.828 70.712">
  <g id="Group_6198" data-name="Group 6198" transform="translate(-3182.045 -16619.058)">
    <path id="Path_3681" data-name="Path 3681" d="M1736.339,2069.14c8.132.713,15.328,7.494,16.93,15.414.693,3.425.123,7.043.311,10.517h-7.172c-.095-4.67.671-9.222-2.065-13.314a12.117,12.117,0,0,0-20.146,0c-2.736,4.092-1.97,8.645-2.065,13.314h-7.172c.188-3.474-.382-7.092.311-10.517,1.588-7.847,8.725-14.647,16.792-15.414a30.257,30.257,0,0,1,4.276,0" transform="translate(1474.701 14549.994)" fill="#56c4c5"/>
    <path id="Path_3682" data-name="Path 3682" d="M1676.083,2223.039l46.862-.044a3.76,3.76,0,0,1,3.656,3.379v36.286a3.72,3.72,0,0,1-2.651,3.28c-15.951.223-31.944.025-47.911.1a3.7,3.7,0,0,1-3.059-2.458c-.41-12.405-.06-24.9-.177-37.342a3.748,3.748,0,0,1,3.281-3.2m7.388,9.94a2.658,2.658,0,0,0,.24,3.871c2.281,1.812,6.024-.257,4.7-3.184-.771-1.707-3.76-1.954-4.941-.687m32.455,0a2.689,2.689,0,0,0-1.671-.743c-6.276-.556-13.367.428-19.73.005a2.634,2.634,0,0,0,.278,5.24h19.307a2.67,2.67,0,0,0,1.816-4.5m-30.881,8.954a2.608,2.608,0,0,0-2.142,3.449c1.048,3.139,6.834,2.005,5.592-1.729a2.935,2.935,0,0,0-3.45-1.72m7.943,4.468a2.687,2.687,0,0,0,1.67.743c6.277.556,13.368-.428,19.73-.005a2.635,2.635,0,0,0-.278-5.24H1694.8a2.671,2.671,0,0,0-1.816,4.5m-5.063,6.028c-1.521-1.52-4.932-.817-5.184,1.552-.274,2.582,2.887,3.79,4.81,2.458a2.677,2.677,0,0,0,.374-4.011m6.358-.706a2.65,2.65,0,0,0,.255,5.2h19.838a2.647,2.647,0,0,0,.138-5.218Z" transform="translate(1509.272 14423.721)" fill="#56c4c5"/>
  </g>
</svg>
