<svg xmlns="http://www.w3.org/2000/svg" width="70.128" height="64.372" viewBox="0 0 70.128 64.372">
  <g id="Group_6202" data-name="Group 6202" transform="translate(-3954.904 -15917)">
    <g id="Group_6194" data-name="Group 6194" transform="translate(3954.904 15917)">
      <path id="Path_3704" data-name="Path 3704" d="M2481.619,1379.068a11.465,11.465,0,0,1-9.021-4.025c-.527-.643-1.2-2.546-2.045-2.321-1.129.3.036,2.016.4,2.543a12.351,12.351,0,0,0,3.792,3.478c-.913.348-1.873.491-2.792.842-.709.271-3.349,1.6-3.627,2.214-.25.551.106,1.275.745,1.148.258-.051,1.522-1.06,1.955-1.3,3.282-1.839,5.45-1.515,8.979-1.149.3.031,1.62-.114,1.62.2v11.366a11.731,11.731,0,0,0-11.942-.587,16.292,16.292,0,0,1-1.813,1.106,7.3,7.3,0,0,0-1.114-3.886c-.31-.519-2.679-3.643-3.112-2.1-.294,1.047.47,1.077.98,1.636a6.387,6.387,0,0,1-.646,9.484c-.568.485-2.909,1.456-1.763,2.281.892.642,3.254-1.582,3.834-2.286a21.9,21.9,0,0,0,1.325-2.181c3.092-4.666,10.08-5.13,14.224-1.62l.029,6.079a12.239,12.239,0,0,0-7.2,2.861c-.475.409-1.246,1-.912,1.685.525,1.079,1.926-.61,2.49-1.016a11.33,11.33,0,0,1,5.621-2.1v16.368a13.479,13.479,0,0,0-7.4,3.311c-.439.416-1.933,1.841-.907,2.34.824.4,1.434-.836,2.015-1.36a11.049,11.049,0,0,1,6.291-2.731v5.651a10.7,10.7,0,0,1-1.941,3.124c-4.394,4.5-13.1,4.506-16.7-.964-3.8-5.779.675-11.815,6.783-12.86a20.02,20.02,0,0,0,2.124-.212.75.75,0,0,0-.2-1.362c-1.307-.25-3.176.4-4.474.646a29.273,29.273,0,0,0,.647-3.054c.047-.732.037-3.165-.775-3.388-1.488-.409-.638,2.169-.646,2.864a9.339,9.339,0,0,1-1.563,4.682,16.585,16.585,0,0,1-1.625,1.361,10.146,10.146,0,0,0-3.048,5.72c-4.253-.735-8.739-4.085-7.9-8.884.5-2.828,2.811-4.761,5.308-5.859.547-.241,1.5-.251,1.566-.909.2-1.965-2.766.013-3.479.163-1.771.372-5.353-1.147-6.774-2.255-7.161-5.585-1.537-13.979,6.278-14.479.656-.042,3.133.3,3.38-.123a1.265,1.265,0,0,0,0-.913c-.355-.709-4.139-.285-4.971-.286-2.915-3.693-1.64-8.078,2.27-10.338a11.462,11.462,0,0,1,8.347-1c.522.115,1.591.747,2.043.295a.952.952,0,0,0-.06-1.145c-.531-.429-3.46-.841-3.508-1.09.9-7.9,11.65-10.185,16.773-4.75.819.869,2.14,3.175,2.14,4.353Z" transform="translate(-2445.632 -1367.005)" fill="#56c4c5"/>
      <path id="Path_3705" data-name="Path 3705" d="M2787.593,1494.725V1492h2.4l4.869-4.609,3.938-.085a5.864,5.864,0,0,1,2.332-2.732,4.705,4.705,0,0,1,6.469,6.216,4.755,4.755,0,0,1-8,.682c-.192-.266-.616-1.295-.72-1.358a18.408,18.408,0,0,0-2.92-.059c-1.742,1.452-3.387,3.112-5.064,4.674Zm15.148-8.024c-1.919.4-1.84,3.753.356,4,3.215.361,3.08-4.709-.356-4" transform="translate(-2743.171 -1468.762)" fill="#56c4c5"/>
      <path id="Path_3706" data-name="Path 3706" d="M2787.594,1665.594v-2.728h3.309l5.108,4.74,2.875-.125c2.112-5.758,10.723-3.14,8.956,2.859a4.641,4.641,0,0,1-6.709,2.681,5.862,5.862,0,0,1-2.332-2.732l-3.938-.085-4.869-4.609Zm15.277,1.329c-2.005.417-1.981,3.678-.021,3.988,3.523.558,3.31-4.671.021-3.988" transform="translate(-2743.172 -1624.432)" fill="#56c4c5"/>
      <path id="Path_3707" data-name="Path 3707" d="M2740.64,1412.276v-2.6h5.905l3.77-3.641a19.382,19.382,0,0,1-.461-1.884,4.689,4.689,0,1,1,3.522,4.272,9.968,9.968,0,0,0-1.224-.419l-4.569,4.27Zm13.331-10.362c-1.962.4-1.962,3.941.488,4.006a2.047,2.047,0,1,0-.488-4.006" transform="translate(-2702.317 -1395.017)" fill="#56c4c5"/>
      <path id="Path_3708" data-name="Path 3708" d="M2747.583,1729.866l4.569,4.27a4.98,4.98,0,0,1,5.36.47,4.707,4.707,0,1,1-7.658,3.382c.034-.657.366-1.25.461-1.884l-3.77-3.641h-5.905v-2.6Zm6.388,6.4c-1.932.4-1.952,3.816.353,4,3.273.266,2.914-4.681-.353-4" transform="translate(-2702.317 -1682.729)" fill="#56c4c5"/>
      <path id="Path_3709" data-name="Path 3709" d="M2845.8,1584.977h-10.252v-2.6H2845.8c1.173-4.4,7.608-4.488,8.962-.2,1.9,6.008-7.089,8.849-8.962,2.8m4.12-3.347a2.2,2.2,0,0,0-1.323.885,2.063,2.063,0,1,0,1.323-.885" transform="translate(-2784.894 -1551.479)" fill="#56c4c5"/>
      <rect id="Rectangle_1625" data-name="Rectangle 1625" width="4.283" height="2.598" transform="translate(38.453 30.899)" fill="#56c4c5"/>
      <path id="Path_3710" data-name="Path 3710" d="M2744.689,1545.866v2.533a1.313,1.313,0,0,1-.195.195h-3.244c-.247,0-.054-1.733-.059-2.022,0-.177-.2-.706.059-.706Z" transform="translate(-2702.732 -1522.631)" fill="#56c4c5"/>
      <path id="Path_3711" data-name="Path 3711" d="M2744.689,1665.594h-3.439c-.258,0-.062-.529-.059-.706,0-.288-.188-2.022.059-2.022h3.244a1.312,1.312,0,0,1,.195.195Z" transform="translate(-2702.732 -1624.432)" fill="#56c4c5"/>
      <rect id="Rectangle_1626" data-name="Rectangle 1626" width="2.595" height="2.598" transform="translate(45.461 30.899)" fill="#56c4c5"/>
    </g>
  </g>
</svg>
