<svg xmlns="http://www.w3.org/2000/svg" width="61.546" height="75.987" viewBox="0 0 61.546 75.987">
  <g id="Group_6200" data-name="Group 6200" transform="translate(-3960.059 -15219.772)">
    <g id="Group_6191" data-name="Group 6191" transform="translate(3960.059 15219.771)">
      <path id="Path_3719" data-name="Path 3719" d="M2501.18,676.619l-7.219,8.364a19.561,19.561,0,1,0,6.452,9.939l5.909-6.755c3.154,3.1,7.312,5.515,5.622,10.681-.776,2.372-2.881,4.708-3.15,7.29-.374,3.587,1.7,6.971-.306,10.451-1.787,3.105-6.307,3.359-8.964,5.431-2.48,1.934-3.375,5.888-6.074,7.53-4.214,2.563-7.141-.568-11.167-.9-4.278-.348-7.917,3.4-12.215,1.142-2.975-1.567-3.889-5.77-6.461-7.776-2.741-2.138-7.19-2.28-9.019-5.535-2.2-3.911.843-8.107-.678-12.135-1.149-3.045-3.726-5.53-3-9.109.711-3.489,4.737-5.11,6.479-7.915,2.229-3.589.875-8.855,5.35-11.1,2.686-1.349,6.36-.395,9.257-1.341,3.011-.984,5.464-4.743,8.7-5.067,4.8-.481,6.488,3.614,10.363,4.978,3.26,1.148,7.087-.075,10.12,1.825" transform="translate(-2450.788 -669.776)" fill="#56c4c5"/>
      <path id="Path_3720" data-name="Path 3720" d="M2579.907,688.02a3.318,3.318,0,0,1,3.336,4.767c-7.918,8.819-15.358,18.18-23.31,26.993-.893.99-3.15,3.72-4.141,4.243a3.527,3.527,0,0,1-3.523-.222l-9.887-9.887a3.349,3.349,0,0,1,4.734-4.576l6.8,6.811.4.079,23.572-27.217a4.1,4.1,0,0,1,2.021-.993" transform="translate(-2522.588 -684.149)" fill="#56c4c5"/>
      <path id="Path_3721" data-name="Path 3721" d="M2626.374,933.053a9.445,9.445,0,0,0,7.486-1.61c2.671-2.049,3.51-5.7,6.2-7.721l7.125,15.355a1.288,1.288,0,0,1-.405.547c-.634.31-8.6-1.692-9.013-1.439l-4.511,7.678a.717.717,0,0,1-.759.133Z" transform="translate(-2589.268 -870.056)" fill="#56c4c5"/>
      <path id="Path_3722" data-name="Path 3722" d="M2488.829,933.054,2482.708,946a.732.732,0,0,1-.761-.13l-4.507-7.681c-3.014.36-6.024,1.156-9.014,1.438l-.405-.547,7.125-15.355c2.914,2.239,3.586,6.039,6.767,8.1a9.451,9.451,0,0,0,6.917,1.231" transform="translate(-2464.378 -870.057)" fill="#56c4c5"/>
    </g>
  </g>
</svg>
