<svg xmlns="http://www.w3.org/2000/svg" xmlns:xlink="http://www.w3.org/1999/xlink" width="333.5" height="385" viewBox="0 0 333.5 385">
  <defs>
    <linearGradient id="linear-gradient" x1="0.5" x2="0.5" y2="1" gradientUnits="objectBoundingBox">
      <stop offset="0" stop-color="#dbd1ff"/>
      <stop offset="1" stop-color="#8d73e4"/>
    </linearGradient>
  </defs>
  <g id="Group_3088" data-name="Group 3088" transform="translate(-1461.5 -170)">
    <g id="Ellipse_10" data-name="Ellipse 10" transform="translate(1631 174)" fill="#fff" stroke="#707070" stroke-width="1" opacity="0.06">
      <circle cx="82" cy="82" r="82" stroke="none"/>
      <circle cx="82" cy="82" r="81.5" fill="none"/>
    </g>
    <g id="Ellipse_11" data-name="Ellipse 11" transform="translate(1545 170)" fill="#fff" stroke="#707070" stroke-width="1" opacity="0.06">
      <circle cx="28.5" cy="28.5" r="28.5" stroke="none"/>
      <circle cx="28.5" cy="28.5" r="28" fill="none"/>
    </g>
    <g id="Group_86" data-name="Group 86" transform="translate(941.5 123.249)">
      <path id="Path_1356" data-name="Path 1356" d="M585.449,221.819H415.756a6.487,6.487,0,0,1-6.479-6.479V166.605a6.487,6.487,0,0,1,6.479-6.479H599.81a6.487,6.487,0,0,1,6.479,6.479v34.371A20.867,20.867,0,0,1,585.449,221.819Z" transform="translate(177.942 -4.402)" opacity="0.66" fill="url(#linear-gradient)"/>
      <path id="Path_1357" data-name="Path 1357" d="M569.251,192.851H491.762a1.671,1.671,0,1,1,0-3.342h77.489a1.671,1.671,0,1,1,0,3.342Z" transform="translate(135.605 -19.795)" fill="#fff" opacity="0.45"/>
      <path id="Path_1358" data-name="Path 1358" d="M608.478,207.206H491.762a1.671,1.671,0,1,1,0-3.342H608.478a1.671,1.671,0,0,1,0,3.342Z" transform="translate(135.605 -27.316)" fill="#fff" opacity="0.45"/>
      <path id="Path_1359" data-name="Path 1359" d="M608.478,223.684H491.762a1.671,1.671,0,1,1,0-3.342H608.478a1.671,1.671,0,0,1,0,3.342Z" transform="translate(135.605 -35.948)" fill="#fff" opacity="0.45"/>
      <path id="Path_1360" data-name="Path 1360" d="M608.478,240.161H491.762a1.671,1.671,0,0,1,0-3.342H608.478a1.671,1.671,0,0,1,0,3.342Z" transform="translate(135.605 -44.58)" fill="#fff" opacity="0.45"/>
      <path id="Path_1361" data-name="Path 1361" d="M608.478,256.636H491.762a1.671,1.671,0,0,1,0-3.342H608.478a1.671,1.671,0,0,1,0,3.342Z" transform="translate(135.605 -53.211)" fill="#fff" opacity="0.45"/>
      <path id="Path_1362" data-name="Path 1362" d="M467.37,306.376h-192.8A6.487,6.487,0,0,1,268.1,299.9V242.418a6.487,6.487,0,0,1,6.479-6.479h192.8a6.487,6.487,0,0,1,6.48,6.479V299.9a6.487,6.487,0,0,1-6.479,6.479Z" transform="translate(251.905 -44.119)" fill="url(#linear-gradient)"/>
      <path id="Path_1363" data-name="Path 1363" d="M453.449,306.819H283.756a6.487,6.487,0,0,1-6.479-6.479V251.605a6.487,6.487,0,0,1,6.479-6.479H467.81a6.487,6.487,0,0,1,6.479,6.479v34.371A20.867,20.867,0,0,1,453.449,306.819Z" transform="translate(247.095 -48.932)" fill="#fff" opacity="0.14"/>
      <path id="Path_1364" data-name="Path 1364" d="M437.251,277.851H359.762a1.671,1.671,0,1,1,0-3.342h77.489a1.671,1.671,0,1,1,0,3.342Z" transform="translate(204.758 -64.325)" fill="#fff" opacity="0.35"/>
      <path id="Path_1365" data-name="Path 1365" d="M476.478,292.206H359.762a1.671,1.671,0,1,1,0-3.342H476.478a1.671,1.671,0,1,1,0,3.342Z" transform="translate(204.758 -71.846)" fill="#fff" opacity="0.35"/>
      <path id="Path_1366" data-name="Path 1366" d="M476.478,308.684H359.762a1.671,1.671,0,0,1,0-3.342H476.478a1.671,1.671,0,0,1,0,3.342Z" transform="translate(204.758 -80.479)" fill="#fff" opacity="0.35"/>
      <path id="Path_1367" data-name="Path 1367" d="M476.478,325.161H359.762a1.671,1.671,0,1,1,0-3.342H476.478a1.671,1.671,0,1,1,0,3.342Z" transform="translate(204.758 -89.111)" fill="#fff" opacity="0.35"/>
      <path id="Path_1368" data-name="Path 1368" d="M476.478,341.636H359.762a1.671,1.671,0,0,1,0-3.342H476.478a1.671,1.671,0,0,1,0,3.342Z" transform="translate(204.758 -97.741)" fill="#fff" opacity="0.35"/>
      <g id="Group_85" data-name="Group 85" transform="translate(703.1 334.715)">
        <path id="Path_1373" data-name="Path 1373" d="M547.012,425.055a12.457,12.457,0,1,0,12.457,12.457A12.457,12.457,0,0,0,547.012,425.055Z" transform="translate(-534.555 -425.055)" fill="#c163ff"/>
        <path id="Path_1374" data-name="Path 1374" d="M13.152,6.959,9.621,12.113a1.048,1.048,0,0,1-1.728-1.185l2.284-3.334H1.229a1.229,1.229,0,1,1,0-2.458h9.06l-2.4-3.5A1.048,1.048,0,1,1,9.621.455l3.532,5.156a1.382,1.382,0,0,1,0,1.348Z" transform="translate(18.674 5.84) rotate(90)" fill="#fff"/>
      </g>
      <path id="Path_1369" data-name="Path 1369" d="M393.917,449.968a12.457,12.457,0,1,1,12.457-12.457,12.457,12.457,0,0,1-12.457,12.457Z" transform="translate(192.515 -143.194)" fill="#b774f1"/>
      <path id="Path_1370" data-name="Path 1370" d="M405.779,443.23h-3.686v-3.686a1.229,1.229,0,1,0-2.458,0v3.686h-3.686a1.229,1.229,0,1,0,0,2.458h3.686v3.686a1.229,1.229,0,0,0,2.458,0v-3.686h3.686a1.229,1.229,0,0,0,0-2.458Z" transform="translate(185.568 -150.141)" fill="#fff"/>
      <path id="Path_1371" data-name="Path 1371" d="M470.464,449.968a12.457,12.457,0,1,1,12.457-12.457,12.457,12.457,0,0,1-12.457,12.457Z" transform="translate(152.413 -143.194)" fill="#b774f1"/>
      <path id="Path_1372" data-name="Path 1372" d="M482.327,448.638H472.5a1.229,1.229,0,1,0,0,2.458h9.83a1.229,1.229,0,0,0,0-2.458Z" transform="translate(145.466 -155.549)" fill="#fff"/>
      <g id="Group_84" data-name="Group 84" transform="translate(646.78 281.885)">
        <path id="Path_1373-2" data-name="Path 1373" d="M547.012,449.968a12.457,12.457,0,1,1,12.457-12.457A12.457,12.457,0,0,1,547.012,449.968Z" transform="translate(-534.555 -425.054)" fill="#39c76b"/>
        <path id="Path_1374-2" data-name="Path 1374" d="M13.152,5.61,9.62.455A1.048,1.048,0,1,0,7.892,1.64l2.284,3.334H1.229a1.229,1.229,0,0,0,0,2.458h9.06l-2.4,3.5A1.048,1.048,0,1,0,9.62,12.115L13.152,6.96A1.382,1.382,0,0,0,13.152,5.61Z" transform="translate(6.106 19.074) rotate(-90)" fill="#fff"/>
      </g>
      <path id="Path_1386" data-name="Path 1386" d="M875.571,720.334h-15.8l-.068-.123c-.2-.366-.4-.754-.579-1.154a43.5,43.5,0,0,1-2.922-10.985l-.457-2.65a1.636,1.636,0,0,1,2.576-1.6q3.6,2.622,7.207,5.237c.91.662,1.949,1.428,2.945,2.257.1-.467.2-.934.3-1.4a1.637,1.637,0,0,1,2.99-.517l1.849,2.97c1.348,2.169,2.538,4.307,2.3,6.612a.359.359,0,0,1-.006.084,5.208,5.208,0,0,1-.268,1.11Z" transform="translate(-66.001 -289.072)" fill="#9982e8"/>
      <path id="Path_1387" data-name="Path 1387" d="M757.311,738.32l-142.6.146a.568.568,0,0,1,0-1.134l142.6-.146a.568.568,0,0,1,0,1.134Z" transform="translate(70.597 -306.715)" fill="#9178e5"/>
      <path id="Path_1398" data-name="Path 1398" d="M398.087,445.911s-6.239,13-2.079,13.518,5.2-11.7,5.2-11.7Z" transform="translate(326.807 -118.848)" fill="#ffb9b9"/>
      <path id="Path_1399" data-name="Path 1399" d="M179.762,724.945l-5.071,9.623,8.45,2.464,1.8-8.7Z" transform="translate(568.788 -314.696)" fill="#ffb9b9"/>
      <path id="Path_1400" data-name="Path 1400" d="M297.53,792.282l-8.933,4.57s-13.98,3.333-4.878,6.1,13.2.8,13.2.8,11.907.619,11.715-2.7-2.482-7.993-2.482-7.993S298.183,795.142,297.53,792.282Z" transform="translate(446.312 -373.517)" fill="#090814"/>
      <path id="Path_1402" data-name="Path 1402" d="M269.849,428.023l-3.9,47.182s-.13,28.205-4.289,33.664-4.289,8.189-4.289,8.189l-8.579-4.418s4.418-7.363,3.509-8.491a6.285,6.285,0,0,1-1.17-2.427l2.34-29.115-4.418-50.691Z" transform="translate(497.158 -101.09)" fill="#090814"/>
      <path id="Path_1404" data-name="Path 1404" d="M267.578,787.911" transform="translate(493.45 -371.943)" fill="none" stroke="#3f3d56" stroke-width="1"/>
      <path id="Path_1405" data-name="Path 1405" d="M113.155,721.985l3.639,9.618,10.4-3.9-6.5-6.759Z" transform="translate(643.194 -311.736)" fill="#ffb9b9"/>
      <path id="Path_1407" data-name="Path 1407" d="M246.657,442.211l-2.079,43.412s10.138,28.855,18.977,33.534c0,0,0,5.719,2.079,6.759a5.222,5.222,0,0,1,2.6,3.12l11.438-2.86-5.2-8.319-11.438-27.815a4.585,4.585,0,0,1-2.339-3.379c-.52-2.6-1.56-2.6,1.042-3.12a3.227,3.227,0,0,0,2.6-3.12l8.579-39.513Z" transform="translate(487.335 -115.148)" fill="#090814"/>
      <circle id="Ellipse_271" data-name="Ellipse 271" cx="10.398" cy="10.398" r="10.398" transform="translate(732.953 238.159)" fill="#ffb9b9"/>
      <path id="Path_1408" data-name="Path 1408" d="M301.973,146.411s.78,13.258,1.82,14.557-10.918,1.042-10.918,1.042.78-11.178,0-12.218S301.973,146.411,301.973,146.411Z" transform="translate(450.606 102.796)" fill="#ffb9b9"/>
      <path id="Path_1409" data-name="Path 1409" d="M255.178,186.437s-9.877-1.042-13.518,2.079a26.749,26.749,0,0,1-3.723,2.663,7.636,7.636,0,0,0-3.7,6.321L232.3,256.625s29.375-2.6,34.834,0c0,0,.26-5.979.78-6.759.379-.569,1.034-23.241,1.362-35.488a26.966,26.966,0,0,0-6.824-18.82,14.39,14.39,0,0,0-5.195-3.921S257.776,186.7,255.178,186.437Z" transform="translate(500.912 73.298)" fill="#8ccf85"/>
      <path id="Path_1411" data-name="Path 1411" d="M329.805,268.411l-15.727,42.546S329.285,282.189,329.805,268.411Z" transform="translate(419.135 12.51)" fill="#170943" opacity="0.1"/>
      <path id="Path_1412" data-name="Path 1412" d="M19.638,18.914a13.96,13.96,0,0,0-2.611.359,6.609,6.609,0,0,1-7.065-4.928A3.781,3.781,0,0,0,9.6,13.168a2.333,2.333,0,0,0-2.478-.754,19.282,19.282,0,0,1-2.678.651,4.1,4.1,0,0,1-3.539-2,6.792,6.792,0,0,1-.868-4.1l.681.714A3.456,3.456,0,0,0,1.026,5.8a2.18,2.18,0,0,1,2.065.528c.6.064.147-1.113.593-1.52a1.031,1.031,0,0,1,.725-.136c1.276.012,2.309-.964,3.315-1.75A14.087,14.087,0,0,1,13.674.2a7.826,7.826,0,0,1,4.341.21,9.273,9.273,0,0,1,2.932,2.079A17.9,17.9,0,0,1,25.873,9.8a12.3,12.3,0,0,1,.059,7.134c-.359,1.211-1.44,5.358-3.023,5.454C20.919,22.516,22.113,19.063,19.638,18.914Z" transform="translate(737.838 229.161) rotate(20.972)" fill="#090814"/>
      <path id="Path_1410" data-name="Path 1410" d="M331,206.714h0a7.679,7.679,0,0,0-5.65,6.357l-3.709,26.4-5.2,21.056s-2.6,2.339-1.558,3.64-1.3,6.759-1.3,6.759l6.5,2.08s.78-5.459,2.079-5.719c1.142-.228,13.929-34.387,17.012-42.663.425-1.141.666-1.79.666-1.79S339.315,205.415,331,206.714Z" transform="translate(409.234 58.22)" fill="#70b968"/>
      <path id="Path_1406" data-name="Path 1406" d="M223.578,777.255s-3.437-2.13-3.867-1.278-2.148,4.473-2.148,4.473l-1.933,5.324s-11.816,7.455-1.719,7.881,12.674-5.325,12.674-5.325,11.385-4.9,9.667-7.88-7.733-6.074-7.733-6.074S225.511,779.6,223.578,777.255Z" transform="translate(537.283 -362.414)" fill="#090814"/>
    </g>
  </g>
</svg>
