<svg xmlns="http://www.w3.org/2000/svg" xmlns:xlink="http://www.w3.org/1999/xlink" width="1016" height="130" viewBox="0 0 1016 130">
  <defs>
    <clipPath id="clip-path">
      <rect id="Rectangle_123" data-name="Rectangle 123" width="1016" height="130" transform="translate(446 417)" fill="#fff" stroke="#707070" stroke-width="1"/>
    </clipPath>
    <clipPath id="clip-path-2">
      <rect id="Rectangle_121" data-name="Rectangle 121" width="516.69" height="119.941" fill="none"/>
    </clipPath>
    <clipPath id="clip-path-3">
      <rect id="Rectangle_121-2" data-name="Rectangle 121" width="516.69" height="119.942" fill="none"/>
    </clipPath>
  </defs>
  <g id="Mask_Group_1" data-name="Mask Group 1" transform="translate(-446 -417)" clip-path="url(#clip-path)">
    <g id="Group_3085" data-name="Group 3085" transform="translate(-18.658 0.058)" style="mix-blend-mode: luminosity;isolation: isolate">
      <g id="Group_3083" data-name="Group 3083" transform="translate(474.658 435)" opacity="0.17">
        <rect id="Rectangle_56" data-name="Rectangle 56" width="31.605" height="18.233" transform="translate(276.716 98.432)" fill="#8484af"/>
        <rect id="Rectangle_57" data-name="Rectangle 57" width="8.877" height="19.176" transform="translate(489.299 99.374)" fill="#8484af"/>
        <rect id="Rectangle_58" data-name="Rectangle 58" width="15.978" height="27.916" transform="translate(422.9 91.231)" fill="#8484af"/>
        <rect id="Rectangle_59" data-name="Rectangle 59" width="31.735" height="39.63" transform="translate(460.479 78.663)" fill="#6a6a93"/>
        <rect id="Rectangle_60" data-name="Rectangle 60" width="10.677" height="41.103" transform="translate(320.029 22.977)" fill="#4a4a66"/>
        <rect id="Rectangle_61" data-name="Rectangle 61" width="9.463" height="31.621" transform="translate(271.984 83.894)" fill="#6a6a93"/>
        <rect id="Rectangle_62" data-name="Rectangle 62" width="14.316" height="33.003" transform="translate(243.837 86.895)" fill="#6a6a93"/>
        <rect id="Rectangle_63" data-name="Rectangle 63" width="10.988" height="65.973" transform="translate(256.386 50.692)" fill="#4a4a66"/>
        <rect id="Rectangle_64" data-name="Rectangle 64" width="1.941" height="59.541" transform="translate(267.374 57.125)" fill="#6a6a93"/>
        <rect id="Rectangle_65" data-name="Rectangle 65" width="2.358" height="44.748" transform="translate(254.028 71.917)" fill="#4a4a66"/>
        <rect id="Rectangle_66" data-name="Rectangle 66" width="21.036" height="36.467" transform="translate(229.908 80.199)" fill="#4a4a66"/>
        <path id="Path_97" data-name="Path 97" d="M350.969,105.59h5.779l5.086,11.229v39.536l-10.865-1.15Z" transform="translate(-131.926 -39.69)" fill="#6a6a93"/>
        <rect id="Rectangle_67" data-name="Rectangle 67" width="11.116" height="36.467" transform="translate(190.82 80.199)" fill="#6a6a93"/>
        <rect id="Rectangle_68" data-name="Rectangle 68" width="21.941" height="55.229" transform="translate(168.88 61.437)" fill="#4a4a66"/>
        <rect id="Rectangle_69" data-name="Rectangle 69" width="8.899" height="31.31" transform="translate(157.784 77.129)" fill="#6a6a93"/>
        <rect id="Rectangle_70" data-name="Rectangle 70" width="21.397" height="65.973" transform="translate(123.944 50.692)" fill="#6a6a93"/>
        <path id="Path_98" data-name="Path 98" d="M205.316,66.916h1.746l-.872-19.889Z" transform="translate(-77.176 -17.677)" fill="#6a6a93"/>
        <path id="Path_99" data-name="Path 99" d="M221.421,66.916h1.746l-.873-19.889Z" transform="translate(-83.23 -17.677)" fill="#6a6a93"/>
        <rect id="Rectangle_71" data-name="Rectangle 71" width="18.07" height="3.444" transform="translate(125.299 47.248)" fill="#6a6a93"/>
        <rect id="Rectangle_72" data-name="Rectangle 72" width="7.427" height="3.444" transform="translate(125.299 43.804)" fill="#6a6a93"/>
        <rect id="Rectangle_73" data-name="Rectangle 73" width="7.427" height="3.444" transform="translate(135.351 43.804)" fill="#6a6a93"/>
        <rect id="Rectangle_74" data-name="Rectangle 74" width="17.847" height="52.584" transform="translate(139.937 64.081)" fill="#4a4a66"/>
        <rect id="Rectangle_75" data-name="Rectangle 75" width="25.789" height="21.299" transform="translate(75.555 91.554)" fill="#4a4a66"/>
        <rect id="Rectangle_76" data-name="Rectangle 76" width="16.499" height="47.779" transform="translate(105.919 68.886)" fill="#4a4a66"/>
        <path id="Path_100" data-name="Path 100" d="M468.221,113.7l-8.133-11.021V155.26h8.133Z" transform="translate(-172.942 -38.595)" fill="#6a6a93"/>
        <rect id="Rectangle_77" data-name="Rectangle 77" width="23.51" height="69.311" transform="translate(48.508 49.239)" fill="#6a6a93"/>
        <rect id="Rectangle_78" data-name="Rectangle 78" width="13.385" height="64.23" transform="translate(38.033 55.668)" fill="#4a4a66"/>
        <rect id="Rectangle_79" data-name="Rectangle 79" width="18.671" height="18.762" transform="translate(15.48 61.436)" fill="#8484af"/>
        <rect id="Rectangle_80" data-name="Rectangle 80" width="26.593" height="43.602" transform="translate(5.669 74.948)" fill="#2f2f3f"/>
        <rect id="Rectangle_81" data-name="Rectangle 81" width="11.339" height="44.95" transform="translate(0 74.948)" fill="#170943"/>
        <rect id="Rectangle_82" data-name="Rectangle 82" width="11.339" height="44.95" transform="translate(29.976 74.948)" fill="#170943"/>
        <rect id="Rectangle_83" data-name="Rectangle 83" width="5.538" height="44.95" transform="translate(14.027 74.948)" fill="#170943"/>
        <rect id="Rectangle_84" data-name="Rectangle 84" width="5.538" height="44.95" transform="translate(21.989 74.948)" fill="#170943"/>
        <rect id="Rectangle_85" data-name="Rectangle 85" width="41.315" height="6.063" transform="translate(0 68.886)" fill="#4a4a66"/>
        <rect id="Rectangle_86" data-name="Rectangle 86" width="10.242" height="49.664" transform="translate(46.297 68.886)" fill="#170943"/>
        <rect id="Rectangle_87" data-name="Rectangle 87" width="15.13" height="32.391" transform="translate(60.424 86.158)" fill="#170943"/>
        <rect id="Rectangle_88" data-name="Rectangle 88" width="33.287" height="16.196" transform="translate(69.691 102.354)" fill="#170943"/>
        <rect id="Rectangle_89" data-name="Rectangle 89" width="14.665" height="34.656" transform="translate(84.007 83.894)" fill="#170943"/>
        <rect id="Rectangle_90" data-name="Rectangle 90" width="11.639" height="13.531" transform="translate(85.519 70.363)" fill="#170943"/>
        <g id="Group_3082" data-name="Group 3082">
          <g id="Group_3081" data-name="Group 3081" clip-path="url(#clip-path-2)">
            <path id="Path_101" data-name="Path 101" d="M137.027,108.855l3.155-4.841a3.008,3.008,0,0,1,5.327,0l3.156,4.841Z" transform="translate(-51.507 -38.492)" fill="#170943"/>
            <path id="Path_102" data-name="Path 102" d="M144.486,98.387h2.1l-1.048-15.251Z" transform="translate(-54.311 -31.25)" fill="#170943"/>
            <rect id="Rectangle_91" data-name="Rectangle 91" width="11.639" height="26.266" transform="translate(102.978 90.4)" fill="#170943"/>
            <rect id="Rectangle_92" data-name="Rectangle 92" width="10.753" height="22.947" transform="translate(118.567 93.718)" fill="#170943"/>
            <rect id="Rectangle_93" data-name="Rectangle 93" width="13.167" height="11.474" transform="translate(132.173 105.192)" fill="#170943"/>
            <rect id="Rectangle_94" data-name="Rectangle 94" width="26.115" height="13.133" transform="translate(149.291 103.532)" fill="#170943"/>
            <rect id="Rectangle_95" data-name="Rectangle 95" width="12.838" height="16.885" transform="translate(160.264 91.554)" fill="#170943"/>
            <rect id="Rectangle_96" data-name="Rectangle 96" width="19.971" height="22.947" transform="translate(179.576 93.718)" fill="#170943"/>
            <rect id="Rectangle_97" data-name="Rectangle 97" width="10.973" height="26.181" transform="translate(204.374 93.718)" fill="#170943"/>
            <rect id="Rectangle_98" data-name="Rectangle 98" width="11.412" height="22.947" transform="translate(221.273 93.718)" fill="#170943"/>
            <rect id="Rectangle_99" data-name="Rectangle 99" width="18.654" height="15.443" transform="translate(237.732 101.222)" fill="#170943"/>
            <rect id="Rectangle_100" data-name="Rectangle 100" width="14.265" height="22.947" transform="translate(259.239 93.718)" fill="#170943"/>
            <path id="Path_103" data-name="Path 103" d="M455.7,130.227l-7.277-9.892V161.9H455.7Z" transform="translate(-168.559 -45.233)" fill="#170943"/>
            <path id="Path_104" data-name="Path 104" d="M461.459,130.227l7.277-9.892V161.9h-7.277Z" transform="translate(-173.458 -45.233)" fill="#170943"/>
            <path id="Path_105" data-name="Path 105" d="M455.7,102.675v20.913l-7.277-9.892Z" transform="translate(-168.559 -38.595)" fill="#8484af"/>
            <rect id="Rectangle_101" data-name="Rectangle 101" width="7.609" height="8.927" transform="translate(142.778 61.436)" fill="#4a4a66"/>
            <rect id="Rectangle_102" data-name="Rectangle 102" width="5.029" height="3.069" transform="translate(192.978 77.129)" fill="#6a6a93"/>
            <rect id="Rectangle_103" data-name="Rectangle 103" width="17.106" height="60.502" transform="translate(201.937 55.012)" fill="#4a4a66"/>
            <rect id="Rectangle_104" data-name="Rectangle 104" width="14.801" height="50.765" transform="translate(297.22 65.9)" fill="#4a4a66"/>
            <rect id="Rectangle_105" data-name="Rectangle 105" width="7.401" height="29.499" transform="translate(304.621 89.051)" fill="#170943"/>
            <rect id="Rectangle_106" data-name="Rectangle 106" width="22.567" height="54.638" transform="translate(312.021 63.911)" fill="#170943"/>
            <rect id="Rectangle_107" data-name="Rectangle 107" width="12.375" height="2.475" transform="translate(312.021 61.436)" fill="#170943"/>
            <rect id="Rectangle_108" data-name="Rectangle 108" width="6.309" height="1.596" transform="translate(324.396 21.381)" fill="#4a4a66"/>
            <path id="Path_106" data-name="Path 106" d="M524.439,24.573H525.9L524.439,0Z" transform="translate(-197.131 0)" fill="#4a4a66"/>
            <path id="Path_107" data-name="Path 107" d="M536.1,136.806V71.659l9.012-19.018L554.3,71.659v68.026l-18.2-1.2Z" transform="translate(-201.516 -19.787)" fill="#4a4a66"/>
            <path id="Path_108" data-name="Path 108" d="M548.184,52.642,544.27,60.9l13.1,10.757Z" transform="translate(-204.585 -19.788)" fill="#8484af"/>
            <path id="Path_109" data-name="Path 109" d="M544.27,65.877V143.46l1.71.449V68.043Z" transform="translate(-204.586 -24.763)" fill="#170943"/>
            <rect id="Rectangle_109" data-name="Rectangle 109" width="7.037" height="38.352" transform="translate(352.786 80.198)" fill="#6a6a93"/>
            <rect id="Rectangle_110" data-name="Rectangle 110" width="15.408" height="116.82" transform="translate(356.305 2.234)" fill="#4a4a66"/>
            <rect id="Rectangle_111" data-name="Rectangle 111" width="4.853" height="116.82" transform="translate(371.713 2.234)" fill="#6a6a93"/>
            <rect id="Rectangle_112" data-name="Rectangle 112" width="11.89" height="2.234" transform="translate(359.823)" fill="#6a6a93"/>
            <rect id="Rectangle_113" data-name="Rectangle 113" width="29.85" height="64.042" transform="translate(379.496 55.012)" fill="#6a6a93"/>
            <rect id="Rectangle_114" data-name="Rectangle 114" width="16.551" height="59.543" transform="translate(409.346 59.511)" fill="#4a4a66"/>
            <rect id="Rectangle_115" data-name="Rectangle 115" width="18.072" height="39.886" transform="translate(431.759 78.663)" fill="#6a6a93"/>
            <path id="Path_110" data-name="Path 110" d="M712.813,121.315l-6.35-7.846-6.838,9.314Z" transform="translate(-262.982 -42.652)" fill="#6a6a93"/>
            <rect id="Rectangle_116" data-name="Rectangle 116" width="21.296" height="33.556" transform="translate(449.831 84.994)" fill="#170943"/>
            <rect id="Rectangle_117" data-name="Rectangle 117" width="8.912" height="25.774" transform="translate(477.803 92.776)" fill="#170943"/>
            <rect id="Rectangle_118" data-name="Rectangle 118" width="14.582" height="47.137" transform="translate(502.107 71.917)" fill="#6a6a93"/>
            <rect id="Rectangle_119" data-name="Rectangle 119" width="23.064" height="23.064" transform="translate(394.558 95.486)" fill="#170943"/>
            <rect id="Rectangle_120" data-name="Rectangle 120" width="19.567" height="19.567" transform="translate(364.422 100.374)" fill="#170943"/>
          </g>
        </g>
      </g>
      <g id="Group_3084" data-name="Group 3084" transform="translate(964.794 435)" opacity="0.17">
        <rect id="Rectangle_56-2" data-name="Rectangle 56" width="31.605" height="18.233" transform="translate(208.369 98.432)" fill="#8484af"/>
        <rect id="Rectangle_57-2" data-name="Rectangle 57" width="8.877" height="19.176" transform="translate(18.514 99.374)" fill="#8484af"/>
        <rect id="Rectangle_58-2" data-name="Rectangle 58" width="15.978" height="27.916" transform="translate(77.812 91.231)" fill="#8484af"/>
        <rect id="Rectangle_59-2" data-name="Rectangle 59" width="31.735" height="39.63" transform="translate(24.476 78.664)" fill="#6a6a93"/>
        <rect id="Rectangle_60-2" data-name="Rectangle 60" width="10.677" height="41.103" transform="translate(185.984 22.977)" fill="#4a4a66"/>
        <rect id="Rectangle_61-2" data-name="Rectangle 61" width="9.463" height="31.621" transform="translate(235.242 83.894)" fill="#6a6a93"/>
        <rect id="Rectangle_62-2" data-name="Rectangle 62" width="14.316" height="33.003" transform="translate(258.537 86.896)" fill="#6a6a93"/>
        <rect id="Rectangle_63-2" data-name="Rectangle 63" width="10.988" height="65.973" transform="translate(249.315 50.692)" fill="#4a4a66"/>
        <rect id="Rectangle_64-2" data-name="Rectangle 64" width="1.941" height="59.541" transform="translate(247.375 57.125)" fill="#6a6a93"/>
        <rect id="Rectangle_65-2" data-name="Rectangle 65" width="2.358" height="44.748" transform="translate(260.303 71.917)" fill="#4a4a66"/>
        <rect id="Rectangle_66-2" data-name="Rectangle 66" width="21.036" height="36.467" transform="translate(265.746 80.199)" fill="#4a4a66"/>
        <path id="Path_97-2" data-name="Path 97" d="M361.834,105.59h-5.779l-5.086,11.229v39.536l10.865-1.15Z" transform="translate(-64.187 -39.69)" fill="#6a6a93"/>
        <rect id="Rectangle_67-2" data-name="Rectangle 67" width="11.116" height="36.467" transform="translate(314.753 80.199)" fill="#6a6a93"/>
        <rect id="Rectangle_68-2" data-name="Rectangle 68" width="21.941" height="55.229" transform="translate(325.869 61.437)" fill="#4a4a66"/>
        <rect id="Rectangle_69-2" data-name="Rectangle 69" width="8.899" height="31.31" transform="translate(350.007 77.129)" fill="#6a6a93"/>
        <rect id="Rectangle_70-2" data-name="Rectangle 70" width="21.397" height="65.973" transform="translate(371.349 50.692)" fill="#6a6a93"/>
        <path id="Path_98-2" data-name="Path 98" d="M207.061,66.916h-1.746l.872-19.889Z" transform="translate(181.489 -17.677)" fill="#6a6a93"/>
        <path id="Path_99-2" data-name="Path 99" d="M223.166,66.916h-1.746l.873-19.889Z" transform="translate(155.332 -17.677)" fill="#6a6a93"/>
        <rect id="Rectangle_71-2" data-name="Rectangle 71" width="18.07" height="3.444" transform="translate(373.321 47.248)" fill="#6a6a93"/>
        <rect id="Rectangle_72-2" data-name="Rectangle 72" width="7.427" height="3.444" transform="translate(383.964 43.804)" fill="#6a6a93"/>
        <rect id="Rectangle_73-2" data-name="Rectangle 73" width="7.427" height="3.444" transform="translate(373.912 43.804)" fill="#6a6a93"/>
        <rect id="Rectangle_74-2" data-name="Rectangle 74" width="17.847" height="52.584" transform="translate(358.906 64.081)" fill="#4a4a66"/>
        <rect id="Rectangle_75-2" data-name="Rectangle 75" width="25.789" height="21.299" transform="translate(415.346 91.554)" fill="#4a4a66"/>
        <rect id="Rectangle_76-2" data-name="Rectangle 76" width="16.499" height="47.779" transform="translate(394.272 68.886)" fill="#4a4a66"/>
        <path id="Path_100-2" data-name="Path 100" d="M460.087,113.7l8.133-11.021V155.26h-8.133Z" transform="translate(-238.676 -38.595)" fill="#6a6a93"/>
        <rect id="Rectangle_77-2" data-name="Rectangle 77" width="23.51" height="69.311" transform="translate(444.671 49.239)" fill="#6a6a93"/>
        <rect id="Rectangle_78-2" data-name="Rectangle 78" width="13.385" height="64.23" transform="translate(465.271 55.668)" fill="#4a4a66"/>
        <rect id="Rectangle_79-2" data-name="Rectangle 79" width="18.671" height="18.762" transform="translate(482.539 61.436)" fill="#8484af"/>
        <rect id="Rectangle_80-2" data-name="Rectangle 80" width="26.593" height="43.602" transform="translate(484.427 74.948)" fill="#2f2f3f"/>
        <rect id="Rectangle_81-2" data-name="Rectangle 81" width="11.339" height="44.95" transform="translate(505.351 74.948)" fill="#170943"/>
        <rect id="Rectangle_82-2" data-name="Rectangle 82" width="11.339" height="44.95" transform="translate(475.375 74.948)" fill="#170943"/>
        <rect id="Rectangle_83-2" data-name="Rectangle 83" width="5.538" height="44.95" transform="translate(497.125 74.948)" fill="#170943"/>
        <rect id="Rectangle_84-2" data-name="Rectangle 84" width="5.538" height="44.95" transform="translate(489.163 74.948)" fill="#170943"/>
        <rect id="Rectangle_85-2" data-name="Rectangle 85" width="41.315" height="6.063" transform="translate(475.374 68.886)" fill="#4a4a66"/>
        <rect id="Rectangle_86-2" data-name="Rectangle 86" width="10.242" height="49.664" transform="translate(460.15 68.886)" fill="#170943"/>
        <rect id="Rectangle_87-2" data-name="Rectangle 87" width="15.13" height="32.391" transform="translate(441.135 86.158)" fill="#170943"/>
        <rect id="Rectangle_88-2" data-name="Rectangle 88" width="33.287" height="16.196" transform="translate(413.712 102.354)" fill="#170943"/>
        <path id="Path_111" data-name="Path 111" d="M0,0H14.665V34.656H0Z" transform="translate(418.018 83.894)" fill="#170943"/>
        <rect id="Rectangle_90-2" data-name="Rectangle 90" width="11.639" height="13.531" transform="translate(419.531 70.363)" fill="#170943"/>
        <g id="Group_3082-2" data-name="Group 3082" transform="translate(0)">
          <g id="Group_3081-2" data-name="Group 3081" clip-path="url(#clip-path-3)">
            <path id="Path_101-2" data-name="Path 101" d="M148.666,108.855l-3.155-4.841a3.008,3.008,0,0,0-5.327,0l-3.156,4.841Z" transform="translate(282.504 -38.492)" fill="#170943"/>
            <path id="Path_102-2" data-name="Path 102" d="M146.581,98.387h-2.1l1.048-15.251Z" transform="translate(279.933 -31.25)" fill="#170943"/>
            <rect id="Rectangle_91-2" data-name="Rectangle 91" width="11.639" height="26.266" transform="translate(402.073 90.4)" fill="#170943"/>
            <rect id="Rectangle_92-2" data-name="Rectangle 92" width="10.753" height="22.947" transform="translate(387.369 93.718)" fill="#170943"/>
            <rect id="Rectangle_93-2" data-name="Rectangle 93" width="13.167" height="11.474" transform="translate(371.349 105.192)" fill="#170943"/>
            <rect id="Rectangle_94-2" data-name="Rectangle 94" width="26.115" height="13.133" transform="translate(341.283 103.532)" fill="#170943"/>
            <rect id="Rectangle_95-2" data-name="Rectangle 95" width="12.838" height="16.885" transform="translate(343.588 91.554)" fill="#170943"/>
            <rect id="Rectangle_96-2" data-name="Rectangle 96" width="19.971" height="22.947" transform="translate(317.143 93.718)" fill="#170943"/>
            <rect id="Rectangle_97-2" data-name="Rectangle 97" width="10.973" height="26.181" transform="translate(301.342 93.718)" fill="#170943"/>
            <rect id="Rectangle_98-2" data-name="Rectangle 98" width="11.412" height="22.947" transform="translate(284.005 93.718)" fill="#170943"/>
            <rect id="Rectangle_99-2" data-name="Rectangle 99" width="18.654" height="15.443" transform="translate(260.303 101.222)" fill="#170943"/>
            <rect id="Rectangle_100-2" data-name="Rectangle 100" width="14.265" height="22.947" transform="translate(243.186 93.718)" fill="#170943"/>
            <path id="Path_103-2" data-name="Path 103" d="M448.427,130.227l7.277-9.892V161.9h-7.277Z" transform="translate(-218.883 -45.233)" fill="#170943"/>
            <path id="Path_104-2" data-name="Path 104" d="M468.736,130.227l-7.277-9.892V161.9h7.277Z" transform="translate(-240.048 -45.233)" fill="#170943"/>
            <path id="Path_105-2" data-name="Path 105" d="M448.427,102.675v20.913L455.7,113.7Z" transform="translate(-218.883 -38.595)" fill="#8484af"/>
            <rect id="Rectangle_101-2" data-name="Rectangle 101" width="7.609" height="8.927" transform="translate(366.303 61.436)" fill="#4a4a66"/>
            <rect id="Rectangle_102-2" data-name="Rectangle 102" width="5.029" height="3.069" transform="translate(318.683 77.129)" fill="#6a6a93"/>
            <rect id="Rectangle_103-2" data-name="Rectangle 103" width="17.106" height="60.503" transform="translate(297.646 55.012)" fill="#4a4a66"/>
            <rect id="Rectangle_104-2" data-name="Rectangle 104" width="14.801" height="50.765" transform="translate(204.668 65.9)" fill="#4a4a66"/>
            <rect id="Rectangle_105-2" data-name="Rectangle 105" width="7.401" height="29.499" transform="translate(204.668 89.051)" fill="#170943"/>
            <rect id="Rectangle_106-2" data-name="Rectangle 106" width="22.567" height="54.638" transform="translate(182.102 63.911)" fill="#170943"/>
            <rect id="Rectangle_107-2" data-name="Rectangle 107" width="12.375" height="2.475" transform="translate(192.293 61.436)" fill="#170943"/>
            <rect id="Rectangle_108-2" data-name="Rectangle 108" width="6.309" height="1.596" transform="translate(185.984 21.381)" fill="#4a4a66"/>
            <path id="Path_106-2" data-name="Path 106" d="M525.9,24.573h-1.456L525.9,0Z" transform="translate(-336.514 0)" fill="#4a4a66"/>
            <path id="Path_107-2" data-name="Path 107" d="M554.3,136.806V71.659L545.29,52.641,536.1,71.659v68.026l18.2-1.2Z" transform="translate(-372.199 -19.787)" fill="#4a4a66"/>
            <path id="Path_108-2" data-name="Path 108" d="M553.457,52.642l3.914,8.261-13.1,10.757Z" transform="translate(-380.366 -19.788)" fill="#8484af"/>
            <path id="Path_109-2" data-name="Path 109" d="M545.98,65.877V143.46l-1.71.449V68.043Z" transform="translate(-368.975 -24.763)" fill="#170943"/>
            <rect id="Rectangle_109-2" data-name="Rectangle 109" width="7.037" height="38.352" transform="translate(156.867 80.198)" fill="#6a6a93"/>
            <rect id="Rectangle_110-2" data-name="Rectangle 110" width="15.408" height="116.82" transform="translate(144.977 2.234)" fill="#4a4a66"/>
            <rect id="Rectangle_111-2" data-name="Rectangle 111" width="4.853" height="116.82" transform="translate(140.124 2.234)" fill="#6a6a93"/>
            <rect id="Rectangle_112-2" data-name="Rectangle 112" width="11.89" height="2.234" transform="translate(144.977)" fill="#6a6a93"/>
            <rect id="Rectangle_113-2" data-name="Rectangle 113" width="29.85" height="64.042" transform="translate(107.343 55.012)" fill="#6a6a93"/>
            <rect id="Rectangle_114-2" data-name="Rectangle 114" width="16.551" height="59.543" transform="translate(90.792 59.511)" fill="#4a4a66"/>
            <rect id="Rectangle_115-2" data-name="Rectangle 115" width="18.072" height="39.886" transform="translate(66.859 78.664)" fill="#6a6a93"/>
            <path id="Path_110-2" data-name="Path 110" d="M699.625,121.315l6.35-7.846,6.838,9.314Z" transform="translate(-632.766 -42.652)" fill="#6a6a93"/>
            <rect id="Rectangle_116-2" data-name="Rectangle 116" width="21.296" height="33.556" transform="translate(45.563 84.994)" fill="#170943"/>
            <rect id="Rectangle_117-2" data-name="Rectangle 117" width="8.912" height="25.774" transform="translate(29.975 92.776)" fill="#170943"/>
            <rect id="Rectangle_118-2" data-name="Rectangle 118" width="14.582" height="47.137" transform="translate(0 71.917)" fill="#6a6a93"/>
            <rect id="Rectangle_119-2" data-name="Rectangle 119" width="23.064" height="23.064" transform="translate(99.068 95.486)" fill="#170943"/>
            <rect id="Rectangle_120-2" data-name="Rectangle 120" width="19.567" height="19.567" transform="translate(132.7 100.374)" fill="#170943"/>
          </g>
        </g>
      </g>
    </g>
  </g>
</svg>
