<svg xmlns="http://www.w3.org/2000/svg" xmlns:xlink="http://www.w3.org/1999/xlink" width="433.658" height="337.545" viewBox="0 0 433.658 337.545">
  <defs>
    <linearGradient id="linear-gradient" x1="0.5" x2="0.5" y2="1" gradientUnits="objectBoundingBox">
      <stop offset="0" stop-color="#dbd1ff"/>
      <stop offset="1" stop-color="#8d73e4"/>
    </linearGradient>
  </defs>
  <g id="Group_3089" data-name="Group 3089" transform="translate(-41 -198.826)">
    <g id="Ellipse_12" data-name="Ellipse 12" transform="translate(41 332)" fill="#fff" stroke="#707070" stroke-width="1" opacity="0.06">
      <circle cx="70.5" cy="70.5" r="70.5" stroke="none"/>
      <circle cx="70.5" cy="70.5" r="70" fill="none"/>
    </g>
    <g id="Ellipse_13" data-name="Ellipse 13" transform="translate(97 269)" fill="#fff" stroke="#707070" stroke-width="1" opacity="0.06">
      <circle cx="21" cy="21" r="21" stroke="none"/>
      <circle cx="21" cy="21" r="20.5" fill="none"/>
    </g>
    <g id="Group_3087" data-name="Group 3087">
      <path id="Path_60" data-name="Path 60" d="M115.718,88.744l-2.043,10.724,10.184,2.871L122.594,90.89Z" transform="translate(99.395 221.575)" fill="#a0616a"/>
      <path id="Path_61" data-name="Path 61" d="M0,522.863a.606.606,0,0,0,.608.608H267.327a.608.608,0,1,0,0-1.215H.608A.606.606,0,0,0,0,522.863Z" transform="translate(155.019 9.447)" fill="#846ad5"/>
      <path id="Path_62" data-name="Path 62" d="M234.734,238.309H129.7a21.566,21.566,0,0,0-21.566,21.566V361.72A21.566,21.566,0,0,0,129.7,383.285h105.03A21.566,21.566,0,0,0,256.3,361.72V259.875a21.566,21.566,0,0,0-21.566-21.566h0Z" transform="translate(102.103 148.389)" opacity="0.4" fill="url(#linear-gradient)"/>
      <path id="Path_63" data-name="Path 63" d="M234.245,383.306H129.215a22.1,22.1,0,0,1-22.076-22.076V259.385a22.1,22.1,0,0,1,22.076-22.076h105.03a22.1,22.1,0,0,1,22.076,22.076V361.23a22.1,22.1,0,0,1-22.076,22.076ZM129.215,238.33a21.079,21.079,0,0,0-21.055,21.055V361.23a21.079,21.079,0,0,0,21.055,21.055h105.03A21.079,21.079,0,0,0,255.3,361.23V259.385a21.079,21.079,0,0,0-21.055-21.055Z" transform="translate(102.593 148.879)" fill="#d7d0eb" opacity="0.28"/>
      <path id="Path_64" data-name="Path 64" d="M327.373,318.547H285.156a3.247,3.247,0,0,1,0-6.495h42.216a3.247,3.247,0,0,1,0,6.495h0Z" transform="translate(17.073 112.305)" fill="#f9f6ff"/>
      <path id="Path_65" data-name="Path 65" d="M252.263,371.182H211.227a1.876,1.876,0,1,1,0-3.752h41.036a1.876,1.876,0,0,1,0,3.752Z" transform="translate(52.578 85.207)" fill="#f9f6ff"/>
      <rect id="Rectangle_55" data-name="Rectangle 55" width="23.745" height="3.044" rx="0.31" transform="translate(223.254 393.673)" fill="#f9f6ff"/>
      <circle id="Ellipse_1" data-name="Ellipse 1" cx="2.435" cy="2.435" r="2.435" transform="translate(323.32 391.846)" fill="#fc7a24"/>
      <circle id="Ellipse_2" data-name="Ellipse 2" cx="2.435" cy="2.435" r="2.435" transform="translate(330.017 391.846)" fill="#ffe32c"/>
      <circle id="Ellipse_3" data-name="Ellipse 3" cx="2.435" cy="2.435" r="2.435" transform="translate(336.715 391.846)" fill="#64bb4a"/>
      <path id="Path_66" data-name="Path 66" d="M149.868,393.863a.606.606,0,0,0,.608.608H254.8a.608.608,0,1,0,0-1.215H150.476a.606.606,0,0,0-.608.608Z" transform="translate(81.684 72.57)" fill="#f7f5ff"/>
      <path id="uuid-d0b76542-8f08-4363-846d-0cc3b89caf22-410" d="M200.845,99.35c2.221-1.835,4.968-2.177,6.136-.763s.314,4.047-1.908,5.882A7.21,7.21,0,0,1,202.03,106l-9.509,7.657-3.5-4.539,9.745-7.066a7.211,7.211,0,0,1,2.077-2.7h0Z" transform="translate(62.524 217.185)" fill="#a0616a"/>
      <path id="Path_67" data-name="Path 67" d="M104.553,122.022a7,7,0,0,1,2.185-5.159c2.512-2.145,6.056-1.277,7.3-.972,2.872.7,3.107,1.935,5.8,3.2,5.046,2.368-1.276,1.156,1.726.4,1.039-.263,15.99-1.3,19.712-3.59,7.238-4.455,12.17-7.156,12.17-7.156l3.224,6.448a57.467,57.467,0,0,1-11.223,11.284c-6.73,4.926-10.1,7.389-15.21,8.341-.44.082-11.272,1.931-20-4.586-1.99-1.487-5.636-4.21-5.693-8.206h0Z" transform="translate(103.859 211.79)" fill="#ffea98"/>
      <circle id="Ellipse_4" data-name="Ellipse 4" cx="11.231" cy="11.231" r="11.231" transform="translate(207.181 294.951)" fill="#a0616a"/>
      <g id="Group_3076" data-name="Group 3076" transform="translate(225.787 344.469)">
        <path id="Path_68" data-name="Path 68" d="M279.571,217.053,268,205.213l-5.97,6.228,8.617,11.352,8.548.977Z" transform="translate(-198.989 -179.886)" fill="#a0616a"/>
        <path id="Path_69" data-name="Path 69" d="M153.116,170.582a7.881,7.881,0,0,0,4.881-.644,6.676,6.676,0,0,0,2.365-2.284c3.014-4.526,14.581-11.584,24.962-12.019a9.932,9.932,0,0,1,5.3.907c1.994,1.04,2.791,2.529,5.321,6.017,1.384,1.908,2.916,3.706,4.317,5.6,8.2,11.1,11.312,11.971,10.994,15.53-.353,3.948-4.611,7.694-7.441,7.262-1.159-.177-1.608-.983-3.156-2.615-4.54-4.784-6.419-3.9-9.652-7.564-3.774-4.278-3.28-7.825-5.249-7.962-1.826-.127-2.6,2.9-6.5,6.919-1.784,1.839-3.054,2.683-6.924,5.368-15.07,10.455-15.311,11.19-18.352,12.023-1.331.365-10.775,2.954-14.139-1.166-5.265-6.448,7.173-25.882,13.269-25.375h0Z" transform="translate(-138.579 -155.617)" fill="#2f2e41"/>
        <path id="Path_70" data-name="Path 70" d="M278.9,228.865a3.4,3.4,0,0,0,2.165-1.856,2.469,2.469,0,0,0-.356-2.144c-.516-.683-1.281-.773-1.25-.894.047-.184,1.855-.112,3.839.589A15.358,15.358,0,0,1,287.531,227c1.729,1.35,1.5,1.62,2.58,2.4,3.328,2.389,6.449.506,8.25,2.746a3.548,3.548,0,0,1,.7,3.085c-.587,1.993-3.443,2.679-5,3.033-3.759.853-6.6.157-9.576-.344-10.1-1.7-15.782-.152-16.542-2.493-.144-.443.09-.405.869-3.657.769-3.209.744-4.09,1.4-4.347.986-.387,1.648,1.373,4.131,1.975a7.037,7.037,0,0,0,4.568-.529Z" transform="translate(-201.858 -189.022)" fill="#2f2e41"/>
      </g>
      <g id="Group_3077" data-name="Group 3077" transform="translate(218.378 364.004)">
        <path id="Path_71" data-name="Path 71" d="M245.222,288.632,242.3,272.34l-8.438,1.8.756,14.232,6.524,5.609Z" transform="translate(-177.794 -232.267)" fill="#a0616a"/>
        <path id="Path_72" data-name="Path 72" d="M149.316,194.776a7.881,7.881,0,0,0,4.4,2.208,6.676,6.676,0,0,0,3.239-.562c5.035-2.053,18.57-1.4,27.4,4.072a9.932,9.932,0,0,1,3.88,3.73c1.066,1.98.889,3.659,1.024,7.967.074,2.356.332,4.7.427,7.06.554,13.791,2.638,16.258.376,19.024-2.509,3.069-8.136,3.777-10.235,1.83-.86-.8-.778-1.716-1.144-3.936-1.071-6.508-3.121-6.832-3.739-11.679-.721-5.659,1.68-8.317.128-9.536-1.44-1.131-3.781.938-9.264,2.075-2.509.52-4.034.505-8.744.554-18.341.188-18.952.661-21.937-.357-1.306-.445-10.575-3.606-11.045-8.9-.736-8.292,20.469-17.388,25.228-13.546h0Z" transform="translate(-124.069 -193.869)" fill="#2f2e41"/>
        <path id="Path_73" data-name="Path 73" d="M235.158,298.843a3.4,3.4,0,0,0,2.834-.32,2.469,2.469,0,0,0,.91-1.974c-.044-.855-.626-1.359-.532-1.442.142-.126,1.6.949,2.846,2.643a15.359,15.359,0,0,1,2.131,4.391c.673,2.088.328,2.181.788,3.434,1.412,3.845,5.052,4.04,5.284,6.9a3.549,3.549,0,0,1-1.154,2.945c-1.605,1.32-4.354.283-5.844-.3-3.59-1.405-5.553-3.579-7.73-5.662-7.4-7.083-12.973-8.988-12.288-11.351.13-.447.3-.285,2.772-2.538,2.438-2.223,2.912-2.967,3.6-2.812,1.033.233.593,2.061,2.309,3.954a7.037,7.037,0,0,0,4.077,2.127h0Z" transform="translate(-172.158 -242.25)" fill="#2f2e41"/>
      </g>
      <path id="Path_74" data-name="Path 74" d="M113.338,69.423c.437-1.564-.112-2.134.448-2.836a7.355,7.355,0,0,1,2.239-1.045h0c-.594-3.447-.149-4.03-.149-4.03a2.527,2.527,0,0,1,2.239-.746c1.479.186,1.741,1.523,2.687,1.493,1.307-.041,2.875-2.658,2.388-4.926-.4-1.85-2.108-3.224-2.538-2.985s-1.957-.806-2.538-.6c-.4.143-2.263-.047-2.687.149-.462.214-1.786,1.55-1.913,1.382-.88-1.169-.861-1.577-1.371-1.829-.9-.447-1.887.379-3.582,1.194-3.488,1.678-4.509.677-6.12,2.09-.814.714-1.25,2.078-2.09,4.777-1.174,3.774-1.761,5.661-1.194,7.463.578,1.838,1.43,1.438,2.687,4.03,1.4,2.886.917,4.563,2.239,5.224a2.807,2.807,0,0,0,3.284-.746c1.061-1.6-1.682-3.754-.746-6.269.574-1.544,2.346-2.714,3.433-2.388,1.229.369,1.319,2.572,2.09,2.538.66-.029,1.118-1.668,1.194-1.94h0Z" transform="translate(106.605 238.906)" fill="#2f2e41"/>
      <path id="Path_75" data-name="Path 75" d="M104.043,104.919c2.3-2.577,11.66.09,12.538,4.179.361,1.682-.973,2.392-.6,4.329.55,2.833,3.661,2.639,5.971,5.523,3.279,4.094-.1,8.1,3.582,14.927a12.094,12.094,0,0,0,2.836,3.881c3.181,2.732,6.142,1.8,7.762,4.329a6.585,6.585,0,0,1,.6,4.777c-.478,2.243-1.774,2.789-2.687,4.627-1.519,3.058.2,5.3.3,8.956.122,4.571-2.307,10.907-7.165,12.986-5.458,2.336-12.04-1.533-15.225-5.374-1.9-2.292-2.452-4.406-3.284-7.016-3.716-11.662-5.816-10.608-8.657-19.852-3.249-10.568-3.887-22.95,0-26.868a11.19,11.19,0,0,0,2.836-3.881c1.215-2.908.165-4.369,1.194-5.523h0Z" transform="translate(107.392 214.158)" fill="#f6d550"/>
      <g id="Group_3078" data-name="Group 3078" transform="translate(204.467 328.739)">
        <path id="uuid-35da8825-ceb1-46f8-a8e3-884fcc945dd4-411" d="M163.459,212.254c1.782,2.264,2.058,5.019.617,6.152s-4.053.217-5.835-2.048a7.21,7.21,0,0,1-1.457-3.078l-7.429-9.688,3.839-2.928,7.615,9.449a7.211,7.211,0,0,1,2.65,2.14h0Z" transform="translate(-122.532 -161.93)" fill="#a0616a"/>
        <path id="Path_76" data-name="Path 76" d="M110.55,124.972a7,7,0,0,1,5.5,1.086c2.612,2.022,2.485,5.669,2.441,6.948-.1,2.955-1.26,3.437-1.949,6.335-1.289,5.423,1.166,10.462,2.522,13.247a28.916,28.916,0,0,0,4.979,7.089,62.866,62.866,0,0,0,11.047,9.427l-5.6,4.974s-8.914-2.717-14.954-8.16c-6.2-5.584-15.723-25.339-17.7-30.151-.17-.414,2.239,6.323,6.84-3.547,1.049-2.251,2.972-6.376,6.872-7.247h0Z" transform="translate(-96.83 -124.814)" fill="#ffea98"/>
      </g>
      <path id="uuid-ba1531a6-e7ab-4297-b996-1d676f43fe3f-412" d="M268.347,419.947c-3.557.545-6.159,2.822-5.811,5.086s3.512,3.656,7.07,3.11a9.005,9.005,0,0,0,3.955-1.565l15.042-2.5-1-5.946-15.008,2.124a9.007,9.007,0,0,0-4.243-.309h0Z" transform="translate(26.568 60.397)" fill="#ffb6b6"/>
      <path id="Path_77" data-name="Path 77" d="M343.29,384.821,337.458,397.2l-29.32,9.87-24.329,1.3-.609-5.844,26.368-5.513,27.057-12.786Z" transform="translate(16.442 76.989)" fill="#74e0fc"/>
      <path id="Path_78" data-name="Path 78" d="M283.466,472.4l-5.236,13.244-6.776-4.62,4-13.861Z" transform="translate(22.189 36.405)" fill="#ffb6b6"/>
      <path id="Path_79" data-name="Path 79" d="M238.871,467.765,225.01,481.01l5.544,5.852,14.169-11.089Z" transform="translate(44.915 36.11)" fill="#ffb6b6"/>
      <path id="Path_80" data-name="Path 80" d="M391.2,375.649l-.154-1.078-3.542-6.93-11.7,3.08,2.156,9.548Z" transform="translate(-28.87 85.103)" fill="#ffb6b6"/>
      <path id="Path_81" data-name="Path 81" d="M338.163,447.644l.36,4.626s1.488,19.4-10.525,20.939-17.249,3.08-24.333-8.932l-11.089-19.713L286.1,452.27l-8.616-6.782s6.16-24.025,11.089-24.949a11.248,11.248,0,0,1,1.838-.186,12.691,12.691,0,0,1,10.367,5.181l13.976,18.722,5.082-2.31,18.327,5.7h0Z" transform="translate(19.238 59.312)" fill="#2f2e41"/>
      <path id="Path_82" data-name="Path 82" d="M251.552,497.128l2.772-5.236,8.008,5.544s1.848,6.776-.924,7.7-10.473-.308-10.473-.308-14.169,3.08-14.477.308,6.468-3.388,6.468-3.388l8.624-4.62h0Z" transform="translate(39.318 24.304)" fill="#2f2e41"/>
      <path id="Path_83" data-name="Path 83" d="M287.061,461.556l-21.407-13.488-10.935,9.792-7.392-8.624s13.553-20.021,17.557-20.945a103.2,103.2,0,0,1,10.473-1.54l19.713,18.173-8.008,16.633Z" transform="translate(33.995 56.18)" fill="#2f2e41"/>
      <path id="Path_84" data-name="Path 84" d="M206.734,491.288l7.084,7.7-.934.8s-1.838,8-6.15,5.3-4.62-3.324-4.62-3.324-12.321,2.772-13.553-2.156,2.156-4,2.156-4l3.077,1.848,12.94-6.16Z" transform="translate(62.883 24.6)" fill="#2f2e41"/>
      <circle id="Ellipse_5" data-name="Ellipse 5" cx="9.857" cy="9.857" r="9.857" transform="translate(340.769 439.5)" fill="#ffb6b6"/>
      <path id="Path_85" data-name="Path 85" d="M367.075,384.318l14.169-4.312s5.544,12.937,4.62,18.789-9.343,33.734-9.343,33.734L357.835,422.2s-.308-6.16-1.232-8.932-3.85-11.243,2.618-18.327,7.854-10.627,7.854-10.627h0Z" transform="translate(-18.76 79.053)" fill="#47c9eb"/>
      <g id="Group_3080" data-name="Group 3080" transform="translate(315.064 469.585)">
        <path id="uuid-375aaccb-22f9-42b6-a352-baabb12db8d2-413" d="M315.467,501.591c-2.306,2.763-2.75,6.192-.991,7.659s5.052.417,7.359-2.347a9.006,9.006,0,0,0,1.929-3.791l9.622-11.828-4.687-3.793-9.846,11.523a9.006,9.006,0,0,0-3.385,2.577h0Z" transform="translate(-313.4 -443.128)" fill="#ffb6b6"/>
        <path id="Path_86" data-name="Path 86" d="M366.068,400.619l3.349,13.265-16.391,26.238-16.733,16.817-5.424-4.5,16.876-21,12.791-27.054Z" transform="translate(-321.948 -400.619)" fill="#74e0fc"/>
      </g>
      <path id="Path_87" data-name="Path 87" d="M363.588,345.612c2.528-.006,2.671.011,3.08,0,3.135-.083,3.955-1.316,5.544-1.232,2.836.15-.907,14.371-2.464,20.945-1.527,6.448,3.633,12.225,4,12.629,5.238,5.7,14.438,6.738,16.017,4.312,1.278-1.964-3.251-4.949-2.156-9.24,1.07-4.2,6.011-3.748,7.392-7.7,1.446-4.139-3.414-6.226-6.468-16.325-1.754-5.8-1.444-6.88-3.08-10.473-4.374-9.6-25.816-5.514-23.409,3.388.466,1.722-.774,3.7,1.54,3.7h0Z" transform="translate(-22.049 102.05)" fill="#2f2e41"/>
      <path id="Path_88" data-name="Path 88" d="M322.525,65.653H218.935a5.319,5.319,0,0,1-5.313-5.313V5.313A5.319,5.319,0,0,1,218.935,0H322.526a5.319,5.319,0,0,1,5.313,5.313V60.34a5.319,5.319,0,0,1-5.313,5.313Z" transform="translate(50.488 265)" opacity="0.67" fill="url(#linear-gradient)"/>
      <path id="Path_89" data-name="Path 89" d="M322.525,65.653H218.935a5.319,5.319,0,0,1-5.313-5.313V5.313A5.319,5.319,0,0,1,218.935,0H322.526a5.319,5.319,0,0,1,5.313,5.313V60.34a5.319,5.319,0,0,1-5.313,5.313ZM218.935.887a4.431,4.431,0,0,0-4.426,4.426V60.34a4.431,4.431,0,0,0,4.426,4.426H322.526a4.431,4.431,0,0,0,4.426-4.426V5.313A4.431,4.431,0,0,0,322.526.887H218.935Z" transform="translate(50.488 265)" fill="#b6a4f5"/>
      <circle id="Ellipse_6" data-name="Ellipse 6" cx="1.331" cy="1.331" r="1.331" transform="translate(363.687 268.992)" fill="#fc7a24"/>
      <circle id="Ellipse_7" data-name="Ellipse 7" cx="1.331" cy="1.331" r="1.331" transform="translate(367.236 268.992)" fill="#ffc524"/>
      <circle id="Ellipse_8" data-name="Ellipse 8" cx="1.331" cy="1.331" r="1.331" transform="translate(370.785 268.992)" fill="#64bb4a"/>
      <path id="Path_90" data-name="Path 90" d="M227.751,52.554a.666.666,0,0,0-.665.665.672.672,0,0,0,.665.665h99.577a.666.666,0,0,0,.665-.665.672.672,0,0,0-.665-.665Z" transform="translate(43.899 239.284)" fill="#e6e6e6"/>
      <path id="Path_91" data-name="Path 91" d="M314.7,52.119v1.774H227.539a.894.894,0,0,1-.887-.887.89.89,0,0,1,.887-.887H314.7Z" transform="translate(44.112 239.497)" fill="#6c63ff"/>
      <path id="Path_92" data-name="Path 92" d="M411.009,42.2h-8.872a1.774,1.774,0,0,1,0-3.549h8.872a1.774,1.774,0,0,1,0,3.549Z" transform="translate(-40.889 246.085)" fill="#e6e6e6"/>
      <path id="Path_93" data-name="Path 93" d="M267.684,23.962H227.992a1.774,1.774,0,1,1,0-3.549h39.691a1.774,1.774,0,1,1,0,3.549Z" transform="translate(44.324 255.011)" fill="#e6e6e6"/>
      <path id="Path_94" data-name="Path 94" d="M227.751,91.643a.666.666,0,0,0-.665.665.672.672,0,0,0,.665.665h99.577a.666.666,0,0,0,.665-.665.672.672,0,0,0-.665-.665Z" transform="translate(43.899 220.157)" fill="#e6e6e6"/>
      <path id="Path_95" data-name="Path 95" d="M280.539,91.209v1.774h-53a.894.894,0,0,1-.887-.887.89.89,0,0,1,.887-.887Z" transform="translate(44.111 220.369)" fill="#6c63ff"/>
      <path id="Path_96" data-name="Path 96" d="M411.009,81.293h-8.872a1.774,1.774,0,0,1,0-3.549h8.872a1.774,1.774,0,0,1,0,3.549Z" transform="translate(-40.889 226.957)" fill="#e6e6e6"/>
    </g>
    <path id="Polygon_1" data-name="Polygon 1" d="M10.5,0,21,19H0Z" transform="translate(171 219)" fill="#fff"/>
    <path id="Polygon_2" data-name="Polygon 2" d="M10.5,0,21,19H0Z" transform="translate(446.342 327.452) rotate(-43)" fill="#fff" opacity="0.34"/>
    <path id="Polygon_3" data-name="Polygon 3" d="M5,0l5,9H0Z" transform="translate(424.862 210.359) rotate(-101)" fill="#fff" opacity="0.34"/>
  </g>
</svg>
