<svg xmlns="http://www.w3.org/2000/svg" width="309.643" height="319.256" viewBox="0 0 309.643 319.256">
  <g id="Group_3105" data-name="Group 3105" transform="translate(-84.255)">
    <g id="Group_3096" data-name="Group 3096" transform="translate(148.458 12.8)">
      <path id="Path_142" data-name="Path 142" d="M234.024,66.527c-.074,0-.149,0-.223-.007a39.968,39.968,0,0,1-31.82-20.089,3.565,3.565,0,0,1,.365-4.063h0c8.4-6.831,14.96-14.224,18.833-22.439a3.6,3.6,0,0,1,2.811-1.27,3.554,3.554,0,0,1,2.757,1.409c4.775,6.275,14.2,17.382,23.688,21.276a3.563,3.563,0,0,1,1.413,5.563l-15.087,18.32a3.558,3.558,0,0,1-2.737,1.3h0Z" transform="translate(-201.51 -18.658)" fill="#e6e6e6"/>
      <path id="Path_143" data-name="Path 143" d="M206.885,44.475l.263.22a.982.982,0,0,0-.117,1.09,34.164,34.164,0,0,0,28.534,18.162.948.948,0,0,0,.785-.355L251.329,45.4a.973.973,0,0,0-.484-1.555C240.672,40.876,230,27.1,226.969,22.955a.965.965,0,0,0-.75-.4.991.991,0,0,0-.784.351A64.124,64.124,0,0,1,207.148,44.7l-.263-.22Z" transform="translate(-203.197 -19.882)" fill="#fff"/>
      <path id="Path_144" data-name="Path 144" d="M217.461,53.406l13.578-13.844c.928-.946-.526-2.4-1.455-1.455L216.005,51.95c-.928.946.526,2.4,1.455,1.455Z" transform="translate(-205.968 -24.668)" fill="#e6e6e6"/>
      <path id="Path_145" data-name="Path 145" d="M229.392,60.267a53.643,53.643,0,0,0,9.67-11.515c.7-1.126-1.076-2.161-1.777-1.039a51.677,51.677,0,0,1-9.348,11.1c-.988.886.471,2.337,1.455,1.455h0Z" transform="translate(-209.704 -27.63)" fill="#e6e6e6"/>
      <path id="Path_146" data-name="Path 146" d="M240.183,66.585a56.82,56.82,0,0,0,8.6-12.547c.593-1.18-1.182-2.224-1.777-1.039a54.809,54.809,0,0,1-8.281,12.131c-.886.981.565,2.441,1.455,1.455h0Z" transform="translate(-213.109 -29.277)" fill="#e6e6e6"/>
    </g>
    <g id="Group_3097" data-name="Group 3097" transform="translate(160.807 18.288)">
      <path id="Path_147" data-name="Path 147" d="M252.024,74.527c-.074,0-.149,0-.223-.007a39.968,39.968,0,0,1-31.82-20.089,3.565,3.565,0,0,1,.365-4.063h0a93.907,93.907,0,0,0,18.833-22.439,3.6,3.6,0,0,1,2.811-1.27,3.554,3.554,0,0,1,2.757,1.409c4.775,6.275,14.2,17.382,23.688,21.276a3.563,3.563,0,0,1,1.413,5.563l-15.087,18.32a3.558,3.558,0,0,1-2.737,1.3h0Z" transform="translate(-219.51 -26.658)" fill="#e6e6e6"/>
      <path id="Path_148" data-name="Path 148" d="M224.885,52.475l.263.22a.982.982,0,0,0-.117,1.09,34.164,34.164,0,0,0,28.534,18.162.948.948,0,0,0,.785-.355L269.329,53.4a.973.973,0,0,0-.484-1.555C258.672,48.876,248,35.1,244.969,30.955a.965.965,0,0,0-.75-.4.991.991,0,0,0-.784.351C238.242,39.535,232.4,47.183,225.148,52.7l-.263-.22Z" transform="translate(-221.197 -27.882)" fill="#fff"/>
      <path id="Path_149" data-name="Path 149" d="M235.461,61.406l13.578-13.844c.928-.946-.526-2.4-1.455-1.455L234.005,59.95c-.928.946.526,2.4,1.455,1.455h0Z" transform="translate(-223.968 -32.668)" fill="#e6e6e6"/>
      <path id="Path_150" data-name="Path 150" d="M247.392,68.267a53.643,53.643,0,0,0,9.67-11.515c.7-1.126-1.076-2.161-1.777-1.039a51.678,51.678,0,0,1-9.348,11.1c-.988.886.471,2.337,1.455,1.455h0Z" transform="translate(-227.704 -35.63)" fill="#e6e6e6"/>
      <path id="Path_151" data-name="Path 151" d="M258.183,74.585a56.819,56.819,0,0,0,8.6-12.547c.593-1.18-1.182-2.224-1.777-1.039a54.81,54.81,0,0,1-8.281,12.131c-.886.981.565,2.441,1.455,1.455h0Z" transform="translate(-231.109 -37.277)" fill="#e6e6e6"/>
    </g>
    <g id="Group_3098" data-name="Group 3098" transform="translate(295.951 145.887)">
      <path id="Path_152" data-name="Path 152" d="M449.024,260.528c-.074,0-.149,0-.223-.007a39.968,39.968,0,0,1-31.82-20.089,3.565,3.565,0,0,1,.365-4.063h0l18.833-22.439a3.6,3.6,0,0,1,2.811-1.27c1.091.026,2.49.349,2.757,1.409,2.169,8.611,11.514,19.793,23.688,21.276,1.144.139,1.838,1.327,2.118,2.441a3.517,3.517,0,0,1-.7,3.123l-15.087,18.32a3.558,3.558,0,0,1-2.737,1.3Z" transform="translate(-416.51 -212.659)" fill="#e6e6e6"/>
      <path id="Path_153" data-name="Path 153" d="M421.885,238.475l.263.22a.982.982,0,0,0-.117,1.09,34.164,34.164,0,0,0,28.534,18.162.948.948,0,0,0,.785-.355L466.329,239.4a.958.958,0,0,0,.18-.9.823.823,0,0,0-.664-.651c-12.949-.607-23.351-14.611-23.876-20.895-.025-.3-.451-.388-.75-.4a.991.991,0,0,0-.784.351L422.148,238.7l-.263-.22Z" transform="translate(-418.197 -213.883)" fill="#fff"/>
      <path id="Path_154" data-name="Path 154" d="M432.461,247.406l13.578-13.844c.928-.946-.526-2.4-1.455-1.455L431.005,245.95c-.928.946.526,2.4,1.455,1.455Z" transform="translate(-420.968 -218.668)" fill="#e6e6e6"/>
      <path id="Path_155" data-name="Path 155" d="M444.392,254.267a53.644,53.644,0,0,0,9.67-11.515c.7-1.126-1.076-2.161-1.777-1.039a51.676,51.676,0,0,1-9.348,11.1c-.988.886.471,2.337,1.455,1.455h0Z" transform="translate(-424.704 -221.63)" fill="#e6e6e6"/>
      <path id="Path_156" data-name="Path 156" d="M455.183,260.585a56.82,56.82,0,0,0,8.6-12.547c.593-1.18-1.182-2.224-1.777-1.039a54.809,54.809,0,0,1-8.281,12.131c-.886.981.565,2.441,1.455,1.455h0Z" transform="translate(-428.109 -223.277)" fill="#e6e6e6"/>
    </g>
    <g id="Group_3099" data-name="Group 3099" transform="translate(243.786 281.982)">
      <path id="Path_157" data-name="Path 157" d="M376.167,442.426h-8.135l-3.87-31.38h12.007Z" transform="translate(-347.908 -411.045)" fill="#ffb6b6"/>
      <path id="Path_158" data-name="Path 158" d="M340.855,452.319h0a6.984,6.984,0,0,0-.387,2.3h0a2.761,2.761,0,0,0,2.761,2.761h25.195a1.884,1.884,0,0,0,1.884-1.884v-1.049s1.246-3.153-1.32-7.038c0,0-3.189,3.043-7.955-1.723l-1.405-2.546-10.173,7.44-5.638.694c-1.234.152-2.327-.024-2.962,1.045h0Z" transform="translate(-340.468 -421.122)" fill="#2f2e41"/>
    </g>
    <g id="Group_3100" data-name="Group 3100" transform="translate(320.502 270.58)">
      <path id="Path_159" data-name="Path 159" d="M478.966,421.152l-6.93,4.262-19.739-24.7,10.228-6.291Z" transform="translate(-452.297 -394.424)" fill="#ffb6b6"/>
      <path id="Path_160" data-name="Path 160" d="M456.424,445.785h0a6.985,6.985,0,0,0,.875,2.161h0a2.761,2.761,0,0,0,3.8.9l21.459-13.2a1.884,1.884,0,0,0,.617-2.591l-.55-.893s-.59-3.338-4.812-5.3c0,0-1.122,4.263-7.678,2.7L467.6,428.13,462.838,439.8l-4.439,3.546c-.971.776-1.995,1.2-1.975,2.442h0Z" transform="translate(-453.593 -404.609)" fill="#2f2e41"/>
    </g>
    <g id="Group_3101" data-name="Group 3101" transform="translate(250.625 54.832)">
      <path id="Path_161" data-name="Path 161" d="M414.393,232.075a10.264,10.264,0,0,1,.006-4.875l-4.9-16.483,7.981-2.164,4.113,16.954a10.185,10.185,0,0,1,2.126,4.373c.92,4.013-.422,7.758-3,8.364s-5.408-2.155-6.328-6.168h0Z" transform="translate(-368.982 -120.315)" fill="#ffb6b6"/>
      <path id="Path_162" data-name="Path 162" d="M350.438,81.816s12.862-5.6,20.044,2.492c6.537,7.364,19.807,29.522,18.445,31.678l13.064,61.731-9.684,2.983-25.688-71L350.438,81.815h0Z" transform="translate(-350.438 -79.929)" fill="#74ceb5"/>
    </g>
    <path id="Path_163" data-name="Path 163" d="M329.789,215.731l6.627,77.316,16.016,71.793,17.12-1.657-8.284-78.42,5.07-69.693Z" transform="translate(-93.329 -67.529)" fill="#2f2e41"/>
    <path id="Path_164" data-name="Path 164" d="M331.786,232.563l41.277,65.711,47.1,56.5,14.464-9.308-43.255-65.934c-6.62-29.043-13.952-55.928-27.387-64.286l-32.194,17.314h0Z" transform="translate(-93.956 -67.585)" fill="#2f2e41"/>
    <path id="Path_165" data-name="Path 165" d="M331.5,182.167a8.349,8.349,0,0,1-8.272-8.936l3.6-34.547-1.375-37.724.009-.041,4.275-20.5a8.087,8.087,0,0,1,.4-2l6.314-18.984a8.329,8.329,0,0,1,7.915-5.709h5.583a8.324,8.324,0,0,1,6.941,3.714l4.888,7.332a8.35,8.35,0,0,1,.815,1.554l10.791,27.234a8.337,8.337,0,0,1,.579,2.7l3.348,75.581a8.329,8.329,0,0,1-9.571,8.614,90.2,90.2,0,0,0-34.288,1.48,8.415,8.415,0,0,1-1.95.231h0Z" transform="translate(-91.263 -16.869)" fill="#87d6c1"/>
    <path id="Path_166" data-name="Path 166" d="M328.712,107.24l-9.388-7.179s4.418-39.21,16.015-39.21,17.672-6.627,17.672-6.627,41.419,57.987,29.822,64.614-27.613,3.314-27.613,3.314l-5.641-49.536a2.865,2.865,0,0,0-5.391-.424L328.712,107.24h0Z" transform="translate(-90.043 -17.026)" fill="#3f3d56"/>
    <circle id="Ellipse_21" data-name="Ellipse 21" cx="16.053" cy="16.053" r="16.053" transform="translate(238.061 3.06)" fill="#ffb6b6"/>
    <path id="Path_167" data-name="Path 167" d="M358.837,31.248c-1.448.541-3.668,1.381-5.116,1.922-1.35-2.692.3-4.089.476-7.1a21.593,21.593,0,0,0,.119-3.01,3.975,3.975,0,0,0-1.183-2.693,3.238,3.238,0,0,0-4.2.205,4.224,4.224,0,0,0-.981,4.265,11.476,11.476,0,0,1-6.637-11.651,12.3,12.3,0,0,0-4.073-1.077,4.17,4.17,0,0,0-3.676,1.694c-.527.838-.633,1.9-1.224,2.7a3.169,3.169,0,0,1-4.317.411,4.537,4.537,0,0,1-1.493-4.341c.272-1.585-1.709-4.821-.6-5.986.757-.795,4.513.331,5.357-.37a22.355,22.355,0,0,1,2.392-1.812,11.2,11.2,0,0,1,3.512-1.435,22.364,22.364,0,0,1,3.581-.395c1.219-.068,2.9-2.495,4.123-2.563,3.588-.2,6.794,1.965,10.236,3s5.607,3.993,7.513,7.04c2.714,4.339,1.791,9.094-.077,13.244-.462,1.026,1.088,2.1.859,3.2-.213,1.024-1.172,1.765-1.4,2.786-.192.873-1.325-.138-1.6.714a2.469,2.469,0,0,1-1.656,1.489,7.3,7.3,0,0,1-2.293.223" transform="translate(-92.011 0)" fill="#2f2e41"/>
    <path id="Path_168" data-name="Path 168" d="M366.946,53.623l.566.412,1.426,1.038a7.26,7.26,0,0,1-.747,12.216h0l-5.8-9.262" transform="translate(-103.566 -16.837)" fill="#3f3d56"/>
    <path id="Path_169" data-name="Path 169" d="M504.536,421.852a1.557,1.557,0,0,0,1.128-2.7l-.107-.424.042-.1a4.181,4.181,0,0,1,7.712.029c1.261,3.038,2.867,6.081,3.263,9.293a12.367,12.367,0,0,1-.217,4.254,49.586,49.586,0,0,0,4.511-20.595,47.853,47.853,0,0,0-.3-5.339q-.246-2.18-.682-4.329a50.161,50.161,0,0,0-9.947-21.259,13.349,13.349,0,0,1-5.552-5.76,10.183,10.183,0,0,1-.926-2.783c.27.035,1.019-4.081.815-4.333.377-.572,1.051-.856,1.462-1.413,2.046-2.774,4.865-2.289,6.336,1.48,3.143,1.587,3.174,4.218,1.245,6.748-1.227,1.61-1.4,3.788-2.472,5.512.111.142.226.279.337.421a50.479,50.479,0,0,1,5.269,8.348,20.988,20.988,0,0,1,1.253-9.748c1.2-2.893,3.447-5.33,5.427-7.831a4.308,4.308,0,0,1,7.672,2.115q.006.055.012.111-.441.249-.863.528a2.112,2.112,0,0,0,.851,3.843l.043.007a21.01,21.01,0,0,1-.554,3.142c2.539,9.821-2.943,13.4-10.771,13.558-.173.089-.341.177-.514.261a51.534,51.534,0,0,1,2.774,13.053,48.866,48.866,0,0,1-.036,7.891l.013-.093a12.915,12.915,0,0,1,4.409-7.457c3.393-2.787,8.186-3.813,11.846-6.054a2.424,2.424,0,0,1,3.712,2.358l-.015.1a14.18,14.18,0,0,0-1.591.767q-.441.249-.863.528a2.112,2.112,0,0,0,.851,3.843l.043.007.089.013a21.03,21.03,0,0,1-3.868,6.057c-1.588,8.573-8.408,9.387-15.7,6.89h0a51.514,51.514,0,0,1-3.46,10.1H504.846c-.044-.137-.084-.279-.124-.417a14.045,14.045,0,0,0,3.421-.2c-.917-1.125-1.834-2.26-2.752-3.385a.782.782,0,0,1-.058-.066c-.465-.576-.935-1.148-1.4-1.724h0a20.572,20.572,0,0,1,.6-5.241h0Z" transform="translate(-147.861 -114.487)" fill="#ddedfb"/>
    <path id="Path_170" data-name="Path 170" d="M193.476,463.815a.814.814,0,0,0,.816.816H443.514a.816.816,0,0,0,0-1.633H194.292a.814.814,0,0,0-.816.816Z" transform="translate(-50.529 -145.376)" fill="#ccc"/>
    <g id="Group_3102" data-name="Group 3102" transform="translate(173.411 45.833)">
      <path id="Path_171" data-name="Path 171" d="M246.894,80.7a9.918,9.918,0,0,1,3.236,3.386l14.366,8.23-4.116,6.721-14.13-9.072a9.918,9.918,0,0,1-4.386-1.644c-3.307-2.182-4.862-5.658-3.473-7.762s5.2-2.041,8.5.141h0Z" transform="translate(-237.882 -70.646)" fill="#ffb6b6"/>
      <path id="Path_172" data-name="Path 172" d="M321.487,68.193c9.161-5.618,18.367,7.248,10.222,14.258l-.028.024-32.547,30.611-38.95-19.234,3.851-10.385,30.177,11.954,22.637-23.5a25.274,25.274,0,0,1,4.638-3.727h0Z" transform="translate(-244.885 -66.811)" fill="#74ceb5"/>
    </g>
    <path id="Path_173" data-name="Path 173" d="M67.667,143.332a1.373,1.373,0,0,0-1.372,1.372V165.97a1.372,1.372,0,0,0,2.744,0V144.7A1.373,1.373,0,0,0,67.667,143.332Z" transform="translate(17.96 -45.004)" fill="#3f3d56"/>
    <g id="Group_3103" data-name="Group 3103" transform="translate(90.523 101.859)">
      <ellipse id="Ellipse_22" data-name="Ellipse 22" cx="8.55" cy="8.37" rx="8.55" ry="8.37" transform="translate(0 0.22)" fill="#6c63ff"/>
      <path id="Path_174" data-name="Path 174" d="M165.435,154.207H119.413a2.863,2.863,0,1,1,0-5.727h46.021a2.863,2.863,0,1,1,0,5.727Z" transform="translate(-88.343 -148.48)" fill="#ddedfb"/>
      <path id="Path_175" data-name="Path 175" d="M201.349,168.334H119.413a2.863,2.863,0,1,1,0-5.727h81.936a2.863,2.863,0,0,1,0,5.727h0Z" transform="translate(-88.343 -152.916)" fill="#ddedfb"/>
    </g>
    <g id="Group_3104" data-name="Group 3104" transform="translate(90.523 137.407)">
      <ellipse id="Ellipse_23" data-name="Ellipse 23" cx="8.55" cy="8.37" rx="8.55" ry="8.37" transform="translate(0 0.22)" fill="#6c63ff"/>
      <path id="Path_176" data-name="Path 176" d="M90,220.187H43.981a2.863,2.863,0,1,1,0-5.727H90a2.863,2.863,0,0,1,0,5.727Z" transform="translate(-12.91 -214.46)" fill="#ddedfb"/>
    </g>
    <ellipse id="Ellipse_24" data-name="Ellipse 24" cx="8.55" cy="8.37" rx="8.55" ry="8.37" transform="translate(90.523 172.954)" fill="#6c63ff"/>
    <path id="Path_177" data-name="Path 177" d="M242.974,274.324H161.038a2.863,2.863,0,1,1,0-5.727h81.936a2.863,2.863,0,1,1,0,5.727h0Z" transform="translate(-39.445 -86.172)" fill="#ddedfb"/>
    <ellipse id="Ellipse_25" data-name="Ellipse 25" cx="8.55" cy="8.37" rx="8.55" ry="8.37" transform="translate(174.738 18.289)" fill="#6c63ff"/>
    <ellipse id="Ellipse_26" data-name="Ellipse 26" cx="8.55" cy="8.37" rx="8.55" ry="8.37" transform="translate(332.117 158.604)" fill="#6c63ff"/>
  </g>
</svg>
