<svg xmlns="http://www.w3.org/2000/svg" width="334.712" height="352.443" viewBox="0 0 334.712 352.443">
  <g id="Group_3095" data-name="Group 3095" transform="translate(-65.5)">
    <path id="uuid-b2fadc59-30f0-43e8-abb7-d29aa250c9da" d="M298.51,224.194c1.474,5.908-.5,11.449-4.405,12.383s-8.265-3.106-9.739-9.013a14.606,14.606,0,0,1-.079-7.19l-5.919-25.11,12.3-2.509,4.529,25.02a14.835,14.835,0,0,1,3.314,6.425h0v-.006h0Z" transform="translate(-70.517 -48.829)" fill="#ec9c9f"/>
    <path id="Path_116" data-name="Path 116" d="M236.27,427.153l.759,16.457-.759,4.552,2.655,5.317,20.873,2.273,1.142-9.863-11.005-5.694-.32-9.3Z" transform="translate(-59.852 -108.207)" fill="#ec9c9f"/>
    <path id="Path_117" data-name="Path 117" d="M257.953,457.533l-1.136,1.519-21.858-6.3s.985,9.717.985,11.613,36.053,1.9,41.477,1.137,3.685-5.694,3.685-5.694l-22.5-10.65-.653,8.372h0v.006Z" transform="translate(-59.52 -113.781)" fill="#2f2e43"/>
    <path id="Path_118" data-name="Path 118" d="M161.163,410.93l-4.552,15.833-2.171,4.073.815,5.879,19.045,8.839,4.237-8.986-8.608-8.912,5.4-14Z" transform="translate(-39.123 -104.097)" fill="#ec9c9f"/>
    <path id="Path_119" data-name="Path 119" d="M172.918,447.8l-1.564,1.075-18.7-12.963s-2.177,9.52-2.779,11.314,33.549,13.334,38.934,14.353,5.311-4.214,5.311-4.214L176.215,440.08l-3.3,7.725h0Z" transform="translate(-37.965 -110.427)" fill="#2f2e43"/>
    <path id="Path_120" data-name="Path 120" d="M230.315,62.286l.8,12.94-24.17,1.227L214.426,59.4Z" transform="translate(-52.423 -15.047)" fill="#ec9c9f"/>
    <path id="Path_121" data-name="Path 121" d="M229.816,78c-6.476,2.892-16.839,2.1-28.581,0L199.4,159.359s36.734,7.387,49.365-6.239l-6.645-66.468-12.3-8.642h0V78h-.006Z" transform="translate(-50.512 -19.76)" fill="#63cfff"/>
    <path id="Path_122" data-name="Path 122" d="M233.895,181.271,182.032,186.4,156.444,360.162h19.607l33.577-119.068,2.661,134.934h17.948l15.287-165.181Z" transform="translate(-39.631 -45.92)" fill="#2f2e43"/>
    <path id="Path_125" data-name="Path 125" d="M270.749,188.938l-.068-.309L250.545,95.486A8.007,8.007,0,0,1,266.152,91.9l22.122,90.925-17.526,6.116h0v-.006h0Z" transform="translate(-63.421 -21.731)" fill="#1178a5"/>
    <path id="Path_123" data-name="Path 123" d="M202.316,71.327,184.891,81.64a16.778,16.778,0,0,0-7.556,19.152L190.8,146.786S168.874,184.46,176,187.779c16.012,7.466,39.907,5.649,39.907,5.649l-5.339-90.194-8.248-31.906h0Z" transform="translate(-44.223 -18.069)" fill="#2d94c2"/>
    <path id="Path_124" data-name="Path 124" d="M239.126,77.544l19.7,7.652,4.653,56.831,13.03,45.786c-22.072,8.057-20.012,4.3-20.012,4.3l-3.657-79L239.126,77.543h0Z" transform="translate(-60.576 -19.643)" fill="#2d94c2"/>
    <circle id="Ellipse_20" data-name="Ellipse 20" cx="19.607" cy="19.607" r="19.607" transform="translate(147.797 11.461)" fill="#ec9c9f"/>
    <path id="Path_127" data-name="Path 127" d="M457.693,301.717H241.739c-1.433,0-2.6-1.462-2.6-3.26V131.124c0-1.8,1.166-3.26,2.6-3.26H457.693c1.433,0,2.6,1.462,2.6,3.26V298.458c0,1.8-1.166,3.26-2.6,3.26Z" transform="translate(-60.579 -32.391)" fill="#fff"/>
    <path id="Path_128" data-name="Path 128" d="M457.693,301.717H241.739c-1.433,0-2.6-1.462-2.6-3.26V131.124c0-1.8,1.166-3.26,2.6-3.26H457.693c1.433,0,2.6,1.462,2.6,3.26V298.458c0,1.8-1.166,3.26-2.6,3.26Z" transform="translate(-60.579 -32.391)" fill="none" stroke="#6c63ff" stroke-width="1"/>
    <path id="Path_129" data-name="Path 129" d="M262.476,144.565H250.162a3.263,3.263,0,0,1-3.26-3.26v-1.449a3.263,3.263,0,0,1,3.26-3.26h12.315a3.263,3.263,0,0,1,3.26,3.26V141.3A3.263,3.263,0,0,1,262.476,144.565Z" transform="translate(-62.546 -34.603)" fill="#6c63ff"/>
    <path id="Path_130" data-name="Path 130" d="M556.208,144.565h-7.244a3.263,3.263,0,0,1-3.26-3.26v-1.449a3.263,3.263,0,0,1,3.26-3.26h7.244a3.263,3.263,0,0,1,3.26,3.26V141.3a3.263,3.263,0,0,1-3.26,3.26Z" transform="translate(-194.527 -34.603)" fill="#ff8a30"/>
    <path id="Path_131" data-name="Path 131" d="M494.159,205.477a1.813,1.813,0,0,0-1.811,1.811v1.449a1.813,1.813,0,0,0,1.811,1.811h42.014a1.813,1.813,0,0,0,1.811-1.811v-1.449a1.813,1.813,0,0,0-1.811-1.811Z" transform="translate(-175.216 -52.052)" fill="#e8e7f6"/>
    <path id="Path_132" data-name="Path 132" d="M364.218,266.093H250.161a3.263,3.263,0,0,1-3.26-3.26V156.348a3.263,3.263,0,0,1,3.26-3.26H364.218a3.263,3.263,0,0,1,3.26,3.26V262.833a3.263,3.263,0,0,1-3.26,3.26h0Z" transform="translate(-62.545 -38.781)" fill="#eeeef2"/>
    <path id="Path_133" data-name="Path 133" d="M423.908,341.155H372.4a3.263,3.263,0,0,1-3.26-3.26V312.541a3.263,3.263,0,0,1,3.26-3.26h51.509a3.263,3.263,0,0,1,3.26,3.26v25.353A3.263,3.263,0,0,1,423.908,341.155Z" transform="translate(-121.761 -78.347)" fill="#eeeef2"/>
    <path id="Path_134" data-name="Path 134" d="M302.254,340.917H249.745a3.263,3.263,0,0,1-3.26-3.26V312.3a3.263,3.263,0,0,1,3.26-3.26h52.509a3.263,3.263,0,0,1,3.26,3.26v25.353a3.263,3.263,0,0,1-3.26,3.26Z" transform="translate(-62.44 -78.287)" fill="#eeeef2"/>
    <path id="Path_135" data-name="Path 135" d="M571.176,309.282a3.263,3.263,0,0,1,3.26,3.26V337.9a3.263,3.263,0,0,1-3.26,3.26H493.667a3.263,3.263,0,0,1-3.26-3.26V312.542a3.263,3.263,0,0,1,3.26-3.26" transform="translate(-180.519 -78.347)" fill="#eeeef2"/>
    <path id="Path_136" data-name="Path 136" d="M494.159,221a1.811,1.811,0,0,0,0,3.622h64.47a1.811,1.811,0,1,0,0-3.622Z" transform="translate(-175.216 -55.984)" fill="#e8e7f6"/>
    <path id="Path_137" data-name="Path 137" d="M494.159,234.581a1.811,1.811,0,0,0,0,3.622h64.47a1.811,1.811,0,1,0,0-3.622Z" transform="translate(-175.216 -59.424)" fill="#e8e7f6"/>
    <path id="Path_138" data-name="Path 138" d="M494.159,247.193a1.811,1.811,0,0,0,0,3.622h42.014a1.811,1.811,0,1,0,0-3.622" transform="translate(-175.216 -62.619)" fill="#e8e7f6"/>
    <path id="Path_139" data-name="Path 139" d="M575.612,144.565h-7.244a3.263,3.263,0,0,1-3.26-3.26v-1.449a3.263,3.263,0,0,1,3.26-3.26h7.244a3.263,3.263,0,0,1,3.26,3.26V141.3A3.263,3.263,0,0,1,575.612,144.565Z" transform="translate(-199.442 -34.603)" fill="#ffd341"/>
    <path id="Path_140" data-name="Path 140" d="M595.015,144.565h-7.244a3.263,3.263,0,0,1-3.26-3.26v-1.449a3.263,3.263,0,0,1,3.26-3.26h7.244a3.263,3.263,0,0,1,3.26,3.26V141.3a3.263,3.263,0,0,1-3.26,3.26Z" transform="translate(-204.358 -34.603)" fill="#8dd470"/>
    <path id="uuid-0ad4f467-8d5f-4434-9558-d459b84935bd" d="M227.03,159.629c6.054-.636,11.269,2.087,11.646,6.088s-4.225,7.753-10.285,8.389a14.712,14.712,0,0,1-7.134-.923l-25.689,2.363-.771-12.53,25.408-1a14.893,14.893,0,0,1,6.825-2.391h0v.006h0Z" transform="translate(-49.346 -40.414)" fill="#ec9c9f"/>
    <path id="Path_141" data-name="Path 141" d="M189.241,85.89h0A11.934,11.934,0,0,0,175.9,95.247c-4.507,21.442-12.6,67.11.107,67.875a122.333,122.333,0,0,0,32.57-2.993L204.583,137.2l-12.963-1.328,7.624-35.665A11.932,11.932,0,0,0,189.235,85.89h.006Z" transform="translate(-42.856 -21.728)" fill="#1178a5"/>
    <line id="Line_3" data-name="Line 3" x2="198" transform="translate(65.5 351.693)" fill="none" stroke="#090814" stroke-width="1.5"/>
    <path id="Path_126" data-name="Path 126" d="M221.2,5.661c4.321,1.519,6.791,2.386,9.053,4.569,3.826,3.685,4.456,8.608,5.041,13.182.461,3.578,1.052,8.2-1.046,13.492-.715,1.806-4.186,9.84-10.825,10.859-1.305.2-4.366.253-3.483-.4,8.169-6.031,11.652-9.672,11.365-18.96-.18-5.773-9-12.006-14.24-13.126a8.932,8.932,0,0,0-7.252,1.688c-4.405,3.612-4.214,18.561-8.856,21.683-1.907,1.283-.636-7.759-1.98-6.3-2.656,2.892-.951,7.325-.473,9.013,2.262,8.006,6.526,8.788,8.738,15.63,2.386,7.382-.619,14.33-1.328,15.978-1.238,2.869-3.365,7.787-8.22,10.15-6.166,3-11.027-.906-13.891,2.442-1.6,1.868-.737,3.848-3.629,9.666-.945,1.9-1.418,2.847-1.834,2.813-1.98-.158-5.182-16,0-30.753,2.177-6.189,4.3-12.254,10.015-17,3.021-2.509,5.553-3.409,6.273-6.341,1.03-4.186-3.246-5.969-4.1-12.569-.585-4.512-1-10.971.6-15.106,1.508-3.91,2.813-7.3,6.234-10.375.821-.737,7.449-5.761,14.482-5.9,3.235-.068,5.615,4.349,9.368,5.666H221.2V5.661h0Z" transform="translate(-44.465 0)" fill="#2f2e43"/>
  </g>
</svg>
