<svg xmlns="http://www.w3.org/2000/svg" width="184.172" height="184.172" viewBox="0 0 184.172 184.172">
  <g id="Group_3111" data-name="Group 3111" transform="translate(-337.873 -1553.326)">
    <circle id="Ellipse_30" data-name="Ellipse 30" cx="92.086" cy="92.086" r="92.086" transform="translate(337.873 1553.326)" fill="#f2f1ff"/>
    <g id="Getting_Started" data-name="Getting Started" transform="translate(391.919 1607.373)">
      <path id="Path_187" data-name="Path 187" d="M0,151.63l17.608.03c2.942-6.553,7.816-16.954,12.08-23.759l-17.8.015ZM.074,184.9s17.311,1.189,24.666-6.166a13.081,13.081,0,1,0-18.5-18.5C-1.114,167.588.074,184.9.074,184.9ZM9.6,175.374s-.4-5.75,2.051-8.2a4.35,4.35,0,0,1,6.152,6.152c-2.452,2.452-8.2,2.051-8.2,2.051Zm23.64-8.247c.045,5.929.045,11.887.045,17.845l23.774-11.887V155.27C50.282,159.5,39.911,164.245,33.239,167.127Z" transform="translate(0 -108.895)" fill="#5d4dd5" opacity="0.4"/>
      <path id="Path_188" data-name="Path 188" d="M134.046,58.23A16.653,16.653,0,0,0,118.4,42.806c3.18-7.117,8.678-18.811,13.195-25.483C144.878-2.246,165.25-1.176,175.5,1.38c2.556,10.238,3.64,30.609-15.958,43.893-6.642,4.5-18.291,9.837-25.5,12.957Zm29.762-39.213a5.944,5.944,0,1,0-5.944,5.944A5.944,5.944,0,0,0,163.809,19.017Z" transform="translate(-100.807 0.002)" fill="#5d4dd5"/>
    </g>
  </g>
</svg>
