<svg xmlns="http://www.w3.org/2000/svg" xmlns:xlink="http://www.w3.org/1999/xlink" width="184.172" height="184.172" viewBox="0 0 184.172 184.172">
  <defs>
    <clipPath id="clip-path">
      <rect id="Rectangle_125" data-name="Rectangle 125" width="87.009" height="87.965" fill="none"/>
    </clipPath>
  </defs>
  <g id="Group_3118" data-name="Group 3118" transform="translate(-792 -1776)">
    <circle id="Ellipse_35" data-name="Ellipse 35" cx="92.086" cy="92.086" r="92.086" transform="translate(792 1776)" fill="#f2f1ff"/>
    <g id="Group_3110" data-name="Group 3110" transform="translate(840.552 1824.546)">
      <g id="Group_3109" data-name="Group 3109" transform="translate(0 0)">
        <g id="Group_3108" data-name="Group 3108" clip-path="url(#clip-path)">
          <path id="Path_183" data-name="Path 183" d="M28.36,102.938a43.951,43.951,0,0,1,6.993-.052c3.752.32,2.189,3.929,2.48,6.61.322,2.966,3.26,4.7,6.09,4.373,2.9-.334,5.239-4.852,6.843-4.8a2.971,2.971,0,0,1,1.124.43,63.515,63.515,0,0,1,5.586,5.562c1.687,2.185-1.254,3.586-2.58,5.147a5.487,5.487,0,0,0-1.627,4.72,5.364,5.364,0,0,0,3.938,4.295c2.292.417,6.637-1.062,7.02,2.07a47.631,47.631,0,0,1,.02,7.355c-.395,3.522-5.356,1.5-7.834,2.457a5.354,5.354,0,0,0-2.49,7.523c1.17,1.893,5.388,3.852,3.634,6.312a65.85,65.85,0,0,1-5.572,5.577c-2.19,1.5-3.914-1.8-5.4-3.005-3.245-2.639-8.294-1.122-8.75,3.088-.184,1.7.808,6.061-1.467,6.423a56.963,56.963,0,0,1-8.4.013c-2.214-.26-1.328-3.735-1.456-5.4-.4-5.268-5.258-7.177-9.262-3.778-1.59,1.35-2.86,4.168-5.128,2.56A50.156,50.156,0,0,1,6.875,155.2c-1.947-2.47,1.307-3.888,2.748-5.659,2.369-2.913,1.561-7.528-2.223-8.586-1.808-.506-6.919.707-7.288-1.63.212-2.649-.318-5.814-.014-8.4.288-2.444,4.666-1.449,6.433-1.627,3.543-.357,5.474-4.425,3.946-7.543-1.008-2.058-5.4-4.181-3.937-6.512a77.524,77.524,0,0,1,5.651-5.667,2.753,2.753,0,0,1,1.216-.5c1.946-.087,4.013,4.467,6.845,4.793,3.812.437,6.015-1.931,6.267-5.567.146-2.1-.924-4.963,1.839-5.365m19.241,32.1a15.484,15.484,0,1,0-15.484,15.484A15.484,15.484,0,0,0,47.6,135.038" transform="translate(0 -79.225)" fill="#5d4dd5"/>
          <path id="Path_184" data-name="Path 184" d="M111.333,202.591a12.184,12.184,0,1,1-12.184-12.184,12.184,12.184,0,0,1,12.184,12.184" transform="translate(-67.039 -146.78)" fill="#aea7de"/>
          <path id="Path_185" data-name="Path 185" d="M194.462,0c.973,1.131.367,3.07.516,4.543a4.577,4.577,0,0,0,7.287,3.175c.99-.727,2.672-3.5,3.955-2.753.7,1.039,4.685,4.2,4.852,5.109.194,1.056-2.242,2.681-2.889,3.561a4.554,4.554,0,0,0,3.347,7.286c1.254.114,4.182-.586,4.38.937a43.556,43.556,0,0,1,0,6.363c-.225,1.717-3.6.959-4.9,1.106-3.323.376-4.83,4.514-2.825,7.114.893,1.158,3.688,2.689,2.568,4.292a43.856,43.856,0,0,1-4.113,4.12c-1.677,1.247-2.553-.882-3.774-1.892-1.643-1.359-3.229-1.983-5.319-1.027-1.1.5-2.573,2.206-2.573,3.43v2.83a7.286,7.286,0,0,0-3.02-1.354c-2.008-.233-6.648,1.021-6.423-2.16.072-1.023,2.436-2.8,3.186-3.688a5.514,5.514,0,0,0,1.457-5.318c9.952.691,15.329-11.772,7.808-18.529-7.5-6.734-19.01-.34-17.757,9.438a5.31,5.31,0,0,0-3.007.681c-1.38.8-3.469,3.92-4.81,4.116-3.3.481-2.112-4.32-2.3-6.253-.195-1.961-1.256-3.082-2.743-4.2h3.173a5.248,5.248,0,0,0,2.746-1.542c1.683-1.927,1.35-4.289-.171-6.178-.9-1.112-3.183-2.241-2.224-3.764a49.021,49.021,0,0,1,4.19-4.213c1.7-1.268,3.021,1.407,4.289,2.407,2.623,2.065,6.822.638,7.206-2.745.177-1.558-.548-3.776.686-4.888Z" transform="translate(-129.017)" fill="#aea7de"/>
          <path id="Path_186" data-name="Path 186" d="M252.305,84.578a7.379,7.379,0,1,1-7.379-7.378,7.379,7.379,0,0,1,7.379,7.378" transform="translate(-183.12 -59.511)" fill="#5d4dd5"/>
        </g>
      </g>
    </g>
  </g>
</svg>
