<svg xmlns="http://www.w3.org/2000/svg" width="184.172" height="184.172" viewBox="0 0 184.172 184.172">
  <g id="Group_3112" data-name="Group 3112" transform="translate(-565 -1553)">
    <circle id="Ellipse_31" data-name="Ellipse 31" cx="92.086" cy="92.086" r="92.086" transform="translate(565 1553)" fill="#f2f1ff"/>
    <g id="using_orangescrum" data-name="using orangescrum" transform="translate(617 1608)">
      <path id="Path_191" data-name="Path 191" d="M0,18.863l9.431-4.716,4.716-9.431,4.716,9.431,9.431,4.716-9.431,4.716L14.147,33.01,9.431,23.578ZM28.294,9.431l6.292-3.139L37.725,0l3.139,6.292,6.292,3.139L40.864,12.57l-3.139,6.292L34.586,12.57Zm17.684,8.252L57.826,5.836,63.661,0,69.5,5.836l4.834,4.834L80.166,16.5,74.331,22.34,62.483,34.189l-5.836-5.836L68.495,16.5l-4.834-4.834L51.813,23.519l-5.836-5.836Zm5.895,38.9L61.3,51.872l4.716-9.431,4.716,9.431,9.431,4.716L70.735,61.3l-4.716,9.431L61.3,61.3Z" fill="#5d4dd5" opacity="0.4"/>
      <path id="Path_192" data-name="Path 192" d="M89.767,136.5,73.262,120,32,161.262l16.5,16.5Z" transform="translate(-27.284 -102.316)" fill="#5d4dd5"/>
    </g>
  </g>
</svg>
